<?xml version="1.0" standalone="no"?>
 <!DOCTYPE svg PUBLIC "-//W3C//DTD SVG 1.1//EN" 
 "http://www.w3.org/Graphics/SVG/1.1/DTD/svg11.dtd"> 
<svg xmlns="http://www.w3.org/2000/svg" version="1.1" 
    width="29.7002cm" height="21.0007cm" viewBox="0 0 116930 82680 ">
<title>SVG Picture created as raptor-B.SilkS.svg date 2017/03/12 21:31:53 </title>
  <desc>Picture generated by PCBNEW </desc>
<g style="fill:#000000; fill-opacity:1;stroke:#000000; stroke-opacity:1;
stroke-linecap:round; stroke-linejoin:round; "
 transform="translate(0 0) scale(1 1)">
</g>
<g style="fill:#000000; fill-opacity:0.0; 
stroke:#000000; stroke-width:-0.000393701; stroke-opacity:1; 
stroke-linecap:round; stroke-linejoin:round;">
</g>
<g style="fill:#000000; fill-opacity:0.0; 
stroke:#000000; stroke-width:39.3701; stroke-opacity:1; 
stroke-linecap:round; stroke-linejoin:round;">
</g>
<g style="fill:#000000; fill-opacity:0.0; 
stroke:#000000; stroke-width:59.0551; stroke-opacity:1; 
stroke-linecap:round; stroke-linejoin:round;">
<rect x="69685.9" y="65357.2" width="42519.7" height="12598.4" rx="0" />
</g>
<g style="fill:#000000; fill-opacity:0.0; 
stroke:#000000; stroke-width:39.3701; stroke-opacity:1; 
stroke-linecap:round; stroke-linejoin:round;">
</g>
<g style="fill:#000000; fill-opacity:0.0; 
stroke:#000000; stroke-width:59.0551; stroke-opacity:1; 
stroke-linecap:round; stroke-linejoin:round;">
<rect x="3937.01" y="3937.01" width="109056" height="74806" rx="0" />
</g>
<g style="fill:#000000; fill-opacity:0.0; 
stroke:#000000; stroke-width:39.3701; stroke-opacity:1; 
stroke-linecap:round; stroke-linejoin:round;">
</g>
<g style="fill:#000000; fill-opacity:0.0; 
stroke:#000000; stroke-width:59.0551; stroke-opacity:1; 
stroke-linecap:round; stroke-linejoin:round;">
<rect x="4724.41" y="4724.41" width="107481" height="73231.2" rx="0" />
</g>
<g style="fill:#000000; fill-opacity:0.0; 
stroke:#000000; stroke-width:39.3701; stroke-opacity:1; 
stroke-linecap:round; stroke-linejoin:round;">
</g>
<g style="fill:#000000; fill-opacity:0.0; 
stroke:#000000; stroke-width:59.0551; stroke-opacity:1; 
stroke-linecap:round; stroke-linejoin:round;">
<path d="M23622 4724
L23622 3937
" />
</g>
<g style="fill:#000000; fill-opacity:0.0; 
stroke:#000000; stroke-width:39.3701; stroke-opacity:1; 
stroke-linecap:round; stroke-linejoin:round;">
</g>
<g style="fill:#000000; fill-opacity:0.0; 
stroke:#000000; stroke-width:59.0551; stroke-opacity:1; 
stroke-linecap:round; stroke-linejoin:round;">
<path d="M43307 4724
L43307 3937
" />
</g>
<g style="fill:#000000; fill-opacity:0.0; 
stroke:#000000; stroke-width:39.3701; stroke-opacity:1; 
stroke-linecap:round; stroke-linejoin:round;">
</g>
<g style="fill:#000000; fill-opacity:0.0; 
stroke:#000000; stroke-width:59.0551; stroke-opacity:1; 
stroke-linecap:round; stroke-linejoin:round;">
<path d="M62992 4724
L62992 3937
" />
</g>
<g style="fill:#000000; fill-opacity:0.0; 
stroke:#000000; stroke-width:39.3701; stroke-opacity:1; 
stroke-linecap:round; stroke-linejoin:round;">
</g>
<g style="fill:#000000; fill-opacity:0.0; 
stroke:#000000; stroke-width:59.0551; stroke-opacity:1; 
stroke-linecap:round; stroke-linejoin:round;">
<path d="M82677 4724
L82677 3937
" />
</g>
<g style="fill:#000000; fill-opacity:0.0; 
stroke:#000000; stroke-width:39.3701; stroke-opacity:1; 
stroke-linecap:round; stroke-linejoin:round;">
</g>
<g style="fill:#000000; fill-opacity:0.0; 
stroke:#000000; stroke-width:59.0551; stroke-opacity:1; 
stroke-linecap:round; stroke-linejoin:round;">
<path d="M102362 4724
L102362 3937
" />
</g>
<g style="fill:#000000; fill-opacity:0.0; 
stroke:#000000; stroke-width:39.3701; stroke-opacity:1; 
stroke-linecap:round; stroke-linejoin:round;">
</g>
<g style="fill:#000000; fill-opacity:0.0; 
stroke:#000000; stroke-width:59.0551; stroke-opacity:1; 
stroke-linecap:round; stroke-linejoin:round;">
<path d="M14169 4562
L13877 4562
" />
<path d="M14023 4562
L14023 4050
L13974 4123
L13925 4172
L13877 4196
" />
</g>
<g style="fill:#000000; fill-opacity:0.0; 
stroke:#000000; stroke-width:39.3701; stroke-opacity:1; 
stroke-linecap:round; stroke-linejoin:round;">
</g>
<g style="fill:#000000; fill-opacity:0.0; 
stroke:#000000; stroke-width:59.0551; stroke-opacity:1; 
stroke-linecap:round; stroke-linejoin:round;">
<path d="M33562 4099
L33586 4074
L33635 4050
L33757 4050
L33805 4074
L33830 4099
L33854 4147
L33854 4196
L33830 4269
L33537 4562
L33854 4562
" />
</g>
<g style="fill:#000000; fill-opacity:0.0; 
stroke:#000000; stroke-width:39.3701; stroke-opacity:1; 
stroke-linecap:round; stroke-linejoin:round;">
</g>
<g style="fill:#000000; fill-opacity:0.0; 
stroke:#000000; stroke-width:59.0551; stroke-opacity:1; 
stroke-linecap:round; stroke-linejoin:round;">
<path d="M53222 4050
L53539 4050
L53368 4245
L53442 4245
L53490 4269
L53515 4294
L53539 4342
L53539 4464
L53515 4513
L53490 4537
L53442 4562
L53295 4562
L53247 4537
L53222 4513
" />
</g>
<g style="fill:#000000; fill-opacity:0.0; 
stroke:#000000; stroke-width:39.3701; stroke-opacity:1; 
stroke-linecap:round; stroke-linejoin:round;">
</g>
<g style="fill:#000000; fill-opacity:0.0; 
stroke:#000000; stroke-width:59.0551; stroke-opacity:1; 
stroke-linecap:round; stroke-linejoin:round;">
<path d="M73175 4221
L73175 4562
" />
<path d="M73053 4026
L72932 4391
L73248 4391
" />
</g>
<g style="fill:#000000; fill-opacity:0.0; 
stroke:#000000; stroke-width:39.3701; stroke-opacity:1; 
stroke-linecap:round; stroke-linejoin:round;">
</g>
<g style="fill:#000000; fill-opacity:0.0; 
stroke:#000000; stroke-width:59.0551; stroke-opacity:1; 
stroke-linecap:round; stroke-linejoin:round;">
<path d="M92885 4050
L92641 4050
L92617 4294
L92641 4269
L92690 4245
L92812 4245
L92860 4269
L92885 4294
L92909 4342
L92909 4464
L92885 4513
L92860 4537
L92812 4562
L92690 4562
L92641 4537
L92617 4513
" />
</g>
<g style="fill:#000000; fill-opacity:0.0; 
stroke:#000000; stroke-width:39.3701; stroke-opacity:1; 
stroke-linecap:round; stroke-linejoin:round;">
</g>
<g style="fill:#000000; fill-opacity:0.0; 
stroke:#000000; stroke-width:59.0551; stroke-opacity:1; 
stroke-linecap:round; stroke-linejoin:round;">
<path d="M112545 4050
L112448 4050
L112399 4074
L112375 4099
L112326 4172
L112302 4269
L112302 4464
L112326 4513
L112350 4537
L112399 4562
L112497 4562
L112545 4537
L112570 4513
L112594 4464
L112594 4342
L112570 4294
L112545 4269
L112497 4245
L112399 4245
L112350 4269
L112326 4294
L112302 4342
" />
</g>
<g style="fill:#000000; fill-opacity:0.0; 
stroke:#000000; stroke-width:39.3701; stroke-opacity:1; 
stroke-linecap:round; stroke-linejoin:round;">
</g>
<g style="fill:#000000; fill-opacity:0.0; 
stroke:#000000; stroke-width:59.0551; stroke-opacity:1; 
stroke-linecap:round; stroke-linejoin:round;">
<path d="M23622 77955
L23622 78742
" />
</g>
<g style="fill:#000000; fill-opacity:0.0; 
stroke:#000000; stroke-width:39.3701; stroke-opacity:1; 
stroke-linecap:round; stroke-linejoin:round;">
</g>
<g style="fill:#000000; fill-opacity:0.0; 
stroke:#000000; stroke-width:59.0551; stroke-opacity:1; 
stroke-linecap:round; stroke-linejoin:round;">
<path d="M43307 77955
L43307 78742
" />
</g>
<g style="fill:#000000; fill-opacity:0.0; 
stroke:#000000; stroke-width:39.3701; stroke-opacity:1; 
stroke-linecap:round; stroke-linejoin:round;">
</g>
<g style="fill:#000000; fill-opacity:0.0; 
stroke:#000000; stroke-width:59.0551; stroke-opacity:1; 
stroke-linecap:round; stroke-linejoin:round;">
<path d="M62992 77955
L62992 78742
" />
</g>
<g style="fill:#000000; fill-opacity:0.0; 
stroke:#000000; stroke-width:39.3701; stroke-opacity:1; 
stroke-linecap:round; stroke-linejoin:round;">
</g>
<g style="fill:#000000; fill-opacity:0.0; 
stroke:#000000; stroke-width:59.0551; stroke-opacity:1; 
stroke-linecap:round; stroke-linejoin:round;">
<path d="M82677 77955
L82677 78742
" />
</g>
<g style="fill:#000000; fill-opacity:0.0; 
stroke:#000000; stroke-width:39.3701; stroke-opacity:1; 
stroke-linecap:round; stroke-linejoin:round;">
</g>
<g style="fill:#000000; fill-opacity:0.0; 
stroke:#000000; stroke-width:59.0551; stroke-opacity:1; 
stroke-linecap:round; stroke-linejoin:round;">
<path d="M102362 77955
L102362 78742
" />
</g>
<g style="fill:#000000; fill-opacity:0.0; 
stroke:#000000; stroke-width:39.3701; stroke-opacity:1; 
stroke-linecap:round; stroke-linejoin:round;">
</g>
<g style="fill:#000000; fill-opacity:0.0; 
stroke:#000000; stroke-width:59.0551; stroke-opacity:1; 
stroke-linecap:round; stroke-linejoin:round;">
<path d="M14169 78580
L13877 78580
" />
<path d="M14023 78580
L14023 78069
L13974 78142
L13925 78190
L13877 78215
" />
</g>
<g style="fill:#000000; fill-opacity:0.0; 
stroke:#000000; stroke-width:39.3701; stroke-opacity:1; 
stroke-linecap:round; stroke-linejoin:round;">
</g>
<g style="fill:#000000; fill-opacity:0.0; 
stroke:#000000; stroke-width:59.0551; stroke-opacity:1; 
stroke-linecap:round; stroke-linejoin:round;">
<path d="M33562 78117
L33586 78093
L33635 78069
L33757 78069
L33805 78093
L33830 78117
L33854 78166
L33854 78215
L33830 78288
L33537 78580
L33854 78580
" />
</g>
<g style="fill:#000000; fill-opacity:0.0; 
stroke:#000000; stroke-width:39.3701; stroke-opacity:1; 
stroke-linecap:round; stroke-linejoin:round;">
</g>
<g style="fill:#000000; fill-opacity:0.0; 
stroke:#000000; stroke-width:59.0551; stroke-opacity:1; 
stroke-linecap:round; stroke-linejoin:round;">
<path d="M53222 78069
L53539 78069
L53368 78263
L53442 78263
L53490 78288
L53515 78312
L53539 78361
L53539 78483
L53515 78532
L53490 78556
L53442 78580
L53295 78580
L53247 78556
L53222 78532
" />
</g>
<g style="fill:#000000; fill-opacity:0.0; 
stroke:#000000; stroke-width:39.3701; stroke-opacity:1; 
stroke-linecap:round; stroke-linejoin:round;">
</g>
<g style="fill:#000000; fill-opacity:0.0; 
stroke:#000000; stroke-width:59.0551; stroke-opacity:1; 
stroke-linecap:round; stroke-linejoin:round;">
<path d="M73175 78239
L73175 78580
" />
<path d="M73053 78044
L72932 78410
L73248 78410
" />
</g>
<g style="fill:#000000; fill-opacity:0.0; 
stroke:#000000; stroke-width:39.3701; stroke-opacity:1; 
stroke-linecap:round; stroke-linejoin:round;">
</g>
<g style="fill:#000000; fill-opacity:0.0; 
stroke:#000000; stroke-width:59.0551; stroke-opacity:1; 
stroke-linecap:round; stroke-linejoin:round;">
<path d="M92885 78069
L92641 78069
L92617 78312
L92641 78288
L92690 78263
L92812 78263
L92860 78288
L92885 78312
L92909 78361
L92909 78483
L92885 78532
L92860 78556
L92812 78580
L92690 78580
L92641 78556
L92617 78532
" />
</g>
<g style="fill:#000000; fill-opacity:0.0; 
stroke:#000000; stroke-width:39.3701; stroke-opacity:1; 
stroke-linecap:round; stroke-linejoin:round;">
</g>
<g style="fill:#000000; fill-opacity:0.0; 
stroke:#000000; stroke-width:59.0551; stroke-opacity:1; 
stroke-linecap:round; stroke-linejoin:round;">
<path d="M112545 78069
L112448 78069
L112399 78093
L112375 78117
L112326 78190
L112302 78288
L112302 78483
L112326 78532
L112350 78556
L112399 78580
L112497 78580
L112545 78556
L112570 78532
L112594 78483
L112594 78361
L112570 78312
L112545 78288
L112497 78263
L112399 78263
L112350 78288
L112326 78312
L112302 78361
" />
</g>
<g style="fill:#000000; fill-opacity:0.0; 
stroke:#000000; stroke-width:39.3701; stroke-opacity:1; 
stroke-linecap:round; stroke-linejoin:round;">
</g>
<g style="fill:#000000; fill-opacity:0.0; 
stroke:#000000; stroke-width:59.0551; stroke-opacity:1; 
stroke-linecap:round; stroke-linejoin:round;">
<path d="M3937 23622
L4724 23622
" />
</g>
<g style="fill:#000000; fill-opacity:0.0; 
stroke:#000000; stroke-width:39.3701; stroke-opacity:1; 
stroke-linecap:round; stroke-linejoin:round;">
</g>
<g style="fill:#000000; fill-opacity:0.0; 
stroke:#000000; stroke-width:59.0551; stroke-opacity:1; 
stroke-linecap:round; stroke-linejoin:round;">
<path d="M3937 43307
L4724 43307
" />
</g>
<g style="fill:#000000; fill-opacity:0.0; 
stroke:#000000; stroke-width:39.3701; stroke-opacity:1; 
stroke-linecap:round; stroke-linejoin:round;">
</g>
<g style="fill:#000000; fill-opacity:0.0; 
stroke:#000000; stroke-width:59.0551; stroke-opacity:1; 
stroke-linecap:round; stroke-linejoin:round;">
<path d="M3937 62992
L4724 62992
" />
</g>
<g style="fill:#000000; fill-opacity:0.0; 
stroke:#000000; stroke-width:39.3701; stroke-opacity:1; 
stroke-linecap:round; stroke-linejoin:round;">
</g>
<g style="fill:#000000; fill-opacity:0.0; 
stroke:#000000; stroke-width:59.0551; stroke-opacity:1; 
stroke-linecap:round; stroke-linejoin:round;">
<path d="M4208 13864
L4452 13864
" />
<path d="M4160 14011
L4330 13499
L4501 14011
" />
</g>
<g style="fill:#000000; fill-opacity:0.0; 
stroke:#000000; stroke-width:39.3701; stroke-opacity:1; 
stroke-linecap:round; stroke-linejoin:round;">
</g>
<g style="fill:#000000; fill-opacity:0.0; 
stroke:#000000; stroke-width:59.0551; stroke-opacity:1; 
stroke-linecap:round; stroke-linejoin:round;">
<path d="M4367 33428
L4440 33452
L4464 33476
L4489 33525
L4489 33598
L4464 33647
L4440 33671
L4391 33696
L4196 33696
L4196 33184
L4367 33184
L4416 33208
L4440 33233
L4464 33281
L4464 33330
L4440 33379
L4416 33403
L4367 33428
L4196 33428
" />
</g>
<g style="fill:#000000; fill-opacity:0.0; 
stroke:#000000; stroke-width:39.3701; stroke-opacity:1; 
stroke-linecap:round; stroke-linejoin:round;">
</g>
<g style="fill:#000000; fill-opacity:0.0; 
stroke:#000000; stroke-width:59.0551; stroke-opacity:1; 
stroke-linecap:round; stroke-linejoin:round;">
<path d="M4489 53332
L4464 53356
L4391 53381
L4342 53381
L4269 53356
L4221 53308
L4196 53259
L4172 53161
L4172 53088
L4196 52991
L4221 52942
L4269 52893
L4342 52869
L4391 52869
L4464 52893
L4489 52918
" />
</g>
<g style="fill:#000000; fill-opacity:0.0; 
stroke:#000000; stroke-width:39.3701; stroke-opacity:1; 
stroke-linecap:round; stroke-linejoin:round;">
</g>
<g style="fill:#000000; fill-opacity:0.0; 
stroke:#000000; stroke-width:59.0551; stroke-opacity:1; 
stroke-linecap:round; stroke-linejoin:round;">
<path d="M4196 73066
L4196 72554
L4318 72554
L4391 72578
L4440 72627
L4464 72676
L4489 72773
L4489 72846
L4464 72944
L4440 72993
L4391 73041
L4318 73066
L4196 73066
" />
</g>
<g style="fill:#000000; fill-opacity:0.0; 
stroke:#000000; stroke-width:39.3701; stroke-opacity:1; 
stroke-linecap:round; stroke-linejoin:round;">
</g>
<g style="fill:#000000; fill-opacity:0.0; 
stroke:#000000; stroke-width:59.0551; stroke-opacity:1; 
stroke-linecap:round; stroke-linejoin:round;">
<path d="M112992 23622
L112205 23622
" />
</g>
<g style="fill:#000000; fill-opacity:0.0; 
stroke:#000000; stroke-width:39.3701; stroke-opacity:1; 
stroke-linecap:round; stroke-linejoin:round;">
</g>
<g style="fill:#000000; fill-opacity:0.0; 
stroke:#000000; stroke-width:59.0551; stroke-opacity:1; 
stroke-linecap:round; stroke-linejoin:round;">
<path d="M112992 43307
L112205 43307
" />
</g>
<g style="fill:#000000; fill-opacity:0.0; 
stroke:#000000; stroke-width:39.3701; stroke-opacity:1; 
stroke-linecap:round; stroke-linejoin:round;">
</g>
<g style="fill:#000000; fill-opacity:0.0; 
stroke:#000000; stroke-width:59.0551; stroke-opacity:1; 
stroke-linecap:round; stroke-linejoin:round;">
<path d="M112992 62992
L112205 62992
" />
</g>
<g style="fill:#000000; fill-opacity:0.0; 
stroke:#000000; stroke-width:39.3701; stroke-opacity:1; 
stroke-linecap:round; stroke-linejoin:round;">
</g>
<g style="fill:#000000; fill-opacity:0.0; 
stroke:#000000; stroke-width:59.0551; stroke-opacity:1; 
stroke-linecap:round; stroke-linejoin:round;">
<path d="M112477 13864
L112721 13864
" />
<path d="M112428 14011
L112599 13499
L112769 14011
" />
</g>
<g style="fill:#000000; fill-opacity:0.0; 
stroke:#000000; stroke-width:39.3701; stroke-opacity:1; 
stroke-linecap:round; stroke-linejoin:round;">
</g>
<g style="fill:#000000; fill-opacity:0.0; 
stroke:#000000; stroke-width:59.0551; stroke-opacity:1; 
stroke-linecap:round; stroke-linejoin:round;">
<path d="M112635 33428
L112708 33452
L112733 33476
L112757 33525
L112757 33598
L112733 33647
L112708 33671
L112660 33696
L112465 33696
L112465 33184
L112635 33184
L112684 33208
L112708 33233
L112733 33281
L112733 33330
L112708 33379
L112684 33403
L112635 33428
L112465 33428
" />
</g>
<g style="fill:#000000; fill-opacity:0.0; 
stroke:#000000; stroke-width:39.3701; stroke-opacity:1; 
stroke-linecap:round; stroke-linejoin:round;">
</g>
<g style="fill:#000000; fill-opacity:0.0; 
stroke:#000000; stroke-width:59.0551; stroke-opacity:1; 
stroke-linecap:round; stroke-linejoin:round;">
<path d="M112757 53332
L112733 53356
L112660 53381
L112611 53381
L112538 53356
L112489 53308
L112465 53259
L112440 53161
L112440 53088
L112465 52991
L112489 52942
L112538 52893
L112611 52869
L112660 52869
L112733 52893
L112757 52918
" />
</g>
<g style="fill:#000000; fill-opacity:0.0; 
stroke:#000000; stroke-width:39.3701; stroke-opacity:1; 
stroke-linecap:round; stroke-linejoin:round;">
</g>
<g style="fill:#000000; fill-opacity:0.0; 
stroke:#000000; stroke-width:59.0551; stroke-opacity:1; 
stroke-linecap:round; stroke-linejoin:round;">
<path d="M112465 73066
L112465 72554
L112587 72554
L112660 72578
L112708 72627
L112733 72676
L112757 72773
L112757 72846
L112733 72944
L112708 72993
L112660 73041
L112587 73066
L112465 73066
" />
</g>
<g style="fill:#000000; fill-opacity:0.0; 
stroke:#000000; stroke-width:39.3701; stroke-opacity:1; 
stroke-linecap:round; stroke-linejoin:round;">
</g>
<g style="fill:#000000; fill-opacity:0.0; 
stroke:#000000; stroke-width:59.0551; stroke-opacity:1; 
stroke-linecap:round; stroke-linejoin:round;">
<path d="M78881 76293
L78881 75703
L79022 75703
L79106 75731
L79162 75787
L79190 75843
L79219 75956
L79219 76040
L79190 76153
L79162 76209
L79106 76265
L79022 76293
L78881 76293
" />
<path d="M79725 76293
L79725 75984
L79697 75928
L79640 75899
L79528 75899
L79472 75928
" />
<path d="M79725 76265
L79669 76293
L79528 76293
L79472 76265
L79444 76209
L79444 76153
L79472 76096
L79528 76068
L79669 76068
L79725 76040
" />
<path d="M79922 75899
L80147 75899
" />
<path d="M80006 75703
L80006 76209
L80034 76265
L80090 76293
L80147 76293
" />
<path d="M80568 76265
L80512 76293
L80400 76293
L80343 76265
L80315 76209
L80315 75984
L80343 75928
L80400 75899
L80512 75899
L80568 75928
L80597 75984
L80597 76040
L80315 76096
" />
<path d="M80850 76237
L80878 76265
L80850 76293
L80822 76265
L80850 76237
L80850 76293
" />
<path d="M80850 75928
L80878 75956
L80850 75984
L80822 75956
L80850 75928
L80850 75984
" />
<path d="M81553 75759
L81581 75731
L81637 75703
L81778 75703
L81834 75731
L81862 75759
L81890 75815
L81890 75871
L81862 75956
L81525 76293
L81890 76293
" />
<path d="M82256 75703
L82312 75703
L82368 75731
L82396 75759
L82424 75815
L82453 75928
L82453 76068
L82424 76181
L82396 76237
L82368 76265
L82312 76293
L82256 76293
L82199 76265
L82171 76237
L82143 76181
L82115 76068
L82115 75928
L82143 75815
L82171 75759
L82199 75731
L82256 75703
" />
<path d="M83015 76293
L82678 76293
" />
<path d="M82846 76293
L82846 75703
L82790 75787
L82734 75843
L82678 75871
" />
<path d="M83212 75703
L83606 75703
L83352 76293
" />
<path d="M83831 76068
L84280 76068
" />
<path d="M84674 75703
L84730 75703
L84787 75731
L84815 75759
L84843 75815
L84871 75928
L84871 76068
L84843 76181
L84815 76237
L84787 76265
L84730 76293
L84674 76293
L84618 76265
L84590 76237
L84562 76181
L84534 76068
L84534 75928
L84562 75815
L84590 75759
L84618 75731
L84674 75703
" />
<path d="M85068 75703
L85433 75703
L85237 75928
L85321 75928
L85377 75956
L85405 75984
L85433 76040
L85433 76181
L85405 76237
L85377 76265
L85321 76293
L85152 76293
L85096 76265
L85068 76237
" />
<path d="M85687 76068
L86136 76068
" />
<path d="M86727 76293
L86390 76293
" />
<path d="M86558 76293
L86558 75703
L86502 75787
L86446 75843
L86390 75871
" />
<path d="M87289 76293
L86952 76293
" />
<path d="M87121 76293
L87121 75703
L87064 75787
L87008 75843
L86952 75871
" />
</g>
<g style="fill:#000000; fill-opacity:0.0; 
stroke:#000000; stroke-width:39.3701; stroke-opacity:1; 
stroke-linecap:round; stroke-linejoin:round;">
</g>
<g style="fill:#000000; fill-opacity:0.0; 
stroke:#000000; stroke-width:59.0551; stroke-opacity:1; 
stroke-linecap:round; stroke-linejoin:round;">
<path d="M69685 76577
L112205 76577
" />
</g>
<g style="fill:#000000; fill-opacity:0.0; 
stroke:#000000; stroke-width:39.3701; stroke-opacity:1; 
stroke-linecap:round; stroke-linejoin:round;">
</g>
<g style="fill:#000000; fill-opacity:0.0; 
stroke:#000000; stroke-width:59.0551; stroke-opacity:1; 
stroke-linecap:round; stroke-linejoin:round;">
<path d="M70220 77395
L70220 76805
" />
<path d="M70557 77395
L70304 77058
" />
<path d="M70557 76805
L70220 77142
" />
<path d="M70810 77395
L70810 77002
" />
<path d="M70810 76805
L70782 76833
L70810 76861
L70838 76833
L70810 76805
L70810 76861
" />
<path d="M71429 77339
L71401 77367
L71316 77395
L71260 77395
L71176 77367
L71120 77311
L71091 77255
L71063 77142
L71063 77058
L71091 76946
L71120 76889
L71176 76833
L71260 76805
L71316 76805
L71401 76833
L71429 76861
" />
<path d="M71935 77395
L71935 77086
L71907 77030
L71851 77002
L71738 77002
L71682 77030
" />
<path d="M71935 77367
L71879 77395
L71738 77395
L71682 77367
L71654 77311
L71654 77255
L71682 77199
L71738 77171
L71879 77171
L71935 77142
" />
<path d="M72469 77395
L72469 76805
" />
<path d="M72469 77367
L72413 77395
L72301 77395
L72244 77367
L72216 77339
L72188 77283
L72188 77114
L72216 77058
L72244 77030
L72301 77002
L72413 77002
L72469 77030
" />
<path d="M73201 77086
L73397 77086
" />
<path d="M73482 77395
L73201 77395
L73201 76805
L73482 76805
" />
<path d="M73735 77339
L73763 77367
L73735 77395
L73707 77367
L73735 77339
L73735 77395
" />
<path d="M74016 77395
L74016 76805
L74157 76805
L74241 76833
L74297 76889
L74325 76946
L74354 77058
L74354 77142
L74325 77255
L74297 77311
L74241 77367
L74157 77395
L74016 77395
" />
<path d="M74607 77339
L74635 77367
L74607 77395
L74579 77367
L74607 77339
L74607 77395
" />
<path d="M74860 77227
L75141 77227
" />
<path d="M74804 77395
L75000 76805
L75197 77395
" />
<path d="M75394 77339
L75422 77367
L75394 77395
L75366 77367
L75394 77339
L75394 77395
" />
<path d="M76575 77395
L76575 76805
" />
<path d="M76631 77171
L76800 77395
" />
<path d="M76800 77002
L76575 77227
" />
<path d="M77053 77395
L77053 77002
" />
<path d="M77053 76805
L77025 76833
L77053 76861
L77081 76833
L77053 76805
L77053 76861
" />
<path d="M77588 77367
L77531 77395
L77419 77395
L77363 77367
L77334 77339
L77306 77283
L77306 77114
L77334 77058
L77363 77030
L77419 77002
L77531 77002
L77588 77030
" />
<path d="M78094 77395
L78094 77086
L78066 77030
L78009 77002
L77897 77002
L77841 77030
" />
<path d="M78094 77367
L78037 77395
L77897 77395
L77841 77367
L77813 77311
L77813 77255
L77841 77199
L77897 77171
L78037 77171
L78094 77142
" />
<path d="M78628 77395
L78628 76805
" />
<path d="M78628 77367
L78572 77395
L78459 77395
L78403 77367
L78375 77339
L78347 77283
L78347 77114
L78375 77058
L78403 77030
L78459 77002
L78572 77002
L78628 77030
" />
<path d="M79612 77002
L79612 77395
" />
<path d="M79472 76777
L79331 77199
L79697 77199
" />
<path d="M79922 77339
L79950 77367
L79922 77395
L79894 77367
L79922 77339
L79922 77395
" />
<path d="M80315 76805
L80372 76805
L80428 76833
L80456 76861
L80484 76917
L80512 77030
L80512 77171
L80484 77283
L80456 77339
L80428 77367
L80372 77395
L80315 77395
L80259 77367
L80231 77339
L80203 77283
L80175 77171
L80175 77030
L80203 76917
L80231 76861
L80259 76833
L80315 76805
" />
<path d="M80765 77339
L80793 77367
L80765 77395
L80737 77367
L80765 77339
L80765 77395
" />
<path d="M81328 76805
L81046 76805
L81018 77086
L81046 77058
L81103 77030
L81243 77030
L81300 77058
L81328 77086
L81356 77142
L81356 77283
L81328 77339
L81300 77367
L81243 77395
L81103 77395
L81046 77367
L81018 77339
" />
<path d="M81609 77171
L82059 77171
" />
<path d="M81834 77395
L81834 76946
" />
<path d="M82593 77395
L82593 76805
" />
<path d="M82593 77367
L82537 77395
L82424 77395
L82368 77367
L82340 77339
L82312 77283
L82312 77114
L82340 77058
L82368 77030
L82424 77002
L82537 77002
L82593 77030
" />
<path d="M82790 77002
L83015 77002
" />
<path d="M82874 77395
L82874 76889
L82903 76833
L82959 76805
L83015 76805
" />
<path d="M83184 77367
L83240 77395
L83352 77395
L83409 77367
L83437 77311
L83437 77283
L83409 77227
L83352 77199
L83268 77199
L83212 77171
L83184 77114
L83184 77086
L83212 77030
L83268 77002
L83352 77002
L83409 77030
" />
<path d="M83943 77002
L83943 77480
L83915 77536
L83887 77564
L83831 77592
L83746 77592
L83690 77564
" />
<path d="M83943 77367
L83887 77395
L83774 77395
L83718 77367
L83690 77339
L83662 77283
L83662 77114
L83690 77058
L83718 77030
L83774 77002
L83887 77002
L83943 77030
" />
<path d="M84534 77395
L84196 77395
" />
<path d="M84365 77395
L84365 76805
L84309 76889
L84252 76946
L84196 76974
" />
<path d="M84787 77171
L85237 77171
" />
<path d="M85771 77002
L85771 77395
" />
<path d="M85630 76777
L85490 77199
L85855 77199
" />
<path d="M86080 77395
L86080 76805
" />
<path d="M86080 77030
L86136 77002
L86249 77002
L86305 77030
L86333 77058
L86361 77114
L86361 77283
L86333 77339
L86305 77367
L86249 77395
L86136 77395
L86080 77367
" />
<path d="M86615 77002
L86615 77592
" />
<path d="M86615 77030
L86671 77002
L86783 77002
L86840 77030
L86868 77058
L86896 77114
L86896 77283
L86868 77339
L86840 77367
L86783 77395
L86671 77395
L86615 77367
" />
<path d="M87233 77395
L87177 77367
L87149 77339
L87121 77283
L87121 77114
L87149 77058
L87177 77030
L87233 77002
L87318 77002
L87374 77030
L87402 77058
L87430 77114
L87430 77283
L87402 77339
L87374 77367
L87318 77395
L87233 77395
" />
<path d="M87768 77058
L87711 77030
L87683 77002
L87655 76946
L87655 76917
L87683 76861
L87711 76833
L87768 76805
L87880 76805
L87936 76833
L87964 76861
L87992 76917
L87992 76946
L87964 77002
L87936 77030
L87880 77058
L87768 77058
L87711 77086
L87683 77114
L87655 77171
L87655 77283
L87683 77339
L87711 77367
L87768 77395
L87880 77395
L87936 77367
L87964 77339
L87992 77283
L87992 77171
L87964 77114
L87936 77086
L87880 77058
" />
<path d="M88246 77171
L88696 77171
" />
<path d="M88471 77395
L88471 76946
" />
<path d="M89286 77395
L88949 77395
" />
<path d="M89117 77395
L89117 76805
L89061 76889
L89005 76946
L88949 76974
" />
<path d="M85940 76703
L89399 76703
" />
</g>
<g style="fill:#000000; fill-opacity:0.0; 
stroke:#000000; stroke-width:39.3701; stroke-opacity:1; 
stroke-linecap:round; stroke-linejoin:round;">
</g>
<g style="fill:#000000; fill-opacity:0.0; 
stroke:#000000; stroke-width:59.0551; stroke-opacity:1; 
stroke-linecap:round; stroke-linejoin:round;">
<path d="M69685 75396
L112205 75396
" />
</g>
<g style="fill:#000000; fill-opacity:0.0; 
stroke:#000000; stroke-width:39.3701; stroke-opacity:1; 
stroke-linecap:round; stroke-linejoin:round;">
</g>
<g style="fill:#000000; fill-opacity:0.0; 
stroke:#000000; stroke-width:118.11; stroke-opacity:1; 
stroke-linecap:round; stroke-linejoin:round;">
<path d="M104022 76293
L103825 76012
" />
<path d="M103684 76293
L103684 75703
L103909 75703
L103965 75731
L103994 75759
L104022 75815
L104022 75899
L103994 75956
L103965 75984
L103909 76012
L103684 76012
" />
<path d="M104500 76265
L104444 76293
L104331 76293
L104275 76265
L104247 76209
L104247 75984
L104275 75928
L104331 75899
L104444 75899
L104500 75928
L104528 75984
L104528 76040
L104247 76096
" />
<path d="M104725 75899
L104865 76293
L105006 75899
" />
<path d="M105231 76237
L105259 76265
L105231 76293
L105203 76265
L105231 76237
L105231 76293
" />
<path d="M105231 75928
L105259 75956
L105231 75984
L105203 75956
L105231 75928
L105231 75984
" />
<path d="M105906 75899
L106046 76293
L106187 75899
" />
<path d="M107171 76293
L106834 76293
" />
<path d="M107003 76293
L107003 75703
L106946 75787
L106890 75843
L106834 75871
" />
<path d="M107424 76237
L107453 76265
L107424 76293
L107396 76265
L107424 76237
L107424 76293
" />
<path d="M107818 75703
L107874 75703
L107931 75731
L107959 75759
L107987 75815
L108015 75928
L108015 76068
L107987 76181
L107959 76237
L107931 76265
L107874 76293
L107818 76293
L107762 76265
L107734 76237
L107706 76181
L107678 76068
L107678 75928
L107706 75815
L107734 75759
L107762 75731
L107818 75703
" />
</g>
<g style="fill:#000000; fill-opacity:0.0; 
stroke:#000000; stroke-width:39.3701; stroke-opacity:1; 
stroke-linecap:round; stroke-linejoin:round;">
</g>
<g style="fill:#000000; fill-opacity:0.0; 
stroke:#000000; stroke-width:59.0551; stroke-opacity:1; 
stroke-linecap:round; stroke-linejoin:round;">
<path d="M70192 76265
L70276 76293
L70417 76293
L70473 76265
L70501 76237
L70529 76181
L70529 76124
L70501 76068
L70473 76040
L70417 76012
L70304 75984
L70248 75956
L70220 75928
L70192 75871
L70192 75815
L70220 75759
L70248 75731
L70304 75703
L70445 75703
L70529 75731
" />
<path d="M70782 76293
L70782 75899
" />
<path d="M70782 75703
L70754 75731
L70782 75759
L70810 75731
L70782 75703
L70782 75759
" />
<path d="M71007 75899
L71316 75899
L71007 76293
L71316 76293
" />
<path d="M71766 76265
L71710 76293
L71598 76293
L71541 76265
L71513 76209
L71513 75984
L71541 75928
L71598 75899
L71710 75899
L71766 75928
L71795 75984
L71795 76040
L71513 76096
" />
<path d="M72048 76237
L72076 76265
L72048 76293
L72019 76265
L72048 76237
L72048 76293
" />
<path d="M72048 75928
L72076 75956
L72048 75984
L72019 75956
L72048 75928
L72048 75984
" />
<path d="M72751 76124
L73032 76124
" />
<path d="M72694 76293
L72891 75703
L73088 76293
" />
<path d="M73538 75899
L73538 76293
" />
<path d="M73397 75674
L73257 76096
L73622 76096
" />
</g>
<g style="fill:#000000; fill-opacity:0.0; 
stroke:#000000; stroke-width:39.3701; stroke-opacity:1; 
stroke-linecap:round; stroke-linejoin:round;">
</g>
<g style="fill:#000000; fill-opacity:0.0; 
stroke:#000000; stroke-width:59.0551; stroke-opacity:1; 
stroke-linecap:round; stroke-linejoin:round;">
<path d="M103684 77395
L103684 76805
" />
<path d="M104219 77395
L104219 76805
" />
<path d="M104219 77367
L104162 77395
L104050 77395
L103994 77367
L103965 77339
L103937 77283
L103937 77114
L103965 77058
L103994 77030
L104050 77002
L104162 77002
L104219 77030
" />
<path d="M104500 77339
L104528 77367
L104500 77395
L104472 77367
L104500 77339
L104500 77395
" />
<path d="M104500 77030
L104528 77058
L104500 77086
L104472 77058
L104500 77030
L104500 77086
" />
<path d="M105540 77395
L105203 77395
" />
<path d="M105372 77395
L105372 76805
L105315 76889
L105259 76946
L105203 76974
" />
<path d="M106215 76777
L105709 77536
" />
<path d="M106721 77395
L106384 77395
" />
<path d="M106553 77395
L106553 76805
L106496 76889
L106440 76946
L106384 76974
" />
</g>
<g style="fill:#000000; fill-opacity:0.0; 
stroke:#000000; stroke-width:39.3701; stroke-opacity:1; 
stroke-linecap:round; stroke-linejoin:round;">
</g>
<g style="fill:#000000; fill-opacity:0.0; 
stroke:#000000; stroke-width:59.0551; stroke-opacity:1; 
stroke-linecap:round; stroke-linejoin:round;">
<path d="M69685 73821
L112205 73821
" />
</g>
<g style="fill:#000000; fill-opacity:0.0; 
stroke:#000000; stroke-width:39.3701; stroke-opacity:1; 
stroke-linecap:round; stroke-linejoin:round;">
</g>
<g style="fill:#000000; fill-opacity:0.0; 
stroke:#000000; stroke-width:157.48; stroke-opacity:1; 
stroke-linecap:round; stroke-linejoin:round;">
<path d="M70257 74099
L70707 74099
" />
<path d="M70384 74886
L70482 74099
" />
<path d="M70871 74886
L70937 74361
" />
<path d="M70970 74099
L70927 74136
L70960 74174
L71002 74136
L70970 74099
L70960 74174
" />
<path d="M71199 74361
L71499 74361
" />
<path d="M71345 74099
L71260 74774
L71288 74849
L71359 74886
L71434 74886
" />
<path d="M71809 74886
L71738 74849
L71710 74774
L71795 74099
" />
<path d="M72413 74849
L72334 74886
L72184 74886
L72113 74849
L72085 74774
L72123 74474
L72169 74399
L72249 74361
L72399 74361
L72469 74399
L72498 74474
L72488 74549
L72104 74624
" />
<path d="M72793 74811
L72826 74849
L72783 74886
L72751 74849
L72793 74811
L72783 74886
" />
<path d="M72844 74399
L72877 74436
L72835 74474
L72802 74436
L72844 74399
L72835 74474
" />
<path d="M74208 74886
L73993 74511
" />
<path d="M73758 74886
L73857 74099
L74157 74099
L74227 74136
L74260 74174
L74288 74249
L74274 74361
L74227 74436
L74185 74474
L74105 74511
L73805 74511
" />
<path d="M74883 74886
L74935 74474
L74907 74399
L74836 74361
L74686 74361
L74607 74399
" />
<path d="M74888 74849
L74808 74886
L74621 74886
L74550 74849
L74522 74774
L74532 74699
L74579 74624
L74658 74586
L74846 74586
L74925 74549
" />
<path d="M75324 74361
L75225 75149
" />
<path d="M75319 74399
L75399 74361
L75549 74361
L75619 74399
L75652 74436
L75680 74511
L75652 74736
L75605 74811
L75563 74849
L75483 74886
L75333 74886
L75263 74849
" />
<path d="M75924 74361
L76224 74361
" />
<path d="M76069 74099
L75985 74774
L76013 74849
L76083 74886
L76158 74886
" />
<path d="M76533 74886
L76463 74849
L76430 74811
L76402 74736
L76430 74511
L76477 74436
L76519 74399
L76599 74361
L76711 74361
L76781 74399
L76814 74436
L76842 74511
L76814 74736
L76767 74811
L76725 74849
L76645 74886
L76533 74886
" />
<path d="M77133 74886
L77199 74361
" />
<path d="M77180 74511
L77227 74436
L77269 74399
L77349 74361
L77424 74361
" />
</g>
<g style="fill:#000000; fill-opacity:0.0; 
stroke:#000000; stroke-width:39.3701; stroke-opacity:1; 
stroke-linecap:round; stroke-linejoin:round;">
</g>
<g style="fill:#000000; fill-opacity:0.0; 
stroke:#000000; stroke-width:59.0551; stroke-opacity:1; 
stroke-linecap:round; stroke-linejoin:round;">
<path d="M70417 73070
L70220 73070
" />
<path d="M70220 73380
L70220 72789
L70501 72789
" />
<path d="M70726 73380
L70726 72986
" />
<path d="M70726 72789
L70698 72817
L70726 72845
L70754 72817
L70726 72789
L70726 72845
" />
<path d="M71091 73380
L71035 73352
L71007 73295
L71007 72789
" />
<path d="M71541 73352
L71485 73380
L71373 73380
L71316 73352
L71288 73295
L71288 73070
L71316 73014
L71373 72986
L71485 72986
L71541 73014
L71570 73070
L71570 73127
L71288 73183
" />
<path d="M71823 73323
L71851 73352
L71823 73380
L71795 73352
L71823 73323
L71823 73380
" />
<path d="M71823 73014
L71851 73042
L71823 73070
L71795 73042
L71823 73014
L71823 73070
" />
<path d="M72554 73380
L72554 72986
" />
<path d="M72554 73099
L72582 73042
L72610 73014
L72666 72986
L72723 72986
" />
<path d="M73172 73380
L73172 73070
L73144 73014
L73088 72986
L72976 72986
L72919 73014
" />
<path d="M73172 73352
L73116 73380
L72976 73380
L72919 73352
L72891 73295
L72891 73239
L72919 73183
L72976 73155
L73116 73155
L73172 73127
" />
<path d="M73454 72986
L73454 73577
" />
<path d="M73454 73014
L73510 72986
L73622 72986
L73679 73014
L73707 73042
L73735 73099
L73735 73267
L73707 73323
L73679 73352
L73622 73380
L73510 73380
L73454 73352
" />
<path d="M73904 72986
L74129 72986
" />
<path d="M73988 72789
L73988 73295
L74016 73352
L74072 73380
L74129 73380
" />
<path d="M74410 73380
L74354 73352
L74325 73323
L74297 73267
L74297 73099
L74325 73042
L74354 73014
L74410 72986
L74494 72986
L74550 73014
L74579 73042
L74607 73099
L74607 73267
L74579 73323
L74550 73352
L74494 73380
L74410 73380
" />
<path d="M74860 73380
L74860 72986
" />
<path d="M74860 73099
L74888 73042
L74916 73014
L74972 72986
L75028 72986
" />
<path d="M75225 73323
L75253 73352
L75225 73380
L75197 73352
L75225 73323
L75225 73380
" />
<path d="M75507 73380
L75507 72789
" />
<path d="M75563 73155
L75732 73380
" />
<path d="M75732 72986
L75507 73211
" />
<path d="M75985 73380
L75985 72986
" />
<path d="M75985 72789
L75956 72817
L75985 72845
L76013 72817
L75985 72789
L75985 72845
" />
<path d="M76519 73352
L76463 73380
L76350 73380
L76294 73352
L76266 73323
L76238 73267
L76238 73099
L76266 73042
L76294 73014
L76350 72986
L76463 72986
L76519 73014
" />
<path d="M77025 73380
L77025 73070
L76997 73014
L76941 72986
L76828 72986
L76772 73014
" />
<path d="M77025 73352
L76969 73380
L76828 73380
L76772 73352
L76744 73295
L76744 73239
L76772 73183
L76828 73155
L76969 73155
L77025 73127
" />
<path d="M77559 73380
L77559 72789
" />
<path d="M77559 73352
L77503 73380
L77391 73380
L77334 73352
L77306 73323
L77278 73267
L77278 73099
L77306 73042
L77334 73014
L77391 72986
L77503 72986
L77559 73014
" />
<path d="M77700 73436
L78150 73436
" />
<path d="M78291 72986
L78291 73577
" />
<path d="M78291 73014
L78347 72986
L78459 72986
L78516 73014
L78544 73042
L78572 73099
L78572 73267
L78544 73323
L78516 73352
L78459 73380
L78347 73380
L78291 73352
" />
<path d="M79078 73352
L79022 73380
L78909 73380
L78853 73352
L78825 73323
L78797 73267
L78797 73099
L78825 73042
L78853 73014
L78909 72986
L79022 72986
L79078 73014
" />
<path d="M79331 73380
L79331 72789
" />
<path d="M79331 73014
L79387 72986
L79500 72986
L79556 73014
L79584 73042
L79612 73099
L79612 73267
L79584 73323
L79556 73352
L79500 73380
L79387 73380
L79331 73352
" />
</g>
<g style="fill:#000000; fill-opacity:0.0; 
stroke:#000000; stroke-width:39.3701; stroke-opacity:1; 
stroke-linecap:round; stroke-linejoin:round;">
</g>
<g style="fill:#000000; fill-opacity:0.0; 
stroke:#000000; stroke-width:59.0551; stroke-opacity:1; 
stroke-linecap:round; stroke-linejoin:round;">
<path d="M69685 71459
L112205 71459
" />
</g>
<g style="fill:#000000; fill-opacity:0.0; 
stroke:#000000; stroke-width:39.3701; stroke-opacity:1; 
stroke-linecap:round; stroke-linejoin:round;">
</g>
<g style="fill:#000000; fill-opacity:0.0; 
stroke:#000000; stroke-width:59.0551; stroke-opacity:1; 
stroke-linecap:round; stroke-linejoin:round;">
<path d="M70192 72289
L70276 72317
L70417 72317
L70473 72289
L70501 72260
L70529 72204
L70529 72148
L70501 72092
L70473 72064
L70417 72036
L70304 72007
L70248 71979
L70220 71951
L70192 71895
L70192 71839
L70220 71782
L70248 71754
L70304 71726
L70445 71726
L70529 71754
" />
<path d="M70782 72317
L70782 71726
" />
<path d="M71035 72317
L71035 72007
L71007 71951
L70951 71923
L70867 71923
L70810 71951
L70782 71979
" />
<path d="M71541 72289
L71485 72317
L71373 72317
L71316 72289
L71288 72232
L71288 72007
L71316 71951
L71373 71923
L71485 71923
L71541 71951
L71570 72007
L71570 72064
L71288 72120
" />
<path d="M72048 72289
L71991 72317
L71879 72317
L71823 72289
L71795 72232
L71795 72007
L71823 71951
L71879 71923
L71991 71923
L72048 71951
L72076 72007
L72076 72064
L71795 72120
" />
<path d="M72244 71923
L72469 71923
" />
<path d="M72329 71726
L72329 72232
L72357 72289
L72413 72317
L72469 72317
" />
<path d="M72666 72260
L72694 72289
L72666 72317
L72638 72289
L72666 72260
L72666 72317
" />
<path d="M72666 71951
L72694 71979
L72666 72007
L72638 71979
L72666 71951
L72666 72007
" />
</g>
<g style="fill:#000000; fill-opacity:0.0; 
stroke:#000000; stroke-width:39.3701; stroke-opacity:1; 
stroke-linecap:round; stroke-linejoin:round;">
</g>
<g style="fill:#000000; fill-opacity:0.0; 
stroke:#000000; stroke-width:118.11; stroke-opacity:1; 
stroke-linecap:round; stroke-linejoin:round;">
<path d="M70417 70826
L70501 70854
L70529 70883
L70557 70939
L70557 71023
L70529 71079
L70501 71108
L70445 71136
L70220 71136
L70220 70545
L70417 70545
L70473 70573
L70501 70601
L70529 70658
L70529 70714
L70501 70770
L70473 70798
L70417 70826
L70220 70826
" />
<path d="M70810 71136
L70810 70742
" />
<path d="M70810 70854
L70838 70798
L70867 70770
L70923 70742
L70979 70742
" />
<path d="M71176 71136
L71176 70742
" />
<path d="M71176 70545
L71148 70573
L71176 70601
L71204 70573
L71176 70545
L71176 70601
" />
<path d="M71710 71108
L71654 71136
L71541 71136
L71485 71108
L71457 71079
L71429 71023
L71429 70854
L71457 70798
L71485 70770
L71541 70742
L71654 70742
L71710 70770
" />
<path d="M72048 71136
L71991 71108
L71963 71079
L71935 71023
L71935 70854
L71963 70798
L71991 70770
L72048 70742
L72132 70742
L72188 70770
L72216 70798
L72244 70854
L72244 71023
L72216 71079
L72188 71108
L72132 71136
L72048 71136
" />
<path d="M72779 71136
L72498 71136
L72498 70545
" />
<path d="M73229 71136
L73229 70826
L73201 70770
L73144 70742
L73032 70742
L72976 70770
" />
<path d="M73229 71108
L73172 71136
L73032 71136
L72976 71108
L72947 71051
L72947 70995
L72976 70939
L73032 70911
L73172 70911
L73229 70883
" />
<path d="M73510 71136
L73510 70545
" />
<path d="M73510 70770
L73566 70742
L73679 70742
L73735 70770
L73763 70798
L73791 70854
L73791 71023
L73763 71079
L73735 71108
L73679 71136
L73566 71136
L73510 71108
" />
<path d="M74016 71108
L74072 71136
L74185 71136
L74241 71108
L74269 71051
L74269 71023
L74241 70967
L74185 70939
L74100 70939
L74044 70911
L74016 70854
L74016 70826
L74044 70770
L74100 70742
L74185 70742
L74241 70770
" />
</g>
<g style="fill:#000000; fill-opacity:0.0; 
stroke:#000000; stroke-width:39.3701; stroke-opacity:1; 
stroke-linecap:round; stroke-linejoin:round;">
</g>
<g style="fill:#000000; fill-opacity:0.0; 
stroke:#000000; stroke-width:59.0551; stroke-opacity:1; 
stroke-linecap:round; stroke-linejoin:round;">
<path d="M70557 69955
L70360 69673
" />
<path d="M70220 69955
L70220 69364
L70445 69364
L70501 69392
L70529 69420
L70557 69476
L70557 69561
L70529 69617
L70501 69645
L70445 69673
L70220 69673
" />
<path d="M71035 69926
L70979 69955
L70867 69955
L70810 69926
L70782 69870
L70782 69645
L70810 69589
L70867 69561
L70979 69561
L71035 69589
L71063 69645
L71063 69701
L70782 69758
" />
<path d="M71260 69561
L71401 69955
L71541 69561
" />
<path d="M71766 69955
L71766 69561
" />
<path d="M71766 69364
L71738 69392
L71766 69420
L71795 69392
L71766 69364
L71766 69420
" />
<path d="M72019 69926
L72076 69955
L72188 69955
L72244 69926
L72273 69870
L72273 69842
L72244 69786
L72188 69758
L72104 69758
L72048 69730
L72019 69673
L72019 69645
L72048 69589
L72104 69561
L72188 69561
L72244 69589
" />
<path d="M72779 69955
L72779 69645
L72751 69589
L72694 69561
L72582 69561
L72526 69589
" />
<path d="M72779 69926
L72723 69955
L72582 69955
L72526 69926
L72498 69870
L72498 69814
L72526 69758
L72582 69730
L72723 69730
L72779 69701
" />
<path d="M73313 69955
L73313 69364
" />
<path d="M73313 69926
L73257 69955
L73144 69955
L73088 69926
L73060 69898
L73032 69842
L73032 69673
L73060 69617
L73088 69589
L73144 69561
L73257 69561
L73313 69589
" />
<path d="M73679 69955
L73622 69926
L73594 69898
L73566 69842
L73566 69673
L73594 69617
L73622 69589
L73679 69561
L73763 69561
L73819 69589
L73847 69617
L73876 69673
L73876 69842
L73847 69898
L73819 69926
L73763 69955
L73679 69955
" />
<path d="M74579 69561
L74579 70151
" />
<path d="M74579 69589
L74635 69561
L74747 69561
L74804 69589
L74832 69617
L74860 69673
L74860 69842
L74832 69898
L74804 69926
L74747 69955
L74635 69955
L74579 69926
" />
<path d="M75197 69955
L75141 69926
L75113 69898
L75085 69842
L75085 69673
L75113 69617
L75141 69589
L75197 69561
L75282 69561
L75338 69589
L75366 69617
L75394 69673
L75394 69842
L75366 69898
L75338 69926
L75282 69955
L75197 69955
" />
<path d="M75647 69955
L75647 69561
" />
<path d="M75647 69673
L75675 69617
L75703 69589
L75760 69561
L75816 69561
" />
<path d="M76378 69364
L76716 69364
" />
<path d="M76547 69955
L76547 69364
" />
<path d="M77250 69898
L77222 69926
L77138 69955
L77081 69955
L76997 69926
L76941 69870
L76913 69814
L76885 69701
L76885 69617
L76913 69505
L76941 69448
L76997 69392
L77081 69364
L77138 69364
L77222 69392
L77250 69420
" />
<path d="M77841 69955
L77644 69673
" />
<path d="M77503 69955
L77503 69364
L77728 69364
L77784 69392
L77813 69420
L77841 69476
L77841 69561
L77813 69617
L77784 69645
L77728 69673
L77503 69673
" />
<path d="M78178 69955
L78122 69926
L78094 69898
L78066 69842
L78066 69673
L78094 69617
L78122 69589
L78178 69561
L78262 69561
L78319 69589
L78347 69617
L78375 69673
L78375 69842
L78347 69898
L78319 69926
L78262 69955
L78178 69955
" />
<path d="M78628 69955
L78628 69364
" />
<path d="M78628 69589
L78684 69561
L78797 69561
L78853 69589
L78881 69617
L78909 69673
L78909 69842
L78881 69898
L78853 69926
L78797 69955
L78684 69955
L78628 69926
" />
<path d="M79247 69955
L79190 69926
L79162 69898
L79134 69842
L79134 69673
L79162 69617
L79190 69589
L79247 69561
L79331 69561
L79387 69589
L79415 69617
L79444 69673
L79444 69842
L79415 69898
L79387 69926
L79331 69955
L79247 69955
" />
<path d="M79612 69561
L79837 69561
" />
<path d="M79697 69364
L79697 69870
L79725 69926
L79781 69955
L79837 69955
" />
<path d="M80034 69955
L80034 69561
" />
<path d="M80034 69364
L80006 69392
L80034 69420
L80062 69392
L80034 69364
L80034 69420
" />
<path d="M80568 69926
L80512 69955
L80400 69955
L80343 69926
L80315 69898
L80287 69842
L80287 69673
L80315 69617
L80343 69589
L80400 69561
L80512 69561
L80568 69589
" />
<path d="M80793 69926
L80850 69955
L80962 69955
L81018 69926
L81046 69870
L81046 69842
L81018 69786
L80962 69758
L80878 69758
L80822 69730
L80793 69673
L80793 69645
L80822 69589
L80878 69561
L80962 69561
L81018 69589
" />
</g>
<g style="fill:#000000; fill-opacity:0.0; 
stroke:#000000; stroke-width:39.3701; stroke-opacity:1; 
stroke-linecap:round; stroke-linejoin:round;">
</g>
<g style="fill:#000000; fill-opacity:0.0; 
stroke:#000000; stroke-width:59.0551; stroke-opacity:1; 
stroke-linecap:round; stroke-linejoin:round;">
<path d="M70220 68773
L70220 68183
" />
<path d="M70557 68773
L70304 68436
" />
<path d="M70557 68183
L70220 68520
" />
<path d="M70810 68773
L70810 68380
" />
<path d="M70810 68183
L70782 68211
L70810 68239
L70838 68211
L70810 68183
L70810 68239
" />
<path d="M71429 68717
L71401 68745
L71316 68773
L71260 68773
L71176 68745
L71120 68689
L71091 68633
L71063 68520
L71063 68436
L71091 68323
L71120 68267
L71176 68211
L71260 68183
L71316 68183
L71401 68211
L71429 68239
" />
<path d="M71654 68605
L71935 68605
" />
<path d="M71598 68773
L71795 68183
L71991 68773
" />
<path d="M72188 68773
L72188 68183
L72329 68183
L72413 68211
L72469 68267
L72498 68323
L72526 68436
L72526 68520
L72498 68633
L72469 68689
L72413 68745
L72329 68773
L72188 68773
" />
<path d="M72779 68717
L72807 68745
L72779 68773
L72751 68745
L72779 68717
L72779 68773
" />
<path d="M72779 68408
L72807 68436
L72779 68464
L72751 68436
L72779 68408
L72779 68464
" />
<path d="M73482 68745
L73538 68773
L73651 68773
L73707 68745
L73735 68689
L73735 68661
L73707 68605
L73651 68577
L73566 68577
L73510 68548
L73482 68492
L73482 68464
L73510 68408
L73566 68380
L73651 68380
L73707 68408
" />
<path d="M74241 68773
L74241 68464
L74213 68408
L74157 68380
L74044 68380
L73988 68408
" />
<path d="M74241 68745
L74185 68773
L74044 68773
L73988 68745
L73960 68689
L73960 68633
L73988 68577
L74044 68548
L74185 68548
L74241 68520
" />
<path d="M74607 68773
L74550 68745
L74522 68689
L74522 68183
" />
<path d="M74775 68380
L74916 68773
L75057 68380
" />
<path d="M75535 68773
L75535 68464
L75507 68408
L75450 68380
L75338 68380
L75282 68408
" />
<path d="M75535 68745
L75478 68773
L75338 68773
L75282 68745
L75253 68689
L75253 68633
L75282 68577
L75338 68548
L75478 68548
L75535 68520
" />
<path d="M75816 68773
L75816 68380
" />
<path d="M75816 68492
L75844 68436
L75872 68408
L75928 68380
L75985 68380
" />
<path d="M76181 68773
L76181 68380
" />
<path d="M76181 68183
L76153 68211
L76181 68239
L76210 68211
L76181 68183
L76181 68239
" />
</g>
<g style="fill:#000000; fill-opacity:0.0; 
stroke:#000000; stroke-width:39.3701; stroke-opacity:1; 
stroke-linecap:round; stroke-linejoin:round;">
</g>
<g style="fill:#000000; fill-opacity:0.0; 
stroke:#000000; stroke-width:59.0551; stroke-opacity:1; 
stroke-linecap:round; stroke-linejoin:round;">
<path d="M70557 67536
L70529 67564
L70445 67592
L70388 67592
L70304 67564
L70248 67508
L70220 67452
L70192 67339
L70192 67255
L70220 67142
L70248 67086
L70304 67030
L70388 67002
L70445 67002
L70529 67030
L70557 67058
" />
<path d="M71148 67536
L71120 67564
L71035 67592
L70979 67592
L70895 67564
L70838 67508
L70810 67452
L70782 67339
L70782 67255
L70810 67142
L70838 67086
L70895 67030
L70979 67002
L71035 67002
L71120 67030
L71148 67058
" />
<path d="M71401 67367
L71851 67367
" />
<path d="M72329 67283
L72413 67311
L72441 67339
L72469 67395
L72469 67480
L72441 67536
L72413 67564
L72357 67592
L72132 67592
L72132 67002
L72329 67002
L72385 67030
L72413 67058
L72441 67114
L72441 67171
L72413 67227
L72385 67255
L72329 67283
L72132 67283
" />
<path d="M72666 67199
L72807 67592
" />
<path d="M72947 67199
L72807 67592
L72751 67733
L72723 67761
L72666 67789
" />
<path d="M73172 67367
L73622 67367
" />
<path d="M73876 67564
L73960 67592
L74100 67592
L74157 67564
L74185 67536
L74213 67480
L74213 67424
L74185 67367
L74157 67339
L74100 67311
L73988 67283
L73932 67255
L73904 67227
L73876 67171
L73876 67114
L73904 67058
L73932 67030
L73988 67002
L74129 67002
L74213 67030
" />
<path d="M74438 67424
L74719 67424
" />
<path d="M74382 67592
L74579 67002
L74775 67592
" />
<path d="M74972 67367
L75422 67367
" />
<path d="M75703 67592
L75703 67002
" />
<path d="M75985 67592
L75985 67002
L76322 67592
L76322 67002
" />
<path d="M76519 67002
L76856 67002
" />
<path d="M76688 67592
L76688 67002
" />
<path d="M77334 67592
L77053 67592
L77053 67002
" />
<path d="M78234 67199
L78234 67592
" />
<path d="M78094 66974
L77953 67395
L78319 67395
" />
<path d="M78544 67536
L78572 67564
L78544 67592
L78516 67564
L78544 67536
L78544 67592
" />
<path d="M78937 67002
L78994 67002
L79050 67030
L79078 67058
L79106 67114
L79134 67227
L79134 67367
L79106 67480
L79078 67536
L79050 67564
L78994 67592
L78937 67592
L78881 67564
L78853 67536
L78825 67480
L78797 67367
L78797 67227
L78825 67114
L78853 67058
L78881 67030
L78937 67002
" />
</g>
<g style="fill:#000000; fill-opacity:0.0; 
stroke:#000000; stroke-width:39.3701; stroke-opacity:1; 
stroke-linecap:round; stroke-linejoin:round;">
</g>
<g style="fill:#000000; fill-opacity:0.0; 
stroke:#000000; stroke-width:59.0551; stroke-opacity:1; 
stroke-linecap:round; stroke-linejoin:round;">
<path d="M70220 66411
L70220 65821
L70360 65821
L70445 65849
L70501 65905
L70529 65961
L70557 66074
L70557 66158
L70529 66271
L70501 66327
L70445 66383
L70360 66411
L70220 66411
" />
<path d="M70810 66411
L70810 66018
" />
<path d="M70810 65821
L70782 65849
L70810 65877
L70838 65849
L70810 65821
L70810 65877
" />
<path d="M71063 66383
L71120 66411
L71232 66411
L71288 66383
L71316 66327
L71316 66299
L71288 66242
L71232 66214
L71148 66214
L71091 66186
L71063 66130
L71063 66102
L71091 66046
L71148 66018
L71232 66018
L71288 66046
" />
<path d="M71795 66383
L71738 66411
L71626 66411
L71570 66383
L71541 66327
L71541 66102
L71570 66046
L71626 66018
L71738 66018
L71795 66046
L71823 66102
L71823 66158
L71541 66214
" />
<path d="M72076 66018
L72076 66411
" />
<path d="M72076 66074
L72104 66046
L72160 66018
L72244 66018
L72301 66046
L72329 66102
L72329 66411
" />
<path d="M72048 65877
L72076 65849
L72132 65821
L72244 65877
L72301 65849
L72329 65821
" />
<path d="M72694 66411
L72638 66383
L72610 66355
L72582 66299
L72582 66130
L72610 66074
L72638 66046
L72694 66018
L72779 66018
L72835 66046
L72863 66074
L72891 66130
L72891 66299
L72863 66355
L72835 66383
L72779 66411
L72694 66411
" />
<path d="M73144 66355
L73172 66383
L73144 66411
L73116 66383
L73144 66355
L73144 66411
" />
<path d="M73144 66046
L73172 66074
L73144 66102
L73116 66074
L73144 66046
L73144 66102
" />
<path d="M74072 66102
L73876 66102
" />
<path d="M73876 66411
L73876 65821
L74157 65821
" />
<path d="M74607 66383
L74550 66411
L74438 66411
L74382 66383
L74354 66327
L74354 66102
L74382 66046
L74438 66018
L74550 66018
L74607 66046
L74635 66102
L74635 66158
L74354 66214
" />
<path d="M74972 66411
L74916 66383
L74888 66327
L74888 65821
" />
<path d="M75197 66411
L75197 66018
" />
<path d="M75197 65821
L75169 65849
L75197 65877
L75225 65849
L75197 65821
L75197 65877
" />
<path d="M75422 66411
L75732 66018
" />
<path d="M75422 66018
L75732 66411
" />
<path d="M75928 66383
L75985 66411
L76097 66411
L76153 66383
L76181 66327
L76181 66299
L76153 66242
L76097 66214
L76013 66214
L75956 66186
L75928 66130
L75928 66102
L75956 66046
L76013 66018
L76097 66018
L76153 66046
" />
<path d="M76350 66018
L76575 66018
" />
<path d="M76435 65821
L76435 66327
L76463 66383
L76519 66411
L76575 66411
" />
<path d="M76772 66018
L76772 66608
" />
<path d="M76772 66046
L76828 66018
L76941 66018
L76997 66046
L77025 66074
L77053 66130
L77053 66299
L77025 66355
L76997 66383
L76941 66411
L76828 66411
L76772 66383
" />
<path d="M77559 66411
L77559 65821
" />
<path d="M77559 66383
L77503 66411
L77391 66411
L77334 66383
L77306 66355
L77278 66299
L77278 66130
L77306 66074
L77334 66046
L77391 66018
L77503 66018
L77559 66046
" />
</g>
<g style="fill:#000000; fill-opacity:0.0; 
stroke:#000000; stroke-width:39.3701; stroke-opacity:1; 
stroke-linecap:round; stroke-linejoin:round;">
</g>
<g style="fill:#000000; fill-opacity:0.0; 
stroke:#000000; stroke-width:59.0551; stroke-opacity:1; 
stroke-linecap:round; stroke-linejoin:round;">
<path d="M77559 75396
L77559 76577
" />
</g>
<g style="fill:#000000; fill-opacity:0.0; 
stroke:#000000; stroke-width:39.3701; stroke-opacity:1; 
stroke-linecap:round; stroke-linejoin:round;">
</g>
<g style="fill:#000000; fill-opacity:0.0; 
stroke:#000000; stroke-width:59.0551; stroke-opacity:1; 
stroke-linecap:round; stroke-linejoin:round;">
<path d="M102756 75396
L102756 77955
" />
</g>
<g style="fill:#C2C200; fill-opacity:0.0; 
stroke:#C2C200; stroke-width:59.0551; stroke-opacity:1; 
stroke-linecap:round; stroke-linejoin:round;">
</g>
<g style="fill:#C2C200; fill-opacity:0.0; 
stroke:#C2C200; stroke-width:39.3701; stroke-opacity:1; 
stroke-linecap:round; stroke-linejoin:round;">
<path d="M84055 46458
L84055 53151
" />
<path d="M84055 29528
L84055 36221
" />
<path d="M47441 61025
L84055 46458
" />
<path d="M47441 21654
L84055 36221
" />
<circle cx="37008.3" cy="24410.9" r="551.181" /> 
<circle cx="43898.1" cy="24410.9" r="551.181" /> 
<circle cx="43898.1" cy="58269.1" r="551.181" /> 
<circle cx="37008.3" cy="58269.1" r="551.181" /> 
<circle cx="86024.1" cy="53151" r="551.181" /> 
<circle cx="86024.1" cy="29529" r="551.181" /> 
<path d="M47441 21654
L34842 21654
" />
<path d="M34842 61025
L47441 61025
" />
<path d="M34842 21654
L34842 61025
" />
<path d="M84055.6 53151 A1968.5 1968.5 0.0 0 0 87992.6 53151 " />
<path d="M87992.6 29529 A1968.5 1968.5 0.0 0 0 84055.6 29529 " />
<path d="M87992 29528
L87992 53151
" />
<circle cx="82087" cy="43899.1" r="433.071" /> 
<circle cx="82087" cy="38780.9" r="433.071" /> 
</g>
<g style="fill:#840084; fill-opacity:0.0; 
stroke:#840084; stroke-width:39.3701; stroke-opacity:1; 
stroke-linecap:round; stroke-linejoin:round;">
</g>
<g style="fill:#840084; fill-opacity:1.0; 
stroke:#840084; stroke-width:3.93701; stroke-opacity:1; 
stroke-linecap:round; stroke-linejoin:round;">
<polyline style="fill-rule:evenodd;"
points="69404,34825
69495,34786
69557,34721
69590,34629
69595,34510
69572,34363
69519,34190
69438,33988
69375,33852
69262,33635
69147,33453
69027,33299
68925,33194
68794,33083
68670,33007
68544,32961
68410,32941
68407,32941
68289,32942
68201,32960
68135,32998
68101,33034
68072,33066
68056,33077
68055,33076
68044,33057
68016,33008
67975,32934
67923,32840
67863,32732
67830,32673
67612,32278
67122,32278
67216,32453
67243,32502
67287,32583
67345,32692
67417,32825
67499,32978
67591,33148
67690,33331
67731,33408
68249,33408
68284,33368
68345,33346
68419,33344
68497,33363
68513,33370
68592,33420
68669,33497
68748,33603
68830,33742
68906,33892
68979,34053
69029,34185
69058,34289
69064,34362
69047,34404
69041,34408
68987,34422
68914,34416
68835,34391
68795,34371
68767,34353
68741,34330
68714,34297
68682,34251
68642,34185
68592,34097
68529,33981
68475,33880
68405,33748
68346,33631
68299,33535
68266,33463
68250,33418
68249,33408
67731,33408
67793,33523
67893,33708
68474,34788
68699,34794
68924,34799
68891,34736
68858,34673
68919,34716
69048,34790
69180,34829
69284,34838
69404,34825
" /> 
<polyline style="fill-rule:evenodd;"
points="67606,34835
67659,34827
67709,34810
67727,34802
67816,34747
67874,34671
67902,34590
67909,34541
67910,34489
67900,34430
67880,34360
67848,34275
67801,34171
67739,34042
67659,33886
67603,33778
67509,33596
67432,33445
67372,33322
67327,33224
67295,33147
67274,33088
67264,33043
67262,33017
67260,33001
67248,32990
67220,32983
67170,32979
67090,32978
67020,32978
66777,32978
66786,33025
66789,33048
66783,33057
66759,33051
66711,33028
66667,33005
66588,32967
66521,32947
66449,32939
66406,32938
66308,32944
66237,32962
66210,32976
66140,33040
66098,33125
66084,33226
66095,33338
66098,33348
66607,33348
66617,33330
66651,33320
66708,33325
66775,33344
66839,33372
66858,33384
66915,33436
66980,33523
67036,33615
67140,33798
67060,33798
66947,33781
66838,33727
66774,33677
66715,33615
66665,33542
66628,33467
66607,33399
66607,33348
66098,33348
66129,33456
66186,33576
66262,33692
66356,33800
66467,33895
66580,33966
66773,34046
66976,34089
67127,34098
67208,34100
67265,34110
67304,34135
67336,34182
67368,34257
67382,34294
67403,34357
67408,34396
67397,34424
67394,34428
67352,34456
67295,34452
67228,34420
67160,34363
67146,34347
67067,34258
66834,34258
66743,34259
66669,34263
66619,34267
66602,34273
66612,34297
66636,34345
66661,34391
66752,34513
66879,34624
67043,34725
67077,34742
67158,34781
67222,34806
67284,34821
67360,34829
67438,34834
67536,34837
67606,34835
" /> 
<polyline style="fill-rule:evenodd;"
points="70854,35029
70810,34947
70775,34878
70751,34829
70742,34809
70760,34803
70807,34799
70853,34798
70965,34798
70773,34438
70652,34437
70532,34437
70275,33952
70208,33823
70146,33703
70094,33597
70053,33511
70026,33450
70015,33418
70015,33418
70017,33386
70036,33370
70083,33363
70097,33362
70149,33357
70179,33351
70182,33349
70174,33330
70153,33282
70122,33213
70094,33153
70053,33067
70023,33011
69997,32978
69972,32960
69942,32951
69873,32943
69788,32940
69702,32942
69629,32949
69587,32959
69547,32987
69506,33034
69501,33042
69477,33089
69467,33139
69469,33207
69471,33228
69476,33268
69485,33309
69498,33354
69519,33409
69549,33477
69589,33562
69642,33668
69709,33798
69792,33957
69859,34084
70045,34438
69841,34438
70032,34797
70135,34798
70239,34798
70356,35013
70472,35228
70966,35239
70854,35029
" /> 
<polyline style="fill-rule:evenodd;"
points="71934,34834
71984,34826
72028,34811
72062,34794
72150,34728
72209,34636
72240,34520
72241,34381
72213,34223
72156,34045
72072,33855
71990,33698
71909,33567
71823,33451
71721,33336
71672,33286
71579,33198
71497,33132
71410,33077
71333,33036
71249,32996
71185,32970
71126,32955
71058,32947
70966,32943
70954,32942
70858,32940
70790,32942
70740,32950
70697,32965
70663,32982
70587,33029
70536,33081
70505,33149
70489,33241
70485,33308
70485,33413
70488,33446
70976,33446
70997,33382
71043,33346
71112,33340
71200,33368
71221,33377
71305,33436
71389,33527
71475,33652
71564,33814
71581,33848
71657,34011
71711,34144
71741,34248
71750,34327
71737,34383
71703,34418
71673,34430
71592,34430
71504,34395
71413,34327
71323,34228
71275,34161
71222,34074
71165,33967
71109,33852
71057,33738
71016,33635
70988,33554
70984,33537
70976,33446
70488,33446
70495,33508
70517,33606
70556,33715
70612,33846
70623,33870
70749,34109
70894,34319
71056,34499
71232,34645
71397,34743
71478,34782
71541,34807
71600,34822
71669,34829
71763,34834
71770,34834
71866,34836
71934,34834
" /> 
<polyline style="fill-rule:evenodd;"
points="65986,35437
66114,35435
66212,35430
66286,35422
66340,35412
66353,35409
66466,35358
66548,35282
66600,35184
66621,35066
66611,34930
66569,34777
66496,34611
66471,34565
66395,34450
66296,34332
66183,34220
66066,34125
65962,34059
65898,34026
65851,34002
65828,33990
65828,33989
65824,33969
65817,33916
65807,33834
65794,33729
65780,33607
65773,33547
65757,33415
65743,33293
65730,33187
65719,33105
65712,33053
65711,33043
65700,32978
65431,32978
65333,32978
65250,32979
65191,32981
65163,32983
65162,32983
65165,33003
65172,33058
65183,33140
65198,33244
65215,33366
65222,33418
65240,33544
65255,33656
65268,33748
65277,33814
65282,33849
65282,33853
65264,33856
65217,33858
65167,33858
65052,33858
64579,32978
64330,32978
64236,32979
64158,32981
64104,32985
64082,32989
64082,32989
64091,33008
64118,33059
64160,33140
64217,33248
64287,33379
64368,33531
64459,33701
64558,33887
64664,34084
64736,34219
64785,34309
65317,34309
65324,34295
65324,34295
65365,34284
65433,34282
65515,34290
65600,34304
65675,34323
65712,34338
65801,34397
65888,34482
65966,34584
66028,34692
66069,34798
66082,34882
66074,34940
66048,34980
65996,35004
65915,35016
65833,35018
65672,35018
65484,34666
65418,34542
65371,34448
65339,34381
65322,34336
65317,34309
64785,34309
65391,35438
65823,35438
65986,35437
" /> 
<polyline style="fill-rule:evenodd;"
points="73670,34836
73715,34831
73728,34826
73724,34804
73704,34754
73673,34683
73631,34597
73621,34576
73502,34339
73385,34341
73250,34325
73128,34277
73040,34212
73018,34182
72980,34122
72929,34036
72867,33928
72796,33802
72721,33665
72670,33570
72352,32979
72105,32978
71859,32978
71969,33183
72004,33248
72055,33342
72119,33461
72193,33599
72275,33751
72361,33911
72450,34074
72457,34088
72834,34788
73068,34794
73301,34799
73215,34648
73274,34701
73390,34782
73517,34828
73608,34838
73670,34836
" /> 
<polyline style="fill-rule:evenodd;"
points="74823,33855
74866,33849
74879,33840
74865,33820
74830,33773
74777,33703
74709,33615
74629,33512
74542,33400
74212,32978
74097,32978
74035,32980
73994,32987
73983,32993
73987,33016
74001,33072
74021,33155
74047,33259
74076,33379
74089,33428
74194,33848
74321,33854
74391,33856
74429,33851
74439,33839
74437,33834
74414,33767
74387,33688
74361,33605
74336,33526
74317,33462
74306,33420
74305,33408
74318,33421
74350,33461
74396,33523
74452,33600
74472,33629
74632,33858
74759,33858
74823,33855
" /> 
<polyline style="fill-rule:evenodd;"
points="75624,34154
75629,34144
75622,34116
75603,34068
75569,33997
75521,33899
75456,33773
75373,33616
75344,33563
75033,32978
74786,32978
74966,33313
75027,33427
75085,33535
75138,33632
75179,33708
75203,33752
75261,33856
75148,33817
75085,33796
75037,33782
75018,33778
75017,33794
75032,33835
75056,33882
75112,33986
75352,34072
75446,34105
75527,34131
75589,34148
75623,34154
75624,34154
" /> 
<polyline style="fill-rule:evenodd;"
points="43546,53513
43655,53501
43757,53479
43862,53445
43979,53397
44072,53355
44220,53287
44339,53235
44436,53195
44517,53167
44590,53147
44661,53133
44737,53124
44818,53117
44947,53105
45039,53089
45095,53070
45098,53068
45132,53041
45187,52991
45254,52926
45326,52852
45332,52846
45512,52658
45842,52617
45964,52602
46077,52587
46186,52572
46293,52556
46403,52537
46519,52517
46647,52493
46790,52465
46951,52432
47135,52394
47345,52349
47586,52298
47862,52238
47902,52229
48083,52190
48280,52148
48480,52105
48673,52063
48848,52025
48982,51996
49128,51964
49303,51925
49495,51882
49695,51836
49892,51790
50075,51747
50082,51745
50438,51661
50758,51587
51045,51522
51303,51465
51534,51415
51742,51373
51929,51337
52098,51308
52252,51283
52395,51263
52432,51258
52523,51246
52607,51233
52670,51221
52684,51217
52720,51212
52791,51206
52893,51199
53019,51191
53164,51183
53325,51175
53484,51169
53672,51160
53850,51151
54012,51141
54154,51132
54270,51122
54354,51113
54385,51109
54502,51084
54653,51046
54832,50994
55037,50932
55264,50859
55508,50777
55766,50688
56034,50592
56182,50538
56889,50286
57599,50053
58304,49840
59002,49649
59685,49481
60349,49337
60938,49227
61095,49200
61223,49177
61331,49156
61431,49134
61532,49109
61644,49079
61776,49042
61902,49005
62073,48957
62235,48913
62394,48872
62555,48834
62724,48797
62905,48760
63105,48721
63328,48681
63580,48638
63866,48590
63880,48588
64211,48533
64508,48485
64774,48442
65017,48404
65239,48371
65446,48342
65643,48315
65836,48291
66028,48269
66224,48249
66430,48229
66651,48209
66891,48188
67155,48166
67242,48159
67566,48133
67853,48111
68108,48093
68334,48079
68534,48068
68713,48062
68873,48059
69019,48059
69153,48064
69281,48072
69404,48084
69527,48099
69653,48118
69752,48134
69879,48156
69992,48175
70095,48191
70191,48204
70286,48215
70382,48224
70484,48232
70596,48237
70721,48241
70864,48244
71028,48246
71218,48247
71438,48247
71691,48247
71872,48247
72164,48247
72419,48246
72640,48245
72831,48243
72996,48240
73136,48236
73257,48231
73360,48224
73449,48216
73527,48206
73598,48194
73665,48181
73731,48165
73772,48154
73865,48123
73983,48075
74119,48014
74263,47943
74409,47867
74547,47790
74670,47716
74711,47690
74934,47521
75155,47318
75371,47084
75578,46824
75774,46543
75955,46246
76120,45937
76264,45621
76385,45303
76480,44988
76530,44768
76574,44504
76597,44272
76599,44074
76579,43909
76539,43777
76537,43773
76492,43692
76436,43610
76404,43573
76359,43520
76324,43469
76296,43411
76274,43341
76255,43249
76235,43130
76222,43037
76188,42815
76149,42620
76107,42454
76062,42318
76015,42214
75967,42144
75917,42110
75868,42115
75866,42116
75795,42170
75719,42258
75643,42372
75569,42506
75503,42656
75500,42663
75466,42738
75424,42810
75404,42838
75344,42935
75309,43036
75302,43096
75296,43151
75283,43216
75281,43223
75261,43273
75230,43301
75180,43319
75105,43328
75048,43307
75003,43252
74973,43185
74924,43069
74858,42933
74780,42789
74699,42648
74619,42523
74564,42445
74454,42311
74356,42213
74269,42152
74189,42124
74154,42123
74098,42131
74064,42150
74050,42186
74057,42244
74082,42330
74100,42382
74158,42549
74202,42687
74234,42801
74256,42899
74270,42987
74277,43056
74281,43140
74281,43194
74273,43226
74258,43246
74251,43251
74205,43268
74132,43277
74047,43276
73964,43265
73890,43234
73809,43168
73723,43073
73637,42954
73602,42896
73529,42775
73468,42687
73418,42627
73374,42592
73333,42579
73322,42578
73272,42588
73242,42608
73231,42640
73220,42707
73210,42803
73201,42921
73193,43030
73184,43120
73174,43184
73165,43216
73163,43217
73124,43232
73057,43247
72972,43263
72882,43277
72797,43287
72729,43291
72693,43290
72626,43262
72566,43206
72510,43116
72455,42990
72443,42957
72341,42679
72241,42435
72141,42218
72038,42024
71928,41846
71810,41678
71730,41577
71657,41492
71597,41437
71544,41408
71491,41400
71470,41401
71427,41412
71398,41435
71381,41475
71375,41538
71381,41629
71397,41753
71403,41792
71421,41933
71437,42080
71449,42227
71457,42366
71461,42488
71460,42585
71454,42647
71439,42723
71390,42676
71341,42620
71277,42529
71198,42403
71105,42244
70998,42053
70973,42008
70851,41793
70736,41603
70629,41441
70531,41308
70444,41206
70369,41137
70306,41102
70282,41098
70240,41103
70210,41120
70190,41156
70179,41216
70174,41306
70174,41406
70178,41522
70188,41648
70204,41792
70229,41962
70250,42097
70271,42229
70289,42350
70302,42453
70310,42533
70313,42584
70312,42595
70301,42629
70286,42629
70262,42606
70238,42575
70200,42516
70153,42439
70102,42351
70100,42348
69980,42144
69868,41968
69764,41822
69669,41708
69585,41626
69513,41578
69454,41566
69441,41568
69406,41595
69371,41649
69361,41671
69336,41721
69315,41750
69307,41753
69282,41741
69233,41717
69182,41692
69102,41658
69017,41631
68973,41620
68927,41608
68884,41588
68837,41555
68783,41505
68717,41435
68636,41341
68546,41233
68458,41134
68367,41047
68279,40975
68200,40924
68138,40900
68121,40898
68063,40916
68015,40964
67986,41029
67982,41066
67986,41114
67995,41189
68008,41274
68012,41298
68027,41397
68037,41490
68042,41569
68040,41627
68033,41656
68029,41658
68006,41652
67954,41636
67885,41613
67862,41606
67775,41579
67714,41566
67670,41567
67649,41572
67607,41596
67587,41637
67589,41698
67614,41783
67661,41897
67663,41902
67703,41995
67725,42060
67728,42105
67713,42137
67678,42164
67659,42176
67633,42187
67603,42191
67561,42185
67497,42170
67404,42142
67401,42141
67304,42114
67212,42090
67136,42073
67102,42067
67036,42057
66986,42044
66944,42023
66907,41989
66869,41936
66825,41859
66770,41753
66752,41717
66600,41439
66449,41197
66293,40985
66131,40800
66022,40692
65900,40590
65789,40520
65692,40484
65644,40478
65601,40483
65576,40503
65568,40544
65578,40610
65602,40705
65673,40967
65730,41197
65774,41394
65803,41557
65819,41685
65820,41776
65819,41786
65815,41807
65805,41813
65788,41799
65759,41763
65714,41700
65663,41626
65527,41430
65407,41267
65304,41136
65215,41035
65139,40964
65074,40919
65019,40900
64972,40905
64951,40934
64943,40997
64949,41097
64969,41233
64982,41302
65015,41485
65038,41631
65050,41743
65053,41822
65049,41858
65038,41898
65021,41928
64993,41947
64947,41957
64880,41959
64785,41954
64658,41942
64602,41936
64390,41913
64213,41888
64068,41863
63950,41835
63856,41803
63781,41766
63720,41724
63680,41685
63645,41643
63595,41580
63538,41507
63514,41473
63425,41362
63330,41259
63233,41165
63138,41083
63048,41017
62966,40968
62897,40938
62844,40932
62812,40950
62802,40988
62806,41039
62818,41123
62836,41231
62859,41357
62886,41495
62915,41633
62936,41736
62950,41807
62955,41854
62953,41883
62944,41903
62934,41915
62876,41955
62789,41982
62684,41996
62571,41996
62460,41982
62377,41958
62293,41930
62232,41921
62182,41932
62129,41963
62122,41968
62021,42024
61910,42054
61860,42058
61794,42041
61731,41990
61667,41902
61628,41831
61483,41581
61307,41346
61216,41245
61122,41151
61047,41088
60989,41054
60945,41047
60933,41050
60913,41078
60903,41138
60903,41222
60913,41325
60932,41439
60933,41442
60951,41543
60967,41656
60975,41738
60980,41818
60978,41870
60967,41906
60946,41939
60943,41943
60886,41987
60816,41994
60733,41965
60639,41900
60536,41801
60482,41741
60391,41645
60306,41579
60230,41544
60167,41543
60118,41576
60114,41582
60095,41622
60073,41689
60052,41767
60050,41777
60028,41862
60003,41943
59980,42001
59979,42003
59941,42078
59797,42078
59716,42080
59657,42090
59603,42111
59541,42147
59419,42212
59311,42243
59209,42244
59105,42214
59092,42208
59041,42194
58950,42181
58819,42168
58649,42155
58439,42143
58189,42132
57899,42120
57832,42118
57476,42104
57156,42089
56869,42072
56613,42051
56382,42028
56175,42001
55987,41970
55816,41934
55657,41893
55508,41847
55365,41795
55254,41749
55109,41689
54965,41639
54812,41594
54639,41553
54438,41512
54412,41507
54307,41487
54216,41468
54146,41453
54105,41442
54098,41439
54109,41427
54150,41403
54214,41371
54281,41342
54384,41293
54502,41232
54619,41167
54685,41127
54784,41066
54872,41018
54956,40978
55046,40943
55150,40909
55276,40874
55422,40837
55822,40746
56258,40666
56725,40596
57220,40537
57412,40519
57678,40493
57909,40468
58110,40444
58286,40419
58443,40393
58585,40364
58718,40333
58846,40298
58907,40280
59057,40239
59212,40207
59357,40186
59480,40178
59481,40178
59556,40178
59569,40313
59576,40405
59580,40513
59582,40604
59585,40708
59597,40778
59620,40819
59655,40837
59675,40838
59722,40821
59784,40774
59860,40699
59944,40602
60033,40487
60125,40357
60216,40218
60285,40100
60350,39994
60410,39916
60473,39860
60549,39817
60647,39780
60651,39779
60763,39748
60888,39721
61019,39700
61150,39686
61274,39678
61384,39677
61472,39683
61533,39698
61551,39710
61570,39732
61579,39757
61578,39795
61568,39854
61551,39931
61533,40029
61523,40137
61518,40248
61520,40352
61529,40438
61544,40497
61550,40508
61573,40536
61600,40545
61634,40533
61683,40498
61751,40437
61789,40400
61933,40246
62075,40068
62203,39882
62245,39813
62312,39703
62372,39624
62432,39568
62499,39528
62580,39497
62582,39496
62747,39451
62942,39409
63154,39371
63374,39340
63589,39317
63763,39305
64015,39292
64058,39348
64095,39426
64097,39520
64072,39605
64048,39690
64044,39777
64057,39855
64086,39916
64129,39949
64133,39950
64186,39944
64254,39905
64335,39836
64424,39739
64520,39618
64612,39487
64676,39393
64723,39329
64758,39294
64782,39284
64800,39295
64803,39299
64819,39343
64822,39370
64836,39415
64861,39448
64914,39471
64999,39472
65117,39453
65147,39447
65201,39434
65192,40068
65238,40075
65267,40073
65302,40060
65347,40032
65405,39985
65481,39919
65577,39828
65686,39722
65770,39643
65845,39575
65906,39523
65948,39491
65966,39483
65988,39507
65998,39545
66017,39587
66060,39602
66130,39590
66226,39550
66342,39488
66421,39443
66489,39408
66538,39385
66557,39378
66576,39396
66580,39450
66570,39536
66547,39653
66511,39799
66462,39972
66401,40169
66391,40200
66352,40325
66317,40441
66290,40543
66271,40622
66262,40672
66262,40678
66266,40731
66282,40758
66312,40770
66364,40776
66417,40765
66479,40734
66558,40679
66595,40651
66735,40527
66887,40366
67051,40169
67083,40128
67196,39986
67318,39841
67443,39699
67568,39565
67686,39443
67794,39339
67886,39259
67935,39222
68011,39184
68076,39183
68127,39219
68135,39231
68146,39249
68153,39269
68155,39296
68153,39336
68145,39394
68130,39475
68110,39583
68081,39725
68075,39756
68040,39937
68013,40083
67995,40197
67985,40282
67983,40341
67989,40377
68003,40395
68015,40398
68043,40384
68091,40345
68155,40286
68230,40213
68308,40132
68387,40047
68459,39964
68504,39908
68561,39834
68630,39740
68703,39637
68762,39551
68838,39442
68897,39362
68948,39306
68995,39270
69046,39250
69107,39241
69184,39238
69219,39238
69323,39240
69448,39246
69576,39253
69652,39259
69814,39274
69940,39289
70034,39306
70101,39328
70144,39357
70169,39394
70178,39443
70177,39505
70175,39528
70166,39586
70148,39674
70123,39783
70093,39904
70063,40018
70031,40139
70003,40251
69981,40348
69967,40421
69962,40463
69965,40512
69979,40533
70014,40538
70017,40538
70090,40521
70182,40473
70288,40396
70407,40292
70482,40218
70591,40112
70683,40034
70764,39979
70792,39964
70873,39921
70966,39867
71041,39821
71122,39771
71178,39748
71211,39751
71229,39780
71234,39829
71237,39898
71243,39937
71258,39954
71286,39958
71296,39958
71371,39944
71461,39899
71570,39823
71672,39739
71773,39652
71856,39591
71931,39550
72008,39525
72095,39512
72204,39509
72242,39509
72365,39511
72455,39519
72510,39531
72517,39534
72549,39565
72589,39620
72622,39679
72657,39741
72689,39779
72728,39795
72779,39788
72850,39760
72948,39711
72957,39706
73041,39663
73101,39636
73148,39624
73193,39621
73232,39624
73294,39635
73384,39658
73493,39689
73611,39725
73729,39764
73838,39803
73929,39839
73947,39847
74007,39874
74050,39899
74076,39928
74090,39968
74093,40026
74087,40110
74074,40225
74072,40242
74061,40362
74052,40483
74047,40594
74046,40679
74046,40688
74050,40767
74055,40815
74065,40840
74083,40851
74108,40855
74159,40852
74207,40830
74258,40783
74316,40708
74363,40639
74409,40570
74448,40516
74475,40484
74482,40478
74511,40495
74535,40547
74557,40636
74561,40658
74582,40766
74600,40840
74619,40886
74641,40909
74669,40915
74679,40914
74706,40906
74732,40885
74761,40843
74798,40774
74822,40728
74866,40634
74915,40518
74963,40396
75000,40298
75056,40142
75106,40020
75154,39924
75202,39848
75254,39787
75314,39734
75321,39729
75482,39587
75609,39435
75698,39285
75783,39098
75836,38928
75860,38770
75853,38615
75816,38456
75749,38287
75739,38265
75642,38106
75514,37967
75362,37857
75223,37781
75050,37697
74850,37608
74628,37516
74389,37422
74139,37330
73884,37239
73630,37154
73381,37076
73144,37006
72924,36947
72727,36901
72712,36898
72565,36867
72408,36833
72253,36800
72114,36769
72022,36748
71893,36719
71758,36691
71612,36662
71449,36634
71265,36603
71055,36570
70813,36533
70642,36508
70503,36487
70373,36467
70259,36449
70168,36434
70105,36423
70082,36418
70012,36403
69906,36386
69768,36366
69601,36344
69409,36320
69197,36295
68967,36270
68724,36244
68472,36219
68213,36194
67953,36170
67932,36168
67528,36131
67156,36095
66809,36058
66477,36020
66154,35980
65842,35938
65638,35910
65467,35887
65322,35868
65197,35851
65083,35837
64974,35825
64865,35813
64746,35801
64613,35788
64457,35774
64273,35757
64172,35748
63857,35719
63574,35691
63315,35664
63073,35637
62840,35608
62608,35576
62369,35541
62115,35502
61962,35478
61779,35449
61580,35419
61377,35389
61180,35361
61002,35337
60871,35320
60539,35274
60235,35224
59951,35167
59675,35101
59397,35024
59105,34933
59102,34932
58985,34895
58862,34861
58748,34831
58656,34811
58652,34810
58467,34774
58308,34741
58164,34706
58027,34667
57886,34622
57731,34568
57553,34501
57485,34475
57267,34392
57066,34320
56874,34257
56685,34200
56493,34149
56289,34101
56069,34055
55825,34008
55550,33960
55431,33940
55238,33909
55065,33883
54902,33862
54741,33844
54571,33829
54384,33816
54170,33803
54072,33798
53842,33786
53647,33777
53483,33771
53345,33768
53229,33768
53129,33770
53041,33776
52961,33784
52884,33795
52871,33797
52746,33816
52590,33838
52410,33861
52214,33884
52011,33907
51809,33929
51615,33949
51438,33965
51402,33968
51258,33982
51101,33999
50946,34020
50808,34040
50762,34048
50669,34064
50543,34085
50394,34110
50228,34138
50054,34168
49878,34197
49812,34208
49589,34245
49398,34279
49233,34309
49088,34338
48955,34368
48827,34399
48698,34434
48561,34474
48409,34520
48352,34538
48225,34577
48112,34612
48008,34643
47907,34673
47803,34702
47691,34733
47566,34766
47421,34804
47252,34848
47052,34900
46941,34928
46764,34974
46583,35022
46405,35069
46239,35113
46092,35153
45973,35186
45932,35198
45751,35249
45589,35294
45438,35333
45286,35371
45124,35409
44941,35451
44772,35488
44620,35522
44449,35563
44263,35609
44069,35659
43871,35711
43677,35763
43491,35815
43319,35863
43166,35908
43039,35948
42944,35980
42916,35990
42745,36056
42601,36109
42475,36153
42357,36190
42238,36223
42108,36256
41958,36290
41782,36328
41710,36341
41614,36353
41489,36366
41335,36379
41148,36392
40925,36407
40732,36418
40564,36429
40431,36438
40327,36449
40247,36462
40184,36478
40134,36499
40091,36526
40050,36560
40025,36584
39923,36689
39816,36808
39711,36936
39611,37066
39522,37191
39449,37303
39398,37396
39386,37424
39374,37477
39364,37562
39358,37675
39354,37810
39353,37960
39354,38121
39357,38285
39362,38447
39369,38601
39379,38741
39389,38862
39402,38957
39415,39021
39422,39039
39466,39080
39546,39105
39658,39116
39802,39112
39976,39093
40072,39078
40206,39056
40303,39043
40365,39041
40395,39052
40395,39076
40368,39115
40315,39170
40277,39208
40122,39344
39962,39455
39806,39535
39765,39551
39647,39602
39556,39662
39483,39739
39445,39794
39363,39941
39299,40104
39249,40290
39213,40505
39202,40598
39189,40697
39171,40821
39148,40955
39124,41086
39119,41114
39091,41263
39074,41379
39069,41467
39075,41535
39094,41586
39124,41628
39148,41650
39181,41676
39212,41691
39252,41697
39312,41696
39382,41692
39496,41679
39634,41652
39800,41610
39872,41589
39983,41558
40086,41533
40171,41514
40230,41504
40252,41502
40286,41508
40304,41521
40311,41554
40312,41615
40311,41624
40310,41687
40300,41731
40276,41769
40231,41817
40215,41832
40163,41888
40109,41957
40051,42042
39986,42148
39912,42278
39827,42436
39729,42626
39701,42681
39482,43115
39522,43451
39540,43609
39553,43732
39558,43824
39556,43890
39545,43933
39525,43960
39494,43973
39451,43978
39411,43978
39327,43971
39212,43950
39073,43918
38915,43876
38747,43827
38573,43772
38400,43714
38235,43654
38083,43594
37952,43537
37912,43517
37828,43477
37755,43445
37702,43424
37679,43418
37643,43435
37599,43481
37554,43547
37512,43622
37481,43697
37464,43763
37462,43781
37458,43836
37441,43878
37408,43911
37352,43938
37271,43960
37157,43981
37057,43997
36848,44034
36674,44081
36531,44140
36417,44212
36328,44296
36276,44373
36254,44453
36260,44547
36271,44594
36292,44690
36301,44777
36296,44866
36278,44966
36244,45085
36211,45186
36120,45454
36129,45494
43515,45494
43526,45407
43556,45341
43606,45289
43679,45246
43697,45238
43767,45201
43833,45158
43848,45146
43880,45121
43910,45106
43948,45099
44005,45099
44092,45105
44093,45105
44185,45113
44272,45125
44338,45138
44353,45142
44399,45160
44426,45183
44443,45224
44455,45278
44464,45340
44472,45431
44477,45538
44480,45651
44480,45664
44481,45768
44478,45851
44471,45918
44455,45980
44429,46042
44390,46113
44334,46201
44259,46314
44246,46333
44184,46424
44113,46522
44039,46623
43965,46720
43895,46809
43833,46884
43784,46941
43752,46973
43742,46978
43726,46960
43704,46911
43681,46839
43658,46754
43641,46678
43632,46617
43622,46527
43612,46420
43603,46305
43601,46276
43591,46145
43576,46004
43559,45868
43542,45755
43542,45752
43521,45607
43515,45494
36129,45494
36190,45751
36234,45944
36269,46105
36297,46243
36317,46365
36330,46478
36339,46590
36343,46708
36344,46839
36343,46938
36340,47015
36334,47077
36325,47114
36324,47115
36289,47136
36228,47141
36148,47130
36061,47105
36045,47099
35898,47061
35746,47058
35598,47089
35526,47119
35409,47195
35297,47298
35201,47418
35144,47518
35120,47574
35104,47627
35096,47687
35092,47768
35092,47838
35093,47937
35098,48008
35108,48062
35125,48113
35148,48161
35236,48303
35346,48410
35478,48485
35632,48526
35705,48534
35887,48526
36066,48478
36244,48392
36252,48387
36363,48321
36447,48276
36510,48250
36558,48241
36599,48249
36637,48271
36660,48290
36695,48325
36731,48377
36769,48447
36812,48540
36859,48658
36914,48804
36976,48982
37048,49195
37064,49243
37128,49433
37178,49580
45460,49580
45593,49204
45657,49025
45711,48877
45757,48754
45799,48648
45839,48553
45880,48463
45925,48370
45961,48298
46010,48203
46076,48083
46156,47943
46245,47788
46341,47623
46442,47455
46542,47287
46641,47125
46734,46975
46818,46842
46890,46730
46947,46646
46968,46618
47199,46341
47456,46095
47737,45880
48044,45696
48376,45542
48733,45420
48932,45368
49089,45332
49258,45295
49434,45258
49610,45223
49781,45190
49941,45161
50085,45136
50206,45117
50299,45105
50352,45100
50385,45106
50448,45124
50531,45149
50626,45181
50642,45187
50765,45230
50902,45278
51035,45324
51122,45355
51244,45395
51357,45429
51470,45457
51592,45481
51731,45504
51897,45526
51994,45538
52201,45565
52373,45588
52512,45611
52623,45632
52709,45655
52774,45678
52821,45704
52856,45734
52879,45765
52908,45825
52932,45904
52953,46006
52971,46134
52986,46292
52992,46382
53766,46382
53770,46327
53771,46320
53798,46287
53852,46280
53934,46297
54026,46331
54152,46393
54243,46455
54305,46524
54317,46544
54327,46565
54335,46593
54341,46630
54345,46683
54348,46754
54350,46850
54351,46942
55039,46942
55046,46891
55068,46864
55094,46858
55123,46866
55179,46889
55253,46922
55310,46950
55497,47041
55733,47040
56003,47025
56302,46986
56628,46922
56980,46834
57354,46723
57582,46648
57799,46571
57983,46499
58142,46429
58282,46357
58409,46280
58531,46195
58566,46169
58744,46051
58957,45939
59204,45835
59480,45740
59782,45655
60107,45581
60402,45528
60532,45507
60666,45484
60793,45463
60898,45444
60932,45438
61048,45418
61133,45406
61194,45401
61238,45404
61274,45414
61287,45420
61324,45442
61355,45478
61386,45535
61419,45620
61436,45667
61487,45864
61499,46055
61471,46243
61404,46429
61375,46488
61292,46616
61174,46752
61104,46819
70768,46819
70770,46726
70801,46549
70853,46377
70924,46220
71010,46089
71043,46049
71123,45978
71223,45912
71328,45860
71423,45830
71426,45830
71518,45831
71602,45863
71665,45922
71673,45935
71707,45978
71741,46004
71744,46004
71792,45998
71862,45961
71951,45895
72012,45843
72128,45746
72235,45680
72342,45641
72457,45627
72591,45637
72732,45662
72800,45681
72887,45711
72975,45746
72985,45751
73060,45782
73122,45805
73162,45817
73168,45818
73208,45832
73266,45869
73337,45924
73411,45991
73482,46063
73517,46102
73624,46256
73691,46417
73719,46585
73707,46759
73682,46862
73638,46987
73583,47113
73521,47232
73457,47334
73396,47409
73376,47428
73265,47501
73121,47556
72945,47593
72734,47612
72490,47614
72211,47598
71919,47567
71726,47541
71567,47511
71434,47475
71320,47431
71218,47375
71122,47304
71024,47217
70994,47187
70895,47082
70827,46991
70786,46905
70768,46819
61104,46819
61025,46894
60851,47038
60654,47182
60440,47324
60212,47460
59975,47588
59732,47706
59488,47810
59247,47898
59122,47938
59052,47961
58955,47997
58843,48042
58724,48092
58652,48122
58469,48202
58313,48267
58176,48322
58049,48369
57923,48412
57789,48454
57674,48488
57536,48530
57378,48580
57219,48633
57078,48682
57062,48688
56807,48779
56586,48851
56397,48906
56240,48944
56112,48965
56011,48970
55939,48960
55860,48920
55773,48848
55686,48751
55603,48634
55583,48602
55528,48497
55466,48359
55400,48194
55331,48009
55262,47808
55196,47599
55134,47388
55103,47275
55067,47131
55046,47021
55039,46942
54351,46942
54351,46974
54352,47130
54352,47248
54351,47483
54348,47684
54342,47859
54333,48014
54320,48156
54304,48291
54283,48425
54270,48497
54253,48581
54234,48655
54217,48707
54213,48715
54187,48765
54153,48712
54137,48675
54117,48607
54094,48515
54069,48406
54052,48324
54028,48202
54003,48085
53981,47981
53963,47901
53955,47868
53932,47770
53909,47647
53885,47506
53862,47351
53839,47189
53819,47026
53801,46866
53786,46716
53774,46582
53767,46468
53766,46382
52992,46382
52999,46481
53009,46707
53012,46768
53022,46987
53035,47177
53051,47346
53072,47506
53099,47666
53117,47758
53138,47871
53153,47969
53163,48064
53168,48168
53171,48294
53171,48378
53171,48516
53168,48622
53163,48704
53154,48769
53142,48824
53135,48847
53069,49022
52978,49191
52858,49361
52706,49539
52681,49566
52567,49680
52450,49784
52327,49879
52195,49968
52049,50051
51886,50131
51703,50208
51497,50285
51264,50363
51000,50443
50703,50528
50482,50588
50306,50636
50113,50688
49917,50742
49727,50794
49556,50841
49452,50871
49235,50930
49047,50977
48877,51015
48717,51044
48556,51066
48385,51083
48196,51097
48095,51102
47770,51114
47474,51111
47193,51093
46918,51059
46639,51007
46382,50948
46166,50892
45981,50838
45828,50788
45709,50743
45626,50702
45582,50668
45568,50631
45558,50563
45551,50472
45551,50462
45546,50381
45538,50272
45526,50146
45512,50014
45503,49933
45460,49580
37178,49580
37182,49590
37229,49721
37271,49831
37311,49925
37351,50010
37395,50091
37443,50173
37499,50263
37506,50275
37567,50378
37631,50500
37688,50620
37711,50675
37753,50777
37805,50901
37861,51031
37914,51151
37917,51158
38013,51381
38092,51577
38154,51752
38203,51913
38240,52068
38267,52223
38282,52338
38303,52487
38327,52602
38356,52689
38392,52753
38423,52789
38454,52816
38484,52834
38524,52845
38584,52851
38673,52855
38679,52855
38782,52856
38875,52850
38966,52835
39064,52809
39177,52770
39313,52716
39386,52685
39493,52641
39596,52599
39686,52563
39752,52538
39762,52535
39911,52497
40088,52474
40283,52467
40488,52474
40694,52494
40891,52528
41071,52575
41207,52625
41271,52657
41354,52704
41443,52758
41486,52786
41666,52895
41872,53009
42092,53119
42315,53220
42423,53265
42533,53311
42642,53358
42739,53401
42812,53436
42822,53441
42872,53467
42913,53485
42956,53497
43007,53505
43075,53510
43169,53513
43259,53515
43417,53517
43546,53513
" /> 
</g>
<g style="fill:#840000; fill-opacity:1.0; 
stroke:#840000; stroke-width:3.93701; stroke-opacity:1; 
stroke-linecap:round; stroke-linejoin:round;">
</g>
<g style="fill:#840000; fill-opacity:1.0; 
stroke:#840000; stroke-width:0; stroke-opacity:1; 
stroke-linecap:round; stroke-linejoin:round;">
<circle cx="69687" cy="32253.9" r="393.5" /> 
</g>
<g style="fill:#840000; fill-opacity:1.0; 
stroke:#840000; stroke-width:39.3701; stroke-opacity:1; 
stroke-linecap:round; stroke-linejoin:round;">
</g>
<g style="fill:#840000; fill-opacity:1.0; 
stroke:#840000; stroke-width:0; stroke-opacity:1; 
stroke-linecap:round; stroke-linejoin:round;">
<circle cx="69687" cy="35253.9" r="393.5" /> 
</g>
<g style="fill:#840000; fill-opacity:1.0; 
stroke:#840000; stroke-width:39.3701; stroke-opacity:1; 
stroke-linecap:round; stroke-linejoin:round;">
</g> 
</svg>
