999
dxfrw 0.5.11
0
SECTION
2
HEADER
9
$ACADVER
1
AC1021
9
$HANDSEED
5
20000
9
$DWGCODEPAGE
3
ANSI_1252
9
$INSBASE
10
0
20
0
30
0
9
$EXTMIN
10
25
20
5
30
0
9
$EXTMAX
10
292
20
205
30
0
9
$LIMMIN
10
0
20
0
9
$LIMMAX
10
420
20
297
9
$ORTHOMODE
70
0
9
$LTSCALE
40
1
9
$TEXTSTYLE
7
STANDARD
9
$CLAYER
8
border
9
$DIMASZ
40
2.5
9
$DIMLFAC
40
1
9
$DIMSCALE
40
1
9
$DIMEXO
40
0.625
9
$DIMEXE
40
1.25
9
$DIMTXT
40
2.5
9
$DIMTSZ
40
0
9
$DIMAUNIT
70
0
9
$DIMADEC
70
2
9
$DIMLUNIT
70
2
9
$DIMSTYLE
2
STANDARD
9
$DIMGAP
40
0.625
9
$DIMTIH
70
0
9
$LUNITS
70
2
9
$LUPREC
70
4
9
$AUNITS
70
0
9
$AUPREC
70
2
9
$SPLINESEGS
70
8
9
$GRIDMODE
70
1
9
$SNAPSTYLE
70
0
9
$GRIDUNIT
10
0
20
0
9
$PINSBASE
10
-10
20
0
30
0
9
$PLIMMIN
10
0
20
0
9
$PLIMMAX
10
297
20
210
9
$INSUNITS
70
4
9
$PSVPSCALE
40
1
0
ENDSEC
0
SECTION
2
CLASSES
0
ENDSEC
0
SECTION
2
TABLES
0
TABLE
2
VPORT
5
8
330
0
100
AcDbSymbolTable
70
1
0
VPORT
5
31
330
2
100
AcDbSymbolTableRecord
100
AcDbViewportTableRecord
2
*ACTIVE
70
0
10
0
20
0
11
1
21
1
12
166.9661637
22
86.028695761
13
0
23
0
14
10
24
10
15
10
25
10
16
0
26
0
36
1
17
0
27
0
37
0
40
123.233822152
41
2.15889830508
42
50
43
0
44
0
50
0
51
0
71
0
72
100
73
1
74
3
75
0
76
1
77
0
78
0
281
0
65
1
110
0
120
0
130
0
111
1
121
0
131
0
112
0
122
1
132
0
79
0
146
0
348
10020
60
7
61
5
292
1
282
1
141
0
142
0
63
250
421
3358443
0
ENDTAB
0
TABLE
2
LTYPE
5
5
330
0
100
AcDbSymbolTable
70
4
0
LTYPE
5
14
330
5
100
AcDbSymbolTableRecord
100
AcDbLinetypeTableRecord
2
ByBlock
70
0
3

72
65
73
0
40
0
0
LTYPE
5
15
330
5
100
AcDbSymbolTableRecord
100
AcDbLinetypeTableRecord
2
ByLayer
70
0
3

72
65
73
0
40
0
0
LTYPE
5
16
330
5
100
AcDbSymbolTableRecord
100
AcDbLinetypeTableRecord
2
Continuous
70
0
3
Solid line
72
65
73
0
40
0
0
LTYPE
5
32
330
5
100
AcDbSymbolTableRecord
100
AcDbLinetypeTableRecord
2
DOT
70
0
3
Dot . . . . . . . . . . . . . . . . . . . . . .
72
65
73
2
40
6.35
49
0
74
0
49
-6.35
74
0
0
LTYPE
5
33
330
5
100
AcDbSymbolTableRecord
100
AcDbLinetypeTableRecord
2
DOT2
70
0
3
Dot (.5x) .....................................
72
65
73
2
40
3.175
49
0
74
0
49
-3.175
74
0
0
LTYPE
5
34
330
5
100
AcDbSymbolTableRecord
100
AcDbLinetypeTableRecord
2
DOTX2
70
0
3
Dot (2x) .  .  .  .  .  .  .  .  .  .  .  .  .
72
65
73
2
40
12.7
49
0
74
0
49
-12.7
74
0
0
LTYPE
5
35
330
5
100
AcDbSymbolTableRecord
100
AcDbLinetypeTableRecord
2
DASHED
70
0
3
Dot . . . . . . . . . . . . . . . . . . . . . .
72
65
73
2
40
19.05
49
12.7
74
0
49
-6.35
74
0
0
LTYPE
5
36
330
5
100
AcDbSymbolTableRecord
100
AcDbLinetypeTableRecord
2
DASHED2
70
0
3
Dashed (.5x) _ _ _ _ _ _ _ _ _ _ _ _ _ _ _ _ _
72
65
73
2
40
9.525
49
6.35
74
0
49
-3.175
74
0
0
LTYPE
5
37
330
5
100
AcDbSymbolTableRecord
100
AcDbLinetypeTableRecord
2
DASHEDX2
70
0
3
Dashed (2x) ____  ____  ____  ____  ____  ___
72
65
73
2
40
38.1
49
25.4
74
0
49
-12.7
74
0
0
LTYPE
5
38
330
5
100
AcDbSymbolTableRecord
100
AcDbLinetypeTableRecord
2
DASHDOT
70
0
3
Dash dot __ . __ . __ . __ . __ . __ . __ . __
72
65
73
4
40
25.4
49
12.7
74
0
49
-6.35
74
0
49
0
74
0
49
-6.35
74
0
0
LTYPE
5
39
330
5
100
AcDbSymbolTableRecord
100
AcDbLinetypeTableRecord
2
DASHDOT2
70
0
3
Dash dot (.5x) _._._._._._._._._._._._._._._.
72
65
73
4
40
12.7
49
6.35
74
0
49
-3.175
74
0
49
0
74
0
49
-3.175
74
0
0
LTYPE
5
3A
330
5
100
AcDbSymbolTableRecord
100
AcDbLinetypeTableRecord
2
DASHDOTX2
70
0
3
Dash dot (2x) ____  .  ____  .  ____  .  ___
72
65
73
4
40
50.8
49
25.4
74
0
49
-12.7
74
0
49
0
74
0
49
-12.7
74
0
0
LTYPE
5
3B
330
5
100
AcDbSymbolTableRecord
100
AcDbLinetypeTableRecord
2
DIVIDE
70
0
3
Divide ____ . . ____ . . ____ . . ____ . . ____
72
65
73
6
40
31.75
49
12.7
74
0
49
-6.35
74
0
49
0
74
0
49
-6.35
74
0
49
0
74
0
49
-6.35
74
0
0
LTYPE
5
3C
330
5
100
AcDbSymbolTableRecord
100
AcDbLinetypeTableRecord
2
DIVIDE2
70
0
3
Divide (.5x) __..__..__..__..__..__..__..__.._
72
65
73
6
40
15.875
49
6.35
74
0
49
-3.175
74
0
49
0
74
0
49
-3.175
74
0
49
0
74
0
49
-3.175
74
0
0
LTYPE
5
3D
330
5
100
AcDbSymbolTableRecord
100
AcDbLinetypeTableRecord
2
DIVIDEX2
70
0
3
Divide (2x) ________  .  .  ________  .  .  _
72
65
73
6
40
63.5
49
25.4
74
0
49
-12.7
74
0
49
0
74
0
49
-12.7
74
0
49
0
74
0
49
-12.7
74
0
0
LTYPE
5
3E
330
5
100
AcDbSymbolTableRecord
100
AcDbLinetypeTableRecord
2
BORDER
70
0
3
Border __ __ . __ __ . __ __ . __ __ . __ __ .
72
65
73
6
40
44.45
49
12.7
74
0
49
-6.35
74
0
49
12.7
74
0
49
-6.35
74
0
49
0
74
0
49
-6.35
74
0
0
LTYPE
5
3F
330
5
100
AcDbSymbolTableRecord
100
AcDbLinetypeTableRecord
2
BORDER2
70
0
3
Border (.5x) __.__.__.__.__.__.__.__.__.__.__.
72
65
73
6
40
22.225
49
6.35
74
0
49
-3.175
74
0
49
6.35
74
0
49
-3.175
74
0
49
0
74
0
49
-3.175
74
0
0
LTYPE
5
40
330
5
100
AcDbSymbolTableRecord
100
AcDbLinetypeTableRecord
2
BORDERX2
70
0
3
Border (2x) ____  ____  .  ____  ____  .  ___
72
65
73
6
40
88.9
49
25.4
74
0
49
-12.7
74
0
49
25.4
74
0
49
-12.7
74
0
49
0
74
0
49
-12.7
74
0
0
LTYPE
5
41
330
5
100
AcDbSymbolTableRecord
100
AcDbLinetypeTableRecord
2
CENTER
70
0
3
Center ____ _ ____ _ ____ _ ____ _ ____ _ ____
72
65
73
4
40
50.8
49
31.75
74
0
49
-6.35
74
0
49
6.35
74
0
49
-6.35
74
0
0
LTYPE
5
42
330
5
100
AcDbSymbolTableRecord
100
AcDbLinetypeTableRecord
2
CENTER2
70
0
3
Center (.5x) ___ _ ___ _ ___ _ ___ _ ___ _ ___
72
65
73
4
40
28.575
49
19.05
74
0
49
-3.175
74
0
49
3.175
74
0
49
-3.175
74
0
0
LTYPE
5
43
330
5
100
AcDbSymbolTableRecord
100
AcDbLinetypeTableRecord
2
CENTERX2
70
0
3
Center (2x) ________  __  ________  __  _____
72
65
73
4
40
101.6
49
63.5
74
0
49
-12.7
74
0
49
12.7
74
0
49
-12.7
74
0
0
ENDTAB
0
TABLE
2
LAYER
5
2
330
0
100
AcDbSymbolTable
70
1
0
LAYER
5
10
330
2
100
AcDbSymbolTableRecord
100
AcDbLayerTableRecord
2
0
70
0
62
4
6
CONTINUOUS
290
0
370
0
390
F
0
LAYER
5
44
330
2
100
AcDbSymbolTableRecord
100
AcDbLayerTableRecord
2
axis
70
4
62
3
6
DASHDOTX2
370
25
390
F
0
LAYER
5
45
330
2
100
AcDbSymbolTableRecord
100
AcDbLayerTableRecord
2
border
70
0
62
7
6
CONTINUOUS
370
25
390
F
0
LAYER
5
46
330
2
100
AcDbSymbolTableRecord
100
AcDbLayerTableRecord
2
chassis
70
0
62
1
6
CONTINUOUS
370
25
390
F
0
LAYER
5
47
330
2
100
AcDbSymbolTableRecord
100
AcDbLayerTableRecord
2
componentes
70
0
62
6
6
CONTINUOUS
370
50
390
F
0
LAYER
5
48
330
2
100
AcDbSymbolTableRecord
100
AcDbLayerTableRecord
2
dimensiones
70
4
62
5
6
CONTINUOUS
370
25
390
F
0
LAYER
5
49
330
2
100
AcDbSymbolTableRecord
100
AcDbLayerTableRecord
2
silk
70
0
62
3
6
CONTINUOUS
370
25
390
F
0
ENDTAB
0
TABLE
2
STYLE
5
3
330
0
100
AcDbSymbolTable
70
3
0
STYLE
5
4A
330
2
100
AcDbSymbolTableRecord
100
AcDbTextStyleTableRecord
2
standard
70
0
40
0
41
1
50
0
71
0
42
1
3
standard
4

0
ENDTAB
0
TABLE
2
VIEW
5
6
330
0
100
AcDbSymbolTable
70
0
0
ENDTAB
0
TABLE
2
UCS
5
7
330
0
100
AcDbSymbolTable
70
0
0
ENDTAB
0
TABLE
2
APPID
5
9
330
0
100
AcDbSymbolTable
70
1
0
APPID
5
12
330
9
100
AcDbSymbolTableRecord
100
AcDbRegAppTableRecord
2
ACAD
70
0
0
ENDTAB
0
TABLE
2
DIMSTYLE
5
A
330
0
100
AcDbSymbolTable
70
1
100
AcDbDimStyleTable
71
1
0
DIMSTYLE
105
4B
330
A
100
AcDbSymbolTableRecord
100
AcDbDimStyleTableRecord
2
Standard
70
0
40
1
41
2.5
42
0.625
43
0.38
44
1.25
45
0
46
0
47
0
48
0
140
2.5
141
0.09
142
0
143
25.4
144
1
145
0
146
1
147
0.625
148
0
71
0
72
0
73
0
74
1
75
0
76
0
77
0
78
0
79
0
170
0
171
2
172
0
173
0
174
0
175
0
176
0
177
0
178
0
179
0
271
4
272
4
273
2
274
2
275
0
276
0
277
2
278
46
279
0
280
0
281
0
282
0
283
1
284
0
285
0
286
0
288
0
289
3
340
Standard
341

371
-2
372
-2
0
ENDTAB
0
TABLE
2
BLOCK_RECORD
5
1
330
0
100
AcDbSymbolTable
70
2
0
BLOCK_RECORD
5
1F
330
1
100
AcDbSymbolTableRecord
100
AcDbBlockTableRecord
2
*Model_Space
70
0
280
1
281
0
0
BLOCK_RECORD
5
1E
330
1
100
AcDbSymbolTableRecord
100
AcDbBlockTableRecord
2
*Paper_Space
70
0
280
1
281
0
0
BLOCK_RECORD
5
4C
330
1
100
AcDbSymbolTableRecord
100
AcDbBlockTableRecord
2
*D17
70
0
280
1
281
0
0
BLOCK_RECORD
5
4F
330
1
100
AcDbSymbolTableRecord
100
AcDbBlockTableRecord
2
*D12
70
0
280
1
281
0
0
BLOCK_RECORD
5
52
330
1
100
AcDbSymbolTableRecord
100
AcDbBlockTableRecord
2
*D4
70
0
280
1
281
0
0
BLOCK_RECORD
5
55
330
1
100
AcDbSymbolTableRecord
100
AcDbBlockTableRecord
2
*D7
70
0
280
1
281
0
0
BLOCK_RECORD
5
58
330
1
100
AcDbSymbolTableRecord
100
AcDbBlockTableRecord
2
*D10
70
0
280
1
281
0
0
BLOCK_RECORD
5
5B
330
1
100
AcDbSymbolTableRecord
100
AcDbBlockTableRecord
2
*D19
70
0
280
1
281
0
0
BLOCK_RECORD
5
5E
330
1
100
AcDbSymbolTableRecord
100
AcDbBlockTableRecord
2
*D5
70
0
280
1
281
0
0
BLOCK_RECORD
5
61
330
1
100
AcDbSymbolTableRecord
100
AcDbBlockTableRecord
2
*D23
70
0
280
1
281
0
0
BLOCK_RECORD
5
64
330
1
100
AcDbSymbolTableRecord
100
AcDbBlockTableRecord
2
*D3
70
0
280
1
281
0
0
BLOCK_RECORD
5
67
330
1
100
AcDbSymbolTableRecord
100
AcDbBlockTableRecord
2
*D11
70
0
280
1
281
0
0
BLOCK_RECORD
5
6A
330
1
100
AcDbSymbolTableRecord
100
AcDbBlockTableRecord
2
*D21
70
0
280
1
281
0
0
BLOCK_RECORD
5
6D
330
1
100
AcDbSymbolTableRecord
100
AcDbBlockTableRecord
2
*D14
70
0
280
1
281
0
0
BLOCK_RECORD
5
70
330
1
100
AcDbSymbolTableRecord
100
AcDbBlockTableRecord
2
*D1
70
0
280
1
281
0
0
BLOCK_RECORD
5
73
330
1
100
AcDbSymbolTableRecord
100
AcDbBlockTableRecord
2
*D20
70
0
280
1
281
0
0
BLOCK_RECORD
5
76
330
1
100
AcDbSymbolTableRecord
100
AcDbBlockTableRecord
2
*D6
70
0
280
1
281
0
0
BLOCK_RECORD
5
79
330
1
100
AcDbSymbolTableRecord
100
AcDbBlockTableRecord
2
*D2
70
0
280
1
281
0
0
BLOCK_RECORD
5
7C
330
1
100
AcDbSymbolTableRecord
100
AcDbBlockTableRecord
2
*D18
70
0
280
1
281
0
0
BLOCK_RECORD
5
7F
330
1
100
AcDbSymbolTableRecord
100
AcDbBlockTableRecord
2
*D16
70
0
280
1
281
0
0
BLOCK_RECORD
5
82
330
1
100
AcDbSymbolTableRecord
100
AcDbBlockTableRecord
2
*D13
70
0
280
1
281
0
0
BLOCK_RECORD
5
85
330
1
100
AcDbSymbolTableRecord
100
AcDbBlockTableRecord
2
*D8
70
0
280
1
281
0
0
BLOCK_RECORD
5
88
330
1
100
AcDbSymbolTableRecord
100
AcDbBlockTableRecord
2
*D9
70
0
280
1
281
0
0
BLOCK_RECORD
5
8B
330
1
100
AcDbSymbolTableRecord
100
AcDbBlockTableRecord
2
*D22
70
0
280
1
281
0
0
BLOCK_RECORD
5
8E
330
1
100
AcDbSymbolTableRecord
100
AcDbBlockTableRecord
2
*D15
70
0
280
1
281
0
0
BLOCK_RECORD
5
91
330
1
100
AcDbSymbolTableRecord
100
AcDbBlockTableRecord
2
raptor_silk
70
0
280
1
281
0
0
BLOCK_RECORD
5
94
330
1
100
AcDbSymbolTableRecord
100
AcDbBlockTableRecord
2
chassis
70
0
280
1
281
0
0
BLOCK_RECORD
5
97
330
1
100
AcDbSymbolTableRecord
100
AcDbBlockTableRecord
2
Chassis
70
0
280
1
281
0
0
ENDTAB
0
ENDSEC
0
SECTION
2
BLOCKS
0
BLOCK
5
20
330
1F
100
AcDbEntity
8
0
100
AcDbBlockBegin
2
*Model_Space
70
0
10
0
20
0
30
0
3
*Model_Space
1

0
ENDBLK
5
21
330
1F
100
AcDbEntity
8
0
100
AcDbBlockEnd
0
BLOCK
5
1C
330
1B
100
AcDbEntity
8
0
100
AcDbBlockBegin
2
*Paper_Space
70
0
10
0
20
0
30
0
3
*Paper_Space
1

0
ENDBLK
5
1D
330
1F
100
AcDbEntity
8
0
100
AcDbBlockEnd
0
BLOCK
5
4D
330
4C
100
AcDbEntity
8
0
100
AcDbBlockBegin
2
*D17
70
1
10
0
20
0
3
*D17
1

0
LINE
5
9A
100
AcDbEntity
8
dimensiones
6
CONTINUOUS
62
7
370
0
100
AcDbLine
10
218
20
132
11
218
21
106
0
SOLID
5
9B
100
AcDbEntity
8
dimensiones
6
CONTINUOUS
62
7
370
0
100
AcDbTrace
10
218
20
132
30
0
11
218.416284658
21
129.5
31
0
12
217.583715342
22
129.5
32
0
13
217.583715342
23
129.5
33
0
0
SOLID
5
9C
100
AcDbEntity
8
dimensiones
6
CONTINUOUS
62
7
370
0
100
AcDbTrace
10
218
20
106
30
0
11
217.583715342
21
108.5
31
0
12
218.416284658
22
108.5
32
0
13
218.416284658
23
108.5
33
0
0
MTEXT
5
9D
100
AcDbEntity
8
dimensiones
6
CONTINUOUS
62
7
370
0
100
AcDbMText
10
216.125
20
119
30
0
40
2.5
41
3.05555555556
71
5
72
1
1
26
7
standard
210
0
220
0
230
1
50
90
73
2
44
1
0
LINE
5
9E
100
AcDbEntity
8
dimensiones
6
CONTINUOUS
62
7
370
0
100
AcDbLine
10
215.625
20
132
11
219.25
21
132
0
LINE
5
9F
100
AcDbEntity
8
dimensiones
6
CONTINUOUS
62
7
370
0
100
AcDbLine
10
215.625
20
106
11
219.25
21
106
0
ENDBLK
5
4E
330
4C
100
AcDbEntity
8
0
100
AcDbBlockEnd
0
BLOCK
5
50
330
4F
100
AcDbEntity
8
0
100
AcDbBlockBegin
2
*D12
70
1
10
0
20
0
3
*D12
1

0
LINE
5
A0
100
AcDbEntity
8
dimensiones
6
CONTINUOUS
62
7
370
0
100
AcDbLine
10
85
20
72
11
100.5
21
72
0
SOLID
5
A1
100
AcDbEntity
8
dimensiones
6
CONTINUOUS
62
7
370
0
100
AcDbTrace
10
90
20
72
30
0
11
87.5
21
71.5837153422
31
0
12
87.5
22
72.4162846578
32
0
13
87.5
23
72.4162846578
33
0
0
SOLID
5
A2
100
AcDbEntity
8
dimensiones
6
CONTINUOUS
62
7
370
0
100
AcDbTrace
10
95.5
20
72
30
0
11
98
21
72.4162846578
31
0
12
98
22
71.5837153422
32
0
13
98
23
71.5837153422
33
0
0
MTEXT
5
A3
100
AcDbEntity
8
dimensiones
6
CONTINUOUS
62
7
370
0
100
AcDbMText
10
92.75
20
73.875
30
0
40
2.5
41
3.88888888889
71
5
72
1
1
5.5
7
standard
210
0
220
0
230
1
50
0
73
2
44
1
0
LINE
5
A4
100
AcDbEntity
8
dimensiones
6
CONTINUOUS
62
7
370
0
100
AcDbLine
10
90
20
76.375
11
90
21
70.75
0
LINE
5
A5
100
AcDbEntity
8
dimensiones
6
CONTINUOUS
62
7
370
0
100
AcDbLine
10
95.5
20
76.375
11
95.5
21
70.75
0
ENDBLK
5
51
330
4F
100
AcDbEntity
8
0
100
AcDbBlockEnd
0
BLOCK
5
53
330
52
100
AcDbEntity
8
0
100
AcDbBlockBegin
2
*D4
70
1
10
0
20
0
3
*D4
1

0
LINE
5
A6
100
AcDbEntity
8
dimensiones
6
CONTINUOUS
62
7
370
0
100
AcDbLine
10
234
20
150.000002697
11
234
21
89.9999983482
0
SOLID
5
A7
100
AcDbEntity
8
dimensiones
6
CONTINUOUS
62
7
370
0
100
AcDbTrace
10
234
20
150.000002697
30
0
11
234.416284658
21
147.500002697
31
0
12
233.583715342
22
147.500002697
32
0
13
233.583715342
23
147.500002697
33
0
0
SOLID
5
A8
100
AcDbEntity
8
dimensiones
6
CONTINUOUS
62
7
370
0
100
AcDbTrace
10
234
20
89.9999983482
30
0
11
233.583715342
21
92.4999983482
31
0
12
234.416284658
22
92.4999983482
32
0
13
234.416284658
23
92.4999983482
33
0
0
MTEXT
5
A9
100
AcDbEntity
8
dimensiones
6
CONTINUOUS
62
7
370
0
100
AcDbMText
10
232.125
20
120.000000523
30
0
40
2.5
41
3.05555555556
71
5
72
1
1
60
7
standard
210
0
220
0
230
1
50
90
73
2
44
1
0
LINE
5
AA
100
AcDbEntity
8
dimensiones
6
CONTINUOUS
62
7
370
0
100
AcDbLine
10
225.625
20
150.000002697
11
235.25
21
150.000002697
0
LINE
5
AB
100
AcDbEntity
8
dimensiones
6
CONTINUOUS
62
7
370
0
100
AcDbLine
10
225.625
20
89.9999983482
11
235.25
21
89.9999983482
0
ENDBLK
5
54
330
52
100
AcDbEntity
8
0
100
AcDbBlockEnd
0
BLOCK
5
56
330
55
100
AcDbEntity
8
0
100
AcDbBlockBegin
2
*D7
70
1
10
0
20
0
3
*D7
1

0
ENDBLK
5
57
330
55
100
AcDbEntity
8
0
100
AcDbBlockEnd
0
BLOCK
5
59
330
58
100
AcDbEntity
8
0
100
AcDbBlockBegin
2
*D10
70
1
10
0
20
0
3
*D10
1

0
LINE
5
AC
100
AcDbEntity
8
dimensiones
6
CONTINUOUS
62
7
370
0
100
AcDbLine
10
100
20
163
11
100
21
170
0
SOLID
5
AD
100
AcDbEntity
8
dimensiones
6
CONTINUOUS
62
7
370
0
100
AcDbTrace
10
100
20
163
30
0
11
99.5837153422
21
165.5
31
0
12
100.416284658
22
165.5
32
0
13
100.416284658
23
165.5
33
0
0
SOLID
5
AE
100
AcDbEntity
8
dimensiones
6
CONTINUOUS
62
7
370
0
100
AcDbTrace
10
100
20
170
30
0
11
100.416284658
21
167.5
31
0
12
99.5837153422
22
167.5
32
0
13
99.5837153422
23
167.5
33
0
0
MTEXT
5
AF
100
AcDbEntity
8
dimensiones
6
CONTINUOUS
62
7
370
0
100
AcDbMText
10
98.125
20
166.5
30
0
40
2.5
41
1.11111111111
71
5
72
1
1
7
7
standard
210
0
220
0
230
1
50
90
73
2
44
1
0
LINE
5
B0
100
AcDbEntity
8
dimensiones
6
CONTINUOUS
62
7
370
0
100
AcDbLine
10
96.125
20
163
11
101.25
21
163
0
LINE
5
B1
100
AcDbEntity
8
dimensiones
6
CONTINUOUS
62
7
370
0
100
AcDbLine
10
96.125
20
170
11
101.25
21
170
0
ENDBLK
5
5A
330
58
100
AcDbEntity
8
0
100
AcDbBlockEnd
0
BLOCK
5
5C
330
5B
100
AcDbEntity
8
0
100
AcDbBlockBegin
2
*D19
70
1
10
0
20
0
3
*D19
1

0
LINE
5
B2
100
AcDbEntity
8
dimensiones
6
CONTINUOUS
62
7
370
0
100
AcDbLine
10
206
20
120
11
206
21
126.5
0
SOLID
5
B3
100
AcDbEntity
8
dimensiones
6
CONTINUOUS
62
7
370
0
100
AcDbTrace
10
206
20
120
30
0
11
205.583715342
21
122.5
31
0
12
206.416284658
22
122.5
32
0
13
206.416284658
23
122.5
33
0
0
SOLID
5
B4
100
AcDbEntity
8
dimensiones
6
CONTINUOUS
62
7
370
0
100
AcDbTrace
10
206
20
126.5
30
0
11
206.416284658
21
124
31
0
12
205.583715342
22
124
32
0
13
205.583715342
23
124
33
0
0
MTEXT
5
B5
100
AcDbEntity
8
dimensiones
6
CONTINUOUS
62
7
370
0
100
AcDbMText
10
204.125
20
123.25
30
0
40
2.5
41
3.88888888889
71
5
72
1
1
6.5
7
standard
210
0
220
0
230
1
50
90
73
2
44
1
0
LINE
5
B6
100
AcDbEntity
8
dimensiones
6
CONTINUOUS
62
7
370
0
100
AcDbLine
10
209.375
20
120
11
204.75
21
120
0
LINE
5
B7
100
AcDbEntity
8
dimensiones
6
CONTINUOUS
62
7
370
0
100
AcDbLine
10
209.375
20
126.5
11
204.75
21
126.5
0
ENDBLK
5
5D
330
5B
100
AcDbEntity
8
0
100
AcDbBlockEnd
0
BLOCK
5
5F
330
5E
100
AcDbEntity
8
0
100
AcDbBlockBegin
2
*D5
70
1
10
0
20
0
3
*D5
1

0
LINE
5
B8
100
AcDbEntity
8
dimensiones
6
CONTINUOUS
62
7
370
0
100
AcDbLine
10
224.5254834
20
85.4745166009
11
215.4745166
21
94.5254833991
0
SOLID
5
B9
100
AcDbEntity
8
dimensiones
6
CONTINUOUS
62
7
370
0
100
AcDbTrace
10
220.989949494
20
89.0100505063
30
0
11
223.052074152
21
87.5366412581
31
0
12
222.463358743
22
86.9479258491
32
0
13
222.463358743
23
86.9479258491
33
0
0
SOLID
5
BA
100
AcDbEntity
8
dimensiones
6
CONTINUOUS
62
7
370
0
100
AcDbTrace
10
219.010050506
20
90.9899494937
30
0
11
216.947925848
21
92.4633587419
31
0
12
217.536641257
22
93.0520741509
32
0
13
217.536641257
23
93.0520741509
33
0
0
MTEXT
5
BB
100
AcDbEntity
8
dimensiones
6
CONTINUOUS
62
7
370
0
100
AcDbMText
10
224.1326463
20
88.5190041309
30
0
40
2.5
41
3.88888888889
71
5
72
1
1
2.8
7
standard
210
0
220
0
230
1
50
315.000000009
73
2
44
1
0
ENDBLK
5
60
330
5E
100
AcDbEntity
8
0
100
AcDbBlockEnd
0
BLOCK
5
62
330
61
100
AcDbEntity
8
0
100
AcDbBlockBegin
2
*D23
70
1
10
0
20
0
3
*D23
1

0
LINE
5
BC
100
AcDbEntity
8
dimensiones
6
CONTINUOUS
62
7
370
0
100
AcDbLine
10
103
20
131.175
11
140.35
21
131.175
0
SOLID
5
BD
100
AcDbEntity
8
dimensiones
6
CONTINUOUS
62
7
370
0
100
AcDbTrace
10
103
20
131.175
30
0
11
105.5
21
131.591284658
31
0
12
105.5
22
130.758715342
32
0
13
105.5
23
130.758715342
33
0
0
SOLID
5
BE
100
AcDbEntity
8
dimensiones
6
CONTINUOUS
62
7
370
0
100
AcDbTrace
10
140.35
20
131.175
30
0
11
137.85
21
130.758715342
31
0
12
137.85
22
131.591284658
32
0
13
137.85
23
131.591284658
33
0
0
MTEXT
5
BF
100
AcDbEntity
8
dimensiones
6
CONTINUOUS
62
7
370
0
100
AcDbMText
10
121.675
20
133.05
30
0
40
2.5
41
7.77777777778
71
5
72
1
1
37.35
7
standard
210
0
220
0
230
1
50
0
73
2
44
1
0
LINE
5
C0
100
AcDbEntity
8
dimensiones
6
CONTINUOUS
62
7
370
0
100
AcDbLine
10
103
20
131.8
11
103
21
132.425
0
LINE
5
C1
100
AcDbEntity
8
dimensiones
6
CONTINUOUS
62
7
370
0
100
AcDbLine
10
140.35
20
131.8
11
140.35
21
132.425
0
ENDBLK
5
63
330
61
100
AcDbEntity
8
0
100
AcDbBlockEnd
0
BLOCK
5
65
330
64
100
AcDbEntity
8
0
100
AcDbBlockBegin
2
*D3
70
1
10
0
20
0
3
*D3
1

0
LINE
5
C2
100
AcDbEntity
8
dimensiones
6
CONTINUOUS
62
7
370
0
100
AcDbLine
10
215
20
160
11
225
21
160
0
SOLID
5
C3
100
AcDbEntity
8
dimensiones
6
CONTINUOUS
62
7
370
0
100
AcDbTrace
10
215
20
160
30
0
11
217.5
21
160.416284658
31
0
12
217.5
22
159.583715342
32
0
13
217.5
23
159.583715342
33
0
0
SOLID
5
C4
100
AcDbEntity
8
dimensiones
6
CONTINUOUS
62
7
370
0
100
AcDbTrace
10
225
20
160
30
0
11
222.5
21
159.583715342
31
0
12
222.5
22
160.416284658
32
0
13
222.5
23
160.416284658
33
0
0
MTEXT
5
C5
100
AcDbEntity
8
dimensiones
6
CONTINUOUS
62
7
370
0
100
AcDbMText
10
220
20
161.875
30
0
40
2.5
41
2.5
71
5
72
1
1
10
7
standard
210
0
220
0
230
1
50
0
73
2
44
1
0
LINE
5
C6
100
AcDbEntity
8
dimensiones
6
CONTINUOUS
62
7
370
0
100
AcDbLine
10
215
20
150.625002697
11
215
21
161.25
0
LINE
5
C7
100
AcDbEntity
8
dimensiones
6
CONTINUOUS
62
7
370
0
100
AcDbLine
10
225
20
150.625002697
11
225
21
161.25
0
ENDBLK
5
66
330
64
100
AcDbEntity
8
0
100
AcDbBlockEnd
0
BLOCK
5
68
330
67
100
AcDbEntity
8
0
100
AcDbBlockBegin
2
*D11
70
1
10
0
20
0
3
*D11
1

0
LINE
5
C8
100
AcDbEntity
8
dimensiones
6
CONTINUOUS
62
7
370
0
100
AcDbLine
10
105
20
150
11
105
21
170
0
SOLID
5
C9
100
AcDbEntity
8
dimensiones
6
CONTINUOUS
62
7
370
0
100
AcDbTrace
10
105
20
150
30
0
11
104.583715342
21
152.5
31
0
12
105.416284658
22
152.5
32
0
13
105.416284658
23
152.5
33
0
0
SOLID
5
CA
100
AcDbEntity
8
dimensiones
6
CONTINUOUS
62
7
370
0
100
AcDbTrace
10
105
20
170
30
0
11
105.416284658
21
167.5
31
0
12
104.583715342
22
167.5
32
0
13
104.583715342
23
167.5
33
0
0
MTEXT
5
CB
100
AcDbEntity
8
dimensiones
6
CONTINUOUS
62
7
370
0
100
AcDbMText
10
103.125
20
160
30
0
40
2.5
41
3.05555555556
71
5
72
1
1
20
7
standard
210
0
220
0
230
1
50
90
73
2
44
1
0
LINE
5
CC
100
AcDbEntity
8
dimensiones
6
CONTINUOUS
62
7
370
0
100
AcDbLine
10
106.875
20
150
11
103.75
21
150
0
LINE
5
CD
100
AcDbEntity
8
dimensiones
6
CONTINUOUS
62
7
370
0
100
AcDbLine
10
106.875
20
170
11
103.75
21
170
0
ENDBLK
5
69
330
67
100
AcDbEntity
8
0
100
AcDbBlockEnd
0
BLOCK
5
6B
330
6A
100
AcDbEntity
8
0
100
AcDbBlockBegin
2
*D21
70
1
10
0
20
0
3
*D21
1

0
LINE
5
CE
100
AcDbEntity
8
dimensiones
6
CONTINUOUS
62
7
370
0
100
AcDbLine
10
150
20
140.35
11
150
21
122
0
SOLID
5
CF
100
AcDbEntity
8
dimensiones
6
CONTINUOUS
62
7
370
0
100
AcDbTrace
10
150
20
140.35
30
0
11
150.416284658
21
137.85
31
0
12
149.583715342
22
137.85
32
0
13
149.583715342
23
137.85
33
0
0
SOLID
5
D0
100
AcDbEntity
8
dimensiones
6
CONTINUOUS
62
7
370
0
100
AcDbTrace
10
150
20
122
30
0
11
149.583715342
21
124.5
31
0
12
150.416284658
22
124.5
32
0
13
150.416284658
23
124.5
33
0
0
MTEXT
5
D1
100
AcDbEntity
8
dimensiones
6
CONTINUOUS
62
7
370
0
100
AcDbMText
10
148.125
20
131.175
30
0
40
2.5
41
7.22222222222
71
5
72
1
1
18.35
7
standard
210
0
220
0
230
1
50
90
73
2
44
1
0
LINE
5
D2
100
AcDbEntity
8
dimensiones
6
CONTINUOUS
62
7
370
0
100
AcDbLine
10
143.975
20
140.35
11
151.25
21
140.35
0
LINE
5
D3
100
AcDbEntity
8
dimensiones
6
CONTINUOUS
62
7
370
0
100
AcDbLine
10
143.975
20
122
11
151.25
21
122
0
ENDBLK
5
6C
330
6A
100
AcDbEntity
8
0
100
AcDbBlockEnd
0
BLOCK
5
6E
330
6D
100
AcDbEntity
8
0
100
AcDbBlockBegin
2
*D14
70
1
10
0
20
0
3
*D14
1

0
LINE
5
D4
100
AcDbEntity
8
dimensiones
6
CONTINUOUS
62
7
370
0
100
AcDbLine
10
90
20
94
11
107.5
21
94
0
SOLID
5
D5
100
AcDbEntity
8
dimensiones
6
CONTINUOUS
62
7
370
0
100
AcDbTrace
10
90
20
94
30
0
11
92.5
21
94.4162846578
31
0
12
92.5
22
93.5837153422
32
0
13
92.5
23
93.5837153422
33
0
0
SOLID
5
D6
100
AcDbEntity
8
dimensiones
6
CONTINUOUS
62
7
370
0
100
AcDbTrace
10
107.5
20
94
30
0
11
105
21
93.5837153422
31
0
12
105
22
94.4162846578
32
0
13
105
23
94.4162846578
33
0
0
MTEXT
5
D7
100
AcDbEntity
8
dimensiones
6
CONTINUOUS
62
7
370
0
100
AcDbMText
10
98.75
20
95.875
30
0
40
2.5
41
5.27777777778
71
5
72
1
1
17.5
7
standard
210
0
220
0
230
1
50
0
73
2
44
1
0
LINE
5
D8
100
AcDbEntity
8
dimensiones
6
CONTINUOUS
62
7
370
0
100
AcDbLine
10
90
20
90.625
11
90
21
95.25
0
LINE
5
D9
100
AcDbEntity
8
dimensiones
6
CONTINUOUS
62
7
370
0
100
AcDbLine
10
107.5
20
90.625
11
107.5
21
95.25
0
ENDBLK
5
6F
330
6D
100
AcDbEntity
8
0
100
AcDbBlockEnd
0
BLOCK
5
71
330
70
100
AcDbEntity
8
0
100
AcDbBlockBegin
2
*D1
70
1
10
0
20
0
3
*D1
1

0
LINE
5
DA
100
AcDbEntity
8
dimensiones
6
CONTINUOUS
62
7
370
0
100
AcDbLine
10
83
20
170
11
83
21
70
0
SOLID
5
DB
100
AcDbEntity
8
dimensiones
6
CONTINUOUS
62
7
370
0
100
AcDbTrace
10
83
20
170
30
0
11
83.4162846578
21
167.5
31
0
12
82.5837153422
22
167.5
32
0
13
82.5837153422
23
167.5
33
0
0
SOLID
5
DC
100
AcDbEntity
8
dimensiones
6
CONTINUOUS
62
7
370
0
100
AcDbTrace
10
83
20
70
30
0
11
82.5837153422
21
72.5
31
0
12
83.4162846578
22
72.5
32
0
13
83.4162846578
23
72.5
33
0
0
MTEXT
5
DD
100
AcDbEntity
8
dimensiones
6
CONTINUOUS
62
7
370
0
100
AcDbMText
10
81.125
20
120
30
0
40
2.5
41
4.44444444444
71
5
72
1
1
100
7
standard
210
0
220
0
230
1
50
90
73
2
44
1
0
LINE
5
DE
100
AcDbEntity
8
dimensiones
6
CONTINUOUS
62
7
370
0
100
AcDbLine
10
89.375
20
170
11
81.75
21
170
0
LINE
5
DF
100
AcDbEntity
8
dimensiones
6
CONTINUOUS
62
7
370
0
100
AcDbLine
10
89.375
20
70
11
81.75
21
70
0
ENDBLK
5
72
330
70
100
AcDbEntity
8
0
100
AcDbBlockEnd
0
BLOCK
5
74
330
73
100
AcDbEntity
8
0
100
AcDbBlockBegin
2
*D20
70
1
10
0
20
0
3
*D20
1

0
LINE
5
E0
100
AcDbEntity
8
dimensiones
6
CONTINUOUS
62
7
370
0
100
AcDbLine
10
205.313850194
20
117.405124838
11
214.686149806
21
109.594875162
0
SOLID
5
E1
100
AcDbEntity
8
dimensiones
6
CONTINUOUS
62
7
370
0
100
AcDbTrace
10
209.154956592
20
114.20420284
30
0
11
206.967904449
21
115.484865107
31
0
12
207.500902337
22
116.124462572
32
0
13
207.500902337
23
116.124462572
33
0
0
SOLID
5
E2
100
AcDbEntity
8
dimensiones
6
CONTINUOUS
62
7
370
0
100
AcDbTrace
10
210.845043408
20
112.79579716
30
0
11
213.032095551
21
111.515134893
31
0
12
212.499097663
22
110.875537428
32
0
13
212.499097663
23
110.875537428
33
0
0
MTEXT
5
E3
100
AcDbEntity
8
dimensiones
6
CONTINUOUS
62
7
370
0
100
AcDbMText
10
214.019291056
20
112.59129381
30
0
40
2.5
41
3.88888888889
71
5
72
1
1
2.2
7
standard
210
0
220
0
230
1
50
320.194428908
73
2
44
1
0
ENDBLK
5
75
330
73
100
AcDbEntity
8
0
100
AcDbBlockEnd
0
BLOCK
5
77
330
76
100
AcDbEntity
8
0
100
AcDbBlockBegin
2
*D6
70
1
10
0
20
0
3
*D6
1

0
SOLID
5
E4
100
AcDbEntity
8
dimensiones
6
CONTINUOUS
62
7
370
0
100
AcDbTrace
10
216.464466094
20
86.4644660941
30
0
11
214.991056845
21
84.4023414367
31
0
12
214.402341437
22
84.9910568456
32
0
13
214.402341437
23
84.9910568456
33
0
0
LINE
5
E5
100
AcDbEntity
8
dimensiones
6
CONTINUOUS
62
7
370
0
100
AcDbLine
10
220
20
90
11
212.143257987
21
82.1432579869
0
MTEXT
5
E6
100
AcDbEntity
8
dimensiones
6
CONTINUOUS
62
7
370
0
100
AcDbMText
10
211.995944074
20
84.6475945036
30
0
40
2.5
41
1.11111111111
71
5
72
1
1
5
7
standard
210
0
220
0
230
1
50
44.9999999992
73
2
44
1
0
ENDBLK
5
78
330
76
100
AcDbEntity
8
0
100
AcDbBlockEnd
0
BLOCK
5
7A
330
79
100
AcDbEntity
8
0
100
AcDbBlockBegin
2
*D2
70
1
10
0
20
0
3
*D2
1

0
LINE
5
E7
100
AcDbEntity
8
dimensiones
6
CONTINUOUS
62
7
370
0
100
AcDbLine
10
90
20
62
11
122
21
62
0
SOLID
5
E8
100
AcDbEntity
8
dimensiones
6
CONTINUOUS
62
7
370
0
100
AcDbTrace
10
90
20
62
30
0
11
92.5
21
62.4162846578
31
0
12
92.5
22
61.5837153422
32
0
13
92.5
23
61.5837153422
33
0
0
SOLID
5
E9
100
AcDbEntity
8
dimensiones
6
CONTINUOUS
62
7
370
0
100
AcDbTrace
10
122
20
62
30
0
11
119.5
21
61.5837153422
31
0
12
119.5
22
62.4162846578
32
0
13
119.5
23
62.4162846578
33
0
0
MTEXT
5
EA
100
AcDbEntity
8
dimensiones
6
CONTINUOUS
62
7
370
0
100
AcDbMText
10
106
20
63.875
30
0
40
2.5
41
3.05555555556
71
5
72
1
1
32
7
standard
210
0
220
0
230
1
50
0
73
2
44
1
0
LINE
5
EB
100
AcDbEntity
8
dimensiones
6
CONTINUOUS
62
7
370
0
100
AcDbLine
10
90
20
69.375
11
90
21
60.75
0
LINE
5
EC
100
AcDbEntity
8
dimensiones
6
CONTINUOUS
62
7
370
0
100
AcDbLine
10
122
20
69.375
11
122
21
60.75
0
ENDBLK
5
7B
330
79
100
AcDbEntity
8
0
100
AcDbBlockEnd
0
BLOCK
5
7D
330
7C
100
AcDbEntity
8
0
100
AcDbBlockBegin
2
*D18
70
1
10
0
20
0
3
*D18
1

0
LINE
5
ED
100
AcDbEntity
8
dimensiones
6
CONTINUOUS
62
7
370
0
100
AcDbLine
10
225
20
167
11
210
21
167
0
SOLID
5
EE
100
AcDbEntity
8
dimensiones
6
CONTINUOUS
62
7
370
0
100
AcDbTrace
10
225
20
167
30
0
11
222.5
21
166.583715342
31
0
12
222.5
22
167.416284658
32
0
13
222.5
23
167.416284658
33
0
0
SOLID
5
EF
100
AcDbEntity
8
dimensiones
6
CONTINUOUS
62
7
370
0
100
AcDbTrace
10
210
20
167
30
0
11
212.5
21
167.416284658
31
0
12
212.5
22
166.583715342
32
0
13
212.5
23
166.583715342
33
0
0
MTEXT
5
F0
100
AcDbEntity
8
dimensiones
6
CONTINUOUS
62
7
370
0
100
AcDbMText
10
217.5
20
168.875
30
0
40
2.5
41
2.5
71
5
72
1
1
15
7
standard
210
0
220
0
230
1
50
360
73
2
44
1
0
LINE
5
F1
100
AcDbEntity
8
dimensiones
6
CONTINUOUS
62
7
370
0
100
AcDbLine
10
225
20
120.625
11
225
21
168.25
0
LINE
5
F2
100
AcDbEntity
8
dimensiones
6
CONTINUOUS
62
7
370
0
100
AcDbLine
10
210
20
120.625
11
210
21
168.25
0
ENDBLK
5
7E
330
7C
100
AcDbEntity
8
0
100
AcDbBlockEnd
0
BLOCK
5
80
330
7F
100
AcDbEntity
8
0
100
AcDbBlockBegin
2
*D16
70
1
10
0
20
0
3
*D16
1

0
LINE
5
F3
100
AcDbEntity
8
dimensiones
6
CONTINUOUS
62
7
370
0
100
AcDbLine
10
115
20
77
11
129
21
77
0
LINE
5
F4
100
AcDbEntity
8
dimensiones
6
CONTINUOUS
62
7
370
0
100
AcDbLine
10
129
20
77
11
144
21
63
0
LINE
5
F5
100
AcDbEntity
8
dimensiones
6
CONTINUOUS
62
7
370
0
100
AcDbLine
10
144
20
63
11
144
21
63
0
SOLID
5
F6
100
AcDbEntity
8
dimensiones
6
CONTINUOUS
62
7
370
0
100
AcDbTrace
10
115
20
77
30
0
11
117.5
21
77.4162846578
31
0
12
117.5
22
76.5837153422
32
0
13
117.5
23
76.5837153422
33
0
0
ENDBLK
5
81
330
7F
100
AcDbEntity
8
0
100
AcDbBlockEnd
0
BLOCK
5
83
330
82
100
AcDbEntity
8
0
100
AcDbBlockBegin
2
*D13
70
1
10
0
20
0
3
*D13
1

0
LINE
5
F7
100
AcDbEntity
8
dimensiones
6
CONTINUOUS
62
7
370
0
100
AcDbLine
10
90
20
85
11
100
21
85
0
SOLID
5
F8
100
AcDbEntity
8
dimensiones
6
CONTINUOUS
62
7
370
0
100
AcDbTrace
10
90
20
85
30
0
11
92.5
21
85.4162846578
31
0
12
92.5
22
84.5837153422
32
0
13
92.5
23
84.5837153422
33
0
0
SOLID
5
F9
100
AcDbEntity
8
dimensiones
6
CONTINUOUS
62
7
370
0
100
AcDbTrace
10
100
20
85
30
0
11
97.5
21
84.5837153422
31
0
12
97.5
22
85.4162846578
32
0
13
97.5
23
85.4162846578
33
0
0
MTEXT
5
FA
100
AcDbEntity
8
dimensiones
6
CONTINUOUS
62
7
370
0
100
AcDbMText
10
95
20
86.875
30
0
40
2.5
41
2.5
71
5
72
1
1
10
7
standard
210
0
220
0
230
1
50
0
73
2
44
1
0
LINE
5
FB
100
AcDbEntity
8
dimensiones
6
CONTINUOUS
62
7
370
0
100
AcDbLine
10
90
20
89.375
11
90
21
83.75
0
LINE
5
FC
100
AcDbEntity
8
dimensiones
6
CONTINUOUS
62
7
370
0
100
AcDbLine
10
100
20
89.375
11
100
21
83.75
0
ENDBLK
5
84
330
82
100
AcDbEntity
8
0
100
AcDbBlockEnd
0
BLOCK
5
86
330
85
100
AcDbEntity
8
0
100
AcDbBlockBegin
2
*D8
70
1
10
0
20
0
3
*D8
1

0
LINE
5
FD
100
AcDbEntity
8
dimensiones
6
CONTINUOUS
62
7
370
0
100
AcDbLine
10
90
20
190
11
225
21
190
0
SOLID
5
FE
100
AcDbEntity
8
dimensiones
6
CONTINUOUS
62
7
370
0
100
AcDbTrace
10
90
20
190
30
0
11
92.5
21
190.416284658
31
0
12
92.5
22
189.583715342
32
0
13
92.5
23
189.583715342
33
0
0
SOLID
5
FF
100
AcDbEntity
8
dimensiones
6
CONTINUOUS
62
7
370
0
100
AcDbTrace
10
225
20
190
30
0
11
222.5
21
189.583715342
31
0
12
222.5
22
190.416284658
32
0
13
222.5
23
190.416284658
33
0
0
MTEXT
5
100
100
AcDbEntity
8
dimensiones
6
CONTINUOUS
62
7
370
0
100
AcDbMText
10
157.5
20
191.875
30
0
40
2.5
41
4.44444444444
71
5
72
1
1
135
7
standard
210
0
220
0
230
1
50
0
73
2
44
1
0
LINE
5
101
100
AcDbEntity
8
dimensiones
6
CONTINUOUS
62
7
370
0
100
AcDbLine
10
90
20
170.625
11
90
21
191.25
0
LINE
5
102
100
AcDbEntity
8
dimensiones
6
CONTINUOUS
62
7
370
0
100
AcDbLine
10
225
20
150.624993633
11
225
21
191.25
0
ENDBLK
5
87
330
85
100
AcDbEntity
8
0
100
AcDbBlockEnd
0
BLOCK
5
89
330
88
100
AcDbEntity
8
0
100
AcDbBlockBegin
2
*D9
70
1
10
0
20
0
3
*D9
1

0
LINE
5
103
100
AcDbEntity
8
dimensiones
6
CONTINUOUS
62
7
370
0
100
AcDbLine
10
242
20
155
11
242
21
85
0
SOLID
5
104
100
AcDbEntity
8
dimensiones
6
CONTINUOUS
62
7
370
0
100
AcDbTrace
10
242
20
155
30
0
11
242.416284658
21
152.5
31
0
12
241.583715342
22
152.5
32
0
13
241.583715342
23
152.5
33
0
0
SOLID
5
105
100
AcDbEntity
8
dimensiones
6
CONTINUOUS
62
7
370
0
100
AcDbTrace
10
242
20
85
30
0
11
241.583715342
21
87.5
31
0
12
242.416284658
22
87.5
32
0
13
242.416284658
23
87.5
33
0
0
MTEXT
5
106
100
AcDbEntity
8
dimensiones
6
CONTINUOUS
62
7
370
0
100
AcDbMText
10
240.125
20
120
30
0
40
2.5
41
3.05555555556
71
5
72
1
1
70
7
standard
210
0
220
0
230
1
50
90
73
2
44
1
0
LINE
5
107
100
AcDbEntity
8
dimensiones
6
CONTINUOUS
62
7
370
0
100
AcDbLine
10
220.625
20
155
11
243.25
21
155
0
LINE
5
108
100
AcDbEntity
8
dimensiones
6
CONTINUOUS
62
7
370
0
100
AcDbLine
10
220.625
20
85
11
243.25
21
85
0
ENDBLK
5
8A
330
88
100
AcDbEntity
8
0
100
AcDbBlockEnd
0
BLOCK
5
8C
330
8B
100
AcDbEntity
8
0
100
AcDbBlockBegin
2
*D22
70
1
10
0
20
0
3
*D22
1

0
LINE
5
109
100
AcDbEntity
8
dimensiones
6
CONTINUOUS
62
7
370
0
100
AcDbLine
10
100
20
143
11
143.35
21
143
0
SOLID
5
10A
100
AcDbEntity
8
dimensiones
6
CONTINUOUS
62
7
370
0
100
AcDbTrace
10
100
20
143
30
0
11
102.5
21
143.416284658
31
0
12
102.5
22
142.583715342
32
0
13
102.5
23
142.583715342
33
0
0
SOLID
5
10B
100
AcDbEntity
8
dimensiones
6
CONTINUOUS
62
7
370
0
100
AcDbTrace
10
143.35
20
143
30
0
11
140.85
21
142.583715342
31
0
12
140.85
22
143.416284658
32
0
13
140.85
23
143.416284658
33
0
0
MTEXT
5
10C
100
AcDbEntity
8
dimensiones
6
CONTINUOUS
62
7
370
0
100
AcDbMText
10
121.675
20
144.875
30
0
40
2.5
41
8.05555555556
71
5
72
1
1
43.35
7
standard
210
0
220
0
230
1
50
0
73
2
44
1
0
LINE
5
10D
100
AcDbEntity
8
dimensiones
6
CONTINUOUS
62
7
370
0
100
AcDbLine
10
100
20
140.975
11
100
21
144.25
0
LINE
5
10E
100
AcDbEntity
8
dimensiones
6
CONTINUOUS
62
7
370
0
100
AcDbLine
10
143.35
20
140.975
11
143.35
21
144.25
0
ENDBLK
5
8D
330
8B
100
AcDbEntity
8
0
100
AcDbBlockEnd
0
BLOCK
5
8F
330
8E
100
AcDbEntity
8
0
100
AcDbBlockBegin
2
*D15
70
1
10
0
20
0
3
*D15
1

0
LINE
5
10F
100
AcDbEntity
8
dimensiones
6
CONTINUOUS
62
7
370
0
100
AcDbLine
10
95.5
20
80
11
113
21
80
0
SOLID
5
110
100
AcDbEntity
8
dimensiones
6
CONTINUOUS
62
7
370
0
100
AcDbTrace
10
95.5
20
80
30
0
11
98
21
80.4162846578
31
0
12
98
22
79.5837153422
32
0
13
98
23
79.5837153422
33
0
0
SOLID
5
111
100
AcDbEntity
8
dimensiones
6
CONTINUOUS
62
7
370
0
100
AcDbTrace
10
113
20
80
30
0
11
110.5
21
79.5837153422
31
0
12
110.5
22
80.4162846578
32
0
13
110.5
23
80.4162846578
33
0
0
MTEXT
5
112
100
AcDbEntity
8
dimensiones
6
CONTINUOUS
62
7
370
0
100
AcDbMText
10
104.25
20
81.875
30
0
40
2.5
41
5.27777777778
71
5
72
1
1
17.5
7
standard
210
0
220
0
230
1
50
0
73
2
44
1
0
LINE
5
113
100
AcDbEntity
8
dimensiones
6
CONTINUOUS
62
7
370
0
100
AcDbLine
10
95.5
20
77.625
11
95.5
21
81.25
0
LINE
5
114
100
AcDbEntity
8
dimensiones
6
CONTINUOUS
62
7
370
0
100
AcDbLine
10
113
20
77.625
11
113
21
81.25
0
ENDBLK
5
90
330
8E
100
AcDbEntity
8
0
100
AcDbBlockEnd
0
BLOCK
5
92
330
91
100
AcDbEntity
8
0
100
AcDbBlockBegin
2
raptor_silk
70
0
10
0
20
0
3
raptor_silk
1

0
LINE
5
115
100
AcDbEntity
8
silk
6
ByLayer
62
256
370
-1
100
AcDbLine
10
70
20
3
11
70
21
-3
0
LINE
5
116
100
AcDbEntity
8
silk
6
ByLayer
62
256
370
-1
100
AcDbLine
10
66.9875
20
-10.65
11
73.0375
21
-10.65
0
LINE
5
117
100
AcDbEntity
8
silk
6
ByLayer
62
256
370
-1
100
AcDbLine
10
66.9875
20
-10.65
11
66.9875
21
10.65
0
LINE
5
118
100
AcDbEntity
8
silk
6
ByLayer
62
256
370
-1
100
AcDbLine
10
72.9875
20
-10.65
11
72.9875
21
10.65
0
LINE
5
119
100
AcDbEntity
8
silk
6
ByLayer
62
256
370
-1
100
AcDbLine
10
66.9875
20
10.65
11
72.9875
21
10.65
0
LINE
5
11A
100
AcDbEntity
8
silk
6
ByLayer
62
256
370
-1
100
AcDbLine
10
66.9875
20
0
11
72.9875
21
0
0
LINE
5
11B
100
AcDbEntity
8
silk
6
ByLayer
62
256
370
-1
100
AcDbLine
10
69.9875
20
10.65
11
70.0125
21
-10.65
0
CIRCLE
5
11C
100
AcDbEntity
8
silk
6
ByLayer
62
256
370
-1
100
AcDbCircle
10
-50
20
30
40
1.4
0
CIRCLE
5
11D
100
AcDbEntity
8
silk
6
ByLayer
62
256
370
-1
100
AcDbCircle
10
-42.5
20
30
40
1.4
0
CIRCLE
5
11E
100
AcDbEntity
8
silk
6
ByLayer
62
256
370
-1
100
AcDbCircle
10
-50
20
-30
40
1.4
0
CIRCLE
5
11F
100
AcDbEntity
8
silk
6
ByLayer
62
256
370
-1
100
AcDbCircle
10
-42.5
20
-30
40
1.4
0
LINE
5
120
100
AcDbEntity
8
silk
6
ByLayer
62
256
370
-1
100
AcDbLine
10
-60
20
0
11
75
21
0
0
LINE
5
121
100
AcDbEntity
8
silk
6
ByLayer
62
256
370
-1
100
AcDbLine
10
0
20
2
11
0
21
-2
0
CIRCLE
5
122
100
AcDbEntity
8
silk
6
ByLayer
62
256
370
-1
100
AcDbCircle
10
-50
20
30
40
1.4
0
CIRCLE
5
123
100
AcDbEntity
8
silk
6
ByLayer
62
256
370
-1
100
AcDbCircle
10
-42.5
20
30
40
1.4
0
CIRCLE
5
124
100
AcDbEntity
8
silk
6
ByLayer
62
256
370
-1
100
AcDbCircle
10
-50
20
-30
40
1.4
0
CIRCLE
5
125
100
AcDbEntity
8
silk
6
ByLayer
62
256
370
-1
100
AcDbCircle
10
-42.5
20
-30
40
1.4
0
LINE
5
126
100
AcDbEntity
8
silk
6
ByLayer
62
256
370
-1
100
AcDbLine
10
-60
20
0
11
75
21
0
0
LINE
5
127
100
AcDbEntity
8
silk
6
ByLayer
62
256
370
-1
100
AcDbLine
10
0
20
2
11
0
21
-2
0
ENDBLK
5
93
330
91
100
AcDbEntity
8
0
100
AcDbBlockEnd
0
BLOCK
5
95
330
94
100
AcDbEntity
8
0
100
AcDbBlockBegin
2
chassis
70
0
10
0
20
0
3
chassis
1

0
LINE
5
128
100
AcDbEntity
8
chassis
6
ByLayer
62
256
370
-1
100
AcDbLine
10
75
20
30
11
75
21
-30
0
ARC
5
129
100
AcDbEntity
8
chassis
6
ByLayer
62
256
370
-1
100
AcDbCircle
10
70
20
30
40
5
100
AcDbArc
50
360
51
180
0
ARC
5
12A
100
AcDbEntity
8
chassis
6
ByLayer
62
256
370
-1
100
AcDbCircle
10
70
20
-30
40
5
100
AcDbArc
50
180
51
360
0
LINE
5
12B
100
AcDbEntity
8
chassis
6
ByLayer
62
256
370
-1
100
AcDbLine
10
-60
20
50
11
-60
21
-50
0
LINE
5
12C
100
AcDbEntity
8
chassis
6
ByLayer
62
256
370
-1
100
AcDbLine
10
-60
20
-50
11
-28
21
-50
0
LINE
5
12D
100
AcDbEntity
8
chassis
6
ByLayer
62
256
370
-1
100
AcDbLine
10
-28
20
50
11
-60
21
50
0
CIRCLE
5
12E
100
AcDbEntity
8
chassis
6
ByLayer
62
256
370
-1
100
AcDbCircle
10
70
20
30
40
1.4
0
CIRCLE
5
12F
100
AcDbEntity
8
chassis
6
ByLayer
62
256
370
-1
100
AcDbCircle
10
70
20
-30
40
1.4
0
CIRCLE
5
130
100
AcDbEntity
8
chassis
6
ByLayer
62
256
370
-1
100
AcDbCircle
10
-54.5
20
-43
40
1.4
0
CIRCLE
5
131
100
AcDbEntity
8
chassis
6
ByLayer
62
256
370
-1
100
AcDbCircle
10
-37
20
-43
40
1.4
0
CIRCLE
5
132
100
AcDbEntity
8
chassis
6
ByLayer
62
256
370
-1
100
AcDbCircle
10
-37
20
43
40
1.4
0
CIRCLE
5
133
100
AcDbEntity
8
chassis
6
ByLayer
62
256
370
-1
100
AcDbCircle
10
-54.5
20
43
40
1.4
0
LINE
5
134
100
AcDbEntity
8
chassis
6
ByLayer
62
256
370
-1
100
AcDbLine
10
-28
20
50
11
65
21
13
0
LINE
5
135
100
AcDbEntity
8
chassis
6
ByLayer
62
256
370
-1
100
AcDbLine
10
-28
20
-50
11
65
21
-13
0
LINE
5
136
100
AcDbEntity
8
chassis
6
ByLayer
62
256
370
-1
100
AcDbLine
10
65
20
30
11
65
21
13
0
LINE
5
137
100
AcDbEntity
8
chassis
6
ByLayer
62
256
370
-1
100
AcDbLine
10
65
20
-13
11
65
21
-30
0
ENDBLK
5
96
330
94
100
AcDbEntity
8
0
100
AcDbBlockEnd
0
BLOCK
5
98
330
97
100
AcDbEntity
8
0
100
AcDbBlockBegin
2
Chassis
70
0
10
0
20
0
3
Chassis
1

0
CIRCLE
5
138
100
AcDbEntity
8
silk
6
ByLayer
62
256
370
-1
100
AcDbCircle
10
60
20
6.5
40
1.1
0
CIRCLE
5
139
100
AcDbEntity
8
silk
6
ByLayer
62
256
370
-1
100
AcDbCircle
10
60
20
-6.5
40
1.1
0
LINE
5
13A
100
AcDbEntity
8
silk
6
ByLayer
62
256
370
-1
100
AcDbLine
10
75
20
30
11
75
21
-30
0
ARC
5
13B
100
AcDbEntity
8
silk
6
ByLayer
62
256
370
-1
100
AcDbCircle
10
70
20
30
40
5
100
AcDbArc
50
360
51
180
0
ARC
5
13C
100
AcDbEntity
8
silk
6
ByLayer
62
256
370
-1
100
AcDbCircle
10
70
20
-30
40
5
100
AcDbArc
50
180
51
360
0
LINE
5
13D
100
AcDbEntity
8
silk
6
ByLayer
62
256
370
-1
100
AcDbLine
10
-60
20
50
11
-60
21
-50
0
LINE
5
13E
100
AcDbEntity
8
silk
6
ByLayer
62
256
370
-1
100
AcDbLine
10
-60
20
-50
11
-28
21
-50
0
LINE
5
13F
100
AcDbEntity
8
silk
6
ByLayer
62
256
370
-1
100
AcDbLine
10
-28
20
50
11
-60
21
50
0
CIRCLE
5
140
100
AcDbEntity
8
silk
6
ByLayer
62
256
370
-1
100
AcDbCircle
10
70
20
30
40
1.4
0
CIRCLE
5
141
100
AcDbEntity
8
silk
6
ByLayer
62
256
370
-1
100
AcDbCircle
10
70
20
-30
40
1.4
0
CIRCLE
5
142
100
AcDbEntity
8
silk
6
ByLayer
62
256
370
-1
100
AcDbCircle
10
-54.5
20
-43
40
1.4
0
CIRCLE
5
143
100
AcDbEntity
8
silk
6
ByLayer
62
256
370
-1
100
AcDbCircle
10
-37
20
-43
40
1.4
0
CIRCLE
5
144
100
AcDbEntity
8
silk
6
ByLayer
62
256
370
-1
100
AcDbCircle
10
-37
20
43
40
1.4
0
CIRCLE
5
145
100
AcDbEntity
8
silk
6
ByLayer
62
256
370
-1
100
AcDbCircle
10
-54.5
20
43
40
1.4
0
LINE
5
146
100
AcDbEntity
8
silk
6
ByLayer
62
256
370
-1
100
AcDbLine
10
-28
20
50
11
65
21
13
0
LINE
5
147
100
AcDbEntity
8
silk
6
ByLayer
62
256
370
-1
100
AcDbLine
10
-28
20
-50
11
65
21
-13
0
LINE
5
148
100
AcDbEntity
8
silk
6
ByLayer
62
256
370
-1
100
AcDbLine
10
65
20
30
11
65
21
13
0
LINE
5
149
100
AcDbEntity
8
silk
6
ByLayer
62
256
370
-1
100
AcDbLine
10
65
20
-13
11
65
21
-30
0
ENDBLK
5
99
330
97
100
AcDbEntity
8
0
100
AcDbBlockEnd
0
ENDSEC
0
SECTION
2
ENTITIES
0
LINE
5
14A
100
AcDbEntity
8
border
6
ByLayer
62
256
370
-1
100
AcDbLine
10
25
20
205
11
292
21
205
0
LINE
5
14B
100
AcDbEntity
8
border
6
ByLayer
62
256
370
-1
100
AcDbLine
10
292
20
205
11
292
21
5
0
LINE
5
14C
100
AcDbEntity
8
border
6
ByLayer
62
256
370
-1
100
AcDbLine
10
292
20
5
11
25
21
5
0
LINE
5
14D
100
AcDbEntity
8
border
6
ByLayer
62
256
370
-1
100
AcDbLine
10
25
20
5
11
25
21
205
0
LINE
5
14E
100
AcDbEntity
8
border
6
ByLayer
62
256
370
-1
100
AcDbLine
10
292
20
65
11
212
21
65
0
LINE
5
14F
100
AcDbEntity
8
border
6
ByLayer
62
256
370
-1
100
AcDbLine
10
212
20
65
11
212
21
5
0
LINE
5
150
100
AcDbEntity
8
border
6
ByLayer
62
256
370
-1
100
AcDbLine
10
212
20
55
11
292
21
55
0
LINE
5
151
100
AcDbEntity
8
border
6
ByLayer
62
256
370
-1
100
AcDbLine
10
212
20
35
11
292
21
35
0
LINE
5
152
100
AcDbEntity
8
border
6
ByLayer
62
256
370
-1
100
AcDbLine
10
212
20
25
11
292
21
25
0
LINE
5
153
100
AcDbEntity
8
border
6
ByLayer
62
256
370
-1
100
AcDbLine
10
212
20
15
11
292
21
15
0
MTEXT
5
154
100
AcDbEntity
8
border
6
ByLayer
62
256
370
-1
100
AcDbMText
10
239
20
62
30
0
40
5
41
30.555558127
71
1
72
1
1
BricoLabs
7
standard
210
0
220
0
230
1
50
0
73
2
44
1
0
LINE
5
155
100
AcDbEntity
8
border
6
ByLayer
62
256
370
-1
100
AcDbLine
10
227
20
15
11
227
21
5
0
LINE
5
156
100
AcDbEntity
8
border
6
ByLayer
62
256
370
-1
100
AcDbLine
10
242
20
15
11
242
21
5
0
LINE
5
157
100
AcDbEntity
8
border
6
ByLayer
62
256
370
-1
100
AcDbLine
10
272
20
25
11
272
21
15
0
MTEXT
5
158
100
AcDbEntity
8
border
6
ByLayer
62
256
370
-1
100
AcDbMText
10
213
20
14
30
0
40
1
41
4.77777829207
71
1
72
1
1
Versión
7
standard
210
0
220
0
230
1
50
0
73
2
44
1
0
MTEXT
5
159
100
AcDbEntity
8
border
6
ByLayer
62
256
370
-1
100
AcDbMText
10
228
20
14
30
0
40
1
41
3.88888940318
71
1
72
1
1
Escala
7
standard
210
0
220
0
230
1
50
0
73
2
44
1
0
MTEXT
5
15A
100
AcDbEntity
8
border
6
ByLayer
62
256
370
-1
100
AcDbMText
10
244
20
14
30
0
40
1
41
2.66666666667
71
1
72
1
1
Hoja
7
standard
210
0
220
0
230
1
50
0
73
2
44
1
0
MTEXT
5
15B
100
AcDbEntity
8
border
6
ByLayer
62
256
370
-1
100
AcDbMText
10
215
20
24
30
0
40
1
41
6.86111111111
71
1
72
1
1
Cod. Parte
7
standard
210
0
220
0
230
1
50
0
73
2
44
1
0
MTEXT
5
15C
100
AcDbEntity
8
border
6
ByLayer
62
256
370
-1
100
AcDbMText
10
215
20
34
30
0
40
1
41
5.66666666667
71
1
72
1
1
Proyecto
7
standard
210
0
220
0
230
1
50
0
73
2
44
1
0
MTEXT
5
15D
100
AcDbEntity
8
border
6
ByLayer
62
256
370
-1
100
AcDbMText
10
274
20
24
30
0
40
1
41
3.77777777778
71
1
72
1
1
Dibujo
7
standard
210
0
220
0
230
1
50
0
73
2
44
1
0
MTEXT
5
15E
100
AcDbEntity
8
border
6
ByLayer
62
256
370
-1
100
AcDbMText
10
234
20
11
30
0
40
5
41
5.55555555556
71
1
72
1
1
1:1
7
standard
210
0
220
0
230
1
50
0
73
2
44
1
0
MTEXT
5
15F
100
AcDbEntity
8
border
6
ByLayer
62
256
370
-1
100
AcDbMText
10
276
20
20
30
0
40
3
41
12.6678095827
71
1
72
1
1
salvari
7
standard
210
0
220
0
230
1
50
0
73
2
44
1
0
MTEXT
5
160
100
AcDbEntity
8
border
6
ByLayer
62
256
370
-1
100
AcDbMText
10
255
20
12
30
0
40
5
41
27.2222222222
71
1
72
1
1
01/00001
7
standard
210
0
220
0
230
1
50
0
73
2
44
1
0
MTEXT
5
161
100
AcDbEntity
8
border
6
ByLayer
62
256
370
-1
100
AcDbMText
10
229
20
33
30
0
40
5
41
21.1111111111
71
1
72
1
1
Raptor
7
standard
210
0
220
0
230
1
50
0
73
2
44
1
0
MTEXT
5
162
100
AcDbEntity
8
border
6
ByLayer
62
256
370
-1
100
AcDbMText
10
220
20
50
30
0
40
7
41
64.3611183111
71
1
72
1
1
Chasis Raptor
7
standard
210
0
220
0
230
1
50
0
73
2
44
1
0
MTEXT
5
163
100
AcDbEntity
8
border
6
ByLayer
62
256
370
-1
100
AcDbMText
10
146
20
12
30
0
40
5
41
63.74999894
71
1
72
1
1
CC-By-SA-INTL 4.0
7
standard
210
0
220
0
230
1
50
0
73
2
44
1
0
MTEXT
5
164
100
AcDbEntity
8
border
6
ByLayer
62
256
370
-1
100
AcDbMText
10
146
20
20
30
0
40
5
41
44.7222247937
71
1
72
1
1
© fstpd 2017
7
standard
210
0
220
0
230
1
50
0
73
2
44
1
0
LINE
5
165
100
AcDbEntity
8
border
6
ByLayer
62
256
370
-1
100
AcDbLine
10
212
20
25
11
143
21
25
0
LINE
5
166
100
AcDbEntity
8
border
6
ByLayer
62
256
370
-1
100
AcDbLine
10
143
20
25
11
143
21
5
0
DIMENSION
5
167
100
AcDbEntity
8
dimensiones
6
ByLayer
62
256
370
-1
100
AcDbDimension
2
*D1
10
83
20
70
30
0
11
81.125
21
120
31
0
70
32
71
5
3
Standard
53
0
210
0
220
0
230
1
100
AcDbAlignedDimension
13
90
23
170
33
0
14
90
24
70
34
0
50
90
100
AcDbRotatedDimension
0
DIMENSION
5
168
100
AcDbEntity
8
dimensiones
6
ByLayer
62
256
370
-1
100
AcDbDimension
2
*D2
10
122
20
62
30
0
11
106
21
63.875
31
0
70
32
71
5
3
Standard
53
0
210
0
220
0
230
1
100
AcDbAlignedDimension
13
90
23
70
33
0
14
122
24
70
34
0
100
AcDbRotatedDimension
0
DIMENSION
5
169
100
AcDbEntity
8
dimensiones
6
ByLayer
62
256
370
-1
100
AcDbDimension
2
*D3
10
225
20
160
30
0
11
220
21
161.875
31
0
70
32
71
5
3
Standard
53
0
210
0
220
0
230
1
100
AcDbAlignedDimension
13
215
23
150.000002697
33
0
14
225
24
150.000002697
34
0
100
AcDbRotatedDimension
0
DIMENSION
5
16A
100
AcDbEntity
8
dimensiones
6
ByLayer
62
256
370
-1
100
AcDbDimension
2
*D4
10
234
20
89.9999983482
30
0
11
232.125
21
120.000000523
31
0
70
32
71
5
3
Standard
53
0
210
0
220
0
230
1
100
AcDbAlignedDimension
13
225
23
150.000002697
33
0
14
225
24
89.9999983482
34
0
50
90
100
AcDbRotatedDimension
0
DIMENSION
5
16B
100
AcDbEntity
8
dimensiones
6
ByLayer
62
256
370
-1
100
AcDbDimension
2
*D5
10
220.989949494
20
89.0100505063
30
0
11
221.325825215
21
91.3258252149
31
0
70
35
71
5
3
Standard
53
0
210
0
220
0
230
1
100
AcDbDiametricDimension
15
219.010050506
25
90.9899494937
35
0
40
0
0
DIMENSION
5
16C
100
AcDbEntity
8
dimensiones
6
ByLayer
62
256
370
-1
100
AcDbDimension
2
*D6
10
220
20
90
30
0
11
211.995944074
21
84.6475945036
31
0
70
36
71
5
3
Standard
53
0
210
0
220
0
230
1
100
AcDbRadialDimension
15
216.464466094
25
86.4644660941
35
0
40
0
0
LINE
5
16D
100
AcDbEntity
8
border
6
ByLayer
62
256
370
-1
100
AcDbLine
10
250
20
25
11
250
21
15
0
MTEXT
5
16E
100
AcDbEntity
8
border
6
ByLayer
62
256
370
-1
100
AcDbMText
10
252
20
24
30
0
40
1
41
4.00000051429
71
1
72
1
1
Diseño
7
standard
210
0
220
0
230
1
50
0
73
2
44
1
0
MTEXT
5
16F
100
AcDbEntity
8
border
6
ByLayer
62
256
370
-1
100
AcDbMText
10
253
20
20
30
0
40
3
41
17.3333348762
71
1
72
1
1
Felixstpd
7
standard
210
0
220
0
230
1
50
0
73
2
44
1
0
MTEXT
5
170
100
AcDbEntity
8
dimensiones
6
ByLayer
62
256
370
-1
100
AcDbMText
10
30
20
20
30
0
40
3
41
69.0000061714
71
1
72
1
1
Todas las unidades en milímetros\Psalvo indicación contraria
7
standard
210
0
220
0
230
1
50
0
73
2
44
1
0
LEADER
5
171
100
AcDbEntity
8
border
6
ByLayer
62
256
370
-1
100
AcDbLeader
3
Standard
71
1
72
0
73
3
74
0
75
0
40
1
41
10
76
0
76
0
0
DIMENSION
5
172
100
AcDbEntity
8
dimensiones
6
ByLayer
62
256
370
-1
100
AcDbDimension
2
*D8
10
225
20
190
30
0
11
157.5
21
191.875
31
0
70
32
71
5
3
Standard
53
0
210
0
220
0
230
1
100
AcDbAlignedDimension
13
90
23
170
33
0
14
225
24
149.999993633
34
0
100
AcDbRotatedDimension
0
LINE
5
173
100
AcDbEntity
8
axis
6
ByLayer
62
256
370
-1
100
AcDbLine
10
70
20
120
11
250
21
120
0
DIMENSION
5
174
100
AcDbEntity
8
dimensiones
6
ByLayer
62
256
370
-1
100
AcDbDimension
2
*D9
10
242
20
85
30
0
11
240.125
21
120
31
0
70
32
71
5
72
0
3
Standard
53
0
210
0
220
0
230
1
100
AcDbAlignedDimension
13
220
23
155
33
0
14
220
24
85
34
0
50
90
100
AcDbRotatedDimension
0
DIMENSION
5
175
100
AcDbEntity
8
dimensiones
6
ByLayer
62
256
370
-1
100
AcDbDimension
2
*D10
10
100
20
170
30
0
11
98.125
21
166.5
31
0
70
32
71
5
3
Standard
53
0
210
0
220
0
230
1
100
AcDbAlignedDimension
13
95.5
23
163
33
0
14
95.5
24
170
34
0
50
90
100
AcDbRotatedDimension
0
DIMENSION
5
176
100
AcDbEntity
8
dimensiones
6
ByLayer
62
256
370
-1
100
AcDbDimension
2
*D11
10
105
20
170
30
0
11
103.125
21
160
31
0
70
32
71
5
3
Standard
53
0
210
0
220
0
230
1
100
AcDbAlignedDimension
13
107.5
23
150
33
0
14
107.5
24
170
34
0
50
90
100
AcDbRotatedDimension
0
DIMENSION
5
177
100
AcDbEntity
8
dimensiones
6
ByLayer
62
256
370
-1
100
AcDbDimension
2
*D12
10
95.5
20
72
30
0
11
92.75
21
73.875
31
0
70
32
71
5
3
Standard
53
0
210
0
220
0
230
1
100
AcDbAlignedDimension
13
90
23
77
33
0
14
95.5
24
77
34
0
100
AcDbRotatedDimension
0
DIMENSION
5
178
100
AcDbEntity
8
dimensiones
6
ByLayer
62
256
370
-1
100
AcDbDimension
2
*D13
10
100
20
85
30
0
11
95
21
86.875
31
0
70
32
71
5
3
Standard
53
0
210
0
220
0
230
1
100
AcDbAlignedDimension
13
90
23
90
33
0
14
100
24
90
34
0
100
AcDbRotatedDimension
0
DIMENSION
5
179
100
AcDbEntity
8
dimensiones
6
ByLayer
62
256
370
-1
100
AcDbDimension
2
*D14
10
107.5
20
94
30
0
11
98.75
21
95.875
31
0
70
32
71
5
3
Standard
53
0
210
0
220
0
230
1
100
AcDbAlignedDimension
13
90
23
90
33
0
14
107.5
24
90
34
0
100
AcDbRotatedDimension
0
DIMENSION
5
17A
100
AcDbEntity
8
dimensiones
6
ByLayer
62
256
370
-1
100
AcDbDimension
2
*D15
10
113
20
80
30
0
11
104.25
21
81.875
31
0
70
32
71
5
3
Standard
53
0
210
0
220
0
230
1
100
AcDbAlignedDimension
13
95.5
23
77
33
0
14
113
24
77
34
0
100
AcDbRotatedDimension
0
LEADER
5
17B
100
AcDbEntity
8
dimensiones
6
ByLayer
62
256
370
-1
100
AcDbLeader
3
Standard
71
1
72
0
73
3
74
0
75
0
40
1
41
10
76
4
76
4
10
115
20
77
30
0
10
129
20
77
30
0
10
144
20
63
30
0
10
144
20
63
30
0
0
MTEXT
5
17C
100
AcDbEntity
8
dimensiones
6
ByLayer
62
256
370
-1
100
AcDbMText
10
145
20
60
30
0
40
3
41
36.7500015429
71
1
72
1
1
Orificios %%C 2.8 mm
7
standard
210
0
220
0
230
1
50
0
73
2
44
1
0
LINE
5
17D
100
AcDbEntity
8
componentes
6
ByLayer
62
256
370
-1
100
AcDbLine
10
100
20
118.35
11
143.35
21
118.35
0
LINE
5
17E
100
AcDbEntity
8
componentes
6
ByLayer
62
256
370
-1
100
AcDbLine
10
143.35
20
118.35
11
143.35
21
100
0
LINE
5
17F
100
AcDbEntity
8
componentes
6
ByLayer
62
256
370
-1
100
AcDbLine
10
143.35
20
100
11
100
21
100
0
LINE
5
180
100
AcDbEntity
8
componentes
6
ByLayer
62
256
370
-1
100
AcDbLine
10
100
20
100
11
100
21
118.35
0
CIRCLE
5
181
100
AcDbEntity
8
componentes
6
ByLayer
62
256
370
-1
100
AcDbCircle
10
103
20
109.175
40
1.4
0
CIRCLE
5
182
100
AcDbEntity
8
componentes
6
ByLayer
62
256
370
-1
100
AcDbCircle
10
140.35
20
109.175
40
1.4
0
LINE
5
183
100
AcDbEntity
8
componentes
6
ByLayer
62
256
370
-1
100
AcDbLine
10
100
20
140.35
11
143.35
21
140.35
0
LINE
5
184
100
AcDbEntity
8
componentes
6
ByLayer
62
256
370
-1
100
AcDbLine
10
143.35
20
140.35
11
143.35
21
122
0
LINE
5
185
100
AcDbEntity
8
componentes
6
ByLayer
62
256
370
-1
100
AcDbLine
10
143.35
20
122
11
100
21
122
0
LINE
5
186
100
AcDbEntity
8
componentes
6
ByLayer
62
256
370
-1
100
AcDbLine
10
100
20
122
11
100
21
140.35
0
CIRCLE
5
187
100
AcDbEntity
8
componentes
6
ByLayer
62
256
370
-1
100
AcDbCircle
10
103
20
131.175
40
1.4
0
CIRCLE
5
188
100
AcDbEntity
8
componentes
6
ByLayer
62
256
370
-1
100
AcDbCircle
10
140.35
20
131.175
40
1.4
0
DIMENSION
5
189
100
AcDbEntity
8
dimensiones
6
ByLayer
62
256
370
-1
100
AcDbDimension
2
*D17
10
218
20
106
30
0
11
216.125
21
119
31
0
70
32
71
5
72
0
3
Standard
53
0
210
0
220
0
230
1
100
AcDbAlignedDimension
13
215
23
132
33
0
14
215
24
106
34
0
50
90
100
AcDbRotatedDimension
0
CIRCLE
5
18A
100
AcDbEntity
8
chassis
6
ByLayer
62
256
370
-1
100
AcDbCircle
10
210
20
126.5
40
1.1
0
CIRCLE
5
18B
100
AcDbEntity
8
chassis
6
ByLayer
62
256
370
-1
100
AcDbCircle
10
210
20
113.5
40
1.1
0
DIMENSION
5
18C
100
AcDbEntity
8
dimensiones
6
ByLayer
62
256
370
-1
100
AcDbDimension
2
*D18
10
210
20
167
30
0
11
217.5
21
168.875
31
0
70
32
71
5
72
0
3
Standard
53
0
210
0
220
0
230
1
100
AcDbAlignedDimension
13
225
23
120
33
0
14
210
24
120
34
0
100
AcDbRotatedDimension
0
DIMENSION
5
18D
100
AcDbEntity
8
dimensiones
6
ByLayer
62
256
370
-1
100
AcDbDimension
2
*D19
10
206
20
126.5
30
0
11
204.125
21
123.25
31
0
70
32
71
5
72
0
3
Standard
53
0
210
0
220
0
230
1
100
AcDbAlignedDimension
13
210
23
120
33
0
14
210
24
126.5
34
0
50
90
100
AcDbRotatedDimension
0
DIMENSION
5
18E
100
AcDbEntity
8
dimensiones
6
ByLayer
62
256
370
-1
100
AcDbDimension
2
*D20
10
209.154956592
20
114.20420284
30
0
11
211.200345749
21
114.940414899
31
0
70
35
71
5
72
0
3
Standard
53
0
210
0
220
0
230
1
100
AcDbDiametricDimension
15
210.845043408
25
112.79579716
35
0
40
0
0
DIMENSION
5
18F
100
AcDbEntity
8
dimensiones
6
ByLayer
62
256
370
-1
100
AcDbDimension
2
*D21
10
150
20
122
30
0
11
148.125
21
131.175
31
0
70
32
71
5
72
0
3
Standard
53
0
210
0
220
0
230
1
100
AcDbAlignedDimension
13
143.35
23
140.35
33
0
14
143.35
24
122
34
0
50
90
100
AcDbRotatedDimension
0
DIMENSION
5
190
100
AcDbEntity
8
dimensiones
6
ByLayer
62
256
370
-1
100
AcDbDimension
2
*D22
10
143.35
20
143
30
0
11
121.675
21
144.875
31
0
70
32
71
5
72
0
3
Standard
53
0
210
0
220
0
230
1
100
AcDbAlignedDimension
13
100
23
140.35
33
0
14
143.35
24
140.35
34
0
100
AcDbRotatedDimension
0
DIMENSION
5
191
100
AcDbEntity
8
dimensiones
6
ByLayer
62
256
370
-1
100
AcDbDimension
2
*D23
10
140.35
20
131.175
30
0
11
121.675
21
133.05
31
0
70
32
71
5
72
0
3
Standard
53
0
210
0
220
0
230
1
100
AcDbAlignedDimension
13
103
23
131.175
33
0
14
140.35
24
131.175
34
0
100
AcDbRotatedDimension
0
LINE
5
192
100
AcDbEntity
8
silk
6
ByLayer
62
256
370
-1
100
AcDbLine
10
220
20
123
11
220
21
117
0
LINE
5
193
100
AcDbEntity
8
silk
6
ByLayer
62
256
370
-1
100
AcDbLine
10
216.9875
20
109.35
11
223.0375
21
109.35
0
LINE
5
194
100
AcDbEntity
8
silk
6
ByLayer
62
256
370
-1
100
AcDbLine
10
216.9875
20
109.35
11
216.9875
21
130.65
0
LINE
5
195
100
AcDbEntity
8
silk
6
ByLayer
62
256
370
-1
100
AcDbLine
10
222.9875
20
109.35
11
222.9875
21
130.65
0
LINE
5
196
100
AcDbEntity
8
silk
6
ByLayer
62
256
370
-1
100
AcDbLine
10
216.9875
20
130.65
11
222.9875
21
130.65
0
LINE
5
197
100
AcDbEntity
8
chassis
6
ByLayer
62
256
370
-1
100
AcDbLine
10
216.9875
20
120
11
222.9875
21
120
0
LINE
5
198
100
AcDbEntity
8
silk
6
ByLayer
62
256
370
-1
100
AcDbLine
10
219.9875
20
130.65
11
220.0125
21
109.35
0
CIRCLE
5
199
100
AcDbEntity
8
silk
6
ByLayer
62
256
370
-1
100
AcDbCircle
10
100
20
150
40
1.4
0
CIRCLE
5
19A
100
AcDbEntity
8
silk
6
ByLayer
62
256
370
-1
100
AcDbCircle
10
107.5
20
150
40
1.4
0
CIRCLE
5
19B
100
AcDbEntity
8
silk
6
ByLayer
62
256
370
-1
100
AcDbCircle
10
100
20
90
40
1.4
0
CIRCLE
5
19C
100
AcDbEntity
8
silk
6
ByLayer
62
256
370
-1
100
AcDbCircle
10
107.5
20
90
40
1.4
0
LINE
5
19D
100
AcDbEntity
8
silk
6
ByLayer
62
256
370
-1
100
AcDbLine
10
90
20
120
11
225
21
120
0
LINE
5
19E
100
AcDbEntity
8
silk
6
ByLayer
62
256
370
-1
100
AcDbLine
10
150
20
122
11
150
21
118
0
CIRCLE
5
19F
100
AcDbEntity
8
chassis
6
ByLayer
62
256
370
-1
100
AcDbCircle
10
100
20
150
40
1.4
0
CIRCLE
5
1A0
100
AcDbEntity
8
chassis
6
ByLayer
62
256
370
-1
100
AcDbCircle
10
107.5
20
150
40
1.4
0
CIRCLE
5
1A1
100
AcDbEntity
8
chassis
6
ByLayer
62
256
370
-1
100
AcDbCircle
10
100
20
90
40
1.4
0
CIRCLE
5
1A2
100
AcDbEntity
8
chassis
6
ByLayer
62
256
370
-1
100
AcDbCircle
10
107.5
20
90
40
1.4
0
LINE
5
1A3
100
AcDbEntity
8
chassis
6
ByLayer
62
256
370
-1
100
AcDbLine
10
90
20
120
11
225
21
120
0
LINE
5
1A4
100
AcDbEntity
8
chassis
6
ByLayer
62
256
370
-1
100
AcDbLine
10
150
20
122
11
150
21
118
0
LINE
5
1A5
100
AcDbEntity
8
chassis
6
ByLayer
62
256
370
-1
100
AcDbLine
10
225
20
150
11
225
21
90
0
ARC
5
1A6
100
AcDbEntity
8
chassis
6
ByLayer
62
256
370
-1
100
AcDbCircle
10
220
20
150
40
5
100
AcDbArc
50
360
51
180
0
ARC
5
1A7
100
AcDbEntity
8
chassis
6
ByLayer
62
256
370
-1
100
AcDbCircle
10
220
20
90
40
5
100
AcDbArc
50
180
51
360
0
LINE
5
1A8
100
AcDbEntity
8
chassis
6
ByLayer
62
256
370
-1
100
AcDbLine
10
90
20
170
11
90
21
70
0
LINE
5
1A9
100
AcDbEntity
8
chassis
6
ByLayer
62
256
370
-1
100
AcDbLine
10
90
20
70
11
122
21
70
0
LINE
5
1AA
100
AcDbEntity
8
chassis
6
ByLayer
62
256
370
-1
100
AcDbLine
10
122
20
170
11
90
21
170
0
CIRCLE
5
1AB
100
AcDbEntity
8
chassis
6
ByLayer
62
256
370
-1
100
AcDbCircle
10
220
20
150
40
1.4
0
CIRCLE
5
1AC
100
AcDbEntity
8
chassis
6
ByLayer
62
256
370
-1
100
AcDbCircle
10
220
20
90
40
1.4
0
CIRCLE
5
1AD
100
AcDbEntity
8
chassis
6
ByLayer
62
256
370
-1
100
AcDbCircle
10
95.5
20
77
40
1.4
0
CIRCLE
5
1AE
100
AcDbEntity
8
chassis
6
ByLayer
62
256
370
-1
100
AcDbCircle
10
113
20
77
40
1.4
0
CIRCLE
5
1AF
100
AcDbEntity
8
chassis
6
ByLayer
62
256
370
-1
100
AcDbCircle
10
113
20
163
40
1.4
0
CIRCLE
5
1B0
100
AcDbEntity
8
chassis
6
ByLayer
62
256
370
-1
100
AcDbCircle
10
95.5
20
163
40
1.4
0
LINE
5
1B1
100
AcDbEntity
8
chassis
6
ByLayer
62
256
370
-1
100
AcDbLine
10
122
20
170
11
215
21
133
0
LINE
5
1B2
100
AcDbEntity
8
chassis
6
ByLayer
62
256
370
-1
100
AcDbLine
10
122
20
70
11
215
21
107
0
LINE
5
1B3
100
AcDbEntity
8
chassis
6
ByLayer
62
256
370
-1
100
AcDbLine
10
215
20
150
11
215
21
133
0
LINE
5
1B4
100
AcDbEntity
8
chassis
6
ByLayer
62
256
370
-1
100
AcDbLine
10
215
20
107
11
215
21
90
0
MTEXT
5
1B5
100
AcDbEntity
8
border
6
ByLayer
62
256
370
-1
100
AcDbMText
10
217
20
11
30
0
40
5
41
7.77777777778
71
1
72
1
1
0.3
7
standard
210
0
220
0
230
1
50
0
73
2
44
1
0
ENDSEC
0
SECTION
2
OBJECTS
0
DICTIONARY
5
C
330
0
100
AcDbDictionary
281
1
3
ACAD_GROUP
350
D
0
DICTIONARY
5
D
330
C
100
AcDbDictionary
281
1
0
ENDSEC
0
EOF
