M48
;DRILL file {KiCad 4.0.5+dfsg1-4~bpo8+1} date Sun Mar 12 21:32:33 2017
;FORMAT={-:-/ absolute / inch / decimal}
FMAT,2
INCH,TZ
T1C0.031
T2C0.032
T3C0.039
T4C0.039
T5C0.040
%
G90
G05
M72
T1
X3.7815Y-3.7839
X3.7815Y-3.8839
X3.7815Y-3.9839
X3.7815Y-4.0839
X3.7815Y-4.1839
X3.7815Y-4.2839
X3.7815Y-4.3839
X3.7815Y-4.4839
X4.3815Y-3.7839
X4.3815Y-3.8839
X4.3815Y-3.9839
X4.3815Y-4.0839
X4.3815Y-4.1839
X4.3815Y-4.2839
X4.3815Y-4.3839
X4.3815Y-4.4839
X6.4843Y-3.8299
X6.4843Y-4.4299
X6.5843Y-3.8299
X6.5843Y-4.4299
X6.6843Y-3.8299
X6.6843Y-4.4299
X6.7843Y-3.8299
X6.7843Y-4.4299
X6.8843Y-3.8299
X6.8843Y-4.4299
X6.9843Y-3.8299
X6.9843Y-4.4299
X7.0843Y-3.8299
X7.0843Y-4.4299
X7.1843Y-3.8299
X7.1843Y-4.4299
X7.2843Y-3.8299
X7.2843Y-4.4299
X7.3843Y-3.8299
X7.3843Y-4.4299
X7.4843Y-3.8299
X7.4843Y-4.4299
X7.5843Y-3.8299
X7.5843Y-4.4299
T2
X6.4843Y-3.0839
X6.4843Y-3.5839
X6.6843Y-3.0839
X6.6843Y-3.5839
X6.7843Y-5.0339
X6.8843Y-5.0339
X6.9843Y-5.0339
T3
X3.8799Y-2.9528
X3.8799Y-5.315
X4.1752Y-2.9528
X4.1752Y-5.315
X4.6783Y-3.7008
X4.6783Y-3.7008
X4.6783Y-4.5669
X6.1484Y-3.7008
X6.1484Y-4.5669
X6.1484Y-4.5669
T4
X6.9687Y-3.2254
X6.9687Y-3.5254
T5
X7.1643Y-3.5889
X7.2643Y-3.5889
X7.3643Y-3.5889
X7.4643Y-3.5889
X8.5531Y-3.7846
X8.5531Y-3.8846
X8.5531Y-3.9846
X8.5531Y-4.0846
X8.5531Y-4.1846
X8.5531Y-4.2846
X8.5531Y-4.3846
X8.5531Y-4.4846
X8.6531Y-3.7846
X8.6531Y-3.8846
X8.6531Y-3.9846
X8.6531Y-4.0846
X8.6531Y-4.1846
X8.6531Y-4.2846
X8.6531Y-4.3846
X8.6531Y-4.4846
T0
M30
