G04 #@! TF.FileFunction,Soldermask,Bot*
%FSLAX46Y46*%
G04 Gerber Fmt 4.6, Leading zero omitted, Abs format (unit mm)*
G04 Created by KiCad (PCBNEW 4.0.5+dfsg1-4~bpo8+1) date Sun Mar 12 21:32:37 2017*
%MOMM*%
%LPD*%
G01*
G04 APERTURE LIST*
%ADD10C,0.100000*%
%ADD11O,2.000000X2.200000*%
%ADD12R,1.797000X1.797000*%
%ADD13C,1.797000*%
%ADD14O,2.127200X3.448000*%
%ADD15R,2.127200X2.127200*%
%ADD16O,2.127200X2.127200*%
%ADD17C,2.398980*%
%ADD18O,1.600000X2.400000*%
%ADD19R,2.127200X2.432000*%
%ADD20O,2.127200X2.432000*%
%ADD21O,2.400000X2.000000*%
G04 APERTURE END LIST*
D10*
D11*
X98550000Y-135000000D03*
X106050000Y-135000000D03*
X156170000Y-116000000D03*
X156170000Y-116000000D03*
X118830000Y-116000000D03*
X118830000Y-94000000D03*
X118830000Y-94000000D03*
X156170000Y-94000000D03*
X98550000Y-75000000D03*
X106050000Y-75000000D03*
D12*
X172320000Y-127860000D03*
D13*
X174860000Y-127860000D03*
X177400000Y-127860000D03*
D14*
X169780000Y-91030000D03*
X164700000Y-91030000D03*
X169780000Y-78330000D03*
X164700000Y-78330000D03*
D15*
X219790000Y-96130000D03*
D16*
X217250000Y-96130000D03*
X219790000Y-98670000D03*
X217250000Y-98670000D03*
X219790000Y-101210000D03*
X217250000Y-101210000D03*
X219790000Y-103750000D03*
X217250000Y-103750000D03*
X219790000Y-106290000D03*
X217250000Y-106290000D03*
X219790000Y-108830000D03*
X217250000Y-108830000D03*
X219790000Y-111370000D03*
X217250000Y-111370000D03*
X219790000Y-113910000D03*
X217250000Y-113910000D03*
D17*
X177005000Y-81925000D03*
X177005000Y-89545000D03*
D18*
X192640000Y-112520008D03*
X192640000Y-97280003D03*
X190100000Y-112520008D03*
X190100000Y-97280003D03*
X187560000Y-112520008D03*
X187560000Y-97280003D03*
X185020000Y-112520008D03*
X185020000Y-97280003D03*
X182480000Y-112520008D03*
X182480000Y-97280003D03*
X179940000Y-112520008D03*
X179940000Y-97280003D03*
X177400000Y-112520008D03*
X177400000Y-97280003D03*
X174860000Y-112520008D03*
X174860000Y-97280003D03*
X172320000Y-112520008D03*
X172320000Y-97280003D03*
X169780000Y-112520008D03*
X169780000Y-97280003D03*
X167240000Y-112520008D03*
X167240000Y-97280003D03*
X164700000Y-112520008D03*
X164700000Y-97280003D03*
D19*
X181972000Y-91157000D03*
D20*
X184512000Y-91157000D03*
X187052000Y-91157000D03*
X189592000Y-91157000D03*
D21*
X96050000Y-96110000D03*
X96050000Y-98650000D03*
X96050000Y-101190000D03*
X96050000Y-103730000D03*
X96050000Y-106270000D03*
X96050000Y-108810000D03*
X96050000Y-111350000D03*
X96050000Y-113890000D03*
X111290000Y-113890000D03*
X111290000Y-111350000D03*
X111290000Y-108810000D03*
X111290000Y-106270000D03*
X111290000Y-103730000D03*
X111290000Y-101190000D03*
X111290000Y-98650000D03*
X111290000Y-96110000D03*
M02*
