G04 #@! TF.FileFunction,Legend,Top*
%FSLAX46Y46*%
G04 Gerber Fmt 4.6, Leading zero omitted, Abs format (unit mm)*
G04 Created by KiCad (PCBNEW 4.0.5+dfsg1-4~bpo8+1) date Sun Mar 12 21:32:37 2017*
%MOMM*%
%LPD*%
G01*
G04 APERTURE LIST*
%ADD10C,0.100000*%
%ADD11C,0.250000*%
%ADD12C,0.300000*%
%ADD13C,0.150000*%
%ADD14C,0.010000*%
G04 APERTURE END LIST*
D10*
D11*
X94921429Y-121264286D02*
X94921429Y-120930952D01*
X94397619Y-120930952D02*
X95397619Y-120930952D01*
X95397619Y-121407143D01*
X94445238Y-122169048D02*
X94397619Y-122073810D01*
X94397619Y-121883333D01*
X94445238Y-121788095D01*
X94540476Y-121740476D01*
X94921429Y-121740476D01*
X95016667Y-121788095D01*
X95064286Y-121883333D01*
X95064286Y-122073810D01*
X95016667Y-122169048D01*
X94921429Y-122216667D01*
X94826190Y-122216667D01*
X94730952Y-121740476D01*
X94397619Y-122788095D02*
X94445238Y-122692857D01*
X94540476Y-122645238D01*
X95397619Y-122645238D01*
X94397619Y-123169048D02*
X95064286Y-123169048D01*
X95397619Y-123169048D02*
X95350000Y-123121429D01*
X95302381Y-123169048D01*
X95350000Y-123216667D01*
X95397619Y-123169048D01*
X95302381Y-123169048D01*
X94397619Y-123550000D02*
X95064286Y-124073810D01*
X95064286Y-123550000D02*
X94397619Y-124073810D01*
X94445238Y-124407143D02*
X94397619Y-124502381D01*
X94397619Y-124692857D01*
X94445238Y-124788096D01*
X94540476Y-124835715D01*
X94588095Y-124835715D01*
X94683333Y-124788096D01*
X94730952Y-124692857D01*
X94730952Y-124550000D01*
X94778571Y-124454762D01*
X94873810Y-124407143D01*
X94921429Y-124407143D01*
X95016667Y-124454762D01*
X95064286Y-124550000D01*
X95064286Y-124692857D01*
X95016667Y-124788096D01*
X95064286Y-125121429D02*
X95064286Y-125502381D01*
X95397619Y-125264286D02*
X94540476Y-125264286D01*
X94445238Y-125311905D01*
X94397619Y-125407143D01*
X94397619Y-125502381D01*
X94397619Y-126264287D02*
X95397619Y-126264287D01*
X94445238Y-126264287D02*
X94397619Y-126169049D01*
X94397619Y-125978572D01*
X94445238Y-125883334D01*
X94492857Y-125835715D01*
X94588095Y-125788096D01*
X94873810Y-125788096D01*
X94969048Y-125835715D01*
X95016667Y-125883334D01*
X95064286Y-125978572D01*
X95064286Y-126169049D01*
X95016667Y-126264287D01*
X95064286Y-126740477D02*
X94064286Y-126740477D01*
X95016667Y-126740477D02*
X95064286Y-126835715D01*
X95064286Y-127026192D01*
X95016667Y-127121430D01*
X94969048Y-127169049D01*
X94873810Y-127216668D01*
X94588095Y-127216668D01*
X94492857Y-127169049D01*
X94445238Y-127121430D01*
X94397619Y-127026192D01*
X94397619Y-126835715D01*
X94445238Y-126740477D01*
X91952857Y-117335715D02*
X91905238Y-117288096D01*
X91857619Y-117145239D01*
X91857619Y-117050001D01*
X91905238Y-116907143D01*
X92000476Y-116811905D01*
X92095714Y-116764286D01*
X92286190Y-116716667D01*
X92429048Y-116716667D01*
X92619524Y-116764286D01*
X92714762Y-116811905D01*
X92810000Y-116907143D01*
X92857619Y-117050001D01*
X92857619Y-117145239D01*
X92810000Y-117288096D01*
X92762381Y-117335715D01*
X91952857Y-118335715D02*
X91905238Y-118288096D01*
X91857619Y-118145239D01*
X91857619Y-118050001D01*
X91905238Y-117907143D01*
X92000476Y-117811905D01*
X92095714Y-117764286D01*
X92286190Y-117716667D01*
X92429048Y-117716667D01*
X92619524Y-117764286D01*
X92714762Y-117811905D01*
X92810000Y-117907143D01*
X92857619Y-118050001D01*
X92857619Y-118145239D01*
X92810000Y-118288096D01*
X92762381Y-118335715D01*
X92238571Y-118764286D02*
X92238571Y-119526191D01*
X92381429Y-120335715D02*
X92333810Y-120478572D01*
X92286190Y-120526191D01*
X92190952Y-120573810D01*
X92048095Y-120573810D01*
X91952857Y-120526191D01*
X91905238Y-120478572D01*
X91857619Y-120383334D01*
X91857619Y-120002381D01*
X92857619Y-120002381D01*
X92857619Y-120335715D01*
X92810000Y-120430953D01*
X92762381Y-120478572D01*
X92667143Y-120526191D01*
X92571905Y-120526191D01*
X92476667Y-120478572D01*
X92429048Y-120430953D01*
X92381429Y-120335715D01*
X92381429Y-120002381D01*
X92524286Y-120907143D02*
X91857619Y-121145238D01*
X92524286Y-121383334D02*
X91857619Y-121145238D01*
X91619524Y-121050000D01*
X91571905Y-121002381D01*
X91524286Y-120907143D01*
X92238571Y-121764286D02*
X92238571Y-122526191D01*
X91905238Y-122954762D02*
X91857619Y-123097619D01*
X91857619Y-123335715D01*
X91905238Y-123430953D01*
X91952857Y-123478572D01*
X92048095Y-123526191D01*
X92143333Y-123526191D01*
X92238571Y-123478572D01*
X92286190Y-123430953D01*
X92333810Y-123335715D01*
X92381429Y-123145238D01*
X92429048Y-123050000D01*
X92476667Y-123002381D01*
X92571905Y-122954762D01*
X92667143Y-122954762D01*
X92762381Y-123002381D01*
X92810000Y-123050000D01*
X92857619Y-123145238D01*
X92857619Y-123383334D01*
X92810000Y-123526191D01*
X92143333Y-123907143D02*
X92143333Y-124383334D01*
X91857619Y-123811905D02*
X92857619Y-124145238D01*
X91857619Y-124478572D01*
X91857619Y-125573810D02*
X92857619Y-125573810D01*
X91857619Y-126050000D02*
X92857619Y-126050000D01*
X91857619Y-126621429D01*
X92857619Y-126621429D01*
X92857619Y-126954762D02*
X92857619Y-127526191D01*
X91857619Y-127240476D02*
X92857619Y-127240476D01*
X91857619Y-128335715D02*
X91857619Y-127859524D01*
X92857619Y-127859524D01*
X92524286Y-129859525D02*
X91857619Y-129859525D01*
X92905238Y-129621429D02*
X92190952Y-129383334D01*
X92190952Y-130002382D01*
X91952857Y-130383334D02*
X91905238Y-130430953D01*
X91857619Y-130383334D01*
X91905238Y-130335715D01*
X91952857Y-130383334D01*
X91857619Y-130383334D01*
X92857619Y-131050000D02*
X92857619Y-131145239D01*
X92810000Y-131240477D01*
X92762381Y-131288096D01*
X92667143Y-131335715D01*
X92476667Y-131383334D01*
X92238571Y-131383334D01*
X92048095Y-131335715D01*
X91952857Y-131288096D01*
X91905238Y-131240477D01*
X91857619Y-131145239D01*
X91857619Y-131050000D01*
X91905238Y-130954762D01*
X91952857Y-130907143D01*
X92048095Y-130859524D01*
X92238571Y-130811905D01*
X92476667Y-130811905D01*
X92667143Y-130859524D01*
X92762381Y-130907143D01*
X92810000Y-130954762D01*
X92857619Y-131050000D01*
D12*
X221707144Y-95931429D02*
X221564286Y-95860000D01*
X221492858Y-95788571D01*
X221421429Y-95645714D01*
X221421429Y-95574286D01*
X221492858Y-95431429D01*
X221564286Y-95360000D01*
X221707144Y-95288571D01*
X221992858Y-95288571D01*
X222135715Y-95360000D01*
X222207144Y-95431429D01*
X222278572Y-95574286D01*
X222278572Y-95645714D01*
X222207144Y-95788571D01*
X222135715Y-95860000D01*
X221992858Y-95931429D01*
X221707144Y-95931429D01*
X221564286Y-96002857D01*
X221492858Y-96074286D01*
X221421429Y-96217143D01*
X221421429Y-96502857D01*
X221492858Y-96645714D01*
X221564286Y-96717143D01*
X221707144Y-96788571D01*
X221992858Y-96788571D01*
X222135715Y-96717143D01*
X222207144Y-96645714D01*
X222278572Y-96502857D01*
X222278572Y-96217143D01*
X222207144Y-96074286D01*
X222135715Y-96002857D01*
X221992858Y-95931429D01*
X222278572Y-114568571D02*
X221421429Y-114568571D01*
X221850001Y-114568571D02*
X221850001Y-113068571D01*
X221707144Y-113282857D01*
X221564286Y-113425714D01*
X221421429Y-113497143D01*
X187274286Y-87740000D02*
X187131429Y-87668571D01*
X186917143Y-87668571D01*
X186702858Y-87740000D01*
X186560000Y-87882857D01*
X186488572Y-88025714D01*
X186417143Y-88311429D01*
X186417143Y-88525714D01*
X186488572Y-88811429D01*
X186560000Y-88954286D01*
X186702858Y-89097143D01*
X186917143Y-89168571D01*
X187060000Y-89168571D01*
X187274286Y-89097143D01*
X187345715Y-89025714D01*
X187345715Y-88525714D01*
X187060000Y-88525714D01*
X187988572Y-88168571D02*
X187988572Y-89168571D01*
X187988572Y-88311429D02*
X188060000Y-88240000D01*
X188202858Y-88168571D01*
X188417143Y-88168571D01*
X188560000Y-88240000D01*
X188631429Y-88382857D01*
X188631429Y-89168571D01*
X188957143Y-87668571D02*
X189457143Y-89168571D01*
X189957143Y-87668571D01*
X191100000Y-89097143D02*
X190957143Y-89168571D01*
X190671429Y-89168571D01*
X190528571Y-89097143D01*
X190457143Y-89025714D01*
X190385714Y-88882857D01*
X190385714Y-88454286D01*
X190457143Y-88311429D01*
X190528571Y-88240000D01*
X190671429Y-88168571D01*
X190957143Y-88168571D01*
X191100000Y-88240000D01*
X182921429Y-87832857D02*
X183607143Y-87832857D01*
X183264286Y-89032857D02*
X183264286Y-87832857D01*
X183892858Y-89032857D02*
X184521429Y-88232857D01*
X183892858Y-88232857D02*
X184521429Y-89032857D01*
X181095715Y-89032857D02*
X180695715Y-88461429D01*
X180410000Y-89032857D02*
X180410000Y-87832857D01*
X180867143Y-87832857D01*
X180981429Y-87890000D01*
X181038572Y-87947143D01*
X181095715Y-88061429D01*
X181095715Y-88232857D01*
X181038572Y-88347143D01*
X180981429Y-88404286D01*
X180867143Y-88461429D01*
X180410000Y-88461429D01*
X181495715Y-89032857D02*
X182124286Y-88232857D01*
X181495715Y-88232857D02*
X182124286Y-89032857D01*
D10*
X148501100Y-103003600D02*
X148501100Y-107003600D01*
X88501100Y-105003600D02*
X223501100Y-105003600D01*
X107401100Y-135003600D02*
G75*
G03X107401100Y-135003600I-1400000J0D01*
G01*
X99901100Y-135003600D02*
G75*
G03X99901100Y-135003600I-1400000J0D01*
G01*
X107401100Y-75003600D02*
G75*
G03X107401100Y-75003600I-1400000J0D01*
G01*
X99901100Y-75003600D02*
G75*
G03X99901100Y-75003600I-1400000J0D01*
G01*
D13*
X97300000Y-135000000D02*
X97300000Y-132000000D01*
X97300000Y-132000000D02*
X107300000Y-132000000D01*
X107300000Y-132000000D02*
X107300000Y-138000000D01*
X107300000Y-138000000D02*
X97300000Y-138000000D01*
X97300000Y-138000000D02*
X97300000Y-135000000D01*
X115820000Y-106820000D02*
X159180000Y-106820000D01*
X159180000Y-125180000D02*
X115820000Y-125180000D01*
X115820000Y-116000000D02*
X115820000Y-106820000D01*
X115820000Y-116000000D02*
X115820000Y-125180000D01*
X159180000Y-116000000D02*
X159180000Y-106820000D01*
X159180000Y-116000000D02*
X159180000Y-125180000D01*
X159180000Y-103180000D02*
X115820000Y-103180000D01*
X115820000Y-84820000D02*
X159180000Y-84820000D01*
X159180000Y-94000000D02*
X159180000Y-103180000D01*
X159180000Y-94000000D02*
X159180000Y-84820000D01*
X115820000Y-94000000D02*
X115820000Y-103180000D01*
X115820000Y-94000000D02*
X115820000Y-84820000D01*
X97300000Y-75000000D02*
X97300000Y-72000000D01*
X97300000Y-72000000D02*
X107300000Y-72000000D01*
X107300000Y-72000000D02*
X107300000Y-78000000D01*
X107300000Y-78000000D02*
X97300000Y-78000000D01*
X97300000Y-78000000D02*
X97300000Y-75000000D01*
D14*
G36*
X98608097Y-119221900D02*
X98552478Y-119333450D01*
X98450069Y-119431908D01*
X98412136Y-119459023D01*
X98362500Y-119488562D01*
X98308588Y-119507728D01*
X98236636Y-119518693D01*
X98132878Y-119523629D01*
X97995899Y-119524713D01*
X97808185Y-119519818D01*
X97667242Y-119502804D01*
X97562092Y-119470177D01*
X97481757Y-119418442D01*
X97415259Y-119344104D01*
X97411322Y-119338642D01*
X97371047Y-119265380D01*
X97351120Y-119177160D01*
X97346207Y-119064962D01*
X97346207Y-118882567D01*
X97169143Y-118882491D01*
X97070530Y-118880793D01*
X97012686Y-118870450D01*
X96977994Y-118843422D01*
X96948836Y-118791668D01*
X96942879Y-118779239D01*
X96914961Y-118721077D01*
X96897328Y-118676044D01*
X96895806Y-118642559D01*
X96916219Y-118619038D01*
X96964393Y-118603900D01*
X97046154Y-118595563D01*
X97167328Y-118592444D01*
X97333740Y-118592960D01*
X97551215Y-118595529D01*
X97616264Y-118596332D01*
X97840498Y-118599222D01*
X97987179Y-118601812D01*
X97987179Y-118882414D01*
X97862674Y-118883991D01*
X97781213Y-118891000D01*
X97727485Y-118906858D01*
X97686177Y-118934981D01*
X97666029Y-118954075D01*
X97607079Y-119032135D01*
X97602280Y-119101247D01*
X97650962Y-119172560D01*
X97652759Y-119174368D01*
X97690382Y-119203383D01*
X97741516Y-119221033D01*
X97820262Y-119229936D01*
X97940724Y-119232709D01*
X97967412Y-119232759D01*
X98133417Y-119226058D01*
X98248495Y-119204248D01*
X98318746Y-119164765D01*
X98350271Y-119105044D01*
X98353448Y-119070528D01*
X98338540Y-118988611D01*
X98289452Y-118932421D01*
X98199638Y-118898598D01*
X98062555Y-118883780D01*
X97987179Y-118882414D01*
X97987179Y-118601812D01*
X98014048Y-118602287D01*
X98144618Y-118606247D01*
X98239913Y-118611826D01*
X98307636Y-118619746D01*
X98355493Y-118630731D01*
X98391187Y-118645501D01*
X98422422Y-118664782D01*
X98434176Y-118673049D01*
X98545203Y-118782712D01*
X98608153Y-118921365D01*
X98625703Y-119081754D01*
X98608097Y-119221900D01*
X98608097Y-119221900D01*
G37*
X98608097Y-119221900D02*
X98552478Y-119333450D01*
X98450069Y-119431908D01*
X98412136Y-119459023D01*
X98362500Y-119488562D01*
X98308588Y-119507728D01*
X98236636Y-119518693D01*
X98132878Y-119523629D01*
X97995899Y-119524713D01*
X97808185Y-119519818D01*
X97667242Y-119502804D01*
X97562092Y-119470177D01*
X97481757Y-119418442D01*
X97415259Y-119344104D01*
X97411322Y-119338642D01*
X97371047Y-119265380D01*
X97351120Y-119177160D01*
X97346207Y-119064962D01*
X97346207Y-118882567D01*
X97169143Y-118882491D01*
X97070530Y-118880793D01*
X97012686Y-118870450D01*
X96977994Y-118843422D01*
X96948836Y-118791668D01*
X96942879Y-118779239D01*
X96914961Y-118721077D01*
X96897328Y-118676044D01*
X96895806Y-118642559D01*
X96916219Y-118619038D01*
X96964393Y-118603900D01*
X97046154Y-118595563D01*
X97167328Y-118592444D01*
X97333740Y-118592960D01*
X97551215Y-118595529D01*
X97616264Y-118596332D01*
X97840498Y-118599222D01*
X97987179Y-118601812D01*
X97987179Y-118882414D01*
X97862674Y-118883991D01*
X97781213Y-118891000D01*
X97727485Y-118906858D01*
X97686177Y-118934981D01*
X97666029Y-118954075D01*
X97607079Y-119032135D01*
X97602280Y-119101247D01*
X97650962Y-119172560D01*
X97652759Y-119174368D01*
X97690382Y-119203383D01*
X97741516Y-119221033D01*
X97820262Y-119229936D01*
X97940724Y-119232709D01*
X97967412Y-119232759D01*
X98133417Y-119226058D01*
X98248495Y-119204248D01*
X98318746Y-119164765D01*
X98350271Y-119105044D01*
X98353448Y-119070528D01*
X98338540Y-118988611D01*
X98289452Y-118932421D01*
X98199638Y-118898598D01*
X98062555Y-118883780D01*
X97987179Y-118882414D01*
X97987179Y-118601812D01*
X98014048Y-118602287D01*
X98144618Y-118606247D01*
X98239913Y-118611826D01*
X98307636Y-118619746D01*
X98355493Y-118630731D01*
X98391187Y-118645501D01*
X98422422Y-118664782D01*
X98434176Y-118673049D01*
X98545203Y-118782712D01*
X98608153Y-118921365D01*
X98625703Y-119081754D01*
X98608097Y-119221900D01*
G36*
X98592281Y-121467429D02*
X98538086Y-121561123D01*
X98484293Y-121626264D01*
X98427934Y-121673907D01*
X98359013Y-121706728D01*
X98267532Y-121727406D01*
X98143494Y-121738620D01*
X97976902Y-121743049D01*
X97857149Y-121743563D01*
X97416341Y-121743563D01*
X97360717Y-121619483D01*
X97305093Y-121495402D01*
X97787905Y-121480805D01*
X97968221Y-121474773D01*
X98099099Y-121468445D01*
X98189489Y-121460606D01*
X98248336Y-121450037D01*
X98284587Y-121435523D01*
X98307190Y-121415848D01*
X98312083Y-121409535D01*
X98350294Y-121313888D01*
X98335173Y-121217207D01*
X98295057Y-121159655D01*
X98266630Y-121136245D01*
X98229328Y-121120039D01*
X98172777Y-121109741D01*
X98086606Y-121104049D01*
X97960442Y-121101664D01*
X97828958Y-121101264D01*
X97664001Y-121101186D01*
X97547239Y-121098361D01*
X97468490Y-121088907D01*
X97417569Y-121068940D01*
X97384294Y-121034576D01*
X97358480Y-120981932D01*
X97331656Y-120911617D01*
X97302458Y-120834820D01*
X97820654Y-120843962D01*
X98007461Y-120847643D01*
X98145510Y-120851950D01*
X98244432Y-120858123D01*
X98313855Y-120867402D01*
X98363410Y-120881027D01*
X98402727Y-120900239D01*
X98437416Y-120923402D01*
X98548230Y-121035152D01*
X98612311Y-121171513D01*
X98627661Y-121319825D01*
X98592281Y-121467429D01*
X98592281Y-121467429D01*
G37*
X98592281Y-121467429D02*
X98538086Y-121561123D01*
X98484293Y-121626264D01*
X98427934Y-121673907D01*
X98359013Y-121706728D01*
X98267532Y-121727406D01*
X98143494Y-121738620D01*
X97976902Y-121743049D01*
X97857149Y-121743563D01*
X97416341Y-121743563D01*
X97360717Y-121619483D01*
X97305093Y-121495402D01*
X97787905Y-121480805D01*
X97968221Y-121474773D01*
X98099099Y-121468445D01*
X98189489Y-121460606D01*
X98248336Y-121450037D01*
X98284587Y-121435523D01*
X98307190Y-121415848D01*
X98312083Y-121409535D01*
X98350294Y-121313888D01*
X98335173Y-121217207D01*
X98295057Y-121159655D01*
X98266630Y-121136245D01*
X98229328Y-121120039D01*
X98172777Y-121109741D01*
X98086606Y-121104049D01*
X97960442Y-121101664D01*
X97828958Y-121101264D01*
X97664001Y-121101186D01*
X97547239Y-121098361D01*
X97468490Y-121088907D01*
X97417569Y-121068940D01*
X97384294Y-121034576D01*
X97358480Y-120981932D01*
X97331656Y-120911617D01*
X97302458Y-120834820D01*
X97820654Y-120843962D01*
X98007461Y-120847643D01*
X98145510Y-120851950D01*
X98244432Y-120858123D01*
X98313855Y-120867402D01*
X98363410Y-120881027D01*
X98402727Y-120900239D01*
X98437416Y-120923402D01*
X98548230Y-121035152D01*
X98612311Y-121171513D01*
X98627661Y-121319825D01*
X98592281Y-121467429D01*
G36*
X98603985Y-118098221D02*
X98532032Y-118235061D01*
X98416234Y-118336051D01*
X98341787Y-118371925D01*
X98230008Y-118399839D01*
X98088773Y-118414129D01*
X97934629Y-118415484D01*
X97784121Y-118404595D01*
X97653795Y-118382153D01*
X97560197Y-118348850D01*
X97544078Y-118338615D01*
X97423751Y-118217382D01*
X97351683Y-118073387D01*
X97330592Y-117917139D01*
X97363198Y-117759148D01*
X97382747Y-117715180D01*
X97442988Y-117629556D01*
X97522865Y-117554408D01*
X97532996Y-117547306D01*
X97581819Y-117518439D01*
X97634010Y-117499357D01*
X97702715Y-117488084D01*
X97801082Y-117482645D01*
X97942256Y-117481062D01*
X97973908Y-117481035D01*
X97983981Y-117481107D01*
X97983981Y-117772989D01*
X97850744Y-117774687D01*
X97762326Y-117781372D01*
X97705215Y-117795425D01*
X97665898Y-117819229D01*
X97652759Y-117831379D01*
X97602828Y-117901236D01*
X97605105Y-117969059D01*
X97648416Y-118037635D01*
X97694654Y-118078535D01*
X97762143Y-118102758D01*
X97868567Y-118116361D01*
X97880980Y-118117294D01*
X98073853Y-118119616D01*
X98217100Y-118095350D01*
X98309840Y-118044824D01*
X98351193Y-117968368D01*
X98353448Y-117941076D01*
X98342107Y-117869411D01*
X98302816Y-117820390D01*
X98227674Y-117790418D01*
X98108778Y-117775899D01*
X97983981Y-117772989D01*
X97983981Y-117481107D01*
X98124341Y-117482122D01*
X98229451Y-117486688D01*
X98302286Y-117496688D01*
X98355892Y-117514079D01*
X98403319Y-117540816D01*
X98412136Y-117546724D01*
X98530993Y-117646032D01*
X98599992Y-117754242D01*
X98627381Y-117885981D01*
X98628719Y-117930717D01*
X98603985Y-118098221D01*
X98603985Y-118098221D01*
G37*
X98603985Y-118098221D02*
X98532032Y-118235061D01*
X98416234Y-118336051D01*
X98341787Y-118371925D01*
X98230008Y-118399839D01*
X98088773Y-118414129D01*
X97934629Y-118415484D01*
X97784121Y-118404595D01*
X97653795Y-118382153D01*
X97560197Y-118348850D01*
X97544078Y-118338615D01*
X97423751Y-118217382D01*
X97351683Y-118073387D01*
X97330592Y-117917139D01*
X97363198Y-117759148D01*
X97382747Y-117715180D01*
X97442988Y-117629556D01*
X97522865Y-117554408D01*
X97532996Y-117547306D01*
X97581819Y-117518439D01*
X97634010Y-117499357D01*
X97702715Y-117488084D01*
X97801082Y-117482645D01*
X97942256Y-117481062D01*
X97973908Y-117481035D01*
X97983981Y-117481107D01*
X97983981Y-117772989D01*
X97850744Y-117774687D01*
X97762326Y-117781372D01*
X97705215Y-117795425D01*
X97665898Y-117819229D01*
X97652759Y-117831379D01*
X97602828Y-117901236D01*
X97605105Y-117969059D01*
X97648416Y-118037635D01*
X97694654Y-118078535D01*
X97762143Y-118102758D01*
X97868567Y-118116361D01*
X97880980Y-118117294D01*
X98073853Y-118119616D01*
X98217100Y-118095350D01*
X98309840Y-118044824D01*
X98351193Y-117968368D01*
X98353448Y-117941076D01*
X98342107Y-117869411D01*
X98302816Y-117820390D01*
X98227674Y-117790418D01*
X98108778Y-117775899D01*
X97983981Y-117772989D01*
X97983981Y-117481107D01*
X98124341Y-117482122D01*
X98229451Y-117486688D01*
X98302286Y-117496688D01*
X98355892Y-117514079D01*
X98403319Y-117540816D01*
X98412136Y-117546724D01*
X98530993Y-117646032D01*
X98599992Y-117754242D01*
X98627381Y-117885981D01*
X98628719Y-117930717D01*
X98603985Y-118098221D01*
G36*
X98585324Y-120365552D02*
X98507889Y-120480658D01*
X98396051Y-120569611D01*
X98253735Y-120622749D01*
X98148985Y-120633497D01*
X98105274Y-120632276D01*
X98071806Y-120622056D01*
X98041821Y-120593961D01*
X98008560Y-120539116D01*
X97965262Y-120448645D01*
X97905167Y-120313672D01*
X97904866Y-120312989D01*
X97847963Y-120188751D01*
X97797435Y-120086873D01*
X97758720Y-120017767D01*
X97737260Y-119991846D01*
X97737087Y-119991839D01*
X97690356Y-120014685D01*
X97638846Y-120068109D01*
X97601739Y-120129442D01*
X97594368Y-120160515D01*
X97619862Y-120245289D01*
X97683709Y-120318293D01*
X97753906Y-120353913D01*
X97805657Y-120388180D01*
X97864591Y-120455303D01*
X97915504Y-120534208D01*
X97943191Y-120603821D01*
X97944713Y-120618377D01*
X97919679Y-120634763D01*
X97855689Y-120635750D01*
X97769407Y-120623708D01*
X97677499Y-120601007D01*
X97596631Y-120570014D01*
X97593491Y-120568448D01*
X97463266Y-120475181D01*
X97374689Y-120354304D01*
X97331214Y-120217027D01*
X97336294Y-120074560D01*
X97393384Y-119938112D01*
X97397398Y-119932045D01*
X97494674Y-119824710D01*
X97621591Y-119754132D01*
X97788474Y-119715074D01*
X97835361Y-119709832D01*
X98056671Y-119700548D01*
X98159876Y-119711678D01*
X98159876Y-119991839D01*
X98095497Y-119995479D01*
X98076709Y-120015389D01*
X98090765Y-120065026D01*
X98123991Y-120143267D01*
X98165641Y-120230726D01*
X98166744Y-120232899D01*
X98205735Y-120307030D01*
X98231756Y-120336781D01*
X98259035Y-120329445D01*
X98294879Y-120298553D01*
X98346749Y-120219960D01*
X98350561Y-120135323D01*
X98312811Y-120059403D01*
X98239999Y-120006965D01*
X98159876Y-119991839D01*
X98159876Y-119711678D01*
X98233739Y-119719644D01*
X98374171Y-119768634D01*
X98472553Y-119836836D01*
X98571970Y-119959935D01*
X98621289Y-120095528D01*
X98624432Y-120233955D01*
X98585324Y-120365552D01*
X98585324Y-120365552D01*
G37*
X98585324Y-120365552D02*
X98507889Y-120480658D01*
X98396051Y-120569611D01*
X98253735Y-120622749D01*
X98148985Y-120633497D01*
X98105274Y-120632276D01*
X98071806Y-120622056D01*
X98041821Y-120593961D01*
X98008560Y-120539116D01*
X97965262Y-120448645D01*
X97905167Y-120313672D01*
X97904866Y-120312989D01*
X97847963Y-120188751D01*
X97797435Y-120086873D01*
X97758720Y-120017767D01*
X97737260Y-119991846D01*
X97737087Y-119991839D01*
X97690356Y-120014685D01*
X97638846Y-120068109D01*
X97601739Y-120129442D01*
X97594368Y-120160515D01*
X97619862Y-120245289D01*
X97683709Y-120318293D01*
X97753906Y-120353913D01*
X97805657Y-120388180D01*
X97864591Y-120455303D01*
X97915504Y-120534208D01*
X97943191Y-120603821D01*
X97944713Y-120618377D01*
X97919679Y-120634763D01*
X97855689Y-120635750D01*
X97769407Y-120623708D01*
X97677499Y-120601007D01*
X97596631Y-120570014D01*
X97593491Y-120568448D01*
X97463266Y-120475181D01*
X97374689Y-120354304D01*
X97331214Y-120217027D01*
X97336294Y-120074560D01*
X97393384Y-119938112D01*
X97397398Y-119932045D01*
X97494674Y-119824710D01*
X97621591Y-119754132D01*
X97788474Y-119715074D01*
X97835361Y-119709832D01*
X98056671Y-119700548D01*
X98159876Y-119711678D01*
X98159876Y-119991839D01*
X98095497Y-119995479D01*
X98076709Y-120015389D01*
X98090765Y-120065026D01*
X98123991Y-120143267D01*
X98165641Y-120230726D01*
X98166744Y-120232899D01*
X98205735Y-120307030D01*
X98231756Y-120336781D01*
X98259035Y-120329445D01*
X98294879Y-120298553D01*
X98346749Y-120219960D01*
X98350561Y-120135323D01*
X98312811Y-120059403D01*
X98239999Y-120006965D01*
X98159876Y-119991839D01*
X98159876Y-119711678D01*
X98233739Y-119719644D01*
X98374171Y-119768634D01*
X98472553Y-119836836D01*
X98571970Y-119959935D01*
X98621289Y-120095528D01*
X98624432Y-120233955D01*
X98585324Y-120365552D01*
G36*
X98746143Y-122794598D02*
X98626812Y-122803154D01*
X98556494Y-122812981D01*
X98525821Y-122826599D01*
X98525429Y-122846527D01*
X98529090Y-122852989D01*
X98555602Y-122938940D01*
X98554054Y-123050745D01*
X98526801Y-123164414D01*
X98491545Y-123235510D01*
X98435222Y-123308405D01*
X98371481Y-123361693D01*
X98290490Y-123398275D01*
X98182414Y-123421050D01*
X98037420Y-123432919D01*
X97845674Y-123436782D01*
X97808891Y-123436851D01*
X97395712Y-123436897D01*
X97363661Y-123344954D01*
X97341856Y-123279652D01*
X97331703Y-123243824D01*
X97331609Y-123242770D01*
X97359140Y-123239242D01*
X97435077Y-123236239D01*
X97549435Y-123233990D01*
X97692231Y-123232724D01*
X97779049Y-123232529D01*
X97950227Y-123232123D01*
X98072912Y-123230032D01*
X98157000Y-123224947D01*
X98212386Y-123215560D01*
X98248968Y-123200561D01*
X98276641Y-123178642D01*
X98289968Y-123164957D01*
X98343672Y-123070949D01*
X98347693Y-122968364D01*
X98302275Y-122875290D01*
X98285877Y-122858078D01*
X98255043Y-122832832D01*
X98218469Y-122815320D01*
X98165585Y-122804142D01*
X98085823Y-122797896D01*
X97968615Y-122795182D01*
X97807009Y-122794598D01*
X97395712Y-122794598D01*
X97363661Y-122702655D01*
X97341856Y-122637353D01*
X97331703Y-122601525D01*
X97331609Y-122600471D01*
X97359552Y-122597775D01*
X97438370Y-122595345D01*
X97560547Y-122593278D01*
X97718568Y-122591671D01*
X97904917Y-122590623D01*
X98112080Y-122590231D01*
X98121294Y-122590230D01*
X98910980Y-122590230D01*
X98951003Y-122685115D01*
X98991027Y-122780000D01*
X98746143Y-122794598D01*
X98746143Y-122794598D01*
G37*
X98746143Y-122794598D02*
X98626812Y-122803154D01*
X98556494Y-122812981D01*
X98525821Y-122826599D01*
X98525429Y-122846527D01*
X98529090Y-122852989D01*
X98555602Y-122938940D01*
X98554054Y-123050745D01*
X98526801Y-123164414D01*
X98491545Y-123235510D01*
X98435222Y-123308405D01*
X98371481Y-123361693D01*
X98290490Y-123398275D01*
X98182414Y-123421050D01*
X98037420Y-123432919D01*
X97845674Y-123436782D01*
X97808891Y-123436851D01*
X97395712Y-123436897D01*
X97363661Y-123344954D01*
X97341856Y-123279652D01*
X97331703Y-123243824D01*
X97331609Y-123242770D01*
X97359140Y-123239242D01*
X97435077Y-123236239D01*
X97549435Y-123233990D01*
X97692231Y-123232724D01*
X97779049Y-123232529D01*
X97950227Y-123232123D01*
X98072912Y-123230032D01*
X98157000Y-123224947D01*
X98212386Y-123215560D01*
X98248968Y-123200561D01*
X98276641Y-123178642D01*
X98289968Y-123164957D01*
X98343672Y-123070949D01*
X98347693Y-122968364D01*
X98302275Y-122875290D01*
X98285877Y-122858078D01*
X98255043Y-122832832D01*
X98218469Y-122815320D01*
X98165585Y-122804142D01*
X98085823Y-122797896D01*
X97968615Y-122795182D01*
X97807009Y-122794598D01*
X97395712Y-122794598D01*
X97363661Y-122702655D01*
X97341856Y-122637353D01*
X97331703Y-122601525D01*
X97331609Y-122600471D01*
X97359552Y-122597775D01*
X97438370Y-122595345D01*
X97560547Y-122593278D01*
X97718568Y-122591671D01*
X97904917Y-122590623D01*
X98112080Y-122590231D01*
X98121294Y-122590230D01*
X98910980Y-122590230D01*
X98951003Y-122685115D01*
X98991027Y-122780000D01*
X98746143Y-122794598D01*
G36*
X98545640Y-124129944D02*
X98503158Y-124244343D01*
X98502342Y-124245652D01*
X98450270Y-124316403D01*
X98389416Y-124368636D01*
X98310113Y-124405371D01*
X98202691Y-124429634D01*
X98057483Y-124444445D01*
X97864821Y-124452829D01*
X97837372Y-124453564D01*
X97423479Y-124464120D01*
X97377544Y-124375291D01*
X97346502Y-124311018D01*
X97331794Y-124272210D01*
X97331609Y-124270415D01*
X97358750Y-124263700D01*
X97431959Y-124258365D01*
X97538919Y-124255083D01*
X97625531Y-124254368D01*
X97765838Y-124254351D01*
X97853949Y-124247937D01*
X97895975Y-124225580D01*
X97898025Y-124177732D01*
X97866210Y-124094849D01*
X97807728Y-123969713D01*
X97759155Y-123877697D01*
X97717014Y-123830371D01*
X97671084Y-123816458D01*
X97668811Y-123816437D01*
X97589689Y-123839395D01*
X97546945Y-123907370D01*
X97540754Y-124011398D01*
X97541828Y-124086330D01*
X97520247Y-124125839D01*
X97468409Y-124150478D01*
X97402368Y-124164659D01*
X97364896Y-124144223D01*
X97359533Y-124136528D01*
X97337994Y-124064083D01*
X97334945Y-123962633D01*
X97349222Y-123858157D01*
X97375312Y-123784125D01*
X97462215Y-123681772D01*
X97583184Y-123623591D01*
X97677692Y-123612069D01*
X97762938Y-123620862D01*
X97832524Y-123652680D01*
X97894328Y-123715684D01*
X97956228Y-123818031D01*
X98026103Y-123967882D01*
X98030052Y-123977012D01*
X98092412Y-124111997D01*
X98143554Y-124195294D01*
X98189512Y-124230997D01*
X98236317Y-124223203D01*
X98290002Y-124176007D01*
X98302356Y-124161894D01*
X98350259Y-124067359D01*
X98348242Y-123969406D01*
X98301276Y-123884097D01*
X98214331Y-123827496D01*
X98197266Y-123822237D01*
X98114496Y-123771023D01*
X98074628Y-123706037D01*
X98035118Y-123612069D01*
X98137342Y-123612069D01*
X98285928Y-123640653D01*
X98422216Y-123725495D01*
X98467809Y-123769645D01*
X98526326Y-123870005D01*
X98552816Y-123997635D01*
X98545640Y-124129944D01*
X98545640Y-124129944D01*
G37*
X98545640Y-124129944D02*
X98503158Y-124244343D01*
X98502342Y-124245652D01*
X98450270Y-124316403D01*
X98389416Y-124368636D01*
X98310113Y-124405371D01*
X98202691Y-124429634D01*
X98057483Y-124444445D01*
X97864821Y-124452829D01*
X97837372Y-124453564D01*
X97423479Y-124464120D01*
X97377544Y-124375291D01*
X97346502Y-124311018D01*
X97331794Y-124272210D01*
X97331609Y-124270415D01*
X97358750Y-124263700D01*
X97431959Y-124258365D01*
X97538919Y-124255083D01*
X97625531Y-124254368D01*
X97765838Y-124254351D01*
X97853949Y-124247937D01*
X97895975Y-124225580D01*
X97898025Y-124177732D01*
X97866210Y-124094849D01*
X97807728Y-123969713D01*
X97759155Y-123877697D01*
X97717014Y-123830371D01*
X97671084Y-123816458D01*
X97668811Y-123816437D01*
X97589689Y-123839395D01*
X97546945Y-123907370D01*
X97540754Y-124011398D01*
X97541828Y-124086330D01*
X97520247Y-124125839D01*
X97468409Y-124150478D01*
X97402368Y-124164659D01*
X97364896Y-124144223D01*
X97359533Y-124136528D01*
X97337994Y-124064083D01*
X97334945Y-123962633D01*
X97349222Y-123858157D01*
X97375312Y-123784125D01*
X97462215Y-123681772D01*
X97583184Y-123623591D01*
X97677692Y-123612069D01*
X97762938Y-123620862D01*
X97832524Y-123652680D01*
X97894328Y-123715684D01*
X97956228Y-123818031D01*
X98026103Y-123967882D01*
X98030052Y-123977012D01*
X98092412Y-124111997D01*
X98143554Y-124195294D01*
X98189512Y-124230997D01*
X98236317Y-124223203D01*
X98290002Y-124176007D01*
X98302356Y-124161894D01*
X98350259Y-124067359D01*
X98348242Y-123969406D01*
X98301276Y-123884097D01*
X98214331Y-123827496D01*
X98197266Y-123822237D01*
X98114496Y-123771023D01*
X98074628Y-123706037D01*
X98035118Y-123612069D01*
X98137342Y-123612069D01*
X98285928Y-123640653D01*
X98422216Y-123725495D01*
X98467809Y-123769645D01*
X98526326Y-123870005D01*
X98552816Y-123997635D01*
X98545640Y-124129944D01*
G36*
X98548080Y-125115943D02*
X98499141Y-125248565D01*
X98412581Y-125356010D01*
X98351648Y-125398032D01*
X98239839Y-125443843D01*
X98158994Y-125442891D01*
X98104622Y-125394808D01*
X98095376Y-125377017D01*
X98066550Y-125300204D01*
X98073935Y-125260976D01*
X98122342Y-125247689D01*
X98149080Y-125247012D01*
X98247452Y-125222686D01*
X98316266Y-125159281D01*
X98349502Y-125071154D01*
X98341139Y-124972663D01*
X98297704Y-124892602D01*
X98272928Y-124865561D01*
X98242871Y-124846394D01*
X98197435Y-124833446D01*
X98126524Y-124825064D01*
X98020040Y-124819593D01*
X97867888Y-124815378D01*
X97819713Y-124814287D01*
X97654905Y-124810307D01*
X97538912Y-124805781D01*
X97462167Y-124798995D01*
X97415107Y-124788231D01*
X97388165Y-124771773D01*
X97371777Y-124747906D01*
X97364537Y-124732626D01*
X97339780Y-124667733D01*
X97331609Y-124629534D01*
X97358897Y-124616912D01*
X97441397Y-124609208D01*
X97580059Y-124606380D01*
X97775838Y-124608386D01*
X97806035Y-124609011D01*
X97984651Y-124613421D01*
X98115077Y-124618635D01*
X98207508Y-124626055D01*
X98272142Y-124637082D01*
X98319175Y-124653117D01*
X98358804Y-124675561D01*
X98375785Y-124687302D01*
X98450920Y-124754619D01*
X98509362Y-124829910D01*
X98514464Y-124839128D01*
X98554740Y-124974133D01*
X98548080Y-125115943D01*
X98548080Y-125115943D01*
G37*
X98548080Y-125115943D02*
X98499141Y-125248565D01*
X98412581Y-125356010D01*
X98351648Y-125398032D01*
X98239839Y-125443843D01*
X98158994Y-125442891D01*
X98104622Y-125394808D01*
X98095376Y-125377017D01*
X98066550Y-125300204D01*
X98073935Y-125260976D01*
X98122342Y-125247689D01*
X98149080Y-125247012D01*
X98247452Y-125222686D01*
X98316266Y-125159281D01*
X98349502Y-125071154D01*
X98341139Y-124972663D01*
X98297704Y-124892602D01*
X98272928Y-124865561D01*
X98242871Y-124846394D01*
X98197435Y-124833446D01*
X98126524Y-124825064D01*
X98020040Y-124819593D01*
X97867888Y-124815378D01*
X97819713Y-124814287D01*
X97654905Y-124810307D01*
X97538912Y-124805781D01*
X97462167Y-124798995D01*
X97415107Y-124788231D01*
X97388165Y-124771773D01*
X97371777Y-124747906D01*
X97364537Y-124732626D01*
X97339780Y-124667733D01*
X97331609Y-124629534D01*
X97358897Y-124616912D01*
X97441397Y-124609208D01*
X97580059Y-124606380D01*
X97775838Y-124608386D01*
X97806035Y-124609011D01*
X97984651Y-124613421D01*
X98115077Y-124618635D01*
X98207508Y-124626055D01*
X98272142Y-124637082D01*
X98319175Y-124653117D01*
X98358804Y-124675561D01*
X98375785Y-124687302D01*
X98450920Y-124754619D01*
X98509362Y-124829910D01*
X98514464Y-124839128D01*
X98554740Y-124974133D01*
X98548080Y-125115943D01*
G36*
X98315545Y-126443914D02*
X98097339Y-126443543D01*
X97929481Y-126442108D01*
X97803930Y-126439002D01*
X97712645Y-126433622D01*
X97647585Y-126425362D01*
X97600709Y-126413616D01*
X97563976Y-126397781D01*
X97543009Y-126385790D01*
X97429306Y-126286490D01*
X97358035Y-126160588D01*
X97332462Y-126021291D01*
X97355850Y-125881805D01*
X97397881Y-125798743D01*
X97470589Y-125711545D01*
X97559388Y-125652117D01*
X97675680Y-125616261D01*
X97830865Y-125599781D01*
X97944713Y-125597447D01*
X97952894Y-125597761D01*
X97952894Y-125801724D01*
X97822343Y-125802970D01*
X97735920Y-125808678D01*
X97679382Y-125821804D01*
X97638486Y-125845306D01*
X97607638Y-125873386D01*
X97548095Y-125967688D01*
X97543008Y-126068940D01*
X97592721Y-126164636D01*
X97599457Y-126172084D01*
X97634498Y-126203874D01*
X97676189Y-126223808D01*
X97738238Y-126234600D01*
X97834356Y-126238965D01*
X97940621Y-126239655D01*
X98074120Y-126238159D01*
X98163178Y-126231964D01*
X98221707Y-126218514D01*
X98263618Y-126195251D01*
X98285877Y-126176175D01*
X98342015Y-126087563D01*
X98348765Y-125985508D01*
X98305886Y-125888095D01*
X98289968Y-125869296D01*
X98254618Y-125837293D01*
X98212498Y-125817318D01*
X98149749Y-125806593D01*
X98052513Y-125802339D01*
X97952894Y-125801724D01*
X97952894Y-125597761D01*
X98128053Y-125604504D01*
X98265805Y-125628472D01*
X98369368Y-125673548D01*
X98450144Y-125743928D01*
X98491545Y-125798743D01*
X98536272Y-125898376D01*
X98557033Y-126013855D01*
X98551475Y-126121199D01*
X98529057Y-126181264D01*
X98522677Y-126204835D01*
X98546465Y-126220477D01*
X98610212Y-126231395D01*
X98707313Y-126239655D01*
X98815459Y-126248699D01*
X98880525Y-126261261D01*
X98917732Y-126284119D01*
X98942301Y-126324051D01*
X98953181Y-126349138D01*
X98992928Y-126444023D01*
X98315545Y-126443914D01*
X98315545Y-126443914D01*
G37*
X98315545Y-126443914D02*
X98097339Y-126443543D01*
X97929481Y-126442108D01*
X97803930Y-126439002D01*
X97712645Y-126433622D01*
X97647585Y-126425362D01*
X97600709Y-126413616D01*
X97563976Y-126397781D01*
X97543009Y-126385790D01*
X97429306Y-126286490D01*
X97358035Y-126160588D01*
X97332462Y-126021291D01*
X97355850Y-125881805D01*
X97397881Y-125798743D01*
X97470589Y-125711545D01*
X97559388Y-125652117D01*
X97675680Y-125616261D01*
X97830865Y-125599781D01*
X97944713Y-125597447D01*
X97952894Y-125597761D01*
X97952894Y-125801724D01*
X97822343Y-125802970D01*
X97735920Y-125808678D01*
X97679382Y-125821804D01*
X97638486Y-125845306D01*
X97607638Y-125873386D01*
X97548095Y-125967688D01*
X97543008Y-126068940D01*
X97592721Y-126164636D01*
X97599457Y-126172084D01*
X97634498Y-126203874D01*
X97676189Y-126223808D01*
X97738238Y-126234600D01*
X97834356Y-126238965D01*
X97940621Y-126239655D01*
X98074120Y-126238159D01*
X98163178Y-126231964D01*
X98221707Y-126218514D01*
X98263618Y-126195251D01*
X98285877Y-126176175D01*
X98342015Y-126087563D01*
X98348765Y-125985508D01*
X98305886Y-125888095D01*
X98289968Y-125869296D01*
X98254618Y-125837293D01*
X98212498Y-125817318D01*
X98149749Y-125806593D01*
X98052513Y-125802339D01*
X97952894Y-125801724D01*
X97952894Y-125597761D01*
X98128053Y-125604504D01*
X98265805Y-125628472D01*
X98369368Y-125673548D01*
X98450144Y-125743928D01*
X98491545Y-125798743D01*
X98536272Y-125898376D01*
X98557033Y-126013855D01*
X98551475Y-126121199D01*
X98529057Y-126181264D01*
X98522677Y-126204835D01*
X98546465Y-126220477D01*
X98610212Y-126231395D01*
X98707313Y-126239655D01*
X98815459Y-126248699D01*
X98880525Y-126261261D01*
X98917732Y-126284119D01*
X98942301Y-126324051D01*
X98953181Y-126349138D01*
X98992928Y-126444023D01*
X98315545Y-126443914D01*
G36*
X98530160Y-127630124D02*
X98453347Y-127634579D01*
X98336609Y-127638071D01*
X98189179Y-127640315D01*
X98034545Y-127641035D01*
X97511273Y-127641035D01*
X97418883Y-127548645D01*
X97361953Y-127484978D01*
X97338893Y-127429089D01*
X97340353Y-127352702D01*
X97344066Y-127322380D01*
X97354874Y-127227610D01*
X97361067Y-127149222D01*
X97361639Y-127130115D01*
X97357898Y-127065699D01*
X97348506Y-126973571D01*
X97344066Y-126937850D01*
X97337199Y-126850114D01*
X97352115Y-126791153D01*
X97398165Y-126732690D01*
X97418883Y-126711585D01*
X97511273Y-126619195D01*
X98490053Y-126619195D01*
X98523934Y-126693558D01*
X98549030Y-126757590D01*
X98557816Y-126795052D01*
X98530050Y-126804657D01*
X98452470Y-126813635D01*
X98333652Y-126821386D01*
X98182172Y-126827314D01*
X98054195Y-126830173D01*
X97550575Y-126838161D01*
X97540722Y-126907848D01*
X97547611Y-126971229D01*
X97569917Y-127002286D01*
X97611621Y-127010967D01*
X97700456Y-127018378D01*
X97825166Y-127023931D01*
X97974493Y-127027036D01*
X98051339Y-127027484D01*
X98493713Y-127027931D01*
X98525765Y-127119874D01*
X98547557Y-127184949D01*
X98557719Y-127220347D01*
X98557816Y-127221368D01*
X98530191Y-127224920D01*
X98453589Y-127228823D01*
X98337421Y-127232751D01*
X98191096Y-127236376D01*
X98054195Y-127238908D01*
X97550575Y-127246897D01*
X97550575Y-127422069D01*
X98010035Y-127430107D01*
X98469495Y-127438146D01*
X98513656Y-127523543D01*
X98543981Y-127586593D01*
X98557742Y-127623910D01*
X98557816Y-127624987D01*
X98530160Y-127630124D01*
X98530160Y-127630124D01*
G37*
X98530160Y-127630124D02*
X98453347Y-127634579D01*
X98336609Y-127638071D01*
X98189179Y-127640315D01*
X98034545Y-127641035D01*
X97511273Y-127641035D01*
X97418883Y-127548645D01*
X97361953Y-127484978D01*
X97338893Y-127429089D01*
X97340353Y-127352702D01*
X97344066Y-127322380D01*
X97354874Y-127227610D01*
X97361067Y-127149222D01*
X97361639Y-127130115D01*
X97357898Y-127065699D01*
X97348506Y-126973571D01*
X97344066Y-126937850D01*
X97337199Y-126850114D01*
X97352115Y-126791153D01*
X97398165Y-126732690D01*
X97418883Y-126711585D01*
X97511273Y-126619195D01*
X98490053Y-126619195D01*
X98523934Y-126693558D01*
X98549030Y-126757590D01*
X98557816Y-126795052D01*
X98530050Y-126804657D01*
X98452470Y-126813635D01*
X98333652Y-126821386D01*
X98182172Y-126827314D01*
X98054195Y-126830173D01*
X97550575Y-126838161D01*
X97540722Y-126907848D01*
X97547611Y-126971229D01*
X97569917Y-127002286D01*
X97611621Y-127010967D01*
X97700456Y-127018378D01*
X97825166Y-127023931D01*
X97974493Y-127027036D01*
X98051339Y-127027484D01*
X98493713Y-127027931D01*
X98525765Y-127119874D01*
X98547557Y-127184949D01*
X98557719Y-127220347D01*
X98557816Y-127221368D01*
X98530191Y-127224920D01*
X98453589Y-127228823D01*
X98337421Y-127232751D01*
X98191096Y-127236376D01*
X98054195Y-127238908D01*
X97550575Y-127246897D01*
X97550575Y-127422069D01*
X98010035Y-127430107D01*
X98469495Y-127438146D01*
X98513656Y-127523543D01*
X98543981Y-127586593D01*
X98557742Y-127623910D01*
X98557816Y-127624987D01*
X98530160Y-127630124D01*
G36*
X98534844Y-128364406D02*
X98496607Y-128448469D01*
X98450274Y-128514450D01*
X98398468Y-128562794D01*
X98331637Y-128596172D01*
X98240231Y-128617253D01*
X98114699Y-128628707D01*
X97945492Y-128633203D01*
X97834067Y-128633678D01*
X97399373Y-128633678D01*
X97365491Y-128559316D01*
X97340728Y-128500746D01*
X97331609Y-128471730D01*
X97358743Y-128466179D01*
X97431906Y-128461775D01*
X97538737Y-128459078D01*
X97623563Y-128458506D01*
X97746113Y-128456046D01*
X97843332Y-128449412D01*
X97902866Y-128439726D01*
X97915517Y-128432032D01*
X97902598Y-128380311D01*
X97869461Y-128299117D01*
X97824539Y-128205102D01*
X97776265Y-128114917D01*
X97733072Y-128045215D01*
X97703392Y-128012648D01*
X97703071Y-128012519D01*
X97648143Y-128015320D01*
X97595708Y-128040439D01*
X97553119Y-128084541D01*
X97538874Y-128148909D01*
X97540534Y-128203921D01*
X97541755Y-128281835D01*
X97523502Y-128322732D01*
X97475274Y-128347295D01*
X97466180Y-128350392D01*
X97397402Y-128361040D01*
X97355640Y-128332565D01*
X97335737Y-128258344D01*
X97332056Y-128178168D01*
X97359342Y-128033890D01*
X97398310Y-127959203D01*
X97489852Y-127866963D01*
X97602218Y-127818043D01*
X97720949Y-127813654D01*
X97831589Y-127855001D01*
X97900920Y-127917197D01*
X97939735Y-127979294D01*
X97988875Y-128076895D01*
X98038708Y-128190632D01*
X98046323Y-128209590D01*
X98101455Y-128334521D01*
X98150046Y-128406539D01*
X98198353Y-128429700D01*
X98252630Y-128408064D01*
X98295057Y-128370920D01*
X98347298Y-128283127D01*
X98351216Y-128186530D01*
X98310959Y-128097944D01*
X98230674Y-128034186D01*
X98209960Y-128025817D01*
X98133775Y-127977096D01*
X98077215Y-127905965D01*
X98030799Y-127816207D01*
X98162416Y-127816207D01*
X98242832Y-127821490D01*
X98306214Y-127844142D01*
X98373837Y-127894367D01*
X98425924Y-127942582D01*
X98499678Y-128017554D01*
X98539298Y-128075806D01*
X98555190Y-128138372D01*
X98557816Y-128209193D01*
X98534844Y-128364406D01*
X98534844Y-128364406D01*
G37*
X98534844Y-128364406D02*
X98496607Y-128448469D01*
X98450274Y-128514450D01*
X98398468Y-128562794D01*
X98331637Y-128596172D01*
X98240231Y-128617253D01*
X98114699Y-128628707D01*
X97945492Y-128633203D01*
X97834067Y-128633678D01*
X97399373Y-128633678D01*
X97365491Y-128559316D01*
X97340728Y-128500746D01*
X97331609Y-128471730D01*
X97358743Y-128466179D01*
X97431906Y-128461775D01*
X97538737Y-128459078D01*
X97623563Y-128458506D01*
X97746113Y-128456046D01*
X97843332Y-128449412D01*
X97902866Y-128439726D01*
X97915517Y-128432032D01*
X97902598Y-128380311D01*
X97869461Y-128299117D01*
X97824539Y-128205102D01*
X97776265Y-128114917D01*
X97733072Y-128045215D01*
X97703392Y-128012648D01*
X97703071Y-128012519D01*
X97648143Y-128015320D01*
X97595708Y-128040439D01*
X97553119Y-128084541D01*
X97538874Y-128148909D01*
X97540534Y-128203921D01*
X97541755Y-128281835D01*
X97523502Y-128322732D01*
X97475274Y-128347295D01*
X97466180Y-128350392D01*
X97397402Y-128361040D01*
X97355640Y-128332565D01*
X97335737Y-128258344D01*
X97332056Y-128178168D01*
X97359342Y-128033890D01*
X97398310Y-127959203D01*
X97489852Y-127866963D01*
X97602218Y-127818043D01*
X97720949Y-127813654D01*
X97831589Y-127855001D01*
X97900920Y-127917197D01*
X97939735Y-127979294D01*
X97988875Y-128076895D01*
X98038708Y-128190632D01*
X98046323Y-128209590D01*
X98101455Y-128334521D01*
X98150046Y-128406539D01*
X98198353Y-128429700D01*
X98252630Y-128408064D01*
X98295057Y-128370920D01*
X98347298Y-128283127D01*
X98351216Y-128186530D01*
X98310959Y-128097944D01*
X98230674Y-128034186D01*
X98209960Y-128025817D01*
X98133775Y-127977096D01*
X98077215Y-127905965D01*
X98030799Y-127816207D01*
X98162416Y-127816207D01*
X98242832Y-127821490D01*
X98306214Y-127844142D01*
X98373837Y-127894367D01*
X98425924Y-127942582D01*
X98499678Y-128017554D01*
X98539298Y-128075806D01*
X98555190Y-128138372D01*
X98557816Y-128209193D01*
X98534844Y-128364406D01*
G36*
X98529982Y-129385690D02*
X98514731Y-129420585D01*
X98448765Y-129503877D01*
X98353382Y-129575103D01*
X98251594Y-129619153D01*
X98201413Y-129626322D01*
X98131353Y-129602285D01*
X98094283Y-129549561D01*
X98071836Y-129493031D01*
X98067700Y-129467146D01*
X98097717Y-129454542D01*
X98163039Y-129429654D01*
X98192555Y-129418735D01*
X98294652Y-129357508D01*
X98345577Y-129268861D01*
X98344011Y-129155193D01*
X98342006Y-129146774D01*
X98313233Y-129086088D01*
X98257141Y-129041474D01*
X98166837Y-129011002D01*
X98035429Y-128992744D01*
X97856026Y-128984771D01*
X97760567Y-128984023D01*
X97610087Y-128983652D01*
X97507505Y-128981223D01*
X97442328Y-128974760D01*
X97404062Y-128962288D01*
X97382215Y-128941833D01*
X97366293Y-128911419D01*
X97365491Y-128909661D01*
X97340728Y-128851091D01*
X97331609Y-128822075D01*
X97359178Y-128817616D01*
X97435380Y-128813799D01*
X97550459Y-128810899D01*
X97694659Y-128809191D01*
X97800186Y-128808851D01*
X98004387Y-128810588D01*
X98159303Y-128817382D01*
X98273976Y-128831607D01*
X98357449Y-128855638D01*
X98418764Y-128891848D01*
X98466966Y-128942612D01*
X98500607Y-128992739D01*
X98545381Y-129113275D01*
X98555479Y-129253557D01*
X98529982Y-129385690D01*
X98529982Y-129385690D01*
G37*
X98529982Y-129385690D02*
X98514731Y-129420585D01*
X98448765Y-129503877D01*
X98353382Y-129575103D01*
X98251594Y-129619153D01*
X98201413Y-129626322D01*
X98131353Y-129602285D01*
X98094283Y-129549561D01*
X98071836Y-129493031D01*
X98067700Y-129467146D01*
X98097717Y-129454542D01*
X98163039Y-129429654D01*
X98192555Y-129418735D01*
X98294652Y-129357508D01*
X98345577Y-129268861D01*
X98344011Y-129155193D01*
X98342006Y-129146774D01*
X98313233Y-129086088D01*
X98257141Y-129041474D01*
X98166837Y-129011002D01*
X98035429Y-128992744D01*
X97856026Y-128984771D01*
X97760567Y-128984023D01*
X97610087Y-128983652D01*
X97507505Y-128981223D01*
X97442328Y-128974760D01*
X97404062Y-128962288D01*
X97382215Y-128941833D01*
X97366293Y-128911419D01*
X97365491Y-128909661D01*
X97340728Y-128851091D01*
X97331609Y-128822075D01*
X97359178Y-128817616D01*
X97435380Y-128813799D01*
X97550459Y-128810899D01*
X97694659Y-128809191D01*
X97800186Y-128808851D01*
X98004387Y-128810588D01*
X98159303Y-128817382D01*
X98273976Y-128831607D01*
X98357449Y-128855638D01*
X98418764Y-128891848D01*
X98466966Y-128942612D01*
X98500607Y-128992739D01*
X98545381Y-129113275D01*
X98555479Y-129253557D01*
X98529982Y-129385690D01*
G36*
X98513460Y-130393439D02*
X98437966Y-130508950D01*
X98370383Y-130564664D01*
X98247745Y-130608804D01*
X98150702Y-130612309D01*
X98020944Y-130604368D01*
X97889961Y-130305115D01*
X97823042Y-130159611D01*
X97769210Y-130064537D01*
X97722584Y-130015101D01*
X97677280Y-130006511D01*
X97627418Y-130033972D01*
X97594368Y-130064253D01*
X97541367Y-130152363D01*
X97537653Y-130248196D01*
X97578959Y-130336212D01*
X97661017Y-130400869D01*
X97689992Y-130412433D01*
X97780491Y-130467825D01*
X97819060Y-130531553D01*
X97852054Y-130618966D01*
X97726966Y-130618966D01*
X97641844Y-130611238D01*
X97570062Y-130580966D01*
X97487644Y-130517518D01*
X97476934Y-130508088D01*
X97403609Y-130437513D01*
X97364258Y-130376847D01*
X97346155Y-130300950D01*
X97340226Y-130238030D01*
X97338749Y-130125487D01*
X97357465Y-130045370D01*
X97385253Y-129995390D01*
X97446359Y-129916838D01*
X97512446Y-129862463D01*
X97595559Y-129828052D01*
X97707746Y-129809388D01*
X97861054Y-129802256D01*
X97938864Y-129801687D01*
X98032147Y-129803622D01*
X98032147Y-129979899D01*
X97982104Y-129981944D01*
X97973908Y-129987039D01*
X97985042Y-130020666D01*
X98014507Y-130093030D01*
X98056399Y-130189747D01*
X98065403Y-130209973D01*
X98127558Y-130332203D01*
X98182185Y-130399547D01*
X98233351Y-130414348D01*
X98285124Y-130378947D01*
X98308000Y-130349711D01*
X98353750Y-130244216D01*
X98346192Y-130145476D01*
X98290349Y-130062812D01*
X98191247Y-130005548D01*
X98112586Y-129987188D01*
X98032147Y-129979899D01*
X98032147Y-129803622D01*
X98120649Y-129805459D01*
X98255147Y-129819359D01*
X98353084Y-129846894D01*
X98425189Y-129891572D01*
X98482187Y-129956901D01*
X98500607Y-129985383D01*
X98548578Y-130114763D01*
X98551597Y-130256412D01*
X98513460Y-130393439D01*
X98513460Y-130393439D01*
G37*
X98513460Y-130393439D02*
X98437966Y-130508950D01*
X98370383Y-130564664D01*
X98247745Y-130608804D01*
X98150702Y-130612309D01*
X98020944Y-130604368D01*
X97889961Y-130305115D01*
X97823042Y-130159611D01*
X97769210Y-130064537D01*
X97722584Y-130015101D01*
X97677280Y-130006511D01*
X97627418Y-130033972D01*
X97594368Y-130064253D01*
X97541367Y-130152363D01*
X97537653Y-130248196D01*
X97578959Y-130336212D01*
X97661017Y-130400869D01*
X97689992Y-130412433D01*
X97780491Y-130467825D01*
X97819060Y-130531553D01*
X97852054Y-130618966D01*
X97726966Y-130618966D01*
X97641844Y-130611238D01*
X97570062Y-130580966D01*
X97487644Y-130517518D01*
X97476934Y-130508088D01*
X97403609Y-130437513D01*
X97364258Y-130376847D01*
X97346155Y-130300950D01*
X97340226Y-130238030D01*
X97338749Y-130125487D01*
X97357465Y-130045370D01*
X97385253Y-129995390D01*
X97446359Y-129916838D01*
X97512446Y-129862463D01*
X97595559Y-129828052D01*
X97707746Y-129809388D01*
X97861054Y-129802256D01*
X97938864Y-129801687D01*
X98032147Y-129803622D01*
X98032147Y-129979899D01*
X97982104Y-129981944D01*
X97973908Y-129987039D01*
X97985042Y-130020666D01*
X98014507Y-130093030D01*
X98056399Y-130189747D01*
X98065403Y-130209973D01*
X98127558Y-130332203D01*
X98182185Y-130399547D01*
X98233351Y-130414348D01*
X98285124Y-130378947D01*
X98308000Y-130349711D01*
X98353750Y-130244216D01*
X98346192Y-130145476D01*
X98290349Y-130062812D01*
X98191247Y-130005548D01*
X98112586Y-129987188D01*
X98032147Y-129979899D01*
X98032147Y-129803622D01*
X98120649Y-129805459D01*
X98255147Y-129819359D01*
X98353084Y-129846894D01*
X98425189Y-129891572D01*
X98482187Y-129956901D01*
X98500607Y-129985383D01*
X98548578Y-130114763D01*
X98551597Y-130256412D01*
X98513460Y-130393439D01*
G36*
X108017002Y-124259014D02*
X108016137Y-124417006D01*
X108013795Y-124531347D01*
X108009238Y-124609407D01*
X108001730Y-124658554D01*
X107990534Y-124686159D01*
X107974912Y-124699592D01*
X107954127Y-124706221D01*
X107951437Y-124706865D01*
X107902887Y-124716935D01*
X107807095Y-124735575D01*
X107674257Y-124760845D01*
X107514569Y-124790807D01*
X107338226Y-124823522D01*
X107332033Y-124824664D01*
X107159218Y-124857433D01*
X107006531Y-124888093D01*
X106883129Y-124914664D01*
X106798169Y-124935167D01*
X106760810Y-124947626D01*
X106760148Y-124948220D01*
X106741905Y-124984919D01*
X106711503Y-125060586D01*
X106675507Y-125158878D01*
X106675315Y-125159425D01*
X106628778Y-125283233D01*
X106569496Y-125429196D01*
X106509891Y-125566781D01*
X106506944Y-125573293D01*
X106405235Y-125797390D01*
X106744103Y-126293619D01*
X106847408Y-126445846D01*
X106939763Y-126583741D01*
X107015916Y-126699315D01*
X107070615Y-126784579D01*
X107098607Y-126831544D01*
X107100683Y-126836004D01*
X107091440Y-126870134D01*
X107046844Y-126933881D01*
X106964791Y-127029731D01*
X106843179Y-127160169D01*
X106713795Y-127293328D01*
X106586298Y-127421694D01*
X106469954Y-127536581D01*
X106371948Y-127631073D01*
X106299464Y-127698253D01*
X106259687Y-127731206D01*
X106257639Y-127732432D01*
X106230344Y-127736074D01*
X106185766Y-127722350D01*
X106117888Y-127687869D01*
X106020689Y-127629239D01*
X105888149Y-127543070D01*
X105717524Y-127428200D01*
X105567345Y-127326254D01*
X105432650Y-127235123D01*
X105321260Y-127160073D01*
X105240995Y-127106369D01*
X105199675Y-127079280D01*
X105196870Y-127077574D01*
X105157279Y-127080882D01*
X105080331Y-127105953D01*
X104980568Y-127147798D01*
X104948709Y-127162712D01*
X104806774Y-127227786D01*
X104645727Y-127297212D01*
X104506379Y-127353609D01*
X104402956Y-127394247D01*
X104324358Y-127426526D01*
X104283280Y-127445178D01*
X104280115Y-127447497D01*
X104274872Y-127481803D01*
X104260506Y-127562669D01*
X104239063Y-127679343D01*
X104212587Y-127821075D01*
X104183123Y-127977110D01*
X104152717Y-128136698D01*
X104123412Y-128289085D01*
X104097255Y-128423521D01*
X104076290Y-128529252D01*
X104062561Y-128595526D01*
X104058680Y-128611782D01*
X104049100Y-128628573D01*
X104027464Y-128641249D01*
X103986469Y-128650378D01*
X103918811Y-128656531D01*
X103817188Y-128660280D01*
X103674297Y-128662192D01*
X103482835Y-128662840D01*
X103404355Y-128662874D01*
X102766094Y-128662874D01*
X102735840Y-128509598D01*
X102719436Y-128424322D01*
X102695491Y-128297070D01*
X102666893Y-128143315D01*
X102636533Y-127978534D01*
X102628194Y-127932989D01*
X102598630Y-127780932D01*
X102569558Y-127648468D01*
X102543671Y-127546714D01*
X102523663Y-127486788D01*
X102517699Y-127476805D01*
X102475466Y-127452293D01*
X102393630Y-127417148D01*
X102288317Y-127378173D01*
X102265632Y-127370442D01*
X102124982Y-127319360D01*
X101966286Y-127255954D01*
X101823775Y-127193904D01*
X101823114Y-127193598D01*
X101599560Y-127090267D01*
X100599768Y-127769961D01*
X100162700Y-127333621D01*
X100032619Y-127201649D01*
X99917952Y-127081279D01*
X99824819Y-126979273D01*
X99759342Y-126902391D01*
X99727643Y-126857393D01*
X99725632Y-126850938D01*
X99741471Y-126813040D01*
X99785504Y-126735708D01*
X99852510Y-126627389D01*
X99937266Y-126496532D01*
X100032184Y-126355052D01*
X100129002Y-126211461D01*
X100213249Y-126083435D01*
X100279742Y-125979105D01*
X100323298Y-125906600D01*
X100338736Y-125874158D01*
X100325672Y-125834576D01*
X100291250Y-125759519D01*
X100242620Y-125664468D01*
X100237215Y-125654392D01*
X100173020Y-125526391D01*
X100141537Y-125438618D01*
X100141202Y-125384028D01*
X100170452Y-125355575D01*
X100170862Y-125355410D01*
X100205502Y-125341188D01*
X100287731Y-125307269D01*
X100411186Y-125256284D01*
X100569502Y-125190862D01*
X100756314Y-125113634D01*
X100965258Y-125027229D01*
X101167554Y-124943551D01*
X101390800Y-124851588D01*
X101597608Y-124767150D01*
X101781638Y-124692769D01*
X101936549Y-124630974D01*
X102056004Y-124584297D01*
X102133661Y-124555268D01*
X102162644Y-124546322D01*
X102195890Y-124568756D01*
X102248877Y-124627439D01*
X102307296Y-124705689D01*
X102492048Y-124928534D01*
X102703818Y-125102718D01*
X102938144Y-125226154D01*
X103190566Y-125296754D01*
X103456623Y-125312431D01*
X103579425Y-125301036D01*
X103834207Y-125238950D01*
X104059199Y-125132023D01*
X104252183Y-124986889D01*
X104410939Y-124810178D01*
X104533250Y-124608522D01*
X104616895Y-124388554D01*
X104659656Y-124156906D01*
X104659313Y-123920209D01*
X104613648Y-123685095D01*
X104520441Y-123458196D01*
X104377473Y-123246144D01*
X104296617Y-123157636D01*
X104088993Y-122987889D01*
X103862105Y-122869699D01*
X103622567Y-122802278D01*
X103376993Y-122784840D01*
X103131997Y-122816598D01*
X102894192Y-122896765D01*
X102670193Y-123024555D01*
X102466613Y-123199180D01*
X102307296Y-123394312D01*
X102246398Y-123475591D01*
X102193985Y-123533009D01*
X102162594Y-123553678D01*
X102128361Y-123542856D01*
X102046581Y-123512077D01*
X101923593Y-123463874D01*
X101765737Y-123400778D01*
X101579351Y-123325322D01*
X101370774Y-123240038D01*
X101167504Y-123156219D01*
X100944067Y-123063745D01*
X100737016Y-122978089D01*
X100552714Y-122901882D01*
X100397525Y-122837753D01*
X100277812Y-122788332D01*
X100199939Y-122756248D01*
X100170862Y-122744359D01*
X100141323Y-122716274D01*
X100141409Y-122661949D01*
X100172674Y-122574395D01*
X100236671Y-122446619D01*
X100237215Y-122445608D01*
X100286879Y-122349402D01*
X100323055Y-122271631D01*
X100338592Y-122227777D01*
X100338736Y-122225842D01*
X100322976Y-122192829D01*
X100279150Y-122119946D01*
X100212443Y-122015322D01*
X100128036Y-121887090D01*
X100032184Y-121744948D01*
X99935133Y-121600233D01*
X99850730Y-121469804D01*
X99784199Y-121362110D01*
X99740762Y-121285598D01*
X99725632Y-121249062D01*
X99745518Y-121215418D01*
X99801097Y-121147776D01*
X99886246Y-121052893D01*
X99994847Y-120937530D01*
X100120779Y-120808445D01*
X100162851Y-120766229D01*
X100600069Y-120329739D01*
X101087660Y-120661977D01*
X101237395Y-120762946D01*
X101371780Y-120851562D01*
X101483031Y-120922854D01*
X101563361Y-120971850D01*
X101604986Y-120993578D01*
X101607947Y-120994215D01*
X101647182Y-120982760D01*
X101726105Y-120951949D01*
X101831491Y-120907116D01*
X101902046Y-120875647D01*
X102037124Y-120816808D01*
X102173591Y-120761396D01*
X102288897Y-120718436D01*
X102324023Y-120706766D01*
X102417826Y-120673611D01*
X102490306Y-120641201D01*
X102517699Y-120623399D01*
X102534464Y-120584114D01*
X102558230Y-120498374D01*
X102586303Y-120377303D01*
X102615991Y-120232027D01*
X102628194Y-120167012D01*
X102658532Y-120001913D01*
X102687907Y-119843552D01*
X102713431Y-119707404D01*
X102732215Y-119608943D01*
X102735840Y-119590402D01*
X102766094Y-119437127D01*
X103404355Y-119437127D01*
X103614230Y-119437471D01*
X103773020Y-119438884D01*
X103888027Y-119441936D01*
X103966554Y-119447197D01*
X104015904Y-119455237D01*
X104043381Y-119466627D01*
X104056287Y-119481937D01*
X104058680Y-119488218D01*
X104067167Y-119526104D01*
X104084100Y-119609805D01*
X104107434Y-119728567D01*
X104135125Y-119871639D01*
X104165127Y-120028268D01*
X104195396Y-120187703D01*
X104223885Y-120339191D01*
X104248551Y-120471981D01*
X104267349Y-120575319D01*
X104278233Y-120638455D01*
X104280115Y-120652503D01*
X104305296Y-120665230D01*
X104372378Y-120693400D01*
X104468667Y-120731748D01*
X104506379Y-120746391D01*
X104652079Y-120805452D01*
X104813049Y-120875000D01*
X104948709Y-120937288D01*
X105052439Y-120983121D01*
X105137674Y-121013613D01*
X105189874Y-121023792D01*
X105196870Y-121022169D01*
X105229898Y-121000657D01*
X105303357Y-120951535D01*
X105409423Y-120880077D01*
X105540274Y-120791555D01*
X105688088Y-120691241D01*
X105717266Y-120671406D01*
X105890137Y-120555012D01*
X106021774Y-120469452D01*
X106118239Y-120411316D01*
X106185592Y-120377192D01*
X106229894Y-120363669D01*
X106257206Y-120367336D01*
X106257380Y-120367430D01*
X106293254Y-120396293D01*
X106362609Y-120460133D01*
X106458255Y-120552031D01*
X106573001Y-120665067D01*
X106699659Y-120792321D01*
X106713795Y-120806672D01*
X106869097Y-120967043D01*
X106983130Y-121090805D01*
X107057998Y-121180445D01*
X107095804Y-121238448D01*
X107100683Y-121263996D01*
X107079397Y-121301282D01*
X107030227Y-121378657D01*
X106958425Y-121488133D01*
X106869245Y-121621720D01*
X106767937Y-121771430D01*
X106744103Y-121806382D01*
X106405235Y-122302610D01*
X106506944Y-122526707D01*
X106566217Y-122662989D01*
X106625830Y-122809276D01*
X106673360Y-122935035D01*
X106675315Y-122940575D01*
X106711323Y-123038943D01*
X106741771Y-123114771D01*
X106760095Y-123151718D01*
X106760148Y-123151780D01*
X106793271Y-123163504D01*
X106874733Y-123183432D01*
X106995375Y-123209587D01*
X107146041Y-123239990D01*
X107317572Y-123272663D01*
X107332033Y-123275336D01*
X107508765Y-123308110D01*
X107669190Y-123338198D01*
X107803112Y-123363661D01*
X107900337Y-123382559D01*
X107950668Y-123392953D01*
X107951437Y-123393135D01*
X107972847Y-123399461D01*
X107989012Y-123411761D01*
X108000669Y-123437406D01*
X108008555Y-123483765D01*
X108013407Y-123558208D01*
X108015961Y-123668105D01*
X108016955Y-123820825D01*
X108017126Y-124023738D01*
X108017126Y-124050000D01*
X108017002Y-124259014D01*
X108017002Y-124259014D01*
G37*
X108017002Y-124259014D02*
X108016137Y-124417006D01*
X108013795Y-124531347D01*
X108009238Y-124609407D01*
X108001730Y-124658554D01*
X107990534Y-124686159D01*
X107974912Y-124699592D01*
X107954127Y-124706221D01*
X107951437Y-124706865D01*
X107902887Y-124716935D01*
X107807095Y-124735575D01*
X107674257Y-124760845D01*
X107514569Y-124790807D01*
X107338226Y-124823522D01*
X107332033Y-124824664D01*
X107159218Y-124857433D01*
X107006531Y-124888093D01*
X106883129Y-124914664D01*
X106798169Y-124935167D01*
X106760810Y-124947626D01*
X106760148Y-124948220D01*
X106741905Y-124984919D01*
X106711503Y-125060586D01*
X106675507Y-125158878D01*
X106675315Y-125159425D01*
X106628778Y-125283233D01*
X106569496Y-125429196D01*
X106509891Y-125566781D01*
X106506944Y-125573293D01*
X106405235Y-125797390D01*
X106744103Y-126293619D01*
X106847408Y-126445846D01*
X106939763Y-126583741D01*
X107015916Y-126699315D01*
X107070615Y-126784579D01*
X107098607Y-126831544D01*
X107100683Y-126836004D01*
X107091440Y-126870134D01*
X107046844Y-126933881D01*
X106964791Y-127029731D01*
X106843179Y-127160169D01*
X106713795Y-127293328D01*
X106586298Y-127421694D01*
X106469954Y-127536581D01*
X106371948Y-127631073D01*
X106299464Y-127698253D01*
X106259687Y-127731206D01*
X106257639Y-127732432D01*
X106230344Y-127736074D01*
X106185766Y-127722350D01*
X106117888Y-127687869D01*
X106020689Y-127629239D01*
X105888149Y-127543070D01*
X105717524Y-127428200D01*
X105567345Y-127326254D01*
X105432650Y-127235123D01*
X105321260Y-127160073D01*
X105240995Y-127106369D01*
X105199675Y-127079280D01*
X105196870Y-127077574D01*
X105157279Y-127080882D01*
X105080331Y-127105953D01*
X104980568Y-127147798D01*
X104948709Y-127162712D01*
X104806774Y-127227786D01*
X104645727Y-127297212D01*
X104506379Y-127353609D01*
X104402956Y-127394247D01*
X104324358Y-127426526D01*
X104283280Y-127445178D01*
X104280115Y-127447497D01*
X104274872Y-127481803D01*
X104260506Y-127562669D01*
X104239063Y-127679343D01*
X104212587Y-127821075D01*
X104183123Y-127977110D01*
X104152717Y-128136698D01*
X104123412Y-128289085D01*
X104097255Y-128423521D01*
X104076290Y-128529252D01*
X104062561Y-128595526D01*
X104058680Y-128611782D01*
X104049100Y-128628573D01*
X104027464Y-128641249D01*
X103986469Y-128650378D01*
X103918811Y-128656531D01*
X103817188Y-128660280D01*
X103674297Y-128662192D01*
X103482835Y-128662840D01*
X103404355Y-128662874D01*
X102766094Y-128662874D01*
X102735840Y-128509598D01*
X102719436Y-128424322D01*
X102695491Y-128297070D01*
X102666893Y-128143315D01*
X102636533Y-127978534D01*
X102628194Y-127932989D01*
X102598630Y-127780932D01*
X102569558Y-127648468D01*
X102543671Y-127546714D01*
X102523663Y-127486788D01*
X102517699Y-127476805D01*
X102475466Y-127452293D01*
X102393630Y-127417148D01*
X102288317Y-127378173D01*
X102265632Y-127370442D01*
X102124982Y-127319360D01*
X101966286Y-127255954D01*
X101823775Y-127193904D01*
X101823114Y-127193598D01*
X101599560Y-127090267D01*
X100599768Y-127769961D01*
X100162700Y-127333621D01*
X100032619Y-127201649D01*
X99917952Y-127081279D01*
X99824819Y-126979273D01*
X99759342Y-126902391D01*
X99727643Y-126857393D01*
X99725632Y-126850938D01*
X99741471Y-126813040D01*
X99785504Y-126735708D01*
X99852510Y-126627389D01*
X99937266Y-126496532D01*
X100032184Y-126355052D01*
X100129002Y-126211461D01*
X100213249Y-126083435D01*
X100279742Y-125979105D01*
X100323298Y-125906600D01*
X100338736Y-125874158D01*
X100325672Y-125834576D01*
X100291250Y-125759519D01*
X100242620Y-125664468D01*
X100237215Y-125654392D01*
X100173020Y-125526391D01*
X100141537Y-125438618D01*
X100141202Y-125384028D01*
X100170452Y-125355575D01*
X100170862Y-125355410D01*
X100205502Y-125341188D01*
X100287731Y-125307269D01*
X100411186Y-125256284D01*
X100569502Y-125190862D01*
X100756314Y-125113634D01*
X100965258Y-125027229D01*
X101167554Y-124943551D01*
X101390800Y-124851588D01*
X101597608Y-124767150D01*
X101781638Y-124692769D01*
X101936549Y-124630974D01*
X102056004Y-124584297D01*
X102133661Y-124555268D01*
X102162644Y-124546322D01*
X102195890Y-124568756D01*
X102248877Y-124627439D01*
X102307296Y-124705689D01*
X102492048Y-124928534D01*
X102703818Y-125102718D01*
X102938144Y-125226154D01*
X103190566Y-125296754D01*
X103456623Y-125312431D01*
X103579425Y-125301036D01*
X103834207Y-125238950D01*
X104059199Y-125132023D01*
X104252183Y-124986889D01*
X104410939Y-124810178D01*
X104533250Y-124608522D01*
X104616895Y-124388554D01*
X104659656Y-124156906D01*
X104659313Y-123920209D01*
X104613648Y-123685095D01*
X104520441Y-123458196D01*
X104377473Y-123246144D01*
X104296617Y-123157636D01*
X104088993Y-122987889D01*
X103862105Y-122869699D01*
X103622567Y-122802278D01*
X103376993Y-122784840D01*
X103131997Y-122816598D01*
X102894192Y-122896765D01*
X102670193Y-123024555D01*
X102466613Y-123199180D01*
X102307296Y-123394312D01*
X102246398Y-123475591D01*
X102193985Y-123533009D01*
X102162594Y-123553678D01*
X102128361Y-123542856D01*
X102046581Y-123512077D01*
X101923593Y-123463874D01*
X101765737Y-123400778D01*
X101579351Y-123325322D01*
X101370774Y-123240038D01*
X101167504Y-123156219D01*
X100944067Y-123063745D01*
X100737016Y-122978089D01*
X100552714Y-122901882D01*
X100397525Y-122837753D01*
X100277812Y-122788332D01*
X100199939Y-122756248D01*
X100170862Y-122744359D01*
X100141323Y-122716274D01*
X100141409Y-122661949D01*
X100172674Y-122574395D01*
X100236671Y-122446619D01*
X100237215Y-122445608D01*
X100286879Y-122349402D01*
X100323055Y-122271631D01*
X100338592Y-122227777D01*
X100338736Y-122225842D01*
X100322976Y-122192829D01*
X100279150Y-122119946D01*
X100212443Y-122015322D01*
X100128036Y-121887090D01*
X100032184Y-121744948D01*
X99935133Y-121600233D01*
X99850730Y-121469804D01*
X99784199Y-121362110D01*
X99740762Y-121285598D01*
X99725632Y-121249062D01*
X99745518Y-121215418D01*
X99801097Y-121147776D01*
X99886246Y-121052893D01*
X99994847Y-120937530D01*
X100120779Y-120808445D01*
X100162851Y-120766229D01*
X100600069Y-120329739D01*
X101087660Y-120661977D01*
X101237395Y-120762946D01*
X101371780Y-120851562D01*
X101483031Y-120922854D01*
X101563361Y-120971850D01*
X101604986Y-120993578D01*
X101607947Y-120994215D01*
X101647182Y-120982760D01*
X101726105Y-120951949D01*
X101831491Y-120907116D01*
X101902046Y-120875647D01*
X102037124Y-120816808D01*
X102173591Y-120761396D01*
X102288897Y-120718436D01*
X102324023Y-120706766D01*
X102417826Y-120673611D01*
X102490306Y-120641201D01*
X102517699Y-120623399D01*
X102534464Y-120584114D01*
X102558230Y-120498374D01*
X102586303Y-120377303D01*
X102615991Y-120232027D01*
X102628194Y-120167012D01*
X102658532Y-120001913D01*
X102687907Y-119843552D01*
X102713431Y-119707404D01*
X102732215Y-119608943D01*
X102735840Y-119590402D01*
X102766094Y-119437127D01*
X103404355Y-119437127D01*
X103614230Y-119437471D01*
X103773020Y-119438884D01*
X103888027Y-119441936D01*
X103966554Y-119447197D01*
X104015904Y-119455237D01*
X104043381Y-119466627D01*
X104056287Y-119481937D01*
X104058680Y-119488218D01*
X104067167Y-119526104D01*
X104084100Y-119609805D01*
X104107434Y-119728567D01*
X104135125Y-119871639D01*
X104165127Y-120028268D01*
X104195396Y-120187703D01*
X104223885Y-120339191D01*
X104248551Y-120471981D01*
X104267349Y-120575319D01*
X104278233Y-120638455D01*
X104280115Y-120652503D01*
X104305296Y-120665230D01*
X104372378Y-120693400D01*
X104468667Y-120731748D01*
X104506379Y-120746391D01*
X104652079Y-120805452D01*
X104813049Y-120875000D01*
X104948709Y-120937288D01*
X105052439Y-120983121D01*
X105137674Y-121013613D01*
X105189874Y-121023792D01*
X105196870Y-121022169D01*
X105229898Y-121000657D01*
X105303357Y-120951535D01*
X105409423Y-120880077D01*
X105540274Y-120791555D01*
X105688088Y-120691241D01*
X105717266Y-120671406D01*
X105890137Y-120555012D01*
X106021774Y-120469452D01*
X106118239Y-120411316D01*
X106185592Y-120377192D01*
X106229894Y-120363669D01*
X106257206Y-120367336D01*
X106257380Y-120367430D01*
X106293254Y-120396293D01*
X106362609Y-120460133D01*
X106458255Y-120552031D01*
X106573001Y-120665067D01*
X106699659Y-120792321D01*
X106713795Y-120806672D01*
X106869097Y-120967043D01*
X106983130Y-121090805D01*
X107057998Y-121180445D01*
X107095804Y-121238448D01*
X107100683Y-121263996D01*
X107079397Y-121301282D01*
X107030227Y-121378657D01*
X106958425Y-121488133D01*
X106869245Y-121621720D01*
X106767937Y-121771430D01*
X106744103Y-121806382D01*
X106405235Y-122302610D01*
X106506944Y-122526707D01*
X106566217Y-122662989D01*
X106625830Y-122809276D01*
X106673360Y-122935035D01*
X106675315Y-122940575D01*
X106711323Y-123038943D01*
X106741771Y-123114771D01*
X106760095Y-123151718D01*
X106760148Y-123151780D01*
X106793271Y-123163504D01*
X106874733Y-123183432D01*
X106995375Y-123209587D01*
X107146041Y-123239990D01*
X107317572Y-123272663D01*
X107332033Y-123275336D01*
X107508765Y-123308110D01*
X107669190Y-123338198D01*
X107803112Y-123363661D01*
X107900337Y-123382559D01*
X107950668Y-123392953D01*
X107951437Y-123393135D01*
X107972847Y-123399461D01*
X107989012Y-123411761D01*
X108000669Y-123437406D01*
X108008555Y-123483765D01*
X108013407Y-123558208D01*
X108015961Y-123668105D01*
X108016955Y-123820825D01*
X108017126Y-124023738D01*
X108017126Y-124050000D01*
X108017002Y-124259014D01*
D13*
X171050000Y-129130000D02*
X171050000Y-126590000D01*
X171050000Y-126590000D02*
X178670000Y-126590000D01*
X178670000Y-126590000D02*
X178670000Y-129130000D01*
X178670000Y-129130000D02*
X171050000Y-129130000D01*
X173590000Y-126590000D02*
X173590000Y-129130000D01*
X171819050Y-84680000D02*
G75*
G03X171819050Y-84680000I-4579050J0D01*
G01*
X173590000Y-78330000D02*
X173590000Y-91030000D01*
X173590000Y-91030000D02*
X160890000Y-91030000D01*
X160890000Y-91030000D02*
X160890000Y-78330000D01*
X160890000Y-78330000D02*
X173590000Y-78330000D01*
X215980000Y-115180000D02*
X215980000Y-94860000D01*
X221060000Y-97400000D02*
X221060000Y-115180000D01*
X215980000Y-115180000D02*
X221060000Y-115180000D01*
X215980000Y-94860000D02*
X218520000Y-94860000D01*
X221340000Y-96130000D02*
X221340000Y-94580000D01*
X218520000Y-94860000D02*
X218520000Y-97400000D01*
X218520000Y-97400000D02*
X221060000Y-97400000D01*
X221340000Y-94580000D02*
X219790000Y-94580000D01*
X178275000Y-83195000D02*
X178275000Y-88275000D01*
X178275000Y-88275000D02*
X175735000Y-88275000D01*
X175735000Y-88275000D02*
X175735000Y-83195000D01*
X175735000Y-83195000D02*
X178275000Y-83195000D01*
X193740000Y-103100000D02*
X194980000Y-103100000D01*
X194980000Y-103100000D02*
X194980000Y-106730000D01*
X194980000Y-106730000D02*
X193740000Y-106730000D01*
X163600000Y-95780000D02*
X163600000Y-114020000D01*
X193740000Y-95780000D02*
X193740000Y-114020000D01*
X193740000Y-95780004D02*
X163600000Y-95780003D01*
X163600000Y-114020007D02*
X193740000Y-114020008D01*
X183242000Y-89887000D02*
X190862000Y-89887000D01*
X183242000Y-92427000D02*
X190862000Y-92427000D01*
X180422000Y-92707000D02*
X181972000Y-92707000D01*
X190862000Y-89887000D02*
X190862000Y-92427000D01*
X183242000Y-92427000D02*
X183242000Y-89887000D01*
X181972000Y-89607000D02*
X180422000Y-89607000D01*
X180422000Y-89607000D02*
X180422000Y-92707000D01*
D14*
G36*
X133896112Y-133712245D02*
X134164539Y-133781260D01*
X134382325Y-133911245D01*
X134534057Y-134101767D01*
X134537421Y-134108400D01*
X134618538Y-134377812D01*
X134628639Y-134716282D01*
X134568382Y-135120860D01*
X134438426Y-135588596D01*
X134239431Y-136116542D01*
X133972057Y-136701748D01*
X133945614Y-136755211D01*
X133586939Y-137421696D01*
X133221626Y-137990646D01*
X132846261Y-138466076D01*
X132457436Y-138851998D01*
X132051738Y-139152427D01*
X131781600Y-139301719D01*
X131583486Y-139388441D01*
X131401865Y-139441525D01*
X131193085Y-139471222D01*
X131007009Y-139483603D01*
X130715999Y-139488102D01*
X130499363Y-139463219D01*
X130332246Y-139401390D01*
X130189792Y-139295050D01*
X130108918Y-139210273D01*
X130004265Y-139107100D01*
X129937791Y-139084511D01*
X129913997Y-139102233D01*
X129877843Y-139161612D01*
X129799931Y-139297753D01*
X129687200Y-139498251D01*
X129546592Y-139750700D01*
X129385046Y-140042694D01*
X129219228Y-140344100D01*
X128571165Y-141525200D01*
X127839582Y-141525200D01*
X127580096Y-141523422D01*
X127361107Y-141518533D01*
X127200537Y-141511200D01*
X127116307Y-141502088D01*
X127108000Y-141497999D01*
X127131529Y-141450198D01*
X127199790Y-141319496D01*
X127309295Y-141112420D01*
X127456555Y-140835495D01*
X127638080Y-140495248D01*
X127850383Y-140098207D01*
X128089973Y-139650896D01*
X128353362Y-139159843D01*
X128637061Y-138631573D01*
X128937582Y-138072614D01*
X128990637Y-137974026D01*
X130512731Y-137974026D01*
X130553705Y-138076262D01*
X130657026Y-138178385D01*
X130765600Y-138237960D01*
X130981883Y-138268101D01*
X131229991Y-138220718D01*
X131357447Y-138168698D01*
X131564052Y-138042241D01*
X131761919Y-137862898D01*
X131958685Y-137620619D01*
X132161987Y-137305355D01*
X132379461Y-136907056D01*
X132500004Y-136665187D01*
X132637942Y-136372699D01*
X132765907Y-136085452D01*
X132874248Y-135826317D01*
X132953309Y-135618165D01*
X132987044Y-135511339D01*
X133031458Y-135333837D01*
X133048086Y-135224991D01*
X133036349Y-135155567D01*
X132995668Y-135096333D01*
X132978446Y-135076966D01*
X132831310Y-134986535D01*
X132633058Y-134972175D01*
X132398616Y-135032748D01*
X132190551Y-135137100D01*
X132110667Y-135187059D01*
X132041643Y-135237807D01*
X131976249Y-135300181D01*
X131907251Y-135385020D01*
X131827419Y-135503161D01*
X131729520Y-135665444D01*
X131606322Y-135882707D01*
X131450593Y-136165787D01*
X131255102Y-136525524D01*
X131216030Y-136597600D01*
X131036293Y-136931826D01*
X130873481Y-137239643D01*
X130733720Y-137509061D01*
X130623137Y-137728090D01*
X130547858Y-137884739D01*
X130514011Y-137967017D01*
X130512731Y-137974026D01*
X128990637Y-137974026D01*
X129171903Y-137637199D01*
X131235806Y-133803600D01*
X131916135Y-133803600D01*
X132596464Y-133803599D01*
X132490323Y-134011654D01*
X132384181Y-134219709D01*
X132624211Y-134054564D01*
X132941093Y-133875360D01*
X133268978Y-133758861D01*
X133592455Y-133704634D01*
X133896112Y-133712245D01*
X133896112Y-133712245D01*
G37*
X133896112Y-133712245D02*
X134164539Y-133781260D01*
X134382325Y-133911245D01*
X134534057Y-134101767D01*
X134537421Y-134108400D01*
X134618538Y-134377812D01*
X134628639Y-134716282D01*
X134568382Y-135120860D01*
X134438426Y-135588596D01*
X134239431Y-136116542D01*
X133972057Y-136701748D01*
X133945614Y-136755211D01*
X133586939Y-137421696D01*
X133221626Y-137990646D01*
X132846261Y-138466076D01*
X132457436Y-138851998D01*
X132051738Y-139152427D01*
X131781600Y-139301719D01*
X131583486Y-139388441D01*
X131401865Y-139441525D01*
X131193085Y-139471222D01*
X131007009Y-139483603D01*
X130715999Y-139488102D01*
X130499363Y-139463219D01*
X130332246Y-139401390D01*
X130189792Y-139295050D01*
X130108918Y-139210273D01*
X130004265Y-139107100D01*
X129937791Y-139084511D01*
X129913997Y-139102233D01*
X129877843Y-139161612D01*
X129799931Y-139297753D01*
X129687200Y-139498251D01*
X129546592Y-139750700D01*
X129385046Y-140042694D01*
X129219228Y-140344100D01*
X128571165Y-141525200D01*
X127839582Y-141525200D01*
X127580096Y-141523422D01*
X127361107Y-141518533D01*
X127200537Y-141511200D01*
X127116307Y-141502088D01*
X127108000Y-141497999D01*
X127131529Y-141450198D01*
X127199790Y-141319496D01*
X127309295Y-141112420D01*
X127456555Y-140835495D01*
X127638080Y-140495248D01*
X127850383Y-140098207D01*
X128089973Y-139650896D01*
X128353362Y-139159843D01*
X128637061Y-138631573D01*
X128937582Y-138072614D01*
X128990637Y-137974026D01*
X130512731Y-137974026D01*
X130553705Y-138076262D01*
X130657026Y-138178385D01*
X130765600Y-138237960D01*
X130981883Y-138268101D01*
X131229991Y-138220718D01*
X131357447Y-138168698D01*
X131564052Y-138042241D01*
X131761919Y-137862898D01*
X131958685Y-137620619D01*
X132161987Y-137305355D01*
X132379461Y-136907056D01*
X132500004Y-136665187D01*
X132637942Y-136372699D01*
X132765907Y-136085452D01*
X132874248Y-135826317D01*
X132953309Y-135618165D01*
X132987044Y-135511339D01*
X133031458Y-135333837D01*
X133048086Y-135224991D01*
X133036349Y-135155567D01*
X132995668Y-135096333D01*
X132978446Y-135076966D01*
X132831310Y-134986535D01*
X132633058Y-134972175D01*
X132398616Y-135032748D01*
X132190551Y-135137100D01*
X132110667Y-135187059D01*
X132041643Y-135237807D01*
X131976249Y-135300181D01*
X131907251Y-135385020D01*
X131827419Y-135503161D01*
X131729520Y-135665444D01*
X131606322Y-135882707D01*
X131450593Y-136165787D01*
X131255102Y-136525524D01*
X131216030Y-136597600D01*
X131036293Y-136931826D01*
X130873481Y-137239643D01*
X130733720Y-137509061D01*
X130623137Y-137728090D01*
X130547858Y-137884739D01*
X130514011Y-137967017D01*
X130512731Y-137974026D01*
X128990637Y-137974026D01*
X129171903Y-137637199D01*
X131235806Y-133803600D01*
X131916135Y-133803600D01*
X132596464Y-133803599D01*
X132490323Y-134011654D01*
X132384181Y-134219709D01*
X132624211Y-134054564D01*
X132941093Y-133875360D01*
X133268978Y-133758861D01*
X133592455Y-133704634D01*
X133896112Y-133712245D01*
G36*
X128584822Y-133725401D02*
X128731513Y-133752299D01*
X129011710Y-133867384D01*
X129241038Y-134056193D01*
X129404697Y-134300464D01*
X129487884Y-134581935D01*
X129495316Y-134694626D01*
X129484220Y-134822903D01*
X129447887Y-134980597D01*
X129382710Y-135176106D01*
X129285078Y-135417827D01*
X129151383Y-135714155D01*
X128978014Y-136073489D01*
X128761363Y-136504223D01*
X128498765Y-137012941D01*
X128256840Y-137479527D01*
X128058517Y-137867679D01*
X127898908Y-138188244D01*
X127773123Y-138452069D01*
X127676274Y-138670003D01*
X127603473Y-138852892D01*
X127549829Y-139011584D01*
X127510455Y-139156927D01*
X127489691Y-139251900D01*
X127461664Y-139391600D01*
X126726032Y-139391600D01*
X126465777Y-139390752D01*
X126245972Y-139388421D01*
X126084489Y-139384923D01*
X125999201Y-139380575D01*
X125990400Y-139378564D01*
X126002862Y-139326148D01*
X126033112Y-139216619D01*
X126035628Y-139207825D01*
X126080857Y-139050121D01*
X125796416Y-139221403D01*
X125615240Y-139321303D01*
X125438551Y-139403879D01*
X125332087Y-139442659D01*
X125067358Y-139487406D01*
X124780836Y-139489674D01*
X124513688Y-139451613D01*
X124335524Y-139390617D01*
X124117544Y-139229015D01*
X123967133Y-139000878D01*
X123889619Y-138719973D01*
X123890328Y-138400068D01*
X123908752Y-138287717D01*
X123937011Y-138191171D01*
X125487278Y-138191171D01*
X125500169Y-138247032D01*
X125572763Y-138306322D01*
X125711078Y-138323000D01*
X125889116Y-138298159D01*
X126080878Y-138232892D01*
X126105253Y-138221594D01*
X126242966Y-138152571D01*
X126348880Y-138086006D01*
X126439087Y-138004082D01*
X126529680Y-137888985D01*
X126636749Y-137722899D01*
X126776388Y-137488009D01*
X126792090Y-137461200D01*
X127104336Y-136927800D01*
X126878409Y-136912350D01*
X126609563Y-136939006D01*
X126317573Y-137047281D01*
X126025780Y-137228452D01*
X126019440Y-137233267D01*
X125848295Y-137395769D01*
X125697044Y-137597141D01*
X125578148Y-137813053D01*
X125504072Y-138019173D01*
X125487278Y-138191171D01*
X123937011Y-138191171D01*
X124031329Y-137868943D01*
X124226532Y-137485200D01*
X124505664Y-137116505D01*
X124670114Y-136941679D01*
X125096673Y-136577665D01*
X125564133Y-136302760D01*
X126077907Y-136114836D01*
X126643406Y-136011768D01*
X127094568Y-135988882D01*
X127563737Y-135988000D01*
X127724035Y-135670500D01*
X127859092Y-135378693D01*
X127930538Y-135159660D01*
X127938198Y-135006817D01*
X127881902Y-134913578D01*
X127761478Y-134873359D01*
X127703112Y-134870589D01*
X127480131Y-134920312D01*
X127253776Y-135065198D01*
X127054553Y-135272492D01*
X126887795Y-135479999D01*
X126156527Y-135480000D01*
X125425258Y-135480000D01*
X125568129Y-135217413D01*
X125828110Y-134836872D01*
X126170718Y-134487142D01*
X126578274Y-134182861D01*
X127033102Y-133938665D01*
X127191266Y-133873490D01*
X127509981Y-133781761D01*
X127874495Y-133724456D01*
X128245784Y-133704646D01*
X128584822Y-133725401D01*
X128584822Y-133725401D01*
G37*
X128584822Y-133725401D02*
X128731513Y-133752299D01*
X129011710Y-133867384D01*
X129241038Y-134056193D01*
X129404697Y-134300464D01*
X129487884Y-134581935D01*
X129495316Y-134694626D01*
X129484220Y-134822903D01*
X129447887Y-134980597D01*
X129382710Y-135176106D01*
X129285078Y-135417827D01*
X129151383Y-135714155D01*
X128978014Y-136073489D01*
X128761363Y-136504223D01*
X128498765Y-137012941D01*
X128256840Y-137479527D01*
X128058517Y-137867679D01*
X127898908Y-138188244D01*
X127773123Y-138452069D01*
X127676274Y-138670003D01*
X127603473Y-138852892D01*
X127549829Y-139011584D01*
X127510455Y-139156927D01*
X127489691Y-139251900D01*
X127461664Y-139391600D01*
X126726032Y-139391600D01*
X126465777Y-139390752D01*
X126245972Y-139388421D01*
X126084489Y-139384923D01*
X125999201Y-139380575D01*
X125990400Y-139378564D01*
X126002862Y-139326148D01*
X126033112Y-139216619D01*
X126035628Y-139207825D01*
X126080857Y-139050121D01*
X125796416Y-139221403D01*
X125615240Y-139321303D01*
X125438551Y-139403879D01*
X125332087Y-139442659D01*
X125067358Y-139487406D01*
X124780836Y-139489674D01*
X124513688Y-139451613D01*
X124335524Y-139390617D01*
X124117544Y-139229015D01*
X123967133Y-139000878D01*
X123889619Y-138719973D01*
X123890328Y-138400068D01*
X123908752Y-138287717D01*
X123937011Y-138191171D01*
X125487278Y-138191171D01*
X125500169Y-138247032D01*
X125572763Y-138306322D01*
X125711078Y-138323000D01*
X125889116Y-138298159D01*
X126080878Y-138232892D01*
X126105253Y-138221594D01*
X126242966Y-138152571D01*
X126348880Y-138086006D01*
X126439087Y-138004082D01*
X126529680Y-137888985D01*
X126636749Y-137722899D01*
X126776388Y-137488009D01*
X126792090Y-137461200D01*
X127104336Y-136927800D01*
X126878409Y-136912350D01*
X126609563Y-136939006D01*
X126317573Y-137047281D01*
X126025780Y-137228452D01*
X126019440Y-137233267D01*
X125848295Y-137395769D01*
X125697044Y-137597141D01*
X125578148Y-137813053D01*
X125504072Y-138019173D01*
X125487278Y-138191171D01*
X123937011Y-138191171D01*
X124031329Y-137868943D01*
X124226532Y-137485200D01*
X124505664Y-137116505D01*
X124670114Y-136941679D01*
X125096673Y-136577665D01*
X125564133Y-136302760D01*
X126077907Y-136114836D01*
X126643406Y-136011768D01*
X127094568Y-135988882D01*
X127563737Y-135988000D01*
X127724035Y-135670500D01*
X127859092Y-135378693D01*
X127930538Y-135159660D01*
X127938198Y-135006817D01*
X127881902Y-134913578D01*
X127761478Y-134873359D01*
X127703112Y-134870589D01*
X127480131Y-134920312D01*
X127253776Y-135065198D01*
X127054553Y-135272492D01*
X126887795Y-135479999D01*
X126156527Y-135480000D01*
X125425258Y-135480000D01*
X125568129Y-135217413D01*
X125828110Y-134836872D01*
X126170718Y-134487142D01*
X126578274Y-134182861D01*
X127033102Y-133938665D01*
X127191266Y-133873490D01*
X127509981Y-133781761D01*
X127874495Y-133724456D01*
X128245784Y-133704646D01*
X128584822Y-133725401D01*
G36*
X138695687Y-132439784D02*
X138782467Y-132443792D01*
X138792000Y-132446338D01*
X138769242Y-132494664D01*
X138706611Y-132616216D01*
X138612565Y-132794854D01*
X138495564Y-133014438D01*
X138438492Y-133120796D01*
X138084984Y-133778200D01*
X138439093Y-133793137D01*
X138793202Y-133808075D01*
X138500501Y-134362117D01*
X138207800Y-134916160D01*
X137458588Y-134946600D01*
X136724526Y-136318200D01*
X136477068Y-136780934D01*
X136274980Y-137161933D01*
X136115881Y-137469137D01*
X135997387Y-137710489D01*
X135917118Y-137893930D01*
X135872689Y-138027402D01*
X135861719Y-138118847D01*
X135881824Y-138176206D01*
X135930623Y-138207422D01*
X136005734Y-138220437D01*
X136104772Y-138223192D01*
X136153038Y-138223200D01*
X136296004Y-138230820D01*
X136382722Y-138250373D01*
X136395933Y-138267064D01*
X136368719Y-138328019D01*
X136307399Y-138460925D01*
X136221221Y-138645850D01*
X136125000Y-138851026D01*
X136013226Y-139084269D01*
X135929907Y-139241788D01*
X135862459Y-139340802D01*
X135798299Y-139398531D01*
X135724842Y-139432193D01*
X135693200Y-139441878D01*
X135509052Y-139474440D01*
X135274237Y-139488727D01*
X135024252Y-139485510D01*
X134794595Y-139465560D01*
X134620766Y-139429650D01*
X134589300Y-139417884D01*
X134403789Y-139285094D01*
X134281539Y-139082683D01*
X134225136Y-138822527D01*
X134237170Y-138516500D01*
X134319338Y-138179112D01*
X134368148Y-138059813D01*
X134458158Y-137865017D01*
X134582447Y-137608711D01*
X134734096Y-137304879D01*
X134906182Y-136967506D01*
X135091786Y-136610577D01*
X135154435Y-136491615D01*
X135338094Y-136143219D01*
X135507192Y-135820966D01*
X135655638Y-135536579D01*
X135777343Y-135301780D01*
X135866216Y-135128293D01*
X135916167Y-135027839D01*
X135924131Y-135010100D01*
X135931647Y-134959434D01*
X135890944Y-134932608D01*
X135781585Y-134922381D01*
X135673235Y-134921200D01*
X135518510Y-134915909D01*
X135415063Y-134902239D01*
X135388400Y-134888440D01*
X135411084Y-134833316D01*
X135472783Y-134707815D01*
X135563965Y-134530815D01*
X135670564Y-134329640D01*
X135952729Y-133803600D01*
X136267464Y-133803365D01*
X136582200Y-133803130D01*
X137309524Y-132457400D01*
X138050762Y-132443341D01*
X138312037Y-132439486D01*
X138532945Y-132438324D01*
X138695687Y-132439784D01*
X138695687Y-132439784D01*
G37*
X138695687Y-132439784D02*
X138782467Y-132443792D01*
X138792000Y-132446338D01*
X138769242Y-132494664D01*
X138706611Y-132616216D01*
X138612565Y-132794854D01*
X138495564Y-133014438D01*
X138438492Y-133120796D01*
X138084984Y-133778200D01*
X138439093Y-133793137D01*
X138793202Y-133808075D01*
X138500501Y-134362117D01*
X138207800Y-134916160D01*
X137458588Y-134946600D01*
X136724526Y-136318200D01*
X136477068Y-136780934D01*
X136274980Y-137161933D01*
X136115881Y-137469137D01*
X135997387Y-137710489D01*
X135917118Y-137893930D01*
X135872689Y-138027402D01*
X135861719Y-138118847D01*
X135881824Y-138176206D01*
X135930623Y-138207422D01*
X136005734Y-138220437D01*
X136104772Y-138223192D01*
X136153038Y-138223200D01*
X136296004Y-138230820D01*
X136382722Y-138250373D01*
X136395933Y-138267064D01*
X136368719Y-138328019D01*
X136307399Y-138460925D01*
X136221221Y-138645850D01*
X136125000Y-138851026D01*
X136013226Y-139084269D01*
X135929907Y-139241788D01*
X135862459Y-139340802D01*
X135798299Y-139398531D01*
X135724842Y-139432193D01*
X135693200Y-139441878D01*
X135509052Y-139474440D01*
X135274237Y-139488727D01*
X135024252Y-139485510D01*
X134794595Y-139465560D01*
X134620766Y-139429650D01*
X134589300Y-139417884D01*
X134403789Y-139285094D01*
X134281539Y-139082683D01*
X134225136Y-138822527D01*
X134237170Y-138516500D01*
X134319338Y-138179112D01*
X134368148Y-138059813D01*
X134458158Y-137865017D01*
X134582447Y-137608711D01*
X134734096Y-137304879D01*
X134906182Y-136967506D01*
X135091786Y-136610577D01*
X135154435Y-136491615D01*
X135338094Y-136143219D01*
X135507192Y-135820966D01*
X135655638Y-135536579D01*
X135777343Y-135301780D01*
X135866216Y-135128293D01*
X135916167Y-135027839D01*
X135924131Y-135010100D01*
X135931647Y-134959434D01*
X135890944Y-134932608D01*
X135781585Y-134922381D01*
X135673235Y-134921200D01*
X135518510Y-134915909D01*
X135415063Y-134902239D01*
X135388400Y-134888440D01*
X135411084Y-134833316D01*
X135472783Y-134707815D01*
X135563965Y-134530815D01*
X135670564Y-134329640D01*
X135952729Y-133803600D01*
X136267464Y-133803365D01*
X136582200Y-133803130D01*
X137309524Y-132457400D01*
X138050762Y-132443341D01*
X138312037Y-132439486D01*
X138532945Y-132438324D01*
X138695687Y-132439784D01*
G36*
X141971157Y-133762592D02*
X142028331Y-133778490D01*
X142310781Y-133909854D01*
X142524781Y-134113156D01*
X142668797Y-134383879D01*
X142741292Y-134717507D01*
X142740731Y-135109524D01*
X142665577Y-135555414D01*
X142651666Y-135611573D01*
X142563218Y-135890859D01*
X142430073Y-136227138D01*
X142265020Y-136593635D01*
X142080849Y-136963570D01*
X141890348Y-137310166D01*
X141706308Y-137606645D01*
X141681224Y-137643442D01*
X141285103Y-138150590D01*
X140848138Y-138589947D01*
X140381128Y-138953171D01*
X139894868Y-139231920D01*
X139400155Y-139417850D01*
X139376461Y-139424276D01*
X139186650Y-139458191D01*
X138941666Y-139479043D01*
X138673274Y-139486649D01*
X138413239Y-139480825D01*
X138193327Y-139461388D01*
X138055400Y-139431907D01*
X137784383Y-139287395D01*
X137558622Y-139070367D01*
X137459433Y-138918757D01*
X137377981Y-138679382D01*
X137342962Y-138375426D01*
X137353871Y-138032417D01*
X137366415Y-137953020D01*
X138842800Y-137953020D01*
X138884802Y-138110890D01*
X138999846Y-138215625D01*
X139171484Y-138262198D01*
X139383269Y-138245584D01*
X139581156Y-138178667D01*
X139820206Y-138023910D01*
X140068235Y-137775784D01*
X140319534Y-137441453D01*
X140568395Y-137028079D01*
X140699182Y-136775679D01*
X140917418Y-136314185D01*
X141078244Y-135929986D01*
X141182981Y-135617472D01*
X141232952Y-135371033D01*
X141229477Y-135185061D01*
X141173879Y-135053946D01*
X141117496Y-135000280D01*
X140930353Y-134927514D01*
X140715594Y-134945182D01*
X140481079Y-135048513D01*
X140234671Y-135232737D01*
X139984229Y-135493081D01*
X139737617Y-135824777D01*
X139723519Y-135846222D01*
X139570158Y-136101739D01*
X139412923Y-136399817D01*
X139259979Y-136720930D01*
X139119487Y-137045551D01*
X138999611Y-137354152D01*
X138908515Y-137627207D01*
X138854360Y-137845190D01*
X138842800Y-137953020D01*
X137366415Y-137953020D01*
X137410202Y-137675883D01*
X137489612Y-137392275D01*
X137752276Y-136730808D01*
X138069456Y-136110132D01*
X138433163Y-135540367D01*
X138835407Y-135031634D01*
X139268195Y-134594055D01*
X139723537Y-134237750D01*
X140187058Y-133975754D01*
X140640211Y-133810017D01*
X141103805Y-133717616D01*
X141555051Y-133700994D01*
X141971157Y-133762592D01*
X141971157Y-133762592D01*
G37*
X141971157Y-133762592D02*
X142028331Y-133778490D01*
X142310781Y-133909854D01*
X142524781Y-134113156D01*
X142668797Y-134383879D01*
X142741292Y-134717507D01*
X142740731Y-135109524D01*
X142665577Y-135555414D01*
X142651666Y-135611573D01*
X142563218Y-135890859D01*
X142430073Y-136227138D01*
X142265020Y-136593635D01*
X142080849Y-136963570D01*
X141890348Y-137310166D01*
X141706308Y-137606645D01*
X141681224Y-137643442D01*
X141285103Y-138150590D01*
X140848138Y-138589947D01*
X140381128Y-138953171D01*
X139894868Y-139231920D01*
X139400155Y-139417850D01*
X139376461Y-139424276D01*
X139186650Y-139458191D01*
X138941666Y-139479043D01*
X138673274Y-139486649D01*
X138413239Y-139480825D01*
X138193327Y-139461388D01*
X138055400Y-139431907D01*
X137784383Y-139287395D01*
X137558622Y-139070367D01*
X137459433Y-138918757D01*
X137377981Y-138679382D01*
X137342962Y-138375426D01*
X137353871Y-138032417D01*
X137366415Y-137953020D01*
X138842800Y-137953020D01*
X138884802Y-138110890D01*
X138999846Y-138215625D01*
X139171484Y-138262198D01*
X139383269Y-138245584D01*
X139581156Y-138178667D01*
X139820206Y-138023910D01*
X140068235Y-137775784D01*
X140319534Y-137441453D01*
X140568395Y-137028079D01*
X140699182Y-136775679D01*
X140917418Y-136314185D01*
X141078244Y-135929986D01*
X141182981Y-135617472D01*
X141232952Y-135371033D01*
X141229477Y-135185061D01*
X141173879Y-135053946D01*
X141117496Y-135000280D01*
X140930353Y-134927514D01*
X140715594Y-134945182D01*
X140481079Y-135048513D01*
X140234671Y-135232737D01*
X139984229Y-135493081D01*
X139737617Y-135824777D01*
X139723519Y-135846222D01*
X139570158Y-136101739D01*
X139412923Y-136399817D01*
X139259979Y-136720930D01*
X139119487Y-137045551D01*
X138999611Y-137354152D01*
X138908515Y-137627207D01*
X138854360Y-137845190D01*
X138842800Y-137953020D01*
X137366415Y-137953020D01*
X137410202Y-137675883D01*
X137489612Y-137392275D01*
X137752276Y-136730808D01*
X138069456Y-136110132D01*
X138433163Y-135540367D01*
X138835407Y-135031634D01*
X139268195Y-134594055D01*
X139723537Y-134237750D01*
X140187058Y-133975754D01*
X140640211Y-133810017D01*
X141103805Y-133717616D01*
X141555051Y-133700994D01*
X141971157Y-133762592D01*
G36*
X123539868Y-131898897D02*
X123869915Y-131900402D01*
X124124694Y-131904032D01*
X124317369Y-131910705D01*
X124461106Y-131921340D01*
X124569070Y-131936855D01*
X124654427Y-131958168D01*
X124730342Y-131986196D01*
X124795967Y-132015381D01*
X125095261Y-132191351D01*
X125304216Y-132406883D01*
X125430009Y-132673028D01*
X125479819Y-133000838D01*
X125481284Y-133070479D01*
X125455324Y-133396240D01*
X125370872Y-133736765D01*
X125221604Y-134114196D01*
X125126968Y-134311216D01*
X124793568Y-134870413D01*
X124394836Y-135352769D01*
X123932138Y-135756866D01*
X123431485Y-136068587D01*
X123261263Y-136157501D01*
X123130152Y-136226777D01*
X123060598Y-136264529D01*
X123055229Y-136267817D01*
X123046190Y-136318501D01*
X123027316Y-136455048D01*
X123000420Y-136662391D01*
X122967312Y-136925465D01*
X122929802Y-137229200D01*
X122889701Y-137558532D01*
X122848820Y-137898392D01*
X122808970Y-138233714D01*
X122771961Y-138549431D01*
X122739603Y-138830476D01*
X122713708Y-139061781D01*
X122696087Y-139228280D01*
X122688549Y-139314907D01*
X122688400Y-139320274D01*
X122671727Y-139347325D01*
X122613093Y-139366833D01*
X122499575Y-139379897D01*
X122318251Y-139387618D01*
X122056198Y-139391094D01*
X121850200Y-139391600D01*
X121571431Y-139390872D01*
X121332166Y-139388860D01*
X121149092Y-139385817D01*
X121038898Y-139381995D01*
X121014054Y-139378900D01*
X121021394Y-139327309D01*
X121041056Y-139188232D01*
X121071187Y-138974786D01*
X121109938Y-138700092D01*
X121155456Y-138377270D01*
X121205890Y-138019437D01*
X121207600Y-138007300D01*
X121399091Y-136648400D01*
X121040445Y-136649448D01*
X120681800Y-136650496D01*
X119950577Y-138021048D01*
X119219355Y-139391600D01*
X118464677Y-139391600D01*
X118200965Y-139389184D01*
X117977574Y-139382532D01*
X117812116Y-139372533D01*
X117722202Y-139360077D01*
X117711048Y-139353500D01*
X117734718Y-139303942D01*
X117803037Y-139171609D01*
X117912454Y-138963166D01*
X118059421Y-138685278D01*
X118240388Y-138344610D01*
X118451805Y-137947827D01*
X118690124Y-137501595D01*
X118951794Y-137012579D01*
X119233268Y-136487443D01*
X119530995Y-135932853D01*
X119706134Y-135607000D01*
X119892688Y-135260057D01*
X121435433Y-135260057D01*
X121451058Y-135312962D01*
X121553515Y-135345838D01*
X121747161Y-135359359D01*
X122036352Y-135354197D01*
X122043451Y-135353894D01*
X122313551Y-135330280D01*
X122529622Y-135279408D01*
X122713508Y-135202967D01*
X122984703Y-135026312D01*
X123246148Y-134777077D01*
X123480531Y-134479624D01*
X123670541Y-134158314D01*
X123798867Y-133837507D01*
X123844224Y-133611804D01*
X123850381Y-133451159D01*
X123822806Y-133349381D01*
X123755161Y-133270124D01*
X123691501Y-133223837D01*
X123608777Y-133193981D01*
X123484989Y-133177125D01*
X123298137Y-133169842D01*
X123103729Y-133168600D01*
X122564435Y-133168600D01*
X122012335Y-134184600D01*
X121852541Y-134479245D01*
X121708701Y-134745588D01*
X121588060Y-134970121D01*
X121497864Y-135139336D01*
X121445358Y-135239726D01*
X121435433Y-135260057D01*
X119892688Y-135260057D01*
X121700173Y-131898600D01*
X123121386Y-131898600D01*
X123539868Y-131898897D01*
X123539868Y-131898897D01*
G37*
X123539868Y-131898897D02*
X123869915Y-131900402D01*
X124124694Y-131904032D01*
X124317369Y-131910705D01*
X124461106Y-131921340D01*
X124569070Y-131936855D01*
X124654427Y-131958168D01*
X124730342Y-131986196D01*
X124795967Y-132015381D01*
X125095261Y-132191351D01*
X125304216Y-132406883D01*
X125430009Y-132673028D01*
X125479819Y-133000838D01*
X125481284Y-133070479D01*
X125455324Y-133396240D01*
X125370872Y-133736765D01*
X125221604Y-134114196D01*
X125126968Y-134311216D01*
X124793568Y-134870413D01*
X124394836Y-135352769D01*
X123932138Y-135756866D01*
X123431485Y-136068587D01*
X123261263Y-136157501D01*
X123130152Y-136226777D01*
X123060598Y-136264529D01*
X123055229Y-136267817D01*
X123046190Y-136318501D01*
X123027316Y-136455048D01*
X123000420Y-136662391D01*
X122967312Y-136925465D01*
X122929802Y-137229200D01*
X122889701Y-137558532D01*
X122848820Y-137898392D01*
X122808970Y-138233714D01*
X122771961Y-138549431D01*
X122739603Y-138830476D01*
X122713708Y-139061781D01*
X122696087Y-139228280D01*
X122688549Y-139314907D01*
X122688400Y-139320274D01*
X122671727Y-139347325D01*
X122613093Y-139366833D01*
X122499575Y-139379897D01*
X122318251Y-139387618D01*
X122056198Y-139391094D01*
X121850200Y-139391600D01*
X121571431Y-139390872D01*
X121332166Y-139388860D01*
X121149092Y-139385817D01*
X121038898Y-139381995D01*
X121014054Y-139378900D01*
X121021394Y-139327309D01*
X121041056Y-139188232D01*
X121071187Y-138974786D01*
X121109938Y-138700092D01*
X121155456Y-138377270D01*
X121205890Y-138019437D01*
X121207600Y-138007300D01*
X121399091Y-136648400D01*
X121040445Y-136649448D01*
X120681800Y-136650496D01*
X119950577Y-138021048D01*
X119219355Y-139391600D01*
X118464677Y-139391600D01*
X118200965Y-139389184D01*
X117977574Y-139382532D01*
X117812116Y-139372533D01*
X117722202Y-139360077D01*
X117711048Y-139353500D01*
X117734718Y-139303942D01*
X117803037Y-139171609D01*
X117912454Y-138963166D01*
X118059421Y-138685278D01*
X118240388Y-138344610D01*
X118451805Y-137947827D01*
X118690124Y-137501595D01*
X118951794Y-137012579D01*
X119233268Y-136487443D01*
X119530995Y-135932853D01*
X119706134Y-135607000D01*
X119892688Y-135260057D01*
X121435433Y-135260057D01*
X121451058Y-135312962D01*
X121553515Y-135345838D01*
X121747161Y-135359359D01*
X122036352Y-135354197D01*
X122043451Y-135353894D01*
X122313551Y-135330280D01*
X122529622Y-135279408D01*
X122713508Y-135202967D01*
X122984703Y-135026312D01*
X123246148Y-134777077D01*
X123480531Y-134479624D01*
X123670541Y-134158314D01*
X123798867Y-133837507D01*
X123844224Y-133611804D01*
X123850381Y-133451159D01*
X123822806Y-133349381D01*
X123755161Y-133270124D01*
X123691501Y-133223837D01*
X123608777Y-133193981D01*
X123484989Y-133177125D01*
X123298137Y-133169842D01*
X123103729Y-133168600D01*
X122564435Y-133168600D01*
X122012335Y-134184600D01*
X121852541Y-134479245D01*
X121708701Y-134745588D01*
X121588060Y-134970121D01*
X121497864Y-135139336D01*
X121445358Y-135239726D01*
X121435433Y-135260057D01*
X119892688Y-135260057D01*
X121700173Y-131898600D01*
X123121386Y-131898600D01*
X123539868Y-131898897D01*
G36*
X147226667Y-133726901D02*
X147266870Y-133743425D01*
X147283700Y-133780831D01*
X147269885Y-133859205D01*
X147221010Y-133990091D01*
X147132657Y-134185033D01*
X147000409Y-134455577D01*
X146974873Y-134506668D01*
X146615407Y-135224232D01*
X146247003Y-135214730D01*
X145994211Y-135219628D01*
X145797920Y-135254046D01*
X145647419Y-135309881D01*
X145530788Y-135365556D01*
X145426932Y-135425105D01*
X145329841Y-135497108D01*
X145233501Y-135590143D01*
X145131901Y-135712788D01*
X145019028Y-135873622D01*
X144888871Y-136081224D01*
X144735417Y-136344170D01*
X144552655Y-136671041D01*
X144334573Y-137070414D01*
X144075158Y-137550868D01*
X144069494Y-137561385D01*
X143084600Y-139390529D01*
X142330472Y-139391064D01*
X141576345Y-139391600D01*
X141700691Y-139175700D01*
X141747406Y-139091623D01*
X141837404Y-138926825D01*
X141965931Y-138690106D01*
X142128229Y-138390270D01*
X142319542Y-138036119D01*
X142535115Y-137636455D01*
X142770190Y-137200081D01*
X143020013Y-136735799D01*
X143210364Y-136381700D01*
X144595692Y-133803600D01*
X145275246Y-133803600D01*
X145524705Y-133805524D01*
X145732994Y-133810799D01*
X145881517Y-133818673D01*
X145951681Y-133828395D01*
X145954800Y-133831023D01*
X145933648Y-133888802D01*
X145880104Y-134003576D01*
X145847782Y-134068219D01*
X145740764Y-134277991D01*
X145954726Y-134094847D01*
X146115801Y-133970157D01*
X146282902Y-133860610D01*
X146353844Y-133822001D01*
X146499414Y-133773180D01*
X146691832Y-133736475D01*
X146898748Y-133714671D01*
X147087809Y-133710552D01*
X147226667Y-133726901D01*
X147226667Y-133726901D01*
G37*
X147226667Y-133726901D02*
X147266870Y-133743425D01*
X147283700Y-133780831D01*
X147269885Y-133859205D01*
X147221010Y-133990091D01*
X147132657Y-134185033D01*
X147000409Y-134455577D01*
X146974873Y-134506668D01*
X146615407Y-135224232D01*
X146247003Y-135214730D01*
X145994211Y-135219628D01*
X145797920Y-135254046D01*
X145647419Y-135309881D01*
X145530788Y-135365556D01*
X145426932Y-135425105D01*
X145329841Y-135497108D01*
X145233501Y-135590143D01*
X145131901Y-135712788D01*
X145019028Y-135873622D01*
X144888871Y-136081224D01*
X144735417Y-136344170D01*
X144552655Y-136671041D01*
X144334573Y-137070414D01*
X144075158Y-137550868D01*
X144069494Y-137561385D01*
X143084600Y-139390529D01*
X142330472Y-139391064D01*
X141576345Y-139391600D01*
X141700691Y-139175700D01*
X141747406Y-139091623D01*
X141837404Y-138926825D01*
X141965931Y-138690106D01*
X142128229Y-138390270D01*
X142319542Y-138036119D01*
X142535115Y-137636455D01*
X142770190Y-137200081D01*
X143020013Y-136735799D01*
X143210364Y-136381700D01*
X144595692Y-133803600D01*
X145275246Y-133803600D01*
X145524705Y-133805524D01*
X145732994Y-133810799D01*
X145881517Y-133818673D01*
X145951681Y-133828395D01*
X145954800Y-133831023D01*
X145933648Y-133888802D01*
X145880104Y-134003576D01*
X145847782Y-134068219D01*
X145740764Y-134277991D01*
X145954726Y-134094847D01*
X146115801Y-133970157D01*
X146282902Y-133860610D01*
X146353844Y-133822001D01*
X146499414Y-133773180D01*
X146691832Y-133736475D01*
X146898748Y-133714671D01*
X147087809Y-133710552D01*
X147226667Y-133726901D01*
G36*
X149001376Y-137158589D02*
X149116521Y-137164301D01*
X149155200Y-137171479D01*
X149140069Y-137222564D01*
X149098746Y-137351211D01*
X149037339Y-137538654D01*
X148961951Y-137766125D01*
X148952736Y-137793779D01*
X148876947Y-138022375D01*
X148828101Y-138180874D01*
X148810907Y-138267331D01*
X148830076Y-138279804D01*
X148890317Y-138216350D01*
X148996341Y-138075025D01*
X149152856Y-137853888D01*
X149292991Y-137653411D01*
X149637800Y-137159822D01*
X150332242Y-137156400D01*
X150119636Y-137423100D01*
X150022657Y-137545357D01*
X149876354Y-137730574D01*
X149694107Y-137961768D01*
X149489302Y-138221961D01*
X149275321Y-138494172D01*
X149239014Y-138540396D01*
X148571000Y-139390993D01*
X148278900Y-139391296D01*
X148121707Y-139385447D01*
X148015183Y-139369989D01*
X147985597Y-139353500D01*
X147996932Y-139295063D01*
X148029332Y-139152815D01*
X148079286Y-138941530D01*
X148143286Y-138675979D01*
X148217820Y-138370936D01*
X148251100Y-138235900D01*
X148517806Y-137156400D01*
X148836503Y-137156400D01*
X149001376Y-137158589D01*
X149001376Y-137158589D01*
G37*
X149001376Y-137158589D02*
X149116521Y-137164301D01*
X149155200Y-137171479D01*
X149140069Y-137222564D01*
X149098746Y-137351211D01*
X149037339Y-137538654D01*
X148961951Y-137766125D01*
X148952736Y-137793779D01*
X148876947Y-138022375D01*
X148828101Y-138180874D01*
X148810907Y-138267331D01*
X148830076Y-138279804D01*
X148890317Y-138216350D01*
X148996341Y-138075025D01*
X149152856Y-137853888D01*
X149292991Y-137653411D01*
X149637800Y-137159822D01*
X150332242Y-137156400D01*
X150119636Y-137423100D01*
X150022657Y-137545357D01*
X149876354Y-137730574D01*
X149694107Y-137961768D01*
X149489302Y-138221961D01*
X149275321Y-138494172D01*
X149239014Y-138540396D01*
X148571000Y-139390993D01*
X148278900Y-139391296D01*
X148121707Y-139385447D01*
X148015183Y-139369989D01*
X147985597Y-139353500D01*
X147996932Y-139295063D01*
X148029332Y-139152815D01*
X148079286Y-138941530D01*
X148143286Y-138675979D01*
X148217820Y-138370936D01*
X148251100Y-138235900D01*
X148517806Y-137156400D01*
X148836503Y-137156400D01*
X149001376Y-137158589D01*
G36*
X149865218Y-138766398D02*
X149950929Y-138861053D01*
X149960680Y-138998754D01*
X149890280Y-139163093D01*
X149836484Y-139235302D01*
X149717321Y-139346361D01*
X149584105Y-139388439D01*
X149512504Y-139391600D01*
X149371088Y-139373853D01*
X149270909Y-139330159D01*
X149260832Y-139320259D01*
X149223852Y-139205376D01*
X149259571Y-139066965D01*
X149350438Y-138928158D01*
X149478902Y-138812090D01*
X149627412Y-138741894D01*
X149707737Y-138731200D01*
X149865218Y-138766398D01*
X149865218Y-138766398D01*
G37*
X149865218Y-138766398D02*
X149950929Y-138861053D01*
X149960680Y-138998754D01*
X149890280Y-139163093D01*
X149836484Y-139235302D01*
X149717321Y-139346361D01*
X149584105Y-139388439D01*
X149512504Y-139391600D01*
X149371088Y-139373853D01*
X149270909Y-139330159D01*
X149260832Y-139320259D01*
X149223852Y-139205376D01*
X149259571Y-139066965D01*
X149350438Y-138928158D01*
X149478902Y-138812090D01*
X149627412Y-138741894D01*
X149707737Y-138731200D01*
X149865218Y-138766398D01*
G36*
X153062834Y-136401911D02*
X153052477Y-136449241D01*
X152998928Y-136575384D01*
X152907360Y-136769803D01*
X152782942Y-137021957D01*
X152630845Y-137321310D01*
X152456240Y-137657322D01*
X152324990Y-137905700D01*
X151534578Y-139391600D01*
X151233889Y-139391600D01*
X151074345Y-139386501D01*
X150965315Y-139373266D01*
X150933200Y-139358367D01*
X150956423Y-139306120D01*
X151021573Y-139177614D01*
X151121868Y-138985752D01*
X151250525Y-138743438D01*
X151400764Y-138463576D01*
X151496144Y-138287245D01*
X151654720Y-137992434D01*
X151794220Y-137728377D01*
X151908153Y-137507755D01*
X151990027Y-137343249D01*
X152033351Y-137247538D01*
X152038158Y-137228425D01*
X151982356Y-137231232D01*
X151863343Y-137261648D01*
X151780818Y-137288049D01*
X151633128Y-137331840D01*
X151523563Y-137352563D01*
X151493783Y-137351401D01*
X151489402Y-137302519D01*
X151529838Y-137193403D01*
X151588599Y-137079769D01*
X151734040Y-136825338D01*
X152372154Y-136604680D01*
X152612458Y-136524167D01*
X152819637Y-136459596D01*
X152974188Y-136416694D01*
X153056609Y-136401184D01*
X153062834Y-136401911D01*
X153062834Y-136401911D01*
G37*
X153062834Y-136401911D02*
X153052477Y-136449241D01*
X152998928Y-136575384D01*
X152907360Y-136769803D01*
X152782942Y-137021957D01*
X152630845Y-137321310D01*
X152456240Y-137657322D01*
X152324990Y-137905700D01*
X151534578Y-139391600D01*
X151233889Y-139391600D01*
X151074345Y-139386501D01*
X150965315Y-139373266D01*
X150933200Y-139358367D01*
X150956423Y-139306120D01*
X151021573Y-139177614D01*
X151121868Y-138985752D01*
X151250525Y-138743438D01*
X151400764Y-138463576D01*
X151496144Y-138287245D01*
X151654720Y-137992434D01*
X151794220Y-137728377D01*
X151908153Y-137507755D01*
X151990027Y-137343249D01*
X152033351Y-137247538D01*
X152038158Y-137228425D01*
X151982356Y-137231232D01*
X151863343Y-137261648D01*
X151780818Y-137288049D01*
X151633128Y-137331840D01*
X151523563Y-137352563D01*
X151493783Y-137351401D01*
X151489402Y-137302519D01*
X151529838Y-137193403D01*
X151588599Y-137079769D01*
X151734040Y-136825338D01*
X152372154Y-136604680D01*
X152612458Y-136524167D01*
X152819637Y-136459596D01*
X152974188Y-136416694D01*
X153056609Y-136401184D01*
X153062834Y-136401911D01*
G36*
X137083888Y-76287755D02*
X136815461Y-76218740D01*
X136597675Y-76088755D01*
X136445943Y-75898233D01*
X136442579Y-75891600D01*
X136361462Y-75622188D01*
X136351361Y-75283718D01*
X136411618Y-74879140D01*
X136541574Y-74411404D01*
X136740569Y-73883458D01*
X137007943Y-73298252D01*
X137034386Y-73244789D01*
X137393061Y-72578304D01*
X137758374Y-72009354D01*
X138133739Y-71533924D01*
X138522564Y-71148002D01*
X138928262Y-70847573D01*
X139198400Y-70698281D01*
X139396514Y-70611559D01*
X139578135Y-70558475D01*
X139786915Y-70528778D01*
X139972991Y-70516397D01*
X140264001Y-70511898D01*
X140480637Y-70536781D01*
X140647754Y-70598610D01*
X140790208Y-70704950D01*
X140871082Y-70789727D01*
X140975735Y-70892900D01*
X141042209Y-70915489D01*
X141066003Y-70897767D01*
X141102157Y-70838388D01*
X141180069Y-70702247D01*
X141292800Y-70501749D01*
X141433408Y-70249300D01*
X141594954Y-69957306D01*
X141760772Y-69655900D01*
X142408835Y-68474800D01*
X143140418Y-68474800D01*
X143399904Y-68476578D01*
X143618893Y-68481467D01*
X143779463Y-68488800D01*
X143863693Y-68497912D01*
X143872000Y-68502001D01*
X143848471Y-68549802D01*
X143780210Y-68680504D01*
X143670705Y-68887580D01*
X143523445Y-69164505D01*
X143341920Y-69504752D01*
X143129617Y-69901793D01*
X142890027Y-70349104D01*
X142626638Y-70840157D01*
X142342939Y-71368427D01*
X142042418Y-71927386D01*
X141989363Y-72025974D01*
X140467269Y-72025974D01*
X140426295Y-71923738D01*
X140322974Y-71821615D01*
X140214400Y-71762040D01*
X139998117Y-71731899D01*
X139750009Y-71779282D01*
X139622553Y-71831302D01*
X139415948Y-71957759D01*
X139218081Y-72137102D01*
X139021315Y-72379381D01*
X138818013Y-72694645D01*
X138600539Y-73092944D01*
X138479996Y-73334813D01*
X138342058Y-73627301D01*
X138214093Y-73914548D01*
X138105752Y-74173683D01*
X138026691Y-74381835D01*
X137992956Y-74488661D01*
X137948542Y-74666163D01*
X137931914Y-74775009D01*
X137943651Y-74844433D01*
X137984332Y-74903667D01*
X138001554Y-74923034D01*
X138148690Y-75013465D01*
X138346942Y-75027825D01*
X138581384Y-74967252D01*
X138789449Y-74862900D01*
X138869333Y-74812941D01*
X138938357Y-74762193D01*
X139003751Y-74699819D01*
X139072749Y-74614980D01*
X139152581Y-74496839D01*
X139250480Y-74334556D01*
X139373678Y-74117293D01*
X139529407Y-73834213D01*
X139724898Y-73474476D01*
X139763970Y-73402400D01*
X139943707Y-73068174D01*
X140106519Y-72760357D01*
X140246280Y-72490939D01*
X140356863Y-72271910D01*
X140432142Y-72115261D01*
X140465989Y-72032983D01*
X140467269Y-72025974D01*
X141989363Y-72025974D01*
X141808097Y-72362801D01*
X139744194Y-76196400D01*
X139063865Y-76196400D01*
X138383536Y-76196401D01*
X138489677Y-75988346D01*
X138595819Y-75780291D01*
X138355789Y-75945436D01*
X138038907Y-76124640D01*
X137711022Y-76241139D01*
X137387545Y-76295366D01*
X137083888Y-76287755D01*
X137083888Y-76287755D01*
G37*
X137083888Y-76287755D02*
X136815461Y-76218740D01*
X136597675Y-76088755D01*
X136445943Y-75898233D01*
X136442579Y-75891600D01*
X136361462Y-75622188D01*
X136351361Y-75283718D01*
X136411618Y-74879140D01*
X136541574Y-74411404D01*
X136740569Y-73883458D01*
X137007943Y-73298252D01*
X137034386Y-73244789D01*
X137393061Y-72578304D01*
X137758374Y-72009354D01*
X138133739Y-71533924D01*
X138522564Y-71148002D01*
X138928262Y-70847573D01*
X139198400Y-70698281D01*
X139396514Y-70611559D01*
X139578135Y-70558475D01*
X139786915Y-70528778D01*
X139972991Y-70516397D01*
X140264001Y-70511898D01*
X140480637Y-70536781D01*
X140647754Y-70598610D01*
X140790208Y-70704950D01*
X140871082Y-70789727D01*
X140975735Y-70892900D01*
X141042209Y-70915489D01*
X141066003Y-70897767D01*
X141102157Y-70838388D01*
X141180069Y-70702247D01*
X141292800Y-70501749D01*
X141433408Y-70249300D01*
X141594954Y-69957306D01*
X141760772Y-69655900D01*
X142408835Y-68474800D01*
X143140418Y-68474800D01*
X143399904Y-68476578D01*
X143618893Y-68481467D01*
X143779463Y-68488800D01*
X143863693Y-68497912D01*
X143872000Y-68502001D01*
X143848471Y-68549802D01*
X143780210Y-68680504D01*
X143670705Y-68887580D01*
X143523445Y-69164505D01*
X143341920Y-69504752D01*
X143129617Y-69901793D01*
X142890027Y-70349104D01*
X142626638Y-70840157D01*
X142342939Y-71368427D01*
X142042418Y-71927386D01*
X141989363Y-72025974D01*
X140467269Y-72025974D01*
X140426295Y-71923738D01*
X140322974Y-71821615D01*
X140214400Y-71762040D01*
X139998117Y-71731899D01*
X139750009Y-71779282D01*
X139622553Y-71831302D01*
X139415948Y-71957759D01*
X139218081Y-72137102D01*
X139021315Y-72379381D01*
X138818013Y-72694645D01*
X138600539Y-73092944D01*
X138479996Y-73334813D01*
X138342058Y-73627301D01*
X138214093Y-73914548D01*
X138105752Y-74173683D01*
X138026691Y-74381835D01*
X137992956Y-74488661D01*
X137948542Y-74666163D01*
X137931914Y-74775009D01*
X137943651Y-74844433D01*
X137984332Y-74903667D01*
X138001554Y-74923034D01*
X138148690Y-75013465D01*
X138346942Y-75027825D01*
X138581384Y-74967252D01*
X138789449Y-74862900D01*
X138869333Y-74812941D01*
X138938357Y-74762193D01*
X139003751Y-74699819D01*
X139072749Y-74614980D01*
X139152581Y-74496839D01*
X139250480Y-74334556D01*
X139373678Y-74117293D01*
X139529407Y-73834213D01*
X139724898Y-73474476D01*
X139763970Y-73402400D01*
X139943707Y-73068174D01*
X140106519Y-72760357D01*
X140246280Y-72490939D01*
X140356863Y-72271910D01*
X140432142Y-72115261D01*
X140465989Y-72032983D01*
X140467269Y-72025974D01*
X141989363Y-72025974D01*
X141808097Y-72362801D01*
X139744194Y-76196400D01*
X139063865Y-76196400D01*
X138383536Y-76196401D01*
X138489677Y-75988346D01*
X138595819Y-75780291D01*
X138355789Y-75945436D01*
X138038907Y-76124640D01*
X137711022Y-76241139D01*
X137387545Y-76295366D01*
X137083888Y-76287755D01*
G36*
X142395178Y-76274599D02*
X142248487Y-76247701D01*
X141968290Y-76132616D01*
X141738962Y-75943807D01*
X141575303Y-75699536D01*
X141492116Y-75418065D01*
X141484684Y-75305374D01*
X141495780Y-75177097D01*
X141532113Y-75019403D01*
X141597290Y-74823894D01*
X141694922Y-74582173D01*
X141828617Y-74285845D01*
X142001986Y-73926511D01*
X142218637Y-73495777D01*
X142481235Y-72987059D01*
X142723160Y-72520473D01*
X142921483Y-72132321D01*
X143081092Y-71811756D01*
X143206877Y-71547931D01*
X143303726Y-71329997D01*
X143376527Y-71147108D01*
X143430171Y-70988416D01*
X143469545Y-70843073D01*
X143490309Y-70748100D01*
X143518336Y-70608400D01*
X144253968Y-70608400D01*
X144514223Y-70609248D01*
X144734028Y-70611579D01*
X144895511Y-70615077D01*
X144980799Y-70619425D01*
X144989600Y-70621436D01*
X144977138Y-70673852D01*
X144946888Y-70783381D01*
X144944372Y-70792175D01*
X144899143Y-70949879D01*
X145183584Y-70778597D01*
X145364760Y-70678697D01*
X145541449Y-70596121D01*
X145647913Y-70557341D01*
X145912642Y-70512594D01*
X146199164Y-70510326D01*
X146466312Y-70548387D01*
X146644476Y-70609383D01*
X146862456Y-70770985D01*
X147012867Y-70999122D01*
X147090381Y-71280027D01*
X147089672Y-71599932D01*
X147071248Y-71712283D01*
X147042989Y-71808829D01*
X145492722Y-71808829D01*
X145479831Y-71752968D01*
X145407237Y-71693678D01*
X145268922Y-71677000D01*
X145090884Y-71701841D01*
X144899122Y-71767108D01*
X144874747Y-71778406D01*
X144737034Y-71847429D01*
X144631120Y-71913994D01*
X144540913Y-71995918D01*
X144450320Y-72111015D01*
X144343251Y-72277101D01*
X144203612Y-72511991D01*
X144187910Y-72538800D01*
X143875664Y-73072200D01*
X144101591Y-73087650D01*
X144370437Y-73060994D01*
X144662427Y-72952719D01*
X144954220Y-72771548D01*
X144960560Y-72766733D01*
X145131705Y-72604231D01*
X145282956Y-72402859D01*
X145401852Y-72186947D01*
X145475928Y-71980827D01*
X145492722Y-71808829D01*
X147042989Y-71808829D01*
X146948671Y-72131057D01*
X146753468Y-72514800D01*
X146474336Y-72883495D01*
X146309886Y-73058321D01*
X145883327Y-73422335D01*
X145415867Y-73697240D01*
X144902093Y-73885164D01*
X144336594Y-73988232D01*
X143885432Y-74011118D01*
X143416263Y-74012000D01*
X143255965Y-74329500D01*
X143120908Y-74621307D01*
X143049462Y-74840340D01*
X143041802Y-74993183D01*
X143098098Y-75086422D01*
X143218522Y-75126641D01*
X143276888Y-75129411D01*
X143499869Y-75079688D01*
X143726224Y-74934802D01*
X143925447Y-74727508D01*
X144092205Y-74520001D01*
X144823473Y-74520000D01*
X145554742Y-74520000D01*
X145411871Y-74782587D01*
X145151890Y-75163128D01*
X144809282Y-75512858D01*
X144401726Y-75817139D01*
X143946898Y-76061335D01*
X143788734Y-76126510D01*
X143470019Y-76218239D01*
X143105505Y-76275544D01*
X142734216Y-76295354D01*
X142395178Y-76274599D01*
X142395178Y-76274599D01*
G37*
X142395178Y-76274599D02*
X142248487Y-76247701D01*
X141968290Y-76132616D01*
X141738962Y-75943807D01*
X141575303Y-75699536D01*
X141492116Y-75418065D01*
X141484684Y-75305374D01*
X141495780Y-75177097D01*
X141532113Y-75019403D01*
X141597290Y-74823894D01*
X141694922Y-74582173D01*
X141828617Y-74285845D01*
X142001986Y-73926511D01*
X142218637Y-73495777D01*
X142481235Y-72987059D01*
X142723160Y-72520473D01*
X142921483Y-72132321D01*
X143081092Y-71811756D01*
X143206877Y-71547931D01*
X143303726Y-71329997D01*
X143376527Y-71147108D01*
X143430171Y-70988416D01*
X143469545Y-70843073D01*
X143490309Y-70748100D01*
X143518336Y-70608400D01*
X144253968Y-70608400D01*
X144514223Y-70609248D01*
X144734028Y-70611579D01*
X144895511Y-70615077D01*
X144980799Y-70619425D01*
X144989600Y-70621436D01*
X144977138Y-70673852D01*
X144946888Y-70783381D01*
X144944372Y-70792175D01*
X144899143Y-70949879D01*
X145183584Y-70778597D01*
X145364760Y-70678697D01*
X145541449Y-70596121D01*
X145647913Y-70557341D01*
X145912642Y-70512594D01*
X146199164Y-70510326D01*
X146466312Y-70548387D01*
X146644476Y-70609383D01*
X146862456Y-70770985D01*
X147012867Y-70999122D01*
X147090381Y-71280027D01*
X147089672Y-71599932D01*
X147071248Y-71712283D01*
X147042989Y-71808829D01*
X145492722Y-71808829D01*
X145479831Y-71752968D01*
X145407237Y-71693678D01*
X145268922Y-71677000D01*
X145090884Y-71701841D01*
X144899122Y-71767108D01*
X144874747Y-71778406D01*
X144737034Y-71847429D01*
X144631120Y-71913994D01*
X144540913Y-71995918D01*
X144450320Y-72111015D01*
X144343251Y-72277101D01*
X144203612Y-72511991D01*
X144187910Y-72538800D01*
X143875664Y-73072200D01*
X144101591Y-73087650D01*
X144370437Y-73060994D01*
X144662427Y-72952719D01*
X144954220Y-72771548D01*
X144960560Y-72766733D01*
X145131705Y-72604231D01*
X145282956Y-72402859D01*
X145401852Y-72186947D01*
X145475928Y-71980827D01*
X145492722Y-71808829D01*
X147042989Y-71808829D01*
X146948671Y-72131057D01*
X146753468Y-72514800D01*
X146474336Y-72883495D01*
X146309886Y-73058321D01*
X145883327Y-73422335D01*
X145415867Y-73697240D01*
X144902093Y-73885164D01*
X144336594Y-73988232D01*
X143885432Y-74011118D01*
X143416263Y-74012000D01*
X143255965Y-74329500D01*
X143120908Y-74621307D01*
X143049462Y-74840340D01*
X143041802Y-74993183D01*
X143098098Y-75086422D01*
X143218522Y-75126641D01*
X143276888Y-75129411D01*
X143499869Y-75079688D01*
X143726224Y-74934802D01*
X143925447Y-74727508D01*
X144092205Y-74520001D01*
X144823473Y-74520000D01*
X145554742Y-74520000D01*
X145411871Y-74782587D01*
X145151890Y-75163128D01*
X144809282Y-75512858D01*
X144401726Y-75817139D01*
X143946898Y-76061335D01*
X143788734Y-76126510D01*
X143470019Y-76218239D01*
X143105505Y-76275544D01*
X142734216Y-76295354D01*
X142395178Y-76274599D01*
G36*
X132284313Y-77560216D02*
X132197533Y-77556208D01*
X132188000Y-77553662D01*
X132210758Y-77505336D01*
X132273389Y-77383784D01*
X132367435Y-77205146D01*
X132484436Y-76985562D01*
X132541508Y-76879204D01*
X132895016Y-76221800D01*
X132540907Y-76206863D01*
X132186798Y-76191925D01*
X132479499Y-75637883D01*
X132772200Y-75083840D01*
X133521412Y-75053400D01*
X134255474Y-73681800D01*
X134502932Y-73219066D01*
X134705020Y-72838067D01*
X134864119Y-72530863D01*
X134982613Y-72289511D01*
X135062882Y-72106070D01*
X135107311Y-71972598D01*
X135118281Y-71881153D01*
X135098176Y-71823794D01*
X135049377Y-71792578D01*
X134974266Y-71779563D01*
X134875228Y-71776808D01*
X134826962Y-71776800D01*
X134683996Y-71769180D01*
X134597278Y-71749627D01*
X134584067Y-71732936D01*
X134611281Y-71671981D01*
X134672601Y-71539075D01*
X134758779Y-71354150D01*
X134855000Y-71148974D01*
X134966774Y-70915731D01*
X135050093Y-70758212D01*
X135117541Y-70659198D01*
X135181701Y-70601469D01*
X135255158Y-70567807D01*
X135286800Y-70558122D01*
X135470948Y-70525560D01*
X135705763Y-70511273D01*
X135955748Y-70514490D01*
X136185405Y-70534440D01*
X136359234Y-70570350D01*
X136390700Y-70582116D01*
X136576211Y-70714906D01*
X136698461Y-70917317D01*
X136754864Y-71177473D01*
X136742830Y-71483500D01*
X136660662Y-71820888D01*
X136611852Y-71940187D01*
X136521842Y-72134983D01*
X136397553Y-72391289D01*
X136245904Y-72695121D01*
X136073818Y-73032494D01*
X135888214Y-73389423D01*
X135825565Y-73508385D01*
X135641906Y-73856781D01*
X135472808Y-74179034D01*
X135324362Y-74463421D01*
X135202657Y-74698220D01*
X135113784Y-74871707D01*
X135063833Y-74972161D01*
X135055869Y-74989900D01*
X135048353Y-75040566D01*
X135089056Y-75067392D01*
X135198415Y-75077619D01*
X135306765Y-75078800D01*
X135461490Y-75084091D01*
X135564937Y-75097761D01*
X135591600Y-75111560D01*
X135568916Y-75166684D01*
X135507217Y-75292185D01*
X135416035Y-75469185D01*
X135309436Y-75670360D01*
X135027271Y-76196400D01*
X134712536Y-76196635D01*
X134397800Y-76196870D01*
X133670476Y-77542600D01*
X132929238Y-77556659D01*
X132667963Y-77560514D01*
X132447055Y-77561676D01*
X132284313Y-77560216D01*
X132284313Y-77560216D01*
G37*
X132284313Y-77560216D02*
X132197533Y-77556208D01*
X132188000Y-77553662D01*
X132210758Y-77505336D01*
X132273389Y-77383784D01*
X132367435Y-77205146D01*
X132484436Y-76985562D01*
X132541508Y-76879204D01*
X132895016Y-76221800D01*
X132540907Y-76206863D01*
X132186798Y-76191925D01*
X132479499Y-75637883D01*
X132772200Y-75083840D01*
X133521412Y-75053400D01*
X134255474Y-73681800D01*
X134502932Y-73219066D01*
X134705020Y-72838067D01*
X134864119Y-72530863D01*
X134982613Y-72289511D01*
X135062882Y-72106070D01*
X135107311Y-71972598D01*
X135118281Y-71881153D01*
X135098176Y-71823794D01*
X135049377Y-71792578D01*
X134974266Y-71779563D01*
X134875228Y-71776808D01*
X134826962Y-71776800D01*
X134683996Y-71769180D01*
X134597278Y-71749627D01*
X134584067Y-71732936D01*
X134611281Y-71671981D01*
X134672601Y-71539075D01*
X134758779Y-71354150D01*
X134855000Y-71148974D01*
X134966774Y-70915731D01*
X135050093Y-70758212D01*
X135117541Y-70659198D01*
X135181701Y-70601469D01*
X135255158Y-70567807D01*
X135286800Y-70558122D01*
X135470948Y-70525560D01*
X135705763Y-70511273D01*
X135955748Y-70514490D01*
X136185405Y-70534440D01*
X136359234Y-70570350D01*
X136390700Y-70582116D01*
X136576211Y-70714906D01*
X136698461Y-70917317D01*
X136754864Y-71177473D01*
X136742830Y-71483500D01*
X136660662Y-71820888D01*
X136611852Y-71940187D01*
X136521842Y-72134983D01*
X136397553Y-72391289D01*
X136245904Y-72695121D01*
X136073818Y-73032494D01*
X135888214Y-73389423D01*
X135825565Y-73508385D01*
X135641906Y-73856781D01*
X135472808Y-74179034D01*
X135324362Y-74463421D01*
X135202657Y-74698220D01*
X135113784Y-74871707D01*
X135063833Y-74972161D01*
X135055869Y-74989900D01*
X135048353Y-75040566D01*
X135089056Y-75067392D01*
X135198415Y-75077619D01*
X135306765Y-75078800D01*
X135461490Y-75084091D01*
X135564937Y-75097761D01*
X135591600Y-75111560D01*
X135568916Y-75166684D01*
X135507217Y-75292185D01*
X135416035Y-75469185D01*
X135309436Y-75670360D01*
X135027271Y-76196400D01*
X134712536Y-76196635D01*
X134397800Y-76196870D01*
X133670476Y-77542600D01*
X132929238Y-77556659D01*
X132667963Y-77560514D01*
X132447055Y-77561676D01*
X132284313Y-77560216D01*
G36*
X129008843Y-76237408D02*
X128951669Y-76221510D01*
X128669219Y-76090146D01*
X128455219Y-75886844D01*
X128311203Y-75616121D01*
X128238708Y-75282493D01*
X128239269Y-74890476D01*
X128314423Y-74444586D01*
X128328334Y-74388427D01*
X128416782Y-74109141D01*
X128549927Y-73772862D01*
X128714980Y-73406365D01*
X128899151Y-73036430D01*
X129089652Y-72689834D01*
X129273692Y-72393355D01*
X129298776Y-72356558D01*
X129694897Y-71849410D01*
X130131862Y-71410053D01*
X130598872Y-71046829D01*
X131085132Y-70768080D01*
X131579845Y-70582150D01*
X131603539Y-70575724D01*
X131793350Y-70541809D01*
X132038334Y-70520957D01*
X132306726Y-70513351D01*
X132566761Y-70519175D01*
X132786673Y-70538612D01*
X132924600Y-70568093D01*
X133195617Y-70712605D01*
X133421378Y-70929633D01*
X133520567Y-71081243D01*
X133602019Y-71320618D01*
X133637038Y-71624574D01*
X133626129Y-71967583D01*
X133613585Y-72046980D01*
X132137200Y-72046980D01*
X132095198Y-71889110D01*
X131980154Y-71784375D01*
X131808516Y-71737802D01*
X131596731Y-71754416D01*
X131398844Y-71821333D01*
X131159794Y-71976090D01*
X130911765Y-72224216D01*
X130660466Y-72558547D01*
X130411605Y-72971921D01*
X130280818Y-73224321D01*
X130062582Y-73685815D01*
X129901756Y-74070014D01*
X129797019Y-74382528D01*
X129747048Y-74628967D01*
X129750523Y-74814939D01*
X129806121Y-74946054D01*
X129862504Y-74999720D01*
X130049647Y-75072486D01*
X130264406Y-75054818D01*
X130498921Y-74951487D01*
X130745329Y-74767263D01*
X130995771Y-74506919D01*
X131242383Y-74175223D01*
X131256481Y-74153778D01*
X131409842Y-73898261D01*
X131567077Y-73600183D01*
X131720021Y-73279070D01*
X131860513Y-72954449D01*
X131980389Y-72645848D01*
X132071485Y-72372793D01*
X132125640Y-72154810D01*
X132137200Y-72046980D01*
X133613585Y-72046980D01*
X133569798Y-72324117D01*
X133490388Y-72607725D01*
X133227724Y-73269192D01*
X132910544Y-73889868D01*
X132546837Y-74459633D01*
X132144593Y-74968366D01*
X131711805Y-75405945D01*
X131256463Y-75762250D01*
X130792942Y-76024246D01*
X130339789Y-76189983D01*
X129876195Y-76282384D01*
X129424949Y-76299006D01*
X129008843Y-76237408D01*
X129008843Y-76237408D01*
G37*
X129008843Y-76237408D02*
X128951669Y-76221510D01*
X128669219Y-76090146D01*
X128455219Y-75886844D01*
X128311203Y-75616121D01*
X128238708Y-75282493D01*
X128239269Y-74890476D01*
X128314423Y-74444586D01*
X128328334Y-74388427D01*
X128416782Y-74109141D01*
X128549927Y-73772862D01*
X128714980Y-73406365D01*
X128899151Y-73036430D01*
X129089652Y-72689834D01*
X129273692Y-72393355D01*
X129298776Y-72356558D01*
X129694897Y-71849410D01*
X130131862Y-71410053D01*
X130598872Y-71046829D01*
X131085132Y-70768080D01*
X131579845Y-70582150D01*
X131603539Y-70575724D01*
X131793350Y-70541809D01*
X132038334Y-70520957D01*
X132306726Y-70513351D01*
X132566761Y-70519175D01*
X132786673Y-70538612D01*
X132924600Y-70568093D01*
X133195617Y-70712605D01*
X133421378Y-70929633D01*
X133520567Y-71081243D01*
X133602019Y-71320618D01*
X133637038Y-71624574D01*
X133626129Y-71967583D01*
X133613585Y-72046980D01*
X132137200Y-72046980D01*
X132095198Y-71889110D01*
X131980154Y-71784375D01*
X131808516Y-71737802D01*
X131596731Y-71754416D01*
X131398844Y-71821333D01*
X131159794Y-71976090D01*
X130911765Y-72224216D01*
X130660466Y-72558547D01*
X130411605Y-72971921D01*
X130280818Y-73224321D01*
X130062582Y-73685815D01*
X129901756Y-74070014D01*
X129797019Y-74382528D01*
X129747048Y-74628967D01*
X129750523Y-74814939D01*
X129806121Y-74946054D01*
X129862504Y-74999720D01*
X130049647Y-75072486D01*
X130264406Y-75054818D01*
X130498921Y-74951487D01*
X130745329Y-74767263D01*
X130995771Y-74506919D01*
X131242383Y-74175223D01*
X131256481Y-74153778D01*
X131409842Y-73898261D01*
X131567077Y-73600183D01*
X131720021Y-73279070D01*
X131860513Y-72954449D01*
X131980389Y-72645848D01*
X132071485Y-72372793D01*
X132125640Y-72154810D01*
X132137200Y-72046980D01*
X133613585Y-72046980D01*
X133569798Y-72324117D01*
X133490388Y-72607725D01*
X133227724Y-73269192D01*
X132910544Y-73889868D01*
X132546837Y-74459633D01*
X132144593Y-74968366D01*
X131711805Y-75405945D01*
X131256463Y-75762250D01*
X130792942Y-76024246D01*
X130339789Y-76189983D01*
X129876195Y-76282384D01*
X129424949Y-76299006D01*
X129008843Y-76237408D01*
G36*
X147440132Y-78101103D02*
X147110085Y-78099598D01*
X146855306Y-78095968D01*
X146662631Y-78089295D01*
X146518894Y-78078660D01*
X146410930Y-78063145D01*
X146325573Y-78041832D01*
X146249658Y-78013804D01*
X146184033Y-77984619D01*
X145884739Y-77808649D01*
X145675784Y-77593117D01*
X145549991Y-77326972D01*
X145500181Y-76999162D01*
X145498716Y-76929521D01*
X145524676Y-76603760D01*
X145609128Y-76263235D01*
X145758396Y-75885804D01*
X145853032Y-75688784D01*
X146186432Y-75129587D01*
X146585164Y-74647231D01*
X147047862Y-74243134D01*
X147548515Y-73931413D01*
X147718737Y-73842499D01*
X147849848Y-73773223D01*
X147919402Y-73735471D01*
X147924771Y-73732183D01*
X147933810Y-73681499D01*
X147952684Y-73544952D01*
X147979580Y-73337609D01*
X148012688Y-73074535D01*
X148050198Y-72770800D01*
X148090299Y-72441468D01*
X148131180Y-72101608D01*
X148171030Y-71766286D01*
X148208039Y-71450569D01*
X148240397Y-71169524D01*
X148266292Y-70938219D01*
X148283913Y-70771720D01*
X148291451Y-70685093D01*
X148291600Y-70679726D01*
X148308273Y-70652675D01*
X148366907Y-70633167D01*
X148480425Y-70620103D01*
X148661749Y-70612382D01*
X148923802Y-70608906D01*
X149129800Y-70608400D01*
X149408569Y-70609128D01*
X149647834Y-70611140D01*
X149830908Y-70614183D01*
X149941102Y-70618005D01*
X149965946Y-70621100D01*
X149958606Y-70672691D01*
X149938944Y-70811768D01*
X149908813Y-71025214D01*
X149870062Y-71299908D01*
X149824544Y-71622730D01*
X149774110Y-71980563D01*
X149772400Y-71992700D01*
X149580909Y-73351600D01*
X149939555Y-73350552D01*
X150298200Y-73349504D01*
X151029423Y-71978952D01*
X151760645Y-70608400D01*
X152515323Y-70608400D01*
X152779035Y-70610816D01*
X153002426Y-70617468D01*
X153167884Y-70627467D01*
X153257798Y-70639923D01*
X153268952Y-70646500D01*
X153245282Y-70696058D01*
X153176963Y-70828391D01*
X153067546Y-71036834D01*
X152920579Y-71314722D01*
X152739612Y-71655390D01*
X152528195Y-72052173D01*
X152289876Y-72498405D01*
X152028206Y-72987421D01*
X151746732Y-73512557D01*
X151449005Y-74067147D01*
X151273866Y-74393000D01*
X151087312Y-74739943D01*
X149544567Y-74739943D01*
X149528942Y-74687038D01*
X149426485Y-74654162D01*
X149232839Y-74640641D01*
X148943648Y-74645803D01*
X148936549Y-74646106D01*
X148666449Y-74669720D01*
X148450378Y-74720592D01*
X148266492Y-74797033D01*
X147995297Y-74973688D01*
X147733852Y-75222923D01*
X147499469Y-75520376D01*
X147309459Y-75841686D01*
X147181133Y-76162493D01*
X147135776Y-76388196D01*
X147129619Y-76548841D01*
X147157194Y-76650619D01*
X147224839Y-76729876D01*
X147288499Y-76776163D01*
X147371223Y-76806019D01*
X147495011Y-76822875D01*
X147681863Y-76830158D01*
X147876271Y-76831400D01*
X148415565Y-76831400D01*
X148967665Y-75815400D01*
X149127459Y-75520755D01*
X149271299Y-75254412D01*
X149391940Y-75029879D01*
X149482136Y-74860664D01*
X149534642Y-74760274D01*
X149544567Y-74739943D01*
X151087312Y-74739943D01*
X149279827Y-78101400D01*
X147858614Y-78101400D01*
X147440132Y-78101103D01*
X147440132Y-78101103D01*
G37*
X147440132Y-78101103D02*
X147110085Y-78099598D01*
X146855306Y-78095968D01*
X146662631Y-78089295D01*
X146518894Y-78078660D01*
X146410930Y-78063145D01*
X146325573Y-78041832D01*
X146249658Y-78013804D01*
X146184033Y-77984619D01*
X145884739Y-77808649D01*
X145675784Y-77593117D01*
X145549991Y-77326972D01*
X145500181Y-76999162D01*
X145498716Y-76929521D01*
X145524676Y-76603760D01*
X145609128Y-76263235D01*
X145758396Y-75885804D01*
X145853032Y-75688784D01*
X146186432Y-75129587D01*
X146585164Y-74647231D01*
X147047862Y-74243134D01*
X147548515Y-73931413D01*
X147718737Y-73842499D01*
X147849848Y-73773223D01*
X147919402Y-73735471D01*
X147924771Y-73732183D01*
X147933810Y-73681499D01*
X147952684Y-73544952D01*
X147979580Y-73337609D01*
X148012688Y-73074535D01*
X148050198Y-72770800D01*
X148090299Y-72441468D01*
X148131180Y-72101608D01*
X148171030Y-71766286D01*
X148208039Y-71450569D01*
X148240397Y-71169524D01*
X148266292Y-70938219D01*
X148283913Y-70771720D01*
X148291451Y-70685093D01*
X148291600Y-70679726D01*
X148308273Y-70652675D01*
X148366907Y-70633167D01*
X148480425Y-70620103D01*
X148661749Y-70612382D01*
X148923802Y-70608906D01*
X149129800Y-70608400D01*
X149408569Y-70609128D01*
X149647834Y-70611140D01*
X149830908Y-70614183D01*
X149941102Y-70618005D01*
X149965946Y-70621100D01*
X149958606Y-70672691D01*
X149938944Y-70811768D01*
X149908813Y-71025214D01*
X149870062Y-71299908D01*
X149824544Y-71622730D01*
X149774110Y-71980563D01*
X149772400Y-71992700D01*
X149580909Y-73351600D01*
X149939555Y-73350552D01*
X150298200Y-73349504D01*
X151029423Y-71978952D01*
X151760645Y-70608400D01*
X152515323Y-70608400D01*
X152779035Y-70610816D01*
X153002426Y-70617468D01*
X153167884Y-70627467D01*
X153257798Y-70639923D01*
X153268952Y-70646500D01*
X153245282Y-70696058D01*
X153176963Y-70828391D01*
X153067546Y-71036834D01*
X152920579Y-71314722D01*
X152739612Y-71655390D01*
X152528195Y-72052173D01*
X152289876Y-72498405D01*
X152028206Y-72987421D01*
X151746732Y-73512557D01*
X151449005Y-74067147D01*
X151273866Y-74393000D01*
X151087312Y-74739943D01*
X149544567Y-74739943D01*
X149528942Y-74687038D01*
X149426485Y-74654162D01*
X149232839Y-74640641D01*
X148943648Y-74645803D01*
X148936549Y-74646106D01*
X148666449Y-74669720D01*
X148450378Y-74720592D01*
X148266492Y-74797033D01*
X147995297Y-74973688D01*
X147733852Y-75222923D01*
X147499469Y-75520376D01*
X147309459Y-75841686D01*
X147181133Y-76162493D01*
X147135776Y-76388196D01*
X147129619Y-76548841D01*
X147157194Y-76650619D01*
X147224839Y-76729876D01*
X147288499Y-76776163D01*
X147371223Y-76806019D01*
X147495011Y-76822875D01*
X147681863Y-76830158D01*
X147876271Y-76831400D01*
X148415565Y-76831400D01*
X148967665Y-75815400D01*
X149127459Y-75520755D01*
X149271299Y-75254412D01*
X149391940Y-75029879D01*
X149482136Y-74860664D01*
X149534642Y-74760274D01*
X149544567Y-74739943D01*
X151087312Y-74739943D01*
X149279827Y-78101400D01*
X147858614Y-78101400D01*
X147440132Y-78101103D01*
G36*
X123753333Y-76273099D02*
X123713130Y-76256575D01*
X123696300Y-76219169D01*
X123710115Y-76140795D01*
X123758990Y-76009909D01*
X123847343Y-75814967D01*
X123979591Y-75544423D01*
X124005127Y-75493332D01*
X124364593Y-74775768D01*
X124732997Y-74785270D01*
X124985789Y-74780372D01*
X125182080Y-74745954D01*
X125332581Y-74690119D01*
X125449212Y-74634444D01*
X125553068Y-74574895D01*
X125650159Y-74502892D01*
X125746499Y-74409857D01*
X125848099Y-74287212D01*
X125960972Y-74126378D01*
X126091129Y-73918776D01*
X126244583Y-73655830D01*
X126427345Y-73328959D01*
X126645427Y-72929586D01*
X126904842Y-72449132D01*
X126910506Y-72438615D01*
X127895400Y-70609471D01*
X128649528Y-70608936D01*
X129403655Y-70608400D01*
X129279309Y-70824300D01*
X129232594Y-70908377D01*
X129142596Y-71073175D01*
X129014069Y-71309894D01*
X128851771Y-71609730D01*
X128660458Y-71963881D01*
X128444885Y-72363545D01*
X128209810Y-72799919D01*
X127959987Y-73264201D01*
X127769636Y-73618300D01*
X126384308Y-76196400D01*
X125704754Y-76196400D01*
X125455295Y-76194476D01*
X125247006Y-76189201D01*
X125098483Y-76181327D01*
X125028319Y-76171605D01*
X125025200Y-76168977D01*
X125046352Y-76111198D01*
X125099896Y-75996424D01*
X125132218Y-75931781D01*
X125239236Y-75722009D01*
X125025274Y-75905153D01*
X124864199Y-76029843D01*
X124697098Y-76139390D01*
X124626156Y-76177999D01*
X124480586Y-76226820D01*
X124288168Y-76263525D01*
X124081252Y-76285329D01*
X123892191Y-76289448D01*
X123753333Y-76273099D01*
X123753333Y-76273099D01*
G37*
X123753333Y-76273099D02*
X123713130Y-76256575D01*
X123696300Y-76219169D01*
X123710115Y-76140795D01*
X123758990Y-76009909D01*
X123847343Y-75814967D01*
X123979591Y-75544423D01*
X124005127Y-75493332D01*
X124364593Y-74775768D01*
X124732997Y-74785270D01*
X124985789Y-74780372D01*
X125182080Y-74745954D01*
X125332581Y-74690119D01*
X125449212Y-74634444D01*
X125553068Y-74574895D01*
X125650159Y-74502892D01*
X125746499Y-74409857D01*
X125848099Y-74287212D01*
X125960972Y-74126378D01*
X126091129Y-73918776D01*
X126244583Y-73655830D01*
X126427345Y-73328959D01*
X126645427Y-72929586D01*
X126904842Y-72449132D01*
X126910506Y-72438615D01*
X127895400Y-70609471D01*
X128649528Y-70608936D01*
X129403655Y-70608400D01*
X129279309Y-70824300D01*
X129232594Y-70908377D01*
X129142596Y-71073175D01*
X129014069Y-71309894D01*
X128851771Y-71609730D01*
X128660458Y-71963881D01*
X128444885Y-72363545D01*
X128209810Y-72799919D01*
X127959987Y-73264201D01*
X127769636Y-73618300D01*
X126384308Y-76196400D01*
X125704754Y-76196400D01*
X125455295Y-76194476D01*
X125247006Y-76189201D01*
X125098483Y-76181327D01*
X125028319Y-76171605D01*
X125025200Y-76168977D01*
X125046352Y-76111198D01*
X125099896Y-75996424D01*
X125132218Y-75931781D01*
X125239236Y-75722009D01*
X125025274Y-75905153D01*
X124864199Y-76029843D01*
X124697098Y-76139390D01*
X124626156Y-76177999D01*
X124480586Y-76226820D01*
X124288168Y-76263525D01*
X124081252Y-76285329D01*
X123892191Y-76289448D01*
X123753333Y-76273099D01*
G36*
X121978624Y-72841411D02*
X121863479Y-72835699D01*
X121824800Y-72828521D01*
X121839931Y-72777436D01*
X121881254Y-72648789D01*
X121942661Y-72461346D01*
X122018049Y-72233875D01*
X122027264Y-72206221D01*
X122103053Y-71977625D01*
X122151899Y-71819126D01*
X122169093Y-71732669D01*
X122149924Y-71720196D01*
X122089683Y-71783650D01*
X121983659Y-71924975D01*
X121827144Y-72146112D01*
X121687009Y-72346589D01*
X121342200Y-72840178D01*
X120647758Y-72843600D01*
X120860364Y-72576900D01*
X120957343Y-72454643D01*
X121103646Y-72269426D01*
X121285893Y-72038232D01*
X121490698Y-71778039D01*
X121704679Y-71505828D01*
X121740986Y-71459604D01*
X122409000Y-70609007D01*
X122701100Y-70608704D01*
X122858293Y-70614553D01*
X122964817Y-70630011D01*
X122994403Y-70646500D01*
X122983068Y-70704937D01*
X122950668Y-70847185D01*
X122900714Y-71058470D01*
X122836714Y-71324021D01*
X122762180Y-71629064D01*
X122728900Y-71764100D01*
X122462194Y-72843600D01*
X122143497Y-72843600D01*
X121978624Y-72841411D01*
X121978624Y-72841411D01*
G37*
X121978624Y-72841411D02*
X121863479Y-72835699D01*
X121824800Y-72828521D01*
X121839931Y-72777436D01*
X121881254Y-72648789D01*
X121942661Y-72461346D01*
X122018049Y-72233875D01*
X122027264Y-72206221D01*
X122103053Y-71977625D01*
X122151899Y-71819126D01*
X122169093Y-71732669D01*
X122149924Y-71720196D01*
X122089683Y-71783650D01*
X121983659Y-71924975D01*
X121827144Y-72146112D01*
X121687009Y-72346589D01*
X121342200Y-72840178D01*
X120647758Y-72843600D01*
X120860364Y-72576900D01*
X120957343Y-72454643D01*
X121103646Y-72269426D01*
X121285893Y-72038232D01*
X121490698Y-71778039D01*
X121704679Y-71505828D01*
X121740986Y-71459604D01*
X122409000Y-70609007D01*
X122701100Y-70608704D01*
X122858293Y-70614553D01*
X122964817Y-70630011D01*
X122994403Y-70646500D01*
X122983068Y-70704937D01*
X122950668Y-70847185D01*
X122900714Y-71058470D01*
X122836714Y-71324021D01*
X122762180Y-71629064D01*
X122728900Y-71764100D01*
X122462194Y-72843600D01*
X122143497Y-72843600D01*
X121978624Y-72841411D01*
G36*
X121114782Y-71233602D02*
X121029071Y-71138947D01*
X121019320Y-71001246D01*
X121089720Y-70836907D01*
X121143516Y-70764698D01*
X121262679Y-70653639D01*
X121395895Y-70611561D01*
X121467496Y-70608400D01*
X121608912Y-70626147D01*
X121709091Y-70669841D01*
X121719168Y-70679741D01*
X121756148Y-70794624D01*
X121720429Y-70933035D01*
X121629562Y-71071842D01*
X121501098Y-71187910D01*
X121352588Y-71258106D01*
X121272263Y-71268800D01*
X121114782Y-71233602D01*
X121114782Y-71233602D01*
G37*
X121114782Y-71233602D02*
X121029071Y-71138947D01*
X121019320Y-71001246D01*
X121089720Y-70836907D01*
X121143516Y-70764698D01*
X121262679Y-70653639D01*
X121395895Y-70611561D01*
X121467496Y-70608400D01*
X121608912Y-70626147D01*
X121709091Y-70669841D01*
X121719168Y-70679741D01*
X121756148Y-70794624D01*
X121720429Y-70933035D01*
X121629562Y-71071842D01*
X121501098Y-71187910D01*
X121352588Y-71258106D01*
X121272263Y-71268800D01*
X121114782Y-71233602D01*
G36*
X117917166Y-73598089D02*
X117927523Y-73550759D01*
X117981072Y-73424616D01*
X118072640Y-73230197D01*
X118197058Y-72978043D01*
X118349155Y-72678690D01*
X118523760Y-72342678D01*
X118655010Y-72094300D01*
X119445422Y-70608400D01*
X119746111Y-70608400D01*
X119905655Y-70613499D01*
X120014685Y-70626734D01*
X120046800Y-70641633D01*
X120023577Y-70693880D01*
X119958427Y-70822386D01*
X119858132Y-71014248D01*
X119729475Y-71256562D01*
X119579236Y-71536424D01*
X119483856Y-71712755D01*
X119325280Y-72007566D01*
X119185780Y-72271623D01*
X119071847Y-72492245D01*
X118989973Y-72656751D01*
X118946649Y-72752462D01*
X118941842Y-72771575D01*
X118997644Y-72768768D01*
X119116657Y-72738352D01*
X119199182Y-72711951D01*
X119346872Y-72668160D01*
X119456437Y-72647437D01*
X119486217Y-72648599D01*
X119490598Y-72697481D01*
X119450162Y-72806597D01*
X119391401Y-72920231D01*
X119245960Y-73174662D01*
X118607846Y-73395320D01*
X118367542Y-73475833D01*
X118160363Y-73540404D01*
X118005812Y-73583306D01*
X117923391Y-73598816D01*
X117917166Y-73598089D01*
X117917166Y-73598089D01*
G37*
X117917166Y-73598089D02*
X117927523Y-73550759D01*
X117981072Y-73424616D01*
X118072640Y-73230197D01*
X118197058Y-72978043D01*
X118349155Y-72678690D01*
X118523760Y-72342678D01*
X118655010Y-72094300D01*
X119445422Y-70608400D01*
X119746111Y-70608400D01*
X119905655Y-70613499D01*
X120014685Y-70626734D01*
X120046800Y-70641633D01*
X120023577Y-70693880D01*
X119958427Y-70822386D01*
X119858132Y-71014248D01*
X119729475Y-71256562D01*
X119579236Y-71536424D01*
X119483856Y-71712755D01*
X119325280Y-72007566D01*
X119185780Y-72271623D01*
X119071847Y-72492245D01*
X118989973Y-72656751D01*
X118946649Y-72752462D01*
X118941842Y-72771575D01*
X118997644Y-72768768D01*
X119116657Y-72738352D01*
X119199182Y-72711951D01*
X119346872Y-72668160D01*
X119456437Y-72647437D01*
X119486217Y-72648599D01*
X119490598Y-72697481D01*
X119450162Y-72806597D01*
X119391401Y-72920231D01*
X119245960Y-73174662D01*
X118607846Y-73395320D01*
X118367542Y-73475833D01*
X118160363Y-73540404D01*
X118005812Y-73583306D01*
X117923391Y-73598816D01*
X117917166Y-73598089D01*
G36*
X92147502Y-84592622D02*
X92134171Y-84748399D01*
X92107508Y-84829767D01*
X92052536Y-84863904D01*
X91992500Y-84873874D01*
X91882817Y-84859777D01*
X91853018Y-84785068D01*
X91903728Y-84652695D01*
X91935010Y-84601758D01*
X91986758Y-84497373D01*
X91970356Y-84421957D01*
X91954189Y-84400345D01*
X91848691Y-84341642D01*
X91694324Y-84327253D01*
X91534556Y-84359107D01*
X91488769Y-84379712D01*
X91425551Y-84429247D01*
X91404564Y-84507223D01*
X91417322Y-84647644D01*
X91419022Y-84659112D01*
X91433745Y-84800875D01*
X91418737Y-84867699D01*
X91375100Y-84883200D01*
X91295232Y-84837893D01*
X91224993Y-84723908D01*
X91176051Y-84574143D01*
X91160073Y-84421501D01*
X91176935Y-84324400D01*
X91292326Y-84145276D01*
X91465594Y-84029225D01*
X91668796Y-83987259D01*
X91873990Y-84030390D01*
X91895923Y-84041029D01*
X92042900Y-84144549D01*
X92124022Y-84281602D01*
X92150531Y-84476838D01*
X92147502Y-84592622D01*
X92147502Y-84592622D01*
G37*
X92147502Y-84592622D02*
X92134171Y-84748399D01*
X92107508Y-84829767D01*
X92052536Y-84863904D01*
X91992500Y-84873874D01*
X91882817Y-84859777D01*
X91853018Y-84785068D01*
X91903728Y-84652695D01*
X91935010Y-84601758D01*
X91986758Y-84497373D01*
X91970356Y-84421957D01*
X91954189Y-84400345D01*
X91848691Y-84341642D01*
X91694324Y-84327253D01*
X91534556Y-84359107D01*
X91488769Y-84379712D01*
X91425551Y-84429247D01*
X91404564Y-84507223D01*
X91417322Y-84647644D01*
X91419022Y-84659112D01*
X91433745Y-84800875D01*
X91418737Y-84867699D01*
X91375100Y-84883200D01*
X91295232Y-84837893D01*
X91224993Y-84723908D01*
X91176051Y-84574143D01*
X91160073Y-84421501D01*
X91176935Y-84324400D01*
X91292326Y-84145276D01*
X91465594Y-84029225D01*
X91668796Y-83987259D01*
X91873990Y-84030390D01*
X91895923Y-84041029D01*
X92042900Y-84144549D01*
X92124022Y-84281602D01*
X92150531Y-84476838D01*
X92147502Y-84592622D01*
G36*
X92131979Y-88064824D02*
X92046580Y-88174268D01*
X91888602Y-88227044D01*
X91738872Y-88236000D01*
X91528537Y-88255988D01*
X91394837Y-88313069D01*
X91390102Y-88317176D01*
X91294796Y-88372487D01*
X91232510Y-88334495D01*
X91202214Y-88201816D01*
X91199255Y-88061136D01*
X91197712Y-87900100D01*
X91186990Y-87780875D01*
X91176648Y-87743609D01*
X91175635Y-87668024D01*
X91209470Y-87572763D01*
X91307300Y-87458604D01*
X91430384Y-87429409D01*
X91437985Y-87432302D01*
X91437985Y-87742509D01*
X91379732Y-87766050D01*
X91380836Y-87831928D01*
X91399354Y-87859522D01*
X91485749Y-87921509D01*
X91528821Y-87931200D01*
X91592463Y-87903563D01*
X91576758Y-87835522D01*
X91524826Y-87780646D01*
X91437985Y-87742509D01*
X91437985Y-87432302D01*
X91559762Y-87478666D01*
X91676479Y-87599863D01*
X91753228Y-87759542D01*
X91809141Y-87873456D01*
X91872751Y-87929879D01*
X91882140Y-87931200D01*
X91944443Y-87897583D01*
X91937079Y-87809293D01*
X91876585Y-87705590D01*
X91810081Y-87581825D01*
X91822241Y-87500341D01*
X91900720Y-87474000D01*
X92016015Y-87520361D01*
X92105438Y-87642742D01*
X92153446Y-87816091D01*
X92157600Y-87888074D01*
X92131979Y-88064824D01*
X92131979Y-88064824D01*
G37*
X92131979Y-88064824D02*
X92046580Y-88174268D01*
X91888602Y-88227044D01*
X91738872Y-88236000D01*
X91528537Y-88255988D01*
X91394837Y-88313069D01*
X91390102Y-88317176D01*
X91294796Y-88372487D01*
X91232510Y-88334495D01*
X91202214Y-88201816D01*
X91199255Y-88061136D01*
X91197712Y-87900100D01*
X91186990Y-87780875D01*
X91176648Y-87743609D01*
X91175635Y-87668024D01*
X91209470Y-87572763D01*
X91307300Y-87458604D01*
X91430384Y-87429409D01*
X91437985Y-87432302D01*
X91437985Y-87742509D01*
X91379732Y-87766050D01*
X91380836Y-87831928D01*
X91399354Y-87859522D01*
X91485749Y-87921509D01*
X91528821Y-87931200D01*
X91592463Y-87903563D01*
X91576758Y-87835522D01*
X91524826Y-87780646D01*
X91437985Y-87742509D01*
X91437985Y-87432302D01*
X91559762Y-87478666D01*
X91676479Y-87599863D01*
X91753228Y-87759542D01*
X91809141Y-87873456D01*
X91872751Y-87929879D01*
X91882140Y-87931200D01*
X91944443Y-87897583D01*
X91937079Y-87809293D01*
X91876585Y-87705590D01*
X91810081Y-87581825D01*
X91822241Y-87500341D01*
X91900720Y-87474000D01*
X92016015Y-87520361D01*
X92105438Y-87642742D01*
X92153446Y-87816091D01*
X92157600Y-87888074D01*
X92131979Y-88064824D01*
G36*
X92176558Y-90220639D02*
X92147380Y-90350267D01*
X92098911Y-90407258D01*
X92005538Y-90420379D01*
X91998708Y-90420400D01*
X91885185Y-90406170D01*
X91860208Y-90354431D01*
X91918421Y-90251605D01*
X91927385Y-90239609D01*
X91987448Y-90125717D01*
X92003585Y-90052100D01*
X91986496Y-89971969D01*
X91939503Y-89975464D01*
X91875818Y-90054212D01*
X91820880Y-90167882D01*
X91712045Y-90356489D01*
X91583838Y-90456871D01*
X91451427Y-90476350D01*
X91329980Y-90422249D01*
X91234663Y-90301890D01*
X91180646Y-90122597D01*
X91183095Y-89891693D01*
X91187680Y-89862176D01*
X91245543Y-89715879D01*
X91352316Y-89657821D01*
X91478376Y-89679294D01*
X91521212Y-89711386D01*
X91505707Y-89771774D01*
X91450009Y-89856532D01*
X91368690Y-90001029D01*
X91349042Y-90109313D01*
X91392977Y-90163410D01*
X91417061Y-90166400D01*
X91478525Y-90122789D01*
X91538363Y-90015073D01*
X91548594Y-89986800D01*
X91644088Y-89801524D01*
X91767162Y-89700569D01*
X91900071Y-89677326D01*
X92025068Y-89725186D01*
X92124407Y-89837542D01*
X92180342Y-90007785D01*
X92176558Y-90220639D01*
X92176558Y-90220639D01*
G37*
X92176558Y-90220639D02*
X92147380Y-90350267D01*
X92098911Y-90407258D01*
X92005538Y-90420379D01*
X91998708Y-90420400D01*
X91885185Y-90406170D01*
X91860208Y-90354431D01*
X91918421Y-90251605D01*
X91927385Y-90239609D01*
X91987448Y-90125717D01*
X92003585Y-90052100D01*
X91986496Y-89971969D01*
X91939503Y-89975464D01*
X91875818Y-90054212D01*
X91820880Y-90167882D01*
X91712045Y-90356489D01*
X91583838Y-90456871D01*
X91451427Y-90476350D01*
X91329980Y-90422249D01*
X91234663Y-90301890D01*
X91180646Y-90122597D01*
X91183095Y-89891693D01*
X91187680Y-89862176D01*
X91245543Y-89715879D01*
X91352316Y-89657821D01*
X91478376Y-89679294D01*
X91521212Y-89711386D01*
X91505707Y-89771774D01*
X91450009Y-89856532D01*
X91368690Y-90001029D01*
X91349042Y-90109313D01*
X91392977Y-90163410D01*
X91417061Y-90166400D01*
X91478525Y-90122789D01*
X91538363Y-90015073D01*
X91548594Y-89986800D01*
X91644088Y-89801524D01*
X91767162Y-89700569D01*
X91900071Y-89677326D01*
X92025068Y-89725186D01*
X92124407Y-89837542D01*
X92180342Y-90007785D01*
X92176558Y-90220639D01*
G36*
X92599673Y-81799251D02*
X92552486Y-82002986D01*
X92470531Y-82129636D01*
X92442096Y-82151922D01*
X92312120Y-82188776D01*
X92156600Y-82172289D01*
X92032193Y-82108832D01*
X92028683Y-82105425D01*
X91960371Y-82048215D01*
X91918646Y-82067709D01*
X91893954Y-82108241D01*
X91782627Y-82215830D01*
X91628362Y-82258128D01*
X91463886Y-82237645D01*
X91321930Y-82156889D01*
X91250203Y-82058881D01*
X91224901Y-81958486D01*
X91206757Y-81801003D01*
X91196121Y-81612606D01*
X91193344Y-81419467D01*
X91198777Y-81247756D01*
X91212772Y-81123647D01*
X91235679Y-81073311D01*
X91236980Y-81073200D01*
X91303185Y-81107955D01*
X91344800Y-81149400D01*
X91404914Y-81188170D01*
X91518932Y-81212056D01*
X91632667Y-81219108D01*
X91632667Y-81581200D01*
X91444935Y-81597721D01*
X91352010Y-81648565D01*
X91352404Y-81735647D01*
X91428874Y-81843899D01*
X91541149Y-81925854D01*
X91653959Y-81911562D01*
X91751200Y-81835200D01*
X91843879Y-81714923D01*
X91842571Y-81633094D01*
X91747115Y-81589362D01*
X91632667Y-81581200D01*
X91632667Y-81219108D01*
X91704510Y-81223564D01*
X91881423Y-81225600D01*
X92091575Y-81220472D01*
X92199934Y-81211672D01*
X92199934Y-81581200D01*
X92056028Y-81601454D01*
X92005419Y-81659797D01*
X92049747Y-81752603D01*
X92099454Y-81803151D01*
X92221565Y-81858993D01*
X92339941Y-81821175D01*
X92411224Y-81734302D01*
X92437466Y-81648149D01*
X92392125Y-81600404D01*
X92262990Y-81582221D01*
X92199934Y-81581200D01*
X92199934Y-81211672D01*
X92261010Y-81206711D01*
X92365553Y-81186751D01*
X92386200Y-81174800D01*
X92457852Y-81132124D01*
X92516199Y-81124000D01*
X92566511Y-81133686D01*
X92596124Y-81176657D01*
X92610391Y-81273778D01*
X92614665Y-81445917D01*
X92614800Y-81508339D01*
X92599673Y-81799251D01*
X92599673Y-81799251D01*
G37*
X92599673Y-81799251D02*
X92552486Y-82002986D01*
X92470531Y-82129636D01*
X92442096Y-82151922D01*
X92312120Y-82188776D01*
X92156600Y-82172289D01*
X92032193Y-82108832D01*
X92028683Y-82105425D01*
X91960371Y-82048215D01*
X91918646Y-82067709D01*
X91893954Y-82108241D01*
X91782627Y-82215830D01*
X91628362Y-82258128D01*
X91463886Y-82237645D01*
X91321930Y-82156889D01*
X91250203Y-82058881D01*
X91224901Y-81958486D01*
X91206757Y-81801003D01*
X91196121Y-81612606D01*
X91193344Y-81419467D01*
X91198777Y-81247756D01*
X91212772Y-81123647D01*
X91235679Y-81073311D01*
X91236980Y-81073200D01*
X91303185Y-81107955D01*
X91344800Y-81149400D01*
X91404914Y-81188170D01*
X91518932Y-81212056D01*
X91632667Y-81219108D01*
X91632667Y-81581200D01*
X91444935Y-81597721D01*
X91352010Y-81648565D01*
X91352404Y-81735647D01*
X91428874Y-81843899D01*
X91541149Y-81925854D01*
X91653959Y-81911562D01*
X91751200Y-81835200D01*
X91843879Y-81714923D01*
X91842571Y-81633094D01*
X91747115Y-81589362D01*
X91632667Y-81581200D01*
X91632667Y-81219108D01*
X91704510Y-81223564D01*
X91881423Y-81225600D01*
X92091575Y-81220472D01*
X92199934Y-81211672D01*
X92199934Y-81581200D01*
X92056028Y-81601454D01*
X92005419Y-81659797D01*
X92049747Y-81752603D01*
X92099454Y-81803151D01*
X92221565Y-81858993D01*
X92339941Y-81821175D01*
X92411224Y-81734302D01*
X92437466Y-81648149D01*
X92392125Y-81600404D01*
X92262990Y-81582221D01*
X92199934Y-81581200D01*
X92199934Y-81211672D01*
X92261010Y-81206711D01*
X92365553Y-81186751D01*
X92386200Y-81174800D01*
X92457852Y-81132124D01*
X92516199Y-81124000D01*
X92566511Y-81133686D01*
X92596124Y-81176657D01*
X92610391Y-81273778D01*
X92614665Y-81445917D01*
X92614800Y-81508339D01*
X92599673Y-81799251D01*
G36*
X92142573Y-82812934D02*
X92107890Y-82851200D01*
X92087185Y-82889880D01*
X92114568Y-82974960D01*
X92149028Y-83118470D01*
X92112712Y-83216779D01*
X92014277Y-83250457D01*
X91992728Y-83248462D01*
X91907597Y-83211618D01*
X91877643Y-83114879D01*
X91876344Y-83080370D01*
X91834649Y-82943660D01*
X91728259Y-82868160D01*
X91579184Y-82862121D01*
X91438155Y-82916141D01*
X91322285Y-82975485D01*
X91243407Y-83003308D01*
X91239084Y-83003600D01*
X91213517Y-82957663D01*
X91196561Y-82839166D01*
X91192400Y-82724200D01*
X91199786Y-82553657D01*
X91224983Y-82466442D01*
X91265602Y-82444800D01*
X91352092Y-82475760D01*
X91370200Y-82495600D01*
X91441713Y-82530444D01*
X91575124Y-82544591D01*
X91733033Y-82538853D01*
X91878042Y-82514038D01*
X91956640Y-82482900D01*
X92043536Y-82445894D01*
X92098499Y-82482094D01*
X92107573Y-82495600D01*
X92143759Y-82595012D01*
X92155437Y-82714191D01*
X92142573Y-82812934D01*
X92142573Y-82812934D01*
G37*
X92142573Y-82812934D02*
X92107890Y-82851200D01*
X92087185Y-82889880D01*
X92114568Y-82974960D01*
X92149028Y-83118470D01*
X92112712Y-83216779D01*
X92014277Y-83250457D01*
X91992728Y-83248462D01*
X91907597Y-83211618D01*
X91877643Y-83114879D01*
X91876344Y-83080370D01*
X91834649Y-82943660D01*
X91728259Y-82868160D01*
X91579184Y-82862121D01*
X91438155Y-82916141D01*
X91322285Y-82975485D01*
X91243407Y-83003308D01*
X91239084Y-83003600D01*
X91213517Y-82957663D01*
X91196561Y-82839166D01*
X91192400Y-82724200D01*
X91199786Y-82553657D01*
X91224983Y-82466442D01*
X91265602Y-82444800D01*
X91352092Y-82475760D01*
X91370200Y-82495600D01*
X91441713Y-82530444D01*
X91575124Y-82544591D01*
X91733033Y-82538853D01*
X91878042Y-82514038D01*
X91956640Y-82482900D01*
X92043536Y-82445894D01*
X92098499Y-82482094D01*
X92107573Y-82495600D01*
X92143759Y-82595012D01*
X92155437Y-82714191D01*
X92142573Y-82812934D01*
G36*
X91789300Y-83779145D02*
X91589390Y-83795249D01*
X91416673Y-83816898D01*
X91307954Y-83839460D01*
X91306700Y-83839883D01*
X91241941Y-83855745D01*
X91207835Y-83832147D01*
X91194587Y-83747998D01*
X91192400Y-83593724D01*
X91199586Y-83438867D01*
X91218157Y-83335245D01*
X91236980Y-83308400D01*
X91303185Y-83343155D01*
X91344800Y-83384600D01*
X91441193Y-83435528D01*
X91595273Y-83457454D01*
X91767388Y-83450477D01*
X91917884Y-83414700D01*
X91976805Y-83382988D01*
X92071050Y-83343741D01*
X92130146Y-83397055D01*
X92155560Y-83544673D01*
X92156823Y-83596486D01*
X92157600Y-83757573D01*
X91789300Y-83779145D01*
X91789300Y-83779145D01*
G37*
X91789300Y-83779145D02*
X91589390Y-83795249D01*
X91416673Y-83816898D01*
X91307954Y-83839460D01*
X91306700Y-83839883D01*
X91241941Y-83855745D01*
X91207835Y-83832147D01*
X91194587Y-83747998D01*
X91192400Y-83593724D01*
X91199586Y-83438867D01*
X91218157Y-83335245D01*
X91236980Y-83308400D01*
X91303185Y-83343155D01*
X91344800Y-83384600D01*
X91441193Y-83435528D01*
X91595273Y-83457454D01*
X91767388Y-83450477D01*
X91917884Y-83414700D01*
X91976805Y-83382988D01*
X92071050Y-83343741D01*
X92130146Y-83397055D01*
X92155560Y-83544673D01*
X92156823Y-83596486D01*
X92157600Y-83757573D01*
X91789300Y-83779145D01*
G36*
X92157366Y-85721988D02*
X92066407Y-85877468D01*
X91924916Y-85989018D01*
X91738763Y-86036762D01*
X91612353Y-86027329D01*
X91397256Y-85945956D01*
X91258227Y-85797326D01*
X91195990Y-85582340D01*
X91192400Y-85503964D01*
X91205925Y-85326282D01*
X91255174Y-85207812D01*
X91309143Y-85146836D01*
X91500922Y-85029202D01*
X91685854Y-85006819D01*
X91685854Y-85347941D01*
X91508174Y-85378412D01*
X91475108Y-85389942D01*
X91369105Y-85463222D01*
X91354190Y-85553438D01*
X91433230Y-85637920D01*
X91443061Y-85643412D01*
X91590625Y-85688553D01*
X91750656Y-85688193D01*
X91892495Y-85649161D01*
X91985481Y-85578286D01*
X92005200Y-85518200D01*
X91960880Y-85424250D01*
X91845594Y-85365359D01*
X91685854Y-85347941D01*
X91685854Y-85006819D01*
X91714376Y-85003366D01*
X91898481Y-85058352D01*
X92068350Y-85190762D01*
X92164207Y-85358757D01*
X92191923Y-85542459D01*
X92157366Y-85721988D01*
X92157366Y-85721988D01*
G37*
X92157366Y-85721988D02*
X92066407Y-85877468D01*
X91924916Y-85989018D01*
X91738763Y-86036762D01*
X91612353Y-86027329D01*
X91397256Y-85945956D01*
X91258227Y-85797326D01*
X91195990Y-85582340D01*
X91192400Y-85503964D01*
X91205925Y-85326282D01*
X91255174Y-85207812D01*
X91309143Y-85146836D01*
X91500922Y-85029202D01*
X91685854Y-85006819D01*
X91685854Y-85347941D01*
X91508174Y-85378412D01*
X91475108Y-85389942D01*
X91369105Y-85463222D01*
X91354190Y-85553438D01*
X91433230Y-85637920D01*
X91443061Y-85643412D01*
X91590625Y-85688553D01*
X91750656Y-85688193D01*
X91892495Y-85649161D01*
X91985481Y-85578286D01*
X92005200Y-85518200D01*
X91960880Y-85424250D01*
X91845594Y-85365359D01*
X91685854Y-85347941D01*
X91685854Y-85006819D01*
X91714376Y-85003366D01*
X91898481Y-85058352D01*
X92068350Y-85190762D01*
X92164207Y-85358757D01*
X92191923Y-85542459D01*
X92157366Y-85721988D01*
G36*
X92608720Y-86676211D02*
X92583573Y-86779406D01*
X92528999Y-86804591D01*
X92434641Y-86763377D01*
X92390055Y-86735254D01*
X92290643Y-86693042D01*
X92141367Y-86672023D01*
X91919918Y-86669592D01*
X91845743Y-86671754D01*
X91421000Y-86686600D01*
X91405910Y-86840598D01*
X91425254Y-86990897D01*
X91520210Y-87116154D01*
X91622026Y-87226678D01*
X91634797Y-87290377D01*
X91555201Y-87314760D01*
X91433700Y-87311820D01*
X91217800Y-87296200D01*
X91203382Y-86750100D01*
X91199023Y-86503732D01*
X91202696Y-86342439D01*
X91216211Y-86249886D01*
X91241377Y-86209738D01*
X91263884Y-86204000D01*
X91351107Y-86234288D01*
X91370200Y-86254800D01*
X91431848Y-86276686D01*
X91572700Y-86293717D01*
X91770401Y-86303782D01*
X91908193Y-86305600D01*
X92150437Y-86302517D01*
X92308450Y-86291636D01*
X92399460Y-86270508D01*
X92440695Y-86236681D01*
X92444030Y-86229400D01*
X92507992Y-86161885D01*
X92544036Y-86153200D01*
X92584570Y-86180745D01*
X92606953Y-86274278D01*
X92614687Y-86450142D01*
X92614800Y-86483400D01*
X92608720Y-86676211D01*
X92608720Y-86676211D01*
G37*
X92608720Y-86676211D02*
X92583573Y-86779406D01*
X92528999Y-86804591D01*
X92434641Y-86763377D01*
X92390055Y-86735254D01*
X92290643Y-86693042D01*
X92141367Y-86672023D01*
X91919918Y-86669592D01*
X91845743Y-86671754D01*
X91421000Y-86686600D01*
X91405910Y-86840598D01*
X91425254Y-86990897D01*
X91520210Y-87116154D01*
X91622026Y-87226678D01*
X91634797Y-87290377D01*
X91555201Y-87314760D01*
X91433700Y-87311820D01*
X91217800Y-87296200D01*
X91203382Y-86750100D01*
X91199023Y-86503732D01*
X91202696Y-86342439D01*
X91216211Y-86249886D01*
X91241377Y-86209738D01*
X91263884Y-86204000D01*
X91351107Y-86234288D01*
X91370200Y-86254800D01*
X91431848Y-86276686D01*
X91572700Y-86293717D01*
X91770401Y-86303782D01*
X91908193Y-86305600D01*
X92150437Y-86302517D01*
X92308450Y-86291636D01*
X92399460Y-86270508D01*
X92440695Y-86236681D01*
X92444030Y-86229400D01*
X92507992Y-86161885D01*
X92544036Y-86153200D01*
X92584570Y-86180745D01*
X92606953Y-86274278D01*
X92614687Y-86450142D01*
X92614800Y-86483400D01*
X92608720Y-86676211D01*
G36*
X92653435Y-88718600D02*
X92638587Y-88809130D01*
X92596203Y-88856457D01*
X92498829Y-88877635D01*
X92383969Y-88885991D01*
X92127737Y-88900983D01*
X92147887Y-89073582D01*
X92126871Y-89261191D01*
X92021845Y-89401397D01*
X91842812Y-89485320D01*
X91660765Y-89506000D01*
X91447186Y-89481631D01*
X91304802Y-89400751D01*
X91223516Y-89251697D01*
X91193227Y-89022806D01*
X91192400Y-88965092D01*
X91197636Y-88797044D01*
X91211220Y-88672552D01*
X91226267Y-88625466D01*
X91288798Y-88610761D01*
X91428640Y-88599279D01*
X91621519Y-88592623D01*
X91666455Y-88592233D01*
X91666455Y-88897177D01*
X91486408Y-88915681D01*
X91374289Y-88965709D01*
X91339747Y-89035983D01*
X91392430Y-89115226D01*
X91448748Y-89151656D01*
X91594596Y-89191435D01*
X91753965Y-89181436D01*
X91883402Y-89127714D01*
X91923877Y-89085453D01*
X91941937Y-88991640D01*
X91868596Y-88927518D01*
X91711079Y-88898369D01*
X91666455Y-88897177D01*
X91666455Y-88592233D01*
X91739290Y-88591600D01*
X92032053Y-88583149D01*
X92243964Y-88556134D01*
X92394492Y-88508057D01*
X92395959Y-88507364D01*
X92540065Y-88461610D01*
X92624903Y-88494629D01*
X92656714Y-88611544D01*
X92653435Y-88718600D01*
X92653435Y-88718600D01*
G37*
X92653435Y-88718600D02*
X92638587Y-88809130D01*
X92596203Y-88856457D01*
X92498829Y-88877635D01*
X92383969Y-88885991D01*
X92127737Y-88900983D01*
X92147887Y-89073582D01*
X92126871Y-89261191D01*
X92021845Y-89401397D01*
X91842812Y-89485320D01*
X91660765Y-89506000D01*
X91447186Y-89481631D01*
X91304802Y-89400751D01*
X91223516Y-89251697D01*
X91193227Y-89022806D01*
X91192400Y-88965092D01*
X91197636Y-88797044D01*
X91211220Y-88672552D01*
X91226267Y-88625466D01*
X91288798Y-88610761D01*
X91428640Y-88599279D01*
X91621519Y-88592623D01*
X91666455Y-88592233D01*
X91666455Y-88897177D01*
X91486408Y-88915681D01*
X91374289Y-88965709D01*
X91339747Y-89035983D01*
X91392430Y-89115226D01*
X91448748Y-89151656D01*
X91594596Y-89191435D01*
X91753965Y-89181436D01*
X91883402Y-89127714D01*
X91923877Y-89085453D01*
X91941937Y-88991640D01*
X91868596Y-88927518D01*
X91711079Y-88898369D01*
X91666455Y-88897177D01*
X91666455Y-88592233D01*
X91739290Y-88591600D01*
X92032053Y-88583149D01*
X92243964Y-88556134D01*
X92394492Y-88508057D01*
X92395959Y-88507364D01*
X92540065Y-88461610D01*
X92624903Y-88494629D01*
X92656714Y-88611544D01*
X92653435Y-88718600D01*
G36*
X92568682Y-83696104D02*
X92468509Y-83753223D01*
X92449700Y-83756274D01*
X92351282Y-83755639D01*
X92314599Y-83702673D01*
X92310000Y-83619572D01*
X92325469Y-83500897D01*
X92361255Y-83435119D01*
X92447139Y-83423265D01*
X92516609Y-83436481D01*
X92600102Y-83502512D01*
X92615003Y-83600793D01*
X92568682Y-83696104D01*
X92568682Y-83696104D01*
G37*
X92568682Y-83696104D02*
X92468509Y-83753223D01*
X92449700Y-83756274D01*
X92351282Y-83755639D01*
X92314599Y-83702673D01*
X92310000Y-83619572D01*
X92325469Y-83500897D01*
X92361255Y-83435119D01*
X92447139Y-83423265D01*
X92516609Y-83436481D01*
X92600102Y-83502512D01*
X92615003Y-83600793D01*
X92568682Y-83696104D01*
G36*
X101092676Y-86069870D02*
X101064499Y-86244710D01*
X100997363Y-86360902D01*
X100874763Y-86437504D01*
X100680193Y-86493574D01*
X100478191Y-86533416D01*
X100175257Y-86594844D01*
X99954625Y-86660311D01*
X99797582Y-86744730D01*
X99685412Y-86863015D01*
X99599403Y-87030082D01*
X99520841Y-87260843D01*
X99506869Y-87307515D01*
X99463818Y-87496070D01*
X99464026Y-87657988D01*
X99515357Y-87816320D01*
X99625680Y-87994113D01*
X99802861Y-88214416D01*
X99825336Y-88240572D01*
X99994608Y-88448897D01*
X100096132Y-88617772D01*
X100128256Y-88767462D01*
X100089324Y-88918235D01*
X99977683Y-89090356D01*
X99791679Y-89304093D01*
X99733464Y-89366300D01*
X99596506Y-89488544D01*
X99462307Y-89547568D01*
X99311395Y-89542444D01*
X99124301Y-89472247D01*
X98881553Y-89336050D01*
X98863390Y-89324895D01*
X98631727Y-89187401D01*
X98457370Y-89104620D01*
X98314087Y-89073443D01*
X98175642Y-89090760D01*
X98015803Y-89153461D01*
X97900344Y-89210737D01*
X97691730Y-89326055D01*
X97544900Y-89436535D01*
X97447978Y-89563817D01*
X97389088Y-89729543D01*
X97356356Y-89955352D01*
X97339200Y-90233300D01*
X97313800Y-90801400D01*
X97135094Y-90888849D01*
X96990546Y-90938968D01*
X96790324Y-90983176D01*
X96598989Y-91009515D01*
X96402980Y-91022565D01*
X96263693Y-91009005D01*
X96163342Y-90953979D01*
X96084141Y-90842634D01*
X96008304Y-90660113D01*
X95940219Y-90459314D01*
X95841923Y-90189642D01*
X95743996Y-90000510D01*
X95630131Y-89872236D01*
X95484025Y-89785139D01*
X95339063Y-89733682D01*
X95104473Y-89674358D01*
X94916587Y-89659290D01*
X94755034Y-89696979D01*
X94599443Y-89795927D01*
X94429445Y-89964637D01*
X94239876Y-90192458D01*
X94104295Y-90357176D01*
X94006159Y-90455940D01*
X93923406Y-90505145D01*
X93833973Y-90521186D01*
X93796408Y-90522000D01*
X93594865Y-90489412D01*
X93382783Y-90402445D01*
X93182313Y-90277296D01*
X93015606Y-90130161D01*
X92904814Y-89977236D01*
X92871301Y-89845592D01*
X92890892Y-89780755D01*
X92943580Y-89639062D01*
X93022839Y-89437212D01*
X93122141Y-89191904D01*
X93207575Y-88985300D01*
X93319045Y-88722782D01*
X93418885Y-88496447D01*
X93500053Y-88321567D01*
X93555506Y-88213416D01*
X93576521Y-88185200D01*
X93626336Y-88222236D01*
X93706462Y-88314285D01*
X93730096Y-88345347D01*
X93799142Y-88446498D01*
X93822288Y-88526153D01*
X93803298Y-88626995D01*
X93764798Y-88739047D01*
X93716051Y-88881119D01*
X93686006Y-88980347D01*
X93681349Y-89003949D01*
X93722277Y-89054838D01*
X93823257Y-89129511D01*
X93952366Y-89208591D01*
X94077680Y-89272699D01*
X94167275Y-89302455D01*
X94173669Y-89302800D01*
X94259673Y-89269153D01*
X94378810Y-89183685D01*
X94441459Y-89127105D01*
X94621400Y-88951411D01*
X95383400Y-89008685D01*
X95693511Y-89030328D01*
X95927475Y-89041215D01*
X96110242Y-89040668D01*
X96266763Y-89028012D01*
X96421991Y-89002569D01*
X96540974Y-88977298D01*
X97080988Y-88806563D01*
X97579917Y-88550080D01*
X98026888Y-88216945D01*
X98411025Y-87816257D01*
X98721455Y-87357111D01*
X98884759Y-87016485D01*
X98950358Y-86851549D01*
X98997308Y-86726823D01*
X99015596Y-86668934D01*
X99015601Y-86668697D01*
X98986253Y-86688631D01*
X98910808Y-86767410D01*
X98843328Y-86844174D01*
X98696987Y-86985344D01*
X98510451Y-87127012D01*
X98398828Y-87196218D01*
X98263961Y-87266345D01*
X98146082Y-87310618D01*
X98014828Y-87334905D01*
X97839838Y-87345072D01*
X97618600Y-87347000D01*
X97316211Y-87336707D01*
X97070262Y-87298335D01*
X96854019Y-87220642D01*
X96640747Y-87092389D01*
X96403712Y-86902332D01*
X96264847Y-86777788D01*
X96020402Y-86567295D01*
X95812268Y-86425520D01*
X95614882Y-86340594D01*
X95402681Y-86300647D01*
X95220861Y-86293066D01*
X94890444Y-86336605D01*
X94598123Y-86459368D01*
X94357151Y-86649030D01*
X94180782Y-86893264D01*
X94082270Y-87179744D01*
X94066050Y-87367046D01*
X94102517Y-87665545D01*
X94104394Y-87669594D01*
X94104394Y-88813579D01*
X94044836Y-88879641D01*
X94037200Y-88924798D01*
X94079497Y-88984143D01*
X94138800Y-88998000D01*
X94220525Y-88961849D01*
X94238375Y-88884854D01*
X94189600Y-88820200D01*
X94104394Y-88813579D01*
X94104394Y-87669594D01*
X94213609Y-87905238D01*
X94408043Y-88104642D01*
X94416245Y-88110952D01*
X94641114Y-88232462D01*
X94873173Y-88273681D01*
X95093906Y-88241844D01*
X95284799Y-88144185D01*
X95427336Y-87987940D01*
X95503004Y-87780343D01*
X95510400Y-87683409D01*
X95465377Y-87522224D01*
X95376219Y-87426626D01*
X95251362Y-87362330D01*
X95165571Y-87383338D01*
X95134396Y-87481993D01*
X95140896Y-87542504D01*
X95123493Y-87678607D01*
X95079361Y-87745382D01*
X94948874Y-87818840D01*
X94810725Y-87808036D01*
X94684497Y-87726586D01*
X94589772Y-87588106D01*
X94546133Y-87406213D01*
X94545200Y-87373963D01*
X94563150Y-87218477D01*
X94630511Y-87084694D01*
X94719097Y-86977953D01*
X94820636Y-86874311D01*
X94908404Y-86817483D01*
X95019259Y-86793458D01*
X95190060Y-86788229D01*
X95218351Y-86788200D01*
X95414573Y-86795233D01*
X95550922Y-86823972D01*
X95668611Y-86885872D01*
X95730308Y-86930526D01*
X95924341Y-87121501D01*
X96045218Y-87352832D01*
X96104352Y-87628782D01*
X96094414Y-87942868D01*
X95995038Y-88229318D01*
X95817055Y-88476883D01*
X95571298Y-88674314D01*
X95268597Y-88810363D01*
X94919786Y-88873781D01*
X94904664Y-88874667D01*
X94718936Y-88888968D01*
X94599857Y-88916493D01*
X94512482Y-88971443D01*
X94421865Y-89068015D01*
X94418200Y-89072329D01*
X94275187Y-89205485D01*
X94140242Y-89243561D01*
X93992701Y-89188928D01*
X93911367Y-89130493D01*
X93760133Y-89009490D01*
X93840011Y-88759705D01*
X93919890Y-88509919D01*
X93776178Y-88337776D01*
X93604086Y-88060068D01*
X93507660Y-87726351D01*
X93484758Y-87328799D01*
X93486672Y-87280066D01*
X93536182Y-86907166D01*
X93652805Y-86592866D01*
X93847817Y-86310887D01*
X93948870Y-86202683D01*
X94127774Y-86042417D01*
X94317333Y-85917723D01*
X94546597Y-85812982D01*
X94844614Y-85712575D01*
X94880200Y-85701909D01*
X95274867Y-85543502D01*
X95585828Y-85327636D01*
X95813321Y-85054091D01*
X95897323Y-84861094D01*
X95897323Y-85724678D01*
X95821391Y-85760929D01*
X95770630Y-85828355D01*
X95764400Y-85848400D01*
X95795560Y-85906707D01*
X95821391Y-85935870D01*
X95911548Y-85972166D01*
X95990920Y-85930565D01*
X96018400Y-85848400D01*
X95981101Y-85755514D01*
X95897323Y-85724678D01*
X95897323Y-84861094D01*
X95957582Y-84722646D01*
X95965974Y-84691947D01*
X95998919Y-84398542D01*
X95950852Y-84119875D01*
X95834706Y-83867632D01*
X95663412Y-83653500D01*
X95449903Y-83489165D01*
X95207111Y-83386313D01*
X94947969Y-83356629D01*
X94685408Y-83411801D01*
X94595208Y-83453261D01*
X94393362Y-83605436D01*
X94256649Y-83800393D01*
X94190450Y-84016621D01*
X94200150Y-84232612D01*
X94291131Y-84426854D01*
X94338093Y-84480707D01*
X94503242Y-84598923D01*
X94632733Y-84629200D01*
X94784971Y-84600721D01*
X94875568Y-84529952D01*
X94894642Y-84438890D01*
X94832312Y-84349533D01*
X94773800Y-84315156D01*
X94672456Y-84222567D01*
X94644759Y-84093492D01*
X94691873Y-83962647D01*
X94759704Y-83895480D01*
X94938755Y-83821895D01*
X95117571Y-83836461D01*
X95280003Y-83926979D01*
X95409904Y-84081255D01*
X95491126Y-84287091D01*
X95510400Y-84462484D01*
X95463647Y-84701666D01*
X95335722Y-84909501D01*
X95145125Y-85074330D01*
X94910359Y-85184498D01*
X94649925Y-85228346D01*
X94382323Y-85194219D01*
X94359911Y-85187372D01*
X94069876Y-85045684D01*
X93842573Y-84836227D01*
X93683120Y-84574912D01*
X93596635Y-84277654D01*
X93588234Y-83960367D01*
X93663035Y-83638963D01*
X93783299Y-83394250D01*
X93872464Y-83245503D01*
X93914240Y-83144453D01*
X93915626Y-83052980D01*
X93883618Y-82932962D01*
X93873692Y-82901765D01*
X93826487Y-82723109D01*
X93830485Y-82607644D01*
X93893265Y-82526807D01*
X93988467Y-82469131D01*
X94138800Y-82411935D01*
X94138800Y-82648000D01*
X94055424Y-82673710D01*
X94046871Y-82736900D01*
X94096963Y-82812475D01*
X94138800Y-82825800D01*
X94210529Y-82783569D01*
X94230730Y-82736900D01*
X94213058Y-82664893D01*
X94138800Y-82648000D01*
X94138800Y-82411935D01*
X94159770Y-82403956D01*
X94292943Y-82420025D01*
X94418458Y-82523642D01*
X94453256Y-82565271D01*
X94525805Y-82649696D01*
X94596391Y-82702156D01*
X94692368Y-82732172D01*
X94841093Y-82749266D01*
X95012056Y-82759797D01*
X95430935Y-82824738D01*
X95790155Y-82971510D01*
X96093261Y-83202397D01*
X96343797Y-83519682D01*
X96431700Y-83674410D01*
X96511457Y-83900600D01*
X96559538Y-84188662D01*
X96573998Y-84503319D01*
X96552888Y-84809289D01*
X96506626Y-85032505D01*
X96434877Y-85420078D01*
X96453667Y-85780399D01*
X96559452Y-86103922D01*
X96748690Y-86381105D01*
X97017838Y-86602402D01*
X97108437Y-86653779D01*
X97394910Y-86753319D01*
X97695828Y-86772881D01*
X97985998Y-86716064D01*
X98240231Y-86586464D01*
X98365963Y-86474246D01*
X98481159Y-86297881D01*
X98568983Y-86074958D01*
X98608507Y-85860316D01*
X98609011Y-85837331D01*
X98564088Y-85624878D01*
X98445125Y-85425218D01*
X98275114Y-85262293D01*
X98077042Y-85160046D01*
X97936902Y-85137389D01*
X97794788Y-85171619D01*
X97658496Y-85258181D01*
X97554429Y-85372324D01*
X97508989Y-85489297D01*
X97513921Y-85533896D01*
X97586233Y-85620351D01*
X97701509Y-85646143D01*
X97816021Y-85603593D01*
X97831587Y-85589693D01*
X97917492Y-85564016D01*
X98019234Y-85607321D01*
X98103043Y-85699924D01*
X98128818Y-85762949D01*
X98126881Y-85943003D01*
X98042339Y-86105741D01*
X97894146Y-86231098D01*
X97701260Y-86299012D01*
X97616101Y-86305599D01*
X97370019Y-86259520D01*
X97167089Y-86130206D01*
X97019053Y-85931049D01*
X96937656Y-85675438D01*
X96925543Y-85518200D01*
X96970696Y-85224136D01*
X97096324Y-84973297D01*
X97287682Y-84773473D01*
X97530024Y-84632453D01*
X97808607Y-84558027D01*
X98108683Y-84557985D01*
X98415510Y-84640116D01*
X98507600Y-84682416D01*
X98742389Y-84844780D01*
X98949158Y-85065744D01*
X99090831Y-85304510D01*
X99155430Y-85429847D01*
X99190904Y-85473161D01*
X99190904Y-86254800D01*
X99157834Y-86296248D01*
X99105787Y-86398174D01*
X99096090Y-86419900D01*
X99041942Y-86545075D01*
X99023591Y-86598791D01*
X99036540Y-86602853D01*
X99061398Y-86588091D01*
X99102136Y-86533412D01*
X99148389Y-86435729D01*
X99185271Y-86333356D01*
X99197894Y-86264606D01*
X99190904Y-86254800D01*
X99190904Y-85473161D01*
X99218034Y-85506288D01*
X99233106Y-85514409D01*
X99319864Y-85535639D01*
X99449935Y-85565076D01*
X99449935Y-85777529D01*
X99377391Y-85811729D01*
X99323471Y-85897708D01*
X99365698Y-85954790D01*
X99383900Y-85962481D01*
X99396600Y-85963139D01*
X99396600Y-86213903D01*
X99309843Y-86219394D01*
X99302205Y-86235297D01*
X99306734Y-86237321D01*
X99407581Y-86247370D01*
X99459134Y-86239203D01*
X99479850Y-86223033D01*
X99412376Y-86214238D01*
X99396600Y-86213903D01*
X99396600Y-85963139D01*
X99492381Y-85968103D01*
X99564669Y-85914630D01*
X99574400Y-85875001D01*
X99535236Y-85799759D01*
X99449935Y-85777529D01*
X99449935Y-85565076D01*
X99458327Y-85566976D01*
X99498200Y-85575699D01*
X99619206Y-85607567D01*
X99650600Y-85630878D01*
X99650600Y-86153200D01*
X99625200Y-86178600D01*
X99650600Y-86204000D01*
X99676000Y-86178600D01*
X99650600Y-86153200D01*
X99650600Y-85630878D01*
X99683532Y-85655332D01*
X99715390Y-85749724D01*
X99733066Y-85873800D01*
X99764731Y-86127800D01*
X99758466Y-85850490D01*
X99752200Y-85573180D01*
X99481334Y-85494890D01*
X99323005Y-85439625D01*
X99210275Y-85367465D01*
X99124573Y-85256437D01*
X99047325Y-85084569D01*
X98985779Y-84908600D01*
X98760934Y-84380335D01*
X98459047Y-83905438D01*
X98089394Y-83492273D01*
X97661252Y-83149206D01*
X97183898Y-82884600D01*
X96666608Y-82706822D01*
X96505118Y-82671689D01*
X96285302Y-82638093D01*
X96049012Y-82620026D01*
X95769531Y-82616501D01*
X95420141Y-82626531D01*
X95356949Y-82629284D01*
X94611061Y-82662942D01*
X94249071Y-82267942D01*
X94014487Y-82381911D01*
X93873947Y-82461448D01*
X93775634Y-82537926D01*
X93751067Y-82571029D01*
X93749515Y-82661093D01*
X93778520Y-82803528D01*
X93801646Y-82879253D01*
X93846499Y-83024742D01*
X93852173Y-83120380D01*
X93814985Y-83211512D01*
X93768631Y-83285882D01*
X93688991Y-83391399D01*
X93626384Y-83444502D01*
X93613819Y-83445991D01*
X93579836Y-83397208D01*
X93513544Y-83271243D01*
X93422855Y-83084215D01*
X93315679Y-82852242D01*
X93246390Y-82697372D01*
X93096513Y-82345057D01*
X92994328Y-82069815D01*
X92937537Y-81860264D01*
X92923843Y-81705027D01*
X92950949Y-81592723D01*
X93008500Y-81518801D01*
X93140118Y-81422327D01*
X93314512Y-81318949D01*
X93500630Y-81224347D01*
X93667423Y-81154203D01*
X93783839Y-81124197D01*
X93790299Y-81123999D01*
X93878448Y-81132940D01*
X93961128Y-81168793D01*
X94054994Y-81245103D01*
X94176702Y-81375414D01*
X94342907Y-81573273D01*
X94343225Y-81573660D01*
X94534261Y-81786644D01*
X94702889Y-81921138D01*
X94873587Y-81988785D01*
X95070830Y-82001230D01*
X95212120Y-81987041D01*
X95433678Y-81944248D01*
X95600997Y-81875698D01*
X95729722Y-81765114D01*
X95835497Y-81596217D01*
X95933966Y-81352726D01*
X95992669Y-81174800D01*
X96070504Y-80945509D01*
X96141580Y-80797588D01*
X96222957Y-80713633D01*
X96331694Y-80676245D01*
X96484849Y-80668023D01*
X96489472Y-80668041D01*
X96757851Y-80685102D01*
X97004283Y-80729376D01*
X97200307Y-80794286D01*
X97300350Y-80855414D01*
X97342707Y-80910704D01*
X97369830Y-80997999D01*
X97384905Y-81137998D01*
X97391121Y-81351402D01*
X97391801Y-81449373D01*
X97399073Y-81706139D01*
X97417467Y-81912828D01*
X97444735Y-82047400D01*
X97455301Y-82072233D01*
X97597568Y-82240035D01*
X97826547Y-82400831D01*
X98025865Y-82501216D01*
X98167763Y-82554188D01*
X98294499Y-82570672D01*
X98428407Y-82545256D01*
X98591821Y-82472532D01*
X98807075Y-82347090D01*
X98898654Y-82289818D01*
X99137151Y-82154477D01*
X99325854Y-82093221D01*
X99487987Y-82109488D01*
X99646773Y-82206716D01*
X99825436Y-82388343D01*
X99863526Y-82432654D01*
X100014419Y-82621063D01*
X100101690Y-82771471D01*
X100123964Y-82906467D01*
X100079863Y-83048640D01*
X99968011Y-83220580D01*
X99803001Y-83425774D01*
X99662021Y-83604417D01*
X99549341Y-83765652D01*
X99479828Y-83887165D01*
X99464900Y-83933179D01*
X99479860Y-84242690D01*
X99561628Y-84533178D01*
X99700079Y-84773924D01*
X99765802Y-84846315D01*
X99865317Y-84919790D01*
X100007512Y-84982245D01*
X100213885Y-85041669D01*
X100412600Y-85086706D01*
X100686703Y-85149420D01*
X100876110Y-85212379D01*
X100996403Y-85292179D01*
X101063159Y-85405419D01*
X101091960Y-85568697D01*
X101098386Y-85798611D01*
X101098401Y-85817324D01*
X101092676Y-86069870D01*
X101092676Y-86069870D01*
G37*
X101092676Y-86069870D02*
X101064499Y-86244710D01*
X100997363Y-86360902D01*
X100874763Y-86437504D01*
X100680193Y-86493574D01*
X100478191Y-86533416D01*
X100175257Y-86594844D01*
X99954625Y-86660311D01*
X99797582Y-86744730D01*
X99685412Y-86863015D01*
X99599403Y-87030082D01*
X99520841Y-87260843D01*
X99506869Y-87307515D01*
X99463818Y-87496070D01*
X99464026Y-87657988D01*
X99515357Y-87816320D01*
X99625680Y-87994113D01*
X99802861Y-88214416D01*
X99825336Y-88240572D01*
X99994608Y-88448897D01*
X100096132Y-88617772D01*
X100128256Y-88767462D01*
X100089324Y-88918235D01*
X99977683Y-89090356D01*
X99791679Y-89304093D01*
X99733464Y-89366300D01*
X99596506Y-89488544D01*
X99462307Y-89547568D01*
X99311395Y-89542444D01*
X99124301Y-89472247D01*
X98881553Y-89336050D01*
X98863390Y-89324895D01*
X98631727Y-89187401D01*
X98457370Y-89104620D01*
X98314087Y-89073443D01*
X98175642Y-89090760D01*
X98015803Y-89153461D01*
X97900344Y-89210737D01*
X97691730Y-89326055D01*
X97544900Y-89436535D01*
X97447978Y-89563817D01*
X97389088Y-89729543D01*
X97356356Y-89955352D01*
X97339200Y-90233300D01*
X97313800Y-90801400D01*
X97135094Y-90888849D01*
X96990546Y-90938968D01*
X96790324Y-90983176D01*
X96598989Y-91009515D01*
X96402980Y-91022565D01*
X96263693Y-91009005D01*
X96163342Y-90953979D01*
X96084141Y-90842634D01*
X96008304Y-90660113D01*
X95940219Y-90459314D01*
X95841923Y-90189642D01*
X95743996Y-90000510D01*
X95630131Y-89872236D01*
X95484025Y-89785139D01*
X95339063Y-89733682D01*
X95104473Y-89674358D01*
X94916587Y-89659290D01*
X94755034Y-89696979D01*
X94599443Y-89795927D01*
X94429445Y-89964637D01*
X94239876Y-90192458D01*
X94104295Y-90357176D01*
X94006159Y-90455940D01*
X93923406Y-90505145D01*
X93833973Y-90521186D01*
X93796408Y-90522000D01*
X93594865Y-90489412D01*
X93382783Y-90402445D01*
X93182313Y-90277296D01*
X93015606Y-90130161D01*
X92904814Y-89977236D01*
X92871301Y-89845592D01*
X92890892Y-89780755D01*
X92943580Y-89639062D01*
X93022839Y-89437212D01*
X93122141Y-89191904D01*
X93207575Y-88985300D01*
X93319045Y-88722782D01*
X93418885Y-88496447D01*
X93500053Y-88321567D01*
X93555506Y-88213416D01*
X93576521Y-88185200D01*
X93626336Y-88222236D01*
X93706462Y-88314285D01*
X93730096Y-88345347D01*
X93799142Y-88446498D01*
X93822288Y-88526153D01*
X93803298Y-88626995D01*
X93764798Y-88739047D01*
X93716051Y-88881119D01*
X93686006Y-88980347D01*
X93681349Y-89003949D01*
X93722277Y-89054838D01*
X93823257Y-89129511D01*
X93952366Y-89208591D01*
X94077680Y-89272699D01*
X94167275Y-89302455D01*
X94173669Y-89302800D01*
X94259673Y-89269153D01*
X94378810Y-89183685D01*
X94441459Y-89127105D01*
X94621400Y-88951411D01*
X95383400Y-89008685D01*
X95693511Y-89030328D01*
X95927475Y-89041215D01*
X96110242Y-89040668D01*
X96266763Y-89028012D01*
X96421991Y-89002569D01*
X96540974Y-88977298D01*
X97080988Y-88806563D01*
X97579917Y-88550080D01*
X98026888Y-88216945D01*
X98411025Y-87816257D01*
X98721455Y-87357111D01*
X98884759Y-87016485D01*
X98950358Y-86851549D01*
X98997308Y-86726823D01*
X99015596Y-86668934D01*
X99015601Y-86668697D01*
X98986253Y-86688631D01*
X98910808Y-86767410D01*
X98843328Y-86844174D01*
X98696987Y-86985344D01*
X98510451Y-87127012D01*
X98398828Y-87196218D01*
X98263961Y-87266345D01*
X98146082Y-87310618D01*
X98014828Y-87334905D01*
X97839838Y-87345072D01*
X97618600Y-87347000D01*
X97316211Y-87336707D01*
X97070262Y-87298335D01*
X96854019Y-87220642D01*
X96640747Y-87092389D01*
X96403712Y-86902332D01*
X96264847Y-86777788D01*
X96020402Y-86567295D01*
X95812268Y-86425520D01*
X95614882Y-86340594D01*
X95402681Y-86300647D01*
X95220861Y-86293066D01*
X94890444Y-86336605D01*
X94598123Y-86459368D01*
X94357151Y-86649030D01*
X94180782Y-86893264D01*
X94082270Y-87179744D01*
X94066050Y-87367046D01*
X94102517Y-87665545D01*
X94104394Y-87669594D01*
X94104394Y-88813579D01*
X94044836Y-88879641D01*
X94037200Y-88924798D01*
X94079497Y-88984143D01*
X94138800Y-88998000D01*
X94220525Y-88961849D01*
X94238375Y-88884854D01*
X94189600Y-88820200D01*
X94104394Y-88813579D01*
X94104394Y-87669594D01*
X94213609Y-87905238D01*
X94408043Y-88104642D01*
X94416245Y-88110952D01*
X94641114Y-88232462D01*
X94873173Y-88273681D01*
X95093906Y-88241844D01*
X95284799Y-88144185D01*
X95427336Y-87987940D01*
X95503004Y-87780343D01*
X95510400Y-87683409D01*
X95465377Y-87522224D01*
X95376219Y-87426626D01*
X95251362Y-87362330D01*
X95165571Y-87383338D01*
X95134396Y-87481993D01*
X95140896Y-87542504D01*
X95123493Y-87678607D01*
X95079361Y-87745382D01*
X94948874Y-87818840D01*
X94810725Y-87808036D01*
X94684497Y-87726586D01*
X94589772Y-87588106D01*
X94546133Y-87406213D01*
X94545200Y-87373963D01*
X94563150Y-87218477D01*
X94630511Y-87084694D01*
X94719097Y-86977953D01*
X94820636Y-86874311D01*
X94908404Y-86817483D01*
X95019259Y-86793458D01*
X95190060Y-86788229D01*
X95218351Y-86788200D01*
X95414573Y-86795233D01*
X95550922Y-86823972D01*
X95668611Y-86885872D01*
X95730308Y-86930526D01*
X95924341Y-87121501D01*
X96045218Y-87352832D01*
X96104352Y-87628782D01*
X96094414Y-87942868D01*
X95995038Y-88229318D01*
X95817055Y-88476883D01*
X95571298Y-88674314D01*
X95268597Y-88810363D01*
X94919786Y-88873781D01*
X94904664Y-88874667D01*
X94718936Y-88888968D01*
X94599857Y-88916493D01*
X94512482Y-88971443D01*
X94421865Y-89068015D01*
X94418200Y-89072329D01*
X94275187Y-89205485D01*
X94140242Y-89243561D01*
X93992701Y-89188928D01*
X93911367Y-89130493D01*
X93760133Y-89009490D01*
X93840011Y-88759705D01*
X93919890Y-88509919D01*
X93776178Y-88337776D01*
X93604086Y-88060068D01*
X93507660Y-87726351D01*
X93484758Y-87328799D01*
X93486672Y-87280066D01*
X93536182Y-86907166D01*
X93652805Y-86592866D01*
X93847817Y-86310887D01*
X93948870Y-86202683D01*
X94127774Y-86042417D01*
X94317333Y-85917723D01*
X94546597Y-85812982D01*
X94844614Y-85712575D01*
X94880200Y-85701909D01*
X95274867Y-85543502D01*
X95585828Y-85327636D01*
X95813321Y-85054091D01*
X95897323Y-84861094D01*
X95897323Y-85724678D01*
X95821391Y-85760929D01*
X95770630Y-85828355D01*
X95764400Y-85848400D01*
X95795560Y-85906707D01*
X95821391Y-85935870D01*
X95911548Y-85972166D01*
X95990920Y-85930565D01*
X96018400Y-85848400D01*
X95981101Y-85755514D01*
X95897323Y-85724678D01*
X95897323Y-84861094D01*
X95957582Y-84722646D01*
X95965974Y-84691947D01*
X95998919Y-84398542D01*
X95950852Y-84119875D01*
X95834706Y-83867632D01*
X95663412Y-83653500D01*
X95449903Y-83489165D01*
X95207111Y-83386313D01*
X94947969Y-83356629D01*
X94685408Y-83411801D01*
X94595208Y-83453261D01*
X94393362Y-83605436D01*
X94256649Y-83800393D01*
X94190450Y-84016621D01*
X94200150Y-84232612D01*
X94291131Y-84426854D01*
X94338093Y-84480707D01*
X94503242Y-84598923D01*
X94632733Y-84629200D01*
X94784971Y-84600721D01*
X94875568Y-84529952D01*
X94894642Y-84438890D01*
X94832312Y-84349533D01*
X94773800Y-84315156D01*
X94672456Y-84222567D01*
X94644759Y-84093492D01*
X94691873Y-83962647D01*
X94759704Y-83895480D01*
X94938755Y-83821895D01*
X95117571Y-83836461D01*
X95280003Y-83926979D01*
X95409904Y-84081255D01*
X95491126Y-84287091D01*
X95510400Y-84462484D01*
X95463647Y-84701666D01*
X95335722Y-84909501D01*
X95145125Y-85074330D01*
X94910359Y-85184498D01*
X94649925Y-85228346D01*
X94382323Y-85194219D01*
X94359911Y-85187372D01*
X94069876Y-85045684D01*
X93842573Y-84836227D01*
X93683120Y-84574912D01*
X93596635Y-84277654D01*
X93588234Y-83960367D01*
X93663035Y-83638963D01*
X93783299Y-83394250D01*
X93872464Y-83245503D01*
X93914240Y-83144453D01*
X93915626Y-83052980D01*
X93883618Y-82932962D01*
X93873692Y-82901765D01*
X93826487Y-82723109D01*
X93830485Y-82607644D01*
X93893265Y-82526807D01*
X93988467Y-82469131D01*
X94138800Y-82411935D01*
X94138800Y-82648000D01*
X94055424Y-82673710D01*
X94046871Y-82736900D01*
X94096963Y-82812475D01*
X94138800Y-82825800D01*
X94210529Y-82783569D01*
X94230730Y-82736900D01*
X94213058Y-82664893D01*
X94138800Y-82648000D01*
X94138800Y-82411935D01*
X94159770Y-82403956D01*
X94292943Y-82420025D01*
X94418458Y-82523642D01*
X94453256Y-82565271D01*
X94525805Y-82649696D01*
X94596391Y-82702156D01*
X94692368Y-82732172D01*
X94841093Y-82749266D01*
X95012056Y-82759797D01*
X95430935Y-82824738D01*
X95790155Y-82971510D01*
X96093261Y-83202397D01*
X96343797Y-83519682D01*
X96431700Y-83674410D01*
X96511457Y-83900600D01*
X96559538Y-84188662D01*
X96573998Y-84503319D01*
X96552888Y-84809289D01*
X96506626Y-85032505D01*
X96434877Y-85420078D01*
X96453667Y-85780399D01*
X96559452Y-86103922D01*
X96748690Y-86381105D01*
X97017838Y-86602402D01*
X97108437Y-86653779D01*
X97394910Y-86753319D01*
X97695828Y-86772881D01*
X97985998Y-86716064D01*
X98240231Y-86586464D01*
X98365963Y-86474246D01*
X98481159Y-86297881D01*
X98568983Y-86074958D01*
X98608507Y-85860316D01*
X98609011Y-85837331D01*
X98564088Y-85624878D01*
X98445125Y-85425218D01*
X98275114Y-85262293D01*
X98077042Y-85160046D01*
X97936902Y-85137389D01*
X97794788Y-85171619D01*
X97658496Y-85258181D01*
X97554429Y-85372324D01*
X97508989Y-85489297D01*
X97513921Y-85533896D01*
X97586233Y-85620351D01*
X97701509Y-85646143D01*
X97816021Y-85603593D01*
X97831587Y-85589693D01*
X97917492Y-85564016D01*
X98019234Y-85607321D01*
X98103043Y-85699924D01*
X98128818Y-85762949D01*
X98126881Y-85943003D01*
X98042339Y-86105741D01*
X97894146Y-86231098D01*
X97701260Y-86299012D01*
X97616101Y-86305599D01*
X97370019Y-86259520D01*
X97167089Y-86130206D01*
X97019053Y-85931049D01*
X96937656Y-85675438D01*
X96925543Y-85518200D01*
X96970696Y-85224136D01*
X97096324Y-84973297D01*
X97287682Y-84773473D01*
X97530024Y-84632453D01*
X97808607Y-84558027D01*
X98108683Y-84557985D01*
X98415510Y-84640116D01*
X98507600Y-84682416D01*
X98742389Y-84844780D01*
X98949158Y-85065744D01*
X99090831Y-85304510D01*
X99155430Y-85429847D01*
X99190904Y-85473161D01*
X99190904Y-86254800D01*
X99157834Y-86296248D01*
X99105787Y-86398174D01*
X99096090Y-86419900D01*
X99041942Y-86545075D01*
X99023591Y-86598791D01*
X99036540Y-86602853D01*
X99061398Y-86588091D01*
X99102136Y-86533412D01*
X99148389Y-86435729D01*
X99185271Y-86333356D01*
X99197894Y-86264606D01*
X99190904Y-86254800D01*
X99190904Y-85473161D01*
X99218034Y-85506288D01*
X99233106Y-85514409D01*
X99319864Y-85535639D01*
X99449935Y-85565076D01*
X99449935Y-85777529D01*
X99377391Y-85811729D01*
X99323471Y-85897708D01*
X99365698Y-85954790D01*
X99383900Y-85962481D01*
X99396600Y-85963139D01*
X99396600Y-86213903D01*
X99309843Y-86219394D01*
X99302205Y-86235297D01*
X99306734Y-86237321D01*
X99407581Y-86247370D01*
X99459134Y-86239203D01*
X99479850Y-86223033D01*
X99412376Y-86214238D01*
X99396600Y-86213903D01*
X99396600Y-85963139D01*
X99492381Y-85968103D01*
X99564669Y-85914630D01*
X99574400Y-85875001D01*
X99535236Y-85799759D01*
X99449935Y-85777529D01*
X99449935Y-85565076D01*
X99458327Y-85566976D01*
X99498200Y-85575699D01*
X99619206Y-85607567D01*
X99650600Y-85630878D01*
X99650600Y-86153200D01*
X99625200Y-86178600D01*
X99650600Y-86204000D01*
X99676000Y-86178600D01*
X99650600Y-86153200D01*
X99650600Y-85630878D01*
X99683532Y-85655332D01*
X99715390Y-85749724D01*
X99733066Y-85873800D01*
X99764731Y-86127800D01*
X99758466Y-85850490D01*
X99752200Y-85573180D01*
X99481334Y-85494890D01*
X99323005Y-85439625D01*
X99210275Y-85367465D01*
X99124573Y-85256437D01*
X99047325Y-85084569D01*
X98985779Y-84908600D01*
X98760934Y-84380335D01*
X98459047Y-83905438D01*
X98089394Y-83492273D01*
X97661252Y-83149206D01*
X97183898Y-82884600D01*
X96666608Y-82706822D01*
X96505118Y-82671689D01*
X96285302Y-82638093D01*
X96049012Y-82620026D01*
X95769531Y-82616501D01*
X95420141Y-82626531D01*
X95356949Y-82629284D01*
X94611061Y-82662942D01*
X94249071Y-82267942D01*
X94014487Y-82381911D01*
X93873947Y-82461448D01*
X93775634Y-82537926D01*
X93751067Y-82571029D01*
X93749515Y-82661093D01*
X93778520Y-82803528D01*
X93801646Y-82879253D01*
X93846499Y-83024742D01*
X93852173Y-83120380D01*
X93814985Y-83211512D01*
X93768631Y-83285882D01*
X93688991Y-83391399D01*
X93626384Y-83444502D01*
X93613819Y-83445991D01*
X93579836Y-83397208D01*
X93513544Y-83271243D01*
X93422855Y-83084215D01*
X93315679Y-82852242D01*
X93246390Y-82697372D01*
X93096513Y-82345057D01*
X92994328Y-82069815D01*
X92937537Y-81860264D01*
X92923843Y-81705027D01*
X92950949Y-81592723D01*
X93008500Y-81518801D01*
X93140118Y-81422327D01*
X93314512Y-81318949D01*
X93500630Y-81224347D01*
X93667423Y-81154203D01*
X93783839Y-81124197D01*
X93790299Y-81123999D01*
X93878448Y-81132940D01*
X93961128Y-81168793D01*
X94054994Y-81245103D01*
X94176702Y-81375414D01*
X94342907Y-81573273D01*
X94343225Y-81573660D01*
X94534261Y-81786644D01*
X94702889Y-81921138D01*
X94873587Y-81988785D01*
X95070830Y-82001230D01*
X95212120Y-81987041D01*
X95433678Y-81944248D01*
X95600997Y-81875698D01*
X95729722Y-81765114D01*
X95835497Y-81596217D01*
X95933966Y-81352726D01*
X95992669Y-81174800D01*
X96070504Y-80945509D01*
X96141580Y-80797588D01*
X96222957Y-80713633D01*
X96331694Y-80676245D01*
X96484849Y-80668023D01*
X96489472Y-80668041D01*
X96757851Y-80685102D01*
X97004283Y-80729376D01*
X97200307Y-80794286D01*
X97300350Y-80855414D01*
X97342707Y-80910704D01*
X97369830Y-80997999D01*
X97384905Y-81137998D01*
X97391121Y-81351402D01*
X97391801Y-81449373D01*
X97399073Y-81706139D01*
X97417467Y-81912828D01*
X97444735Y-82047400D01*
X97455301Y-82072233D01*
X97597568Y-82240035D01*
X97826547Y-82400831D01*
X98025865Y-82501216D01*
X98167763Y-82554188D01*
X98294499Y-82570672D01*
X98428407Y-82545256D01*
X98591821Y-82472532D01*
X98807075Y-82347090D01*
X98898654Y-82289818D01*
X99137151Y-82154477D01*
X99325854Y-82093221D01*
X99487987Y-82109488D01*
X99646773Y-82206716D01*
X99825436Y-82388343D01*
X99863526Y-82432654D01*
X100014419Y-82621063D01*
X100101690Y-82771471D01*
X100123964Y-82906467D01*
X100079863Y-83048640D01*
X99968011Y-83220580D01*
X99803001Y-83425774D01*
X99662021Y-83604417D01*
X99549341Y-83765652D01*
X99479828Y-83887165D01*
X99464900Y-83933179D01*
X99479860Y-84242690D01*
X99561628Y-84533178D01*
X99700079Y-84773924D01*
X99765802Y-84846315D01*
X99865317Y-84919790D01*
X100007512Y-84982245D01*
X100213885Y-85041669D01*
X100412600Y-85086706D01*
X100686703Y-85149420D01*
X100876110Y-85212379D01*
X100996403Y-85292179D01*
X101063159Y-85405419D01*
X101091960Y-85568697D01*
X101098386Y-85798611D01*
X101098401Y-85817324D01*
X101092676Y-86069870D01*
D13*
X112480000Y-93520000D02*
X94870000Y-93520000D01*
X94870000Y-93520000D02*
X94870000Y-93620000D01*
X94870000Y-93560000D02*
X94870000Y-116500000D01*
X94870000Y-116500000D02*
X112480000Y-116500000D01*
X112480000Y-116500000D02*
X112480000Y-93520000D01*
X97110660Y-96110000D02*
G75*
G03X97110660Y-96110000I-1060660J0D01*
G01*
X101701905Y-137312381D02*
X101701905Y-136312381D01*
X102082858Y-136312381D01*
X102178096Y-136360000D01*
X102225715Y-136407619D01*
X102273334Y-136502857D01*
X102273334Y-136645714D01*
X102225715Y-136740952D01*
X102178096Y-136788571D01*
X102082858Y-136836190D01*
X101701905Y-136836190D01*
X102654286Y-136407619D02*
X102701905Y-136360000D01*
X102797143Y-136312381D01*
X103035239Y-136312381D01*
X103130477Y-136360000D01*
X103178096Y-136407619D01*
X103225715Y-136502857D01*
X103225715Y-136598095D01*
X103178096Y-136740952D01*
X102606667Y-137312381D01*
X103225715Y-137312381D01*
X136244286Y-115778571D02*
X136387143Y-115826190D01*
X136434762Y-115873810D01*
X136482381Y-115969048D01*
X136482381Y-116111905D01*
X136434762Y-116207143D01*
X136387143Y-116254762D01*
X136291905Y-116302381D01*
X135910952Y-116302381D01*
X135910952Y-115302381D01*
X136244286Y-115302381D01*
X136339524Y-115350000D01*
X136387143Y-115397619D01*
X136434762Y-115492857D01*
X136434762Y-115588095D01*
X136387143Y-115683333D01*
X136339524Y-115730952D01*
X136244286Y-115778571D01*
X135910952Y-115778571D01*
X136768095Y-115302381D02*
X137339524Y-115302381D01*
X137053809Y-116302381D02*
X137053809Y-115302381D01*
X138196667Y-116302381D02*
X137625238Y-116302381D01*
X137910952Y-116302381D02*
X137910952Y-115302381D01*
X137815714Y-115445238D01*
X137720476Y-115540476D01*
X137625238Y-115588095D01*
X137184286Y-94078571D02*
X137327143Y-94126190D01*
X137374762Y-94173810D01*
X137422381Y-94269048D01*
X137422381Y-94411905D01*
X137374762Y-94507143D01*
X137327143Y-94554762D01*
X137231905Y-94602381D01*
X136850952Y-94602381D01*
X136850952Y-93602381D01*
X137184286Y-93602381D01*
X137279524Y-93650000D01*
X137327143Y-93697619D01*
X137374762Y-93792857D01*
X137374762Y-93888095D01*
X137327143Y-93983333D01*
X137279524Y-94030952D01*
X137184286Y-94078571D01*
X136850952Y-94078571D01*
X137708095Y-93602381D02*
X138279524Y-93602381D01*
X137993809Y-94602381D02*
X137993809Y-93602381D01*
X138565238Y-93697619D02*
X138612857Y-93650000D01*
X138708095Y-93602381D01*
X138946191Y-93602381D01*
X139041429Y-93650000D01*
X139089048Y-93697619D01*
X139136667Y-93792857D01*
X139136667Y-93888095D01*
X139089048Y-94030952D01*
X138517619Y-94602381D01*
X139136667Y-94602381D01*
X101701905Y-77312381D02*
X101701905Y-76312381D01*
X102082858Y-76312381D01*
X102178096Y-76360000D01*
X102225715Y-76407619D01*
X102273334Y-76502857D01*
X102273334Y-76645714D01*
X102225715Y-76740952D01*
X102178096Y-76788571D01*
X102082858Y-76836190D01*
X101701905Y-76836190D01*
X103225715Y-77312381D02*
X102654286Y-77312381D01*
X102940000Y-77312381D02*
X102940000Y-76312381D01*
X102844762Y-76455238D01*
X102749524Y-76550476D01*
X102654286Y-76598095D01*
X173526667Y-125724762D02*
X173669524Y-125772381D01*
X173907620Y-125772381D01*
X174002858Y-125724762D01*
X174050477Y-125677143D01*
X174098096Y-125581905D01*
X174098096Y-125486667D01*
X174050477Y-125391429D01*
X174002858Y-125343810D01*
X173907620Y-125296190D01*
X173717143Y-125248571D01*
X173621905Y-125200952D01*
X173574286Y-125153333D01*
X173526667Y-125058095D01*
X173526667Y-124962857D01*
X173574286Y-124867619D01*
X173621905Y-124820000D01*
X173717143Y-124772381D01*
X173955239Y-124772381D01*
X174098096Y-124820000D01*
X174431429Y-124772381D02*
X174669524Y-125772381D01*
X174860001Y-125058095D01*
X175050477Y-125772381D01*
X175288572Y-124772381D01*
X176193334Y-125772381D02*
X175621905Y-125772381D01*
X175907619Y-125772381D02*
X175907619Y-124772381D01*
X175812381Y-124915238D01*
X175717143Y-125010476D01*
X175621905Y-125058095D01*
X168406762Y-86013333D02*
X168454381Y-85870476D01*
X168454381Y-85632380D01*
X168406762Y-85537142D01*
X168359143Y-85489523D01*
X168263905Y-85441904D01*
X168168667Y-85441904D01*
X168073429Y-85489523D01*
X168025810Y-85537142D01*
X167978190Y-85632380D01*
X167930571Y-85822857D01*
X167882952Y-85918095D01*
X167835333Y-85965714D01*
X167740095Y-86013333D01*
X167644857Y-86013333D01*
X167549619Y-85965714D01*
X167502000Y-85918095D01*
X167454381Y-85822857D01*
X167454381Y-85584761D01*
X167502000Y-85441904D01*
X167454381Y-85108571D02*
X168454381Y-84870476D01*
X167740095Y-84679999D01*
X168454381Y-84489523D01*
X167454381Y-84251428D01*
X167549619Y-83918095D02*
X167502000Y-83870476D01*
X167454381Y-83775238D01*
X167454381Y-83537142D01*
X167502000Y-83441904D01*
X167549619Y-83394285D01*
X167644857Y-83346666D01*
X167740095Y-83346666D01*
X167882952Y-83394285D01*
X168454381Y-83965714D01*
X168454381Y-83346666D01*
X221617381Y-93843095D02*
X220617381Y-93843095D01*
X220617381Y-93462142D01*
X220665000Y-93366904D01*
X220712619Y-93319285D01*
X220807857Y-93271666D01*
X220950714Y-93271666D01*
X221045952Y-93319285D01*
X221093571Y-93366904D01*
X221141190Y-93462142D01*
X221141190Y-93843095D01*
X220617381Y-92938333D02*
X220617381Y-92319285D01*
X220998333Y-92652619D01*
X220998333Y-92509761D01*
X221045952Y-92414523D01*
X221093571Y-92366904D01*
X221188810Y-92319285D01*
X221426905Y-92319285D01*
X221522143Y-92366904D01*
X221569762Y-92414523D01*
X221617381Y-92509761D01*
X221617381Y-92795476D01*
X221569762Y-92890714D01*
X221522143Y-92938333D01*
X177632381Y-86016666D02*
X177156190Y-86350000D01*
X177632381Y-86588095D02*
X176632381Y-86588095D01*
X176632381Y-86207142D01*
X176680000Y-86111904D01*
X176727619Y-86064285D01*
X176822857Y-86016666D01*
X176965714Y-86016666D01*
X177060952Y-86064285D01*
X177108571Y-86111904D01*
X177156190Y-86207142D01*
X177156190Y-86588095D01*
X177632381Y-85064285D02*
X177632381Y-85635714D01*
X177632381Y-85350000D02*
X176632381Y-85350000D01*
X176775238Y-85445238D01*
X176870476Y-85540476D01*
X176918095Y-85635714D01*
X190112857Y-106604286D02*
X191084286Y-106604286D01*
X191198571Y-106547143D01*
X191255714Y-106490000D01*
X191312857Y-106375714D01*
X191312857Y-106147143D01*
X191255714Y-106032857D01*
X191198571Y-105975714D01*
X191084286Y-105918571D01*
X190112857Y-105918571D01*
X190227143Y-105404286D02*
X190170000Y-105347143D01*
X190112857Y-105232857D01*
X190112857Y-104947143D01*
X190170000Y-104832857D01*
X190227143Y-104775714D01*
X190341429Y-104718571D01*
X190455714Y-104718571D01*
X190627143Y-104775714D01*
X191312857Y-105461428D01*
X191312857Y-104718571D01*
X181233905Y-86509381D02*
X181233905Y-85509381D01*
X181614858Y-85509381D01*
X181710096Y-85557000D01*
X181757715Y-85604619D01*
X181805334Y-85699857D01*
X181805334Y-85842714D01*
X181757715Y-85937952D01*
X181710096Y-85985571D01*
X181614858Y-86033190D01*
X181233905Y-86033190D01*
X182662477Y-85842714D02*
X182662477Y-86509381D01*
X182424381Y-85461762D02*
X182186286Y-86176048D01*
X182805334Y-86176048D01*
X103608095Y-92022381D02*
X103608095Y-92831905D01*
X103655714Y-92927143D01*
X103703333Y-92974762D01*
X103798571Y-93022381D01*
X103989048Y-93022381D01*
X104084286Y-92974762D01*
X104131905Y-92927143D01*
X104179524Y-92831905D01*
X104179524Y-92022381D01*
X105179524Y-93022381D02*
X104608095Y-93022381D01*
X104893809Y-93022381D02*
X104893809Y-92022381D01*
X104798571Y-92165238D01*
X104703333Y-92260476D01*
X104608095Y-92308095D01*
M02*
