G04 #@! TF.FileFunction,Legend,Bot*
%FSLAX46Y46*%
G04 Gerber Fmt 4.6, Leading zero omitted, Abs format (unit mm)*
G04 Created by KiCad (PCBNEW 4.0.5+dfsg1-4~bpo8+1) date Sun Mar 12 21:32:37 2017*
%MOMM*%
%LPD*%
G01*
G04 APERTURE LIST*
%ADD10C,0.100000*%
%ADD11C,0.010000*%
G04 APERTURE END LIST*
D10*
D11*
G36*
X176286642Y-88456844D02*
X176517574Y-88358071D01*
X176675635Y-88191982D01*
X176760881Y-87957995D01*
X176773364Y-87655528D01*
X176713138Y-87284000D01*
X176580258Y-86842826D01*
X176374777Y-86331426D01*
X176214135Y-85985416D01*
X175925684Y-85435183D01*
X175634013Y-84972033D01*
X175329340Y-84581662D01*
X175070644Y-84313074D01*
X174739296Y-84033187D01*
X174423589Y-83839302D01*
X174104228Y-83722019D01*
X173761915Y-83671935D01*
X173753785Y-83671508D01*
X173455471Y-83674061D01*
X173232330Y-83720306D01*
X173065269Y-83816045D01*
X172977966Y-83907232D01*
X172904860Y-83989009D01*
X172862447Y-84015768D01*
X172861076Y-84014656D01*
X172832860Y-83966186D01*
X172762772Y-83841627D01*
X172657993Y-83653863D01*
X172525703Y-83415780D01*
X172373083Y-83140262D01*
X172290514Y-82990900D01*
X171736254Y-81987600D01*
X170490678Y-81987600D01*
X170731124Y-82432100D01*
X170798773Y-82557359D01*
X170909528Y-82762687D01*
X171058332Y-83038696D01*
X171240125Y-83375998D01*
X171449849Y-83765205D01*
X171682445Y-84196928D01*
X171932855Y-84661780D01*
X172037719Y-84856472D01*
X173354880Y-84856472D01*
X173443482Y-84755583D01*
X173596576Y-84700354D01*
X173785973Y-84694820D01*
X173983482Y-84743017D01*
X174024058Y-84760677D01*
X174224375Y-84888170D01*
X174421003Y-85082406D01*
X174620300Y-85351831D01*
X174828624Y-85704889D01*
X175022072Y-86086480D01*
X175206923Y-86494812D01*
X175335909Y-86831910D01*
X175408305Y-87095013D01*
X175423387Y-87281355D01*
X175380429Y-87388173D01*
X175366408Y-87398784D01*
X175229037Y-87433696D01*
X175042468Y-87416998D01*
X174841632Y-87354040D01*
X174739719Y-87302794D01*
X174670256Y-87257072D01*
X174604367Y-87198674D01*
X174534519Y-87116045D01*
X174453178Y-86997627D01*
X174352811Y-86831865D01*
X174225886Y-86607201D01*
X174064869Y-86312079D01*
X173927506Y-86056763D01*
X173750212Y-85721018D01*
X173599471Y-85425208D01*
X173480366Y-85179990D01*
X173397983Y-84996021D01*
X173357406Y-84883958D01*
X173354880Y-84856472D01*
X172037719Y-84856472D01*
X172196018Y-85150372D01*
X172448828Y-85619800D01*
X173926086Y-88363000D01*
X174496818Y-88377385D01*
X175067550Y-88391769D01*
X174984279Y-88230739D01*
X174901007Y-88069709D01*
X175054613Y-88179086D01*
X175382589Y-88368490D01*
X175718029Y-88467833D01*
X175982787Y-88488885D01*
X176286642Y-88456844D01*
X176286642Y-88456844D01*
G37*
X176286642Y-88456844D02*
X176517574Y-88358071D01*
X176675635Y-88191982D01*
X176760881Y-87957995D01*
X176773364Y-87655528D01*
X176713138Y-87284000D01*
X176580258Y-86842826D01*
X176374777Y-86331426D01*
X176214135Y-85985416D01*
X175925684Y-85435183D01*
X175634013Y-84972033D01*
X175329340Y-84581662D01*
X175070644Y-84313074D01*
X174739296Y-84033187D01*
X174423589Y-83839302D01*
X174104228Y-83722019D01*
X173761915Y-83671935D01*
X173753785Y-83671508D01*
X173455471Y-83674061D01*
X173232330Y-83720306D01*
X173065269Y-83816045D01*
X172977966Y-83907232D01*
X172904860Y-83989009D01*
X172862447Y-84015768D01*
X172861076Y-84014656D01*
X172832860Y-83966186D01*
X172762772Y-83841627D01*
X172657993Y-83653863D01*
X172525703Y-83415780D01*
X172373083Y-83140262D01*
X172290514Y-82990900D01*
X171736254Y-81987600D01*
X170490678Y-81987600D01*
X170731124Y-82432100D01*
X170798773Y-82557359D01*
X170909528Y-82762687D01*
X171058332Y-83038696D01*
X171240125Y-83375998D01*
X171449849Y-83765205D01*
X171682445Y-84196928D01*
X171932855Y-84661780D01*
X172037719Y-84856472D01*
X173354880Y-84856472D01*
X173443482Y-84755583D01*
X173596576Y-84700354D01*
X173785973Y-84694820D01*
X173983482Y-84743017D01*
X174024058Y-84760677D01*
X174224375Y-84888170D01*
X174421003Y-85082406D01*
X174620300Y-85351831D01*
X174828624Y-85704889D01*
X175022072Y-86086480D01*
X175206923Y-86494812D01*
X175335909Y-86831910D01*
X175408305Y-87095013D01*
X175423387Y-87281355D01*
X175380429Y-87388173D01*
X175366408Y-87398784D01*
X175229037Y-87433696D01*
X175042468Y-87416998D01*
X174841632Y-87354040D01*
X174739719Y-87302794D01*
X174670256Y-87257072D01*
X174604367Y-87198674D01*
X174534519Y-87116045D01*
X174453178Y-86997627D01*
X174352811Y-86831865D01*
X174225886Y-86607201D01*
X174064869Y-86312079D01*
X173927506Y-86056763D01*
X173750212Y-85721018D01*
X173599471Y-85425208D01*
X173480366Y-85179990D01*
X173397983Y-84996021D01*
X173357406Y-84883958D01*
X173354880Y-84856472D01*
X172037719Y-84856472D01*
X172196018Y-85150372D01*
X172448828Y-85619800D01*
X173926086Y-88363000D01*
X174496818Y-88377385D01*
X175067550Y-88391769D01*
X174984279Y-88230739D01*
X174901007Y-88069709D01*
X175054613Y-88179086D01*
X175382589Y-88368490D01*
X175718029Y-88467833D01*
X175982787Y-88488885D01*
X176286642Y-88456844D01*
G36*
X171720082Y-88482231D02*
X171856344Y-88460642D01*
X171981167Y-88419161D01*
X172027315Y-88399511D01*
X172253988Y-88259377D01*
X172400564Y-88066727D01*
X172471263Y-87860039D01*
X172491227Y-87734169D01*
X172491467Y-87602068D01*
X172468003Y-87452908D01*
X172416858Y-87275862D01*
X172334052Y-87060101D01*
X172215606Y-86794797D01*
X172057543Y-86469122D01*
X171855882Y-86072248D01*
X171713429Y-85797600D01*
X171473667Y-85334547D01*
X171279354Y-84951511D01*
X171126557Y-84639720D01*
X171011341Y-84390402D01*
X170929770Y-84194785D01*
X170877911Y-84044096D01*
X170851828Y-83929562D01*
X170846800Y-83865425D01*
X170840485Y-83823436D01*
X170810385Y-83795209D01*
X170739766Y-83778031D01*
X170611895Y-83769188D01*
X170410039Y-83765966D01*
X170231277Y-83765600D01*
X169615755Y-83765600D01*
X169638454Y-83884342D01*
X169646446Y-83943629D01*
X169629228Y-83966571D01*
X169568859Y-83950153D01*
X169447394Y-83891365D01*
X169335885Y-83833542D01*
X169133543Y-83737152D01*
X168965258Y-83685507D01*
X168781273Y-83665924D01*
X168671408Y-83664190D01*
X168422743Y-83678522D01*
X168244408Y-83724754D01*
X168175734Y-83759793D01*
X167996403Y-83922919D01*
X167890700Y-84138670D01*
X167854048Y-84394809D01*
X167881876Y-84679097D01*
X167889275Y-84704416D01*
X169183034Y-84704416D01*
X169208500Y-84658335D01*
X169295215Y-84632911D01*
X169439576Y-84647167D01*
X169609135Y-84693814D01*
X169771444Y-84765566D01*
X169821732Y-84796059D01*
X169966429Y-84929068D01*
X170129564Y-85149203D01*
X170272213Y-85384606D01*
X170535826Y-85848400D01*
X170334081Y-85848400D01*
X170046214Y-85804346D01*
X169770905Y-85668326D01*
X169607942Y-85541828D01*
X169458398Y-85382922D01*
X169330978Y-85197262D01*
X169235840Y-85007315D01*
X169183139Y-84835545D01*
X169183034Y-84704416D01*
X167889275Y-84704416D01*
X167969608Y-84979296D01*
X168112671Y-85283168D01*
X168306491Y-85578476D01*
X168546495Y-85852980D01*
X168828108Y-86094443D01*
X169115608Y-86274580D01*
X169604179Y-86477951D01*
X170121426Y-86587389D01*
X170502728Y-86609650D01*
X170710614Y-86614733D01*
X170853497Y-86640512D01*
X170953792Y-86704199D01*
X171033914Y-86823008D01*
X171116279Y-87014152D01*
X171152588Y-87108703D01*
X171206128Y-87267044D01*
X171217718Y-87366321D01*
X171190184Y-87438668D01*
X171182568Y-87449577D01*
X171076460Y-87518279D01*
X170929959Y-87509489D01*
X170760849Y-87429009D01*
X170586918Y-87282640D01*
X170551039Y-87243613D01*
X170351391Y-87016800D01*
X169760895Y-87016800D01*
X169529621Y-87019863D01*
X169340924Y-87028192D01*
X169214729Y-87040502D01*
X169170876Y-87054900D01*
X169194635Y-87116321D01*
X169255690Y-87236300D01*
X169320873Y-87353694D01*
X169551545Y-87663223D01*
X169873846Y-87945070D01*
X170291335Y-88202245D01*
X170375615Y-88245522D01*
X170582275Y-88344986D01*
X170745525Y-88408606D01*
X170903661Y-88446105D01*
X171094981Y-88467207D01*
X171293714Y-88478627D01*
X171542499Y-88487152D01*
X171720082Y-88482231D01*
X171720082Y-88482231D01*
G37*
X171720082Y-88482231D02*
X171856344Y-88460642D01*
X171981167Y-88419161D01*
X172027315Y-88399511D01*
X172253988Y-88259377D01*
X172400564Y-88066727D01*
X172471263Y-87860039D01*
X172491227Y-87734169D01*
X172491467Y-87602068D01*
X172468003Y-87452908D01*
X172416858Y-87275862D01*
X172334052Y-87060101D01*
X172215606Y-86794797D01*
X172057543Y-86469122D01*
X171855882Y-86072248D01*
X171713429Y-85797600D01*
X171473667Y-85334547D01*
X171279354Y-84951511D01*
X171126557Y-84639720D01*
X171011341Y-84390402D01*
X170929770Y-84194785D01*
X170877911Y-84044096D01*
X170851828Y-83929562D01*
X170846800Y-83865425D01*
X170840485Y-83823436D01*
X170810385Y-83795209D01*
X170739766Y-83778031D01*
X170611895Y-83769188D01*
X170410039Y-83765966D01*
X170231277Y-83765600D01*
X169615755Y-83765600D01*
X169638454Y-83884342D01*
X169646446Y-83943629D01*
X169629228Y-83966571D01*
X169568859Y-83950153D01*
X169447394Y-83891365D01*
X169335885Y-83833542D01*
X169133543Y-83737152D01*
X168965258Y-83685507D01*
X168781273Y-83665924D01*
X168671408Y-83664190D01*
X168422743Y-83678522D01*
X168244408Y-83724754D01*
X168175734Y-83759793D01*
X167996403Y-83922919D01*
X167890700Y-84138670D01*
X167854048Y-84394809D01*
X167881876Y-84679097D01*
X167889275Y-84704416D01*
X169183034Y-84704416D01*
X169208500Y-84658335D01*
X169295215Y-84632911D01*
X169439576Y-84647167D01*
X169609135Y-84693814D01*
X169771444Y-84765566D01*
X169821732Y-84796059D01*
X169966429Y-84929068D01*
X170129564Y-85149203D01*
X170272213Y-85384606D01*
X170535826Y-85848400D01*
X170334081Y-85848400D01*
X170046214Y-85804346D01*
X169770905Y-85668326D01*
X169607942Y-85541828D01*
X169458398Y-85382922D01*
X169330978Y-85197262D01*
X169235840Y-85007315D01*
X169183139Y-84835545D01*
X169183034Y-84704416D01*
X167889275Y-84704416D01*
X167969608Y-84979296D01*
X168112671Y-85283168D01*
X168306491Y-85578476D01*
X168546495Y-85852980D01*
X168828108Y-86094443D01*
X169115608Y-86274580D01*
X169604179Y-86477951D01*
X170121426Y-86587389D01*
X170502728Y-86609650D01*
X170710614Y-86614733D01*
X170853497Y-86640512D01*
X170953792Y-86704199D01*
X171033914Y-86823008D01*
X171116279Y-87014152D01*
X171152588Y-87108703D01*
X171206128Y-87267044D01*
X171217718Y-87366321D01*
X171190184Y-87438668D01*
X171182568Y-87449577D01*
X171076460Y-87518279D01*
X170929959Y-87509489D01*
X170760849Y-87429009D01*
X170586918Y-87282640D01*
X170551039Y-87243613D01*
X170351391Y-87016800D01*
X169760895Y-87016800D01*
X169529621Y-87019863D01*
X169340924Y-87028192D01*
X169214729Y-87040502D01*
X169170876Y-87054900D01*
X169194635Y-87116321D01*
X169255690Y-87236300D01*
X169320873Y-87353694D01*
X169551545Y-87663223D01*
X169873846Y-87945070D01*
X170291335Y-88202245D01*
X170375615Y-88245522D01*
X170582275Y-88344986D01*
X170745525Y-88408606D01*
X170903661Y-88446105D01*
X171094981Y-88467207D01*
X171293714Y-88478627D01*
X171542499Y-88487152D01*
X171720082Y-88482231D01*
G36*
X179970749Y-88975985D02*
X179859939Y-88766325D01*
X179769271Y-88590673D01*
X179708155Y-88467548D01*
X179686000Y-88415578D01*
X179731988Y-88400775D01*
X179850751Y-88390904D01*
X179969073Y-88388400D01*
X180252147Y-88388400D01*
X179763549Y-87474000D01*
X179458074Y-87472448D01*
X179152600Y-87470896D01*
X178500858Y-86240548D01*
X178328526Y-85911287D01*
X178172656Y-85605936D01*
X178039585Y-85337520D01*
X177935650Y-85119066D01*
X177867188Y-84963598D01*
X177840537Y-84884142D01*
X177840458Y-84883200D01*
X177845675Y-84802393D01*
X177893638Y-84761900D01*
X178010922Y-84743433D01*
X178047700Y-84740580D01*
X178179549Y-84727660D01*
X178255942Y-84713633D01*
X178263600Y-84708827D01*
X178243571Y-84659020D01*
X178189445Y-84537081D01*
X178110159Y-84362916D01*
X178040082Y-84211115D01*
X177936183Y-83992695D01*
X177858883Y-83849855D01*
X177794771Y-83764784D01*
X177730433Y-83719673D01*
X177652732Y-83696767D01*
X177477465Y-83675364D01*
X177262257Y-83667878D01*
X177043613Y-83673520D01*
X176858038Y-83691497D01*
X176752621Y-83716265D01*
X176650154Y-83789140D01*
X176547132Y-83908327D01*
X176533512Y-83928945D01*
X176472777Y-84047454D01*
X176448091Y-84173380D01*
X176452831Y-84347836D01*
X176457526Y-84400600D01*
X176470288Y-84501328D01*
X176491968Y-84605025D01*
X176527080Y-84721655D01*
X176580141Y-84861183D01*
X176655663Y-85033571D01*
X176758161Y-85248784D01*
X176892150Y-85516785D01*
X177062145Y-85847538D01*
X177272659Y-86251007D01*
X177442020Y-86573435D01*
X177915841Y-87474000D01*
X177397068Y-87474000D01*
X177882600Y-88386556D01*
X178145388Y-88387478D01*
X178408177Y-88388400D01*
X178704545Y-88934500D01*
X179000914Y-89480600D01*
X180255498Y-89509214D01*
X179970749Y-88975985D01*
X179970749Y-88975985D01*
G37*
X179970749Y-88975985D02*
X179859939Y-88766325D01*
X179769271Y-88590673D01*
X179708155Y-88467548D01*
X179686000Y-88415578D01*
X179731988Y-88400775D01*
X179850751Y-88390904D01*
X179969073Y-88388400D01*
X180252147Y-88388400D01*
X179763549Y-87474000D01*
X179458074Y-87472448D01*
X179152600Y-87470896D01*
X178500858Y-86240548D01*
X178328526Y-85911287D01*
X178172656Y-85605936D01*
X178039585Y-85337520D01*
X177935650Y-85119066D01*
X177867188Y-84963598D01*
X177840537Y-84884142D01*
X177840458Y-84883200D01*
X177845675Y-84802393D01*
X177893638Y-84761900D01*
X178010922Y-84743433D01*
X178047700Y-84740580D01*
X178179549Y-84727660D01*
X178255942Y-84713633D01*
X178263600Y-84708827D01*
X178243571Y-84659020D01*
X178189445Y-84537081D01*
X178110159Y-84362916D01*
X178040082Y-84211115D01*
X177936183Y-83992695D01*
X177858883Y-83849855D01*
X177794771Y-83764784D01*
X177730433Y-83719673D01*
X177652732Y-83696767D01*
X177477465Y-83675364D01*
X177262257Y-83667878D01*
X177043613Y-83673520D01*
X176858038Y-83691497D01*
X176752621Y-83716265D01*
X176650154Y-83789140D01*
X176547132Y-83908327D01*
X176533512Y-83928945D01*
X176472777Y-84047454D01*
X176448091Y-84173380D01*
X176452831Y-84347836D01*
X176457526Y-84400600D01*
X176470288Y-84501328D01*
X176491968Y-84605025D01*
X176527080Y-84721655D01*
X176580141Y-84861183D01*
X176655663Y-85033571D01*
X176758161Y-85248784D01*
X176892150Y-85516785D01*
X177062145Y-85847538D01*
X177272659Y-86251007D01*
X177442020Y-86573435D01*
X177915841Y-87474000D01*
X177397068Y-87474000D01*
X177882600Y-88386556D01*
X178145388Y-88387478D01*
X178408177Y-88388400D01*
X178704545Y-88934500D01*
X179000914Y-89480600D01*
X180255498Y-89509214D01*
X179970749Y-88975985D01*
G36*
X182713499Y-88479642D02*
X182841226Y-88459368D01*
X182952981Y-88420432D01*
X183038800Y-88379057D01*
X183262763Y-88210564D01*
X183413136Y-87976516D01*
X183489871Y-87681458D01*
X183492918Y-87329936D01*
X183422227Y-86926496D01*
X183277751Y-86475686D01*
X183064550Y-85992353D01*
X182855249Y-85593190D01*
X182651395Y-85261205D01*
X182431356Y-84965655D01*
X182173495Y-84675794D01*
X182047769Y-84547414D01*
X181812599Y-84324242D01*
X181602861Y-84155994D01*
X181382903Y-84016406D01*
X181187201Y-83913446D01*
X180974387Y-83810847D01*
X180811793Y-83744929D01*
X180662465Y-83706505D01*
X180489449Y-83686392D01*
X180255791Y-83675405D01*
X180225312Y-83674376D01*
X179980602Y-83668870D01*
X179808956Y-83674247D01*
X179682082Y-83694354D01*
X179571686Y-83733038D01*
X179485773Y-83774944D01*
X179292054Y-83894097D01*
X179162665Y-84027450D01*
X179084441Y-84199086D01*
X179044217Y-84433088D01*
X179033286Y-84602640D01*
X179032273Y-84869030D01*
X179041154Y-84954745D01*
X180280531Y-84954745D01*
X180332917Y-84790825D01*
X180450376Y-84699455D01*
X180625306Y-84685773D01*
X180850103Y-84754920D01*
X180901779Y-84779856D01*
X181115886Y-84928695D01*
X181329416Y-85158913D01*
X181546989Y-85476544D01*
X181773223Y-85887622D01*
X181816887Y-85975400D01*
X182010404Y-86389289D01*
X182145992Y-86726261D01*
X182224585Y-86992211D01*
X182247115Y-87193034D01*
X182214519Y-87334625D01*
X182127728Y-87422878D01*
X182050893Y-87452464D01*
X181844414Y-87453557D01*
X181620470Y-87364046D01*
X181389545Y-87191008D01*
X181162119Y-86941519D01*
X181039049Y-86769305D01*
X180905889Y-86548407D01*
X180761423Y-86278690D01*
X180617699Y-85985992D01*
X180486763Y-85696150D01*
X180380665Y-85435003D01*
X180311451Y-85228388D01*
X180300823Y-85186075D01*
X180280531Y-84954745D01*
X179041154Y-84954745D01*
X179057514Y-85112621D01*
X179115447Y-85359668D01*
X179212514Y-85636425D01*
X179355156Y-85969145D01*
X179384010Y-86032312D01*
X179704292Y-86638163D01*
X180073108Y-87172502D01*
X180484261Y-87628344D01*
X180931556Y-87998703D01*
X181349137Y-88247859D01*
X181556030Y-88347331D01*
X181715778Y-88411226D01*
X181864985Y-88448501D01*
X182040255Y-88468112D01*
X182278190Y-88479017D01*
X182296287Y-88479625D01*
X182541339Y-88485109D01*
X182713499Y-88479642D01*
X182713499Y-88479642D01*
G37*
X182713499Y-88479642D02*
X182841226Y-88459368D01*
X182952981Y-88420432D01*
X183038800Y-88379057D01*
X183262763Y-88210564D01*
X183413136Y-87976516D01*
X183489871Y-87681458D01*
X183492918Y-87329936D01*
X183422227Y-86926496D01*
X183277751Y-86475686D01*
X183064550Y-85992353D01*
X182855249Y-85593190D01*
X182651395Y-85261205D01*
X182431356Y-84965655D01*
X182173495Y-84675794D01*
X182047769Y-84547414D01*
X181812599Y-84324242D01*
X181602861Y-84155994D01*
X181382903Y-84016406D01*
X181187201Y-83913446D01*
X180974387Y-83810847D01*
X180811793Y-83744929D01*
X180662465Y-83706505D01*
X180489449Y-83686392D01*
X180255791Y-83675405D01*
X180225312Y-83674376D01*
X179980602Y-83668870D01*
X179808956Y-83674247D01*
X179682082Y-83694354D01*
X179571686Y-83733038D01*
X179485773Y-83774944D01*
X179292054Y-83894097D01*
X179162665Y-84027450D01*
X179084441Y-84199086D01*
X179044217Y-84433088D01*
X179033286Y-84602640D01*
X179032273Y-84869030D01*
X179041154Y-84954745D01*
X180280531Y-84954745D01*
X180332917Y-84790825D01*
X180450376Y-84699455D01*
X180625306Y-84685773D01*
X180850103Y-84754920D01*
X180901779Y-84779856D01*
X181115886Y-84928695D01*
X181329416Y-85158913D01*
X181546989Y-85476544D01*
X181773223Y-85887622D01*
X181816887Y-85975400D01*
X182010404Y-86389289D01*
X182145992Y-86726261D01*
X182224585Y-86992211D01*
X182247115Y-87193034D01*
X182214519Y-87334625D01*
X182127728Y-87422878D01*
X182050893Y-87452464D01*
X181844414Y-87453557D01*
X181620470Y-87364046D01*
X181389545Y-87191008D01*
X181162119Y-86941519D01*
X181039049Y-86769305D01*
X180905889Y-86548407D01*
X180761423Y-86278690D01*
X180617699Y-85985992D01*
X180486763Y-85696150D01*
X180380665Y-85435003D01*
X180311451Y-85228388D01*
X180300823Y-85186075D01*
X180280531Y-84954745D01*
X179041154Y-84954745D01*
X179057514Y-85112621D01*
X179115447Y-85359668D01*
X179212514Y-85636425D01*
X179355156Y-85969145D01*
X179384010Y-86032312D01*
X179704292Y-86638163D01*
X180073108Y-87172502D01*
X180484261Y-87628344D01*
X180931556Y-87998703D01*
X181349137Y-88247859D01*
X181556030Y-88347331D01*
X181715778Y-88411226D01*
X181864985Y-88448501D01*
X182040255Y-88468112D01*
X182278190Y-88479017D01*
X182296287Y-88479625D01*
X182541339Y-88485109D01*
X182713499Y-88479642D01*
G36*
X167605016Y-90011870D02*
X167930156Y-90004998D01*
X168179676Y-89992666D01*
X168366527Y-89974153D01*
X168503659Y-89948740D01*
X168538879Y-89939116D01*
X168824483Y-89809494D01*
X169033418Y-89617712D01*
X169164934Y-89369125D01*
X169218284Y-89069089D01*
X169192720Y-88722959D01*
X169087493Y-88336092D01*
X168901856Y-87913843D01*
X168838343Y-87795350D01*
X168645495Y-87504766D01*
X168392458Y-87204738D01*
X168105199Y-86921029D01*
X167809690Y-86679397D01*
X167544800Y-86512199D01*
X167383341Y-86428371D01*
X167262469Y-86365196D01*
X167205492Y-86334862D01*
X167203985Y-86333961D01*
X167195315Y-86283712D01*
X167176930Y-86147017D01*
X167150640Y-85938375D01*
X167118254Y-85672286D01*
X167081582Y-85363247D01*
X167063842Y-85211253D01*
X167024480Y-84875388D01*
X166987386Y-84564619D01*
X166954683Y-84296294D01*
X166928495Y-84087763D01*
X166910946Y-83956374D01*
X166907054Y-83930700D01*
X166879796Y-83765600D01*
X166196298Y-83765600D01*
X165946061Y-83766490D01*
X165736943Y-83768927D01*
X165587485Y-83772566D01*
X165516229Y-83777063D01*
X165512800Y-83778339D01*
X165519501Y-83830090D01*
X165538254Y-83967778D01*
X165567035Y-84176722D01*
X165603817Y-84442240D01*
X165646576Y-84749648D01*
X165665200Y-84883200D01*
X165709809Y-85203439D01*
X165749265Y-85487754D01*
X165781542Y-85721463D01*
X165804615Y-85889884D01*
X165816459Y-85978335D01*
X165817600Y-85988062D01*
X165771527Y-85994905D01*
X165652209Y-85999529D01*
X165525284Y-86000800D01*
X165232969Y-86000800D01*
X164030715Y-83765600D01*
X163400157Y-83765600D01*
X163160506Y-83767708D01*
X162962735Y-83773462D01*
X162826146Y-83782006D01*
X162770042Y-83792485D01*
X162769600Y-83793534D01*
X162793020Y-83841830D01*
X162860698Y-83972315D01*
X162968755Y-84177701D01*
X163113315Y-84450702D01*
X163290501Y-84784033D01*
X163496437Y-85170406D01*
X163727244Y-85602535D01*
X163979046Y-86073135D01*
X164247967Y-86574918D01*
X164431927Y-86917734D01*
X164554414Y-87145881D01*
X165907697Y-87145881D01*
X165922984Y-87111482D01*
X165924355Y-87110496D01*
X166029068Y-87082263D01*
X166201030Y-87078763D01*
X166409857Y-87096621D01*
X166625164Y-87132462D01*
X166816564Y-87182913D01*
X166909597Y-87219902D01*
X167135646Y-87369391D01*
X167356041Y-87585352D01*
X167554179Y-87843383D01*
X167713456Y-88119080D01*
X167817268Y-88388039D01*
X167849559Y-88601420D01*
X167829980Y-88749439D01*
X167762007Y-88850438D01*
X167631898Y-88911912D01*
X167425911Y-88941354D01*
X167215996Y-88946924D01*
X166808200Y-88946648D01*
X166330755Y-88052885D01*
X166164136Y-87737752D01*
X166043143Y-87500205D01*
X165963154Y-87329524D01*
X165919546Y-87214989D01*
X165907697Y-87145881D01*
X164554414Y-87145881D01*
X166094254Y-90014000D01*
X167191306Y-90014000D01*
X167605016Y-90011870D01*
X167605016Y-90011870D01*
G37*
X167605016Y-90011870D02*
X167930156Y-90004998D01*
X168179676Y-89992666D01*
X168366527Y-89974153D01*
X168503659Y-89948740D01*
X168538879Y-89939116D01*
X168824483Y-89809494D01*
X169033418Y-89617712D01*
X169164934Y-89369125D01*
X169218284Y-89069089D01*
X169192720Y-88722959D01*
X169087493Y-88336092D01*
X168901856Y-87913843D01*
X168838343Y-87795350D01*
X168645495Y-87504766D01*
X168392458Y-87204738D01*
X168105199Y-86921029D01*
X167809690Y-86679397D01*
X167544800Y-86512199D01*
X167383341Y-86428371D01*
X167262469Y-86365196D01*
X167205492Y-86334862D01*
X167203985Y-86333961D01*
X167195315Y-86283712D01*
X167176930Y-86147017D01*
X167150640Y-85938375D01*
X167118254Y-85672286D01*
X167081582Y-85363247D01*
X167063842Y-85211253D01*
X167024480Y-84875388D01*
X166987386Y-84564619D01*
X166954683Y-84296294D01*
X166928495Y-84087763D01*
X166910946Y-83956374D01*
X166907054Y-83930700D01*
X166879796Y-83765600D01*
X166196298Y-83765600D01*
X165946061Y-83766490D01*
X165736943Y-83768927D01*
X165587485Y-83772566D01*
X165516229Y-83777063D01*
X165512800Y-83778339D01*
X165519501Y-83830090D01*
X165538254Y-83967778D01*
X165567035Y-84176722D01*
X165603817Y-84442240D01*
X165646576Y-84749648D01*
X165665200Y-84883200D01*
X165709809Y-85203439D01*
X165749265Y-85487754D01*
X165781542Y-85721463D01*
X165804615Y-85889884D01*
X165816459Y-85978335D01*
X165817600Y-85988062D01*
X165771527Y-85994905D01*
X165652209Y-85999529D01*
X165525284Y-86000800D01*
X165232969Y-86000800D01*
X164030715Y-83765600D01*
X163400157Y-83765600D01*
X163160506Y-83767708D01*
X162962735Y-83773462D01*
X162826146Y-83782006D01*
X162770042Y-83792485D01*
X162769600Y-83793534D01*
X162793020Y-83841830D01*
X162860698Y-83972315D01*
X162968755Y-84177701D01*
X163113315Y-84450702D01*
X163290501Y-84784033D01*
X163496437Y-85170406D01*
X163727244Y-85602535D01*
X163979046Y-86073135D01*
X164247967Y-86574918D01*
X164431927Y-86917734D01*
X164554414Y-87145881D01*
X165907697Y-87145881D01*
X165922984Y-87111482D01*
X165924355Y-87110496D01*
X166029068Y-87082263D01*
X166201030Y-87078763D01*
X166409857Y-87096621D01*
X166625164Y-87132462D01*
X166816564Y-87182913D01*
X166909597Y-87219902D01*
X167135646Y-87369391D01*
X167356041Y-87585352D01*
X167554179Y-87843383D01*
X167713456Y-88119080D01*
X167817268Y-88388039D01*
X167849559Y-88601420D01*
X167829980Y-88749439D01*
X167762007Y-88850438D01*
X167631898Y-88911912D01*
X167425911Y-88941354D01*
X167215996Y-88946924D01*
X166808200Y-88946648D01*
X166330755Y-88052885D01*
X166164136Y-87737752D01*
X166043143Y-87500205D01*
X165963154Y-87329524D01*
X165919546Y-87214989D01*
X165907697Y-87145881D01*
X164554414Y-87145881D01*
X166094254Y-90014000D01*
X167191306Y-90014000D01*
X167605016Y-90011870D01*
G36*
X187123408Y-88484607D02*
X187236319Y-88470759D01*
X187269567Y-88458700D01*
X187259661Y-88404323D01*
X187210517Y-88277440D01*
X187129687Y-88095729D01*
X187024720Y-87876868D01*
X186998827Y-87824867D01*
X186696787Y-87222335D01*
X186398548Y-87226533D01*
X186057007Y-87186953D01*
X185746417Y-87064670D01*
X185522024Y-86899327D01*
X185466469Y-86824549D01*
X185370214Y-86671526D01*
X185239960Y-86451877D01*
X185082403Y-86177223D01*
X184904243Y-85859185D01*
X184712179Y-85509384D01*
X184582224Y-85268943D01*
X183775400Y-83766725D01*
X183149152Y-83766163D01*
X182522905Y-83765600D01*
X182803221Y-84286300D01*
X182891399Y-84450028D01*
X183020478Y-84689608D01*
X183183140Y-84991462D01*
X183372067Y-85342013D01*
X183579944Y-85727684D01*
X183799451Y-86134898D01*
X184023271Y-86550076D01*
X184042100Y-86585000D01*
X185000663Y-88363000D01*
X185593765Y-88377306D01*
X186186868Y-88391612D01*
X185967374Y-88007400D01*
X186115987Y-88141512D01*
X186411563Y-88348653D01*
X186733265Y-88465495D01*
X186965309Y-88490000D01*
X187123408Y-88484607D01*
X187123408Y-88484607D01*
G37*
X187123408Y-88484607D02*
X187236319Y-88470759D01*
X187269567Y-88458700D01*
X187259661Y-88404323D01*
X187210517Y-88277440D01*
X187129687Y-88095729D01*
X187024720Y-87876868D01*
X186998827Y-87824867D01*
X186696787Y-87222335D01*
X186398548Y-87226533D01*
X186057007Y-87186953D01*
X185746417Y-87064670D01*
X185522024Y-86899327D01*
X185466469Y-86824549D01*
X185370214Y-86671526D01*
X185239960Y-86451877D01*
X185082403Y-86177223D01*
X184904243Y-85859185D01*
X184712179Y-85509384D01*
X184582224Y-85268943D01*
X183775400Y-83766725D01*
X183149152Y-83766163D01*
X182522905Y-83765600D01*
X182803221Y-84286300D01*
X182891399Y-84450028D01*
X183020478Y-84689608D01*
X183183140Y-84991462D01*
X183372067Y-85342013D01*
X183579944Y-85727684D01*
X183799451Y-86134898D01*
X184023271Y-86550076D01*
X184042100Y-86585000D01*
X185000663Y-88363000D01*
X185593765Y-88377306D01*
X186186868Y-88391612D01*
X185967374Y-88007400D01*
X186115987Y-88141512D01*
X186411563Y-88348653D01*
X186733265Y-88465495D01*
X186965309Y-88490000D01*
X187123408Y-88484607D01*
G36*
X190050799Y-85994125D02*
X190160538Y-85977562D01*
X190193133Y-85955721D01*
X190158482Y-85905175D01*
X190069423Y-85785638D01*
X189934303Y-85608021D01*
X189761471Y-85383234D01*
X189559277Y-85122185D01*
X189338000Y-84838256D01*
X188499800Y-83765872D01*
X188207700Y-83765736D01*
X188051055Y-83771664D01*
X187945610Y-83787157D01*
X187917023Y-83803700D01*
X187929323Y-83862143D01*
X187962935Y-84004231D01*
X188014233Y-84215115D01*
X188079596Y-84479947D01*
X188155397Y-84783880D01*
X188186704Y-84908600D01*
X188454961Y-85975400D01*
X188775910Y-85990691D01*
X188955393Y-85994424D01*
X189049917Y-85982169D01*
X189075251Y-85951226D01*
X189072488Y-85939891D01*
X189012606Y-85770411D01*
X188945156Y-85568583D01*
X188877127Y-85356875D01*
X188815511Y-85157754D01*
X188767299Y-84993687D01*
X188739482Y-84887142D01*
X188736039Y-84858628D01*
X188769948Y-84891153D01*
X188850603Y-84992917D01*
X188967104Y-85149497D01*
X189108550Y-85346471D01*
X189160397Y-85420096D01*
X189566600Y-85999719D01*
X189888333Y-86000260D01*
X190050799Y-85994125D01*
X190050799Y-85994125D01*
G37*
X190050799Y-85994125D02*
X190160538Y-85977562D01*
X190193133Y-85955721D01*
X190158482Y-85905175D01*
X190069423Y-85785638D01*
X189934303Y-85608021D01*
X189761471Y-85383234D01*
X189559277Y-85122185D01*
X189338000Y-84838256D01*
X188499800Y-83765872D01*
X188207700Y-83765736D01*
X188051055Y-83771664D01*
X187945610Y-83787157D01*
X187917023Y-83803700D01*
X187929323Y-83862143D01*
X187962935Y-84004231D01*
X188014233Y-84215115D01*
X188079596Y-84479947D01*
X188155397Y-84783880D01*
X188186704Y-84908600D01*
X188454961Y-85975400D01*
X188775910Y-85990691D01*
X188955393Y-85994424D01*
X189049917Y-85982169D01*
X189075251Y-85951226D01*
X189072488Y-85939891D01*
X189012606Y-85770411D01*
X188945156Y-85568583D01*
X188877127Y-85356875D01*
X188815511Y-85157754D01*
X188767299Y-84993687D01*
X188739482Y-84887142D01*
X188736039Y-84858628D01*
X188769948Y-84891153D01*
X188850603Y-84992917D01*
X188967104Y-85149497D01*
X189108550Y-85346471D01*
X189160397Y-85420096D01*
X189566600Y-85999719D01*
X189888333Y-86000260D01*
X190050799Y-85994125D01*
G36*
X192086256Y-86751498D02*
X192098417Y-86726718D01*
X192081549Y-86656660D01*
X192032385Y-86534431D01*
X191947661Y-86353135D01*
X191824114Y-86105879D01*
X191658478Y-85785768D01*
X191447489Y-85385909D01*
X191375996Y-85251500D01*
X190584481Y-83765600D01*
X189956519Y-83765600D01*
X190413899Y-84616500D01*
X190569012Y-84904597D01*
X190718325Y-85181062D01*
X190850980Y-85425858D01*
X190956122Y-85618946D01*
X191017662Y-85730890D01*
X191164045Y-85994380D01*
X190878069Y-85895990D01*
X190717290Y-85843169D01*
X190594708Y-85807456D01*
X190546023Y-85797600D01*
X190543370Y-85837518D01*
X190582955Y-85941267D01*
X190642875Y-86061078D01*
X190785800Y-86324556D01*
X191395400Y-86545076D01*
X191632890Y-86627714D01*
X191840614Y-86693923D01*
X191997514Y-86737411D01*
X192082533Y-86751886D01*
X192086256Y-86751498D01*
X192086256Y-86751498D01*
G37*
X192086256Y-86751498D02*
X192098417Y-86726718D01*
X192081549Y-86656660D01*
X192032385Y-86534431D01*
X191947661Y-86353135D01*
X191824114Y-86105879D01*
X191658478Y-85785768D01*
X191447489Y-85385909D01*
X191375996Y-85251500D01*
X190584481Y-83765600D01*
X189956519Y-83765600D01*
X190413899Y-84616500D01*
X190569012Y-84904597D01*
X190718325Y-85181062D01*
X190850980Y-85425858D01*
X190956122Y-85618946D01*
X191017662Y-85730890D01*
X191164045Y-85994380D01*
X190878069Y-85895990D01*
X190717290Y-85843169D01*
X190594708Y-85807456D01*
X190546023Y-85797600D01*
X190543370Y-85837518D01*
X190582955Y-85941267D01*
X190642875Y-86061078D01*
X190785800Y-86324556D01*
X191395400Y-86545076D01*
X191632890Y-86627714D01*
X191840614Y-86693923D01*
X191997514Y-86737411D01*
X192082533Y-86751886D01*
X192086256Y-86751498D01*
G36*
X110607069Y-135923187D02*
X110886102Y-135892832D01*
X111144730Y-135837186D01*
X111409872Y-135750946D01*
X111708449Y-135628808D01*
X111944200Y-135522597D01*
X112320732Y-135350634D01*
X112623186Y-135217302D01*
X112868979Y-135117059D01*
X113075527Y-135044359D01*
X113260245Y-134993660D01*
X113440550Y-134959418D01*
X113633858Y-134936089D01*
X113839114Y-134919431D01*
X114167794Y-134888372D01*
X114400370Y-134848338D01*
X114542016Y-134798411D01*
X114550314Y-134793506D01*
X114637276Y-134724774D01*
X114775062Y-134599038D01*
X114945308Y-134433695D01*
X115129648Y-134246141D01*
X115144600Y-134230547D01*
X115601800Y-133752742D01*
X116440000Y-133649228D01*
X116750271Y-133610263D01*
X117037736Y-133572387D01*
X117312448Y-133533707D01*
X117584462Y-133492328D01*
X117863835Y-133446359D01*
X118160620Y-133393906D01*
X118484873Y-133333076D01*
X118846650Y-133261976D01*
X119256005Y-133178714D01*
X119722993Y-133081394D01*
X120257669Y-132968126D01*
X120870089Y-132837016D01*
X121570308Y-132686170D01*
X121672400Y-132664129D01*
X122133270Y-132564610D01*
X122631911Y-132456937D01*
X123140396Y-132347141D01*
X123630799Y-132241253D01*
X124075192Y-132145301D01*
X124415600Y-132071804D01*
X124786596Y-131990485D01*
X125229738Y-131891369D01*
X125718413Y-131780531D01*
X126226010Y-131664043D01*
X126725918Y-131547980D01*
X127191524Y-131438415D01*
X127209600Y-131434125D01*
X128113397Y-131220894D01*
X128926590Y-131032041D01*
X129656800Y-130865986D01*
X130311649Y-130721150D01*
X130898761Y-130595955D01*
X131425758Y-130488819D01*
X131900264Y-130398166D01*
X132329900Y-130322414D01*
X132722290Y-130259985D01*
X133085055Y-130209300D01*
X133178600Y-130197462D01*
X133408463Y-130166172D01*
X133621854Y-130132175D01*
X133782610Y-130101386D01*
X133818605Y-130092765D01*
X133910735Y-130079629D01*
X134091605Y-130063646D01*
X134348422Y-130045592D01*
X134668392Y-130026244D01*
X135038718Y-130006380D01*
X135446609Y-129986776D01*
X135850605Y-129969371D01*
X136327718Y-129948257D01*
X136779707Y-129925007D01*
X137192800Y-129900536D01*
X137553225Y-129875758D01*
X137847210Y-129851585D01*
X138060984Y-129828934D01*
X138139372Y-129817457D01*
X138436884Y-129754833D01*
X138818650Y-129656974D01*
X139274846Y-129527003D01*
X139795643Y-129368042D01*
X140371215Y-129183212D01*
X140991736Y-128975638D01*
X141647380Y-128748440D01*
X142328320Y-128504741D01*
X142703600Y-128367192D01*
X144500128Y-127728202D01*
X146301508Y-127136522D01*
X148094346Y-126595843D01*
X149865250Y-126109855D01*
X151600826Y-125682248D01*
X153287683Y-125316711D01*
X154784811Y-125038451D01*
X155182161Y-124970177D01*
X155506593Y-124911860D01*
X155783162Y-124857735D01*
X156036921Y-124802033D01*
X156292926Y-124738987D01*
X156576230Y-124662830D01*
X156911887Y-124567795D01*
X157232400Y-124475039D01*
X157665835Y-124351371D01*
X158077817Y-124239333D01*
X158481837Y-124136076D01*
X158891388Y-124038749D01*
X159319962Y-123944503D01*
X159781050Y-123850487D01*
X160288145Y-123753852D01*
X160854738Y-123651747D01*
X161494322Y-123541323D01*
X162220388Y-123419729D01*
X162256912Y-123413684D01*
X163097528Y-123275157D01*
X163850492Y-123152516D01*
X164528238Y-123044177D01*
X165143200Y-122948554D01*
X165707814Y-122864061D01*
X166234512Y-122789114D01*
X166735730Y-122722125D01*
X167223902Y-122661511D01*
X167711463Y-122605685D01*
X168210845Y-122553063D01*
X168734485Y-122502058D01*
X169294816Y-122451085D01*
X169904272Y-122398560D01*
X170575288Y-122342895D01*
X170796000Y-122324896D01*
X171618187Y-122259077D01*
X172348399Y-122203220D01*
X172995761Y-122157233D01*
X173569398Y-122121028D01*
X174078436Y-122094514D01*
X174532002Y-122077602D01*
X174939220Y-122070201D01*
X175309217Y-122072222D01*
X175651117Y-122083575D01*
X175974048Y-122104169D01*
X176287135Y-122133916D01*
X176599503Y-122172725D01*
X176920278Y-122220505D01*
X177171400Y-122262095D01*
X177494020Y-122317083D01*
X177780828Y-122364622D01*
X178041900Y-122405248D01*
X178287310Y-122439499D01*
X178527133Y-122467913D01*
X178771446Y-122491028D01*
X179030323Y-122509382D01*
X179313841Y-122523512D01*
X179632073Y-122533956D01*
X179995097Y-122541252D01*
X180412987Y-122545937D01*
X180895818Y-122548549D01*
X181453666Y-122549626D01*
X182096607Y-122549706D01*
X182556200Y-122549483D01*
X183297113Y-122548644D01*
X183944712Y-122546747D01*
X184507282Y-122543385D01*
X184993106Y-122538153D01*
X185410469Y-122530644D01*
X185767654Y-122520451D01*
X186072946Y-122507168D01*
X186334630Y-122490388D01*
X186560988Y-122469705D01*
X186760306Y-122444713D01*
X186940866Y-122415006D01*
X187110955Y-122380176D01*
X187278855Y-122339818D01*
X187382200Y-122312724D01*
X187617843Y-122234532D01*
X187918352Y-122112196D01*
X188262835Y-121956056D01*
X188630401Y-121776451D01*
X189000157Y-121583719D01*
X189351212Y-121388199D01*
X189662675Y-121200230D01*
X189766509Y-121132795D01*
X190334211Y-120705619D01*
X190895545Y-120188858D01*
X191443034Y-119594519D01*
X191969201Y-118934611D01*
X192466570Y-118221142D01*
X192927664Y-117466121D01*
X193345007Y-116681555D01*
X193711121Y-115879454D01*
X194018530Y-115071825D01*
X194259757Y-114270676D01*
X194386787Y-113712200D01*
X194498675Y-113041173D01*
X194556932Y-112453229D01*
X194561553Y-111949159D01*
X194512533Y-111529753D01*
X194409866Y-111195804D01*
X194404662Y-111184276D01*
X194291741Y-110979474D01*
X194147657Y-110771521D01*
X194067574Y-110675698D01*
X193952696Y-110542471D01*
X193863577Y-110412201D01*
X193793952Y-110266403D01*
X193737553Y-110086591D01*
X193688115Y-109854280D01*
X193639373Y-109550987D01*
X193606087Y-109314309D01*
X193518943Y-108752175D01*
X193420816Y-108257289D01*
X193313592Y-107834518D01*
X193199155Y-107488727D01*
X193079390Y-107224782D01*
X192956183Y-107047550D01*
X192831419Y-106961897D01*
X192706982Y-106972689D01*
X192700317Y-106976107D01*
X192520450Y-107114125D01*
X192328125Y-107335704D01*
X192133663Y-107625389D01*
X191947384Y-107967726D01*
X191779607Y-108347262D01*
X191772414Y-108365591D01*
X191684603Y-108555834D01*
X191578989Y-108738092D01*
X191527946Y-108810000D01*
X191375449Y-109055208D01*
X191285632Y-109312516D01*
X191268116Y-109465281D01*
X191254003Y-109604778D01*
X191219932Y-109769371D01*
X191215321Y-109786480D01*
X191165431Y-109915124D01*
X191084754Y-109986696D01*
X190957402Y-110030869D01*
X190768851Y-110053835D01*
X190624306Y-110000705D01*
X190509640Y-109862326D01*
X190432391Y-109690770D01*
X190308490Y-109396314D01*
X190140061Y-109050788D01*
X189943720Y-108684262D01*
X189736085Y-108326806D01*
X189533771Y-108008492D01*
X189393757Y-107811200D01*
X189115290Y-107470777D01*
X188866375Y-107223425D01*
X188643291Y-107066216D01*
X188442315Y-106996225D01*
X188352573Y-106992752D01*
X188209607Y-107013810D01*
X188122782Y-107062542D01*
X188089070Y-107153385D01*
X188105441Y-107300774D01*
X188168865Y-107519145D01*
X188214364Y-107651246D01*
X188361462Y-108076399D01*
X188473777Y-108425337D01*
X188555890Y-108715509D01*
X188612385Y-108964365D01*
X188647843Y-109189353D01*
X188664143Y-109363891D01*
X188675875Y-109577292D01*
X188674005Y-109713023D01*
X188655476Y-109794467D01*
X188617227Y-109845004D01*
X188599337Y-109859191D01*
X188480777Y-109903066D01*
X188296451Y-109924727D01*
X188080092Y-109922497D01*
X187869132Y-109895447D01*
X187682615Y-109814571D01*
X187475098Y-109648289D01*
X187257422Y-109407676D01*
X187040430Y-109103808D01*
X186949998Y-108956397D01*
X186763703Y-108649657D01*
X186610999Y-108425550D01*
X186483277Y-108274291D01*
X186371924Y-108186092D01*
X186268332Y-108151166D01*
X186240157Y-108149600D01*
X186113140Y-108175240D01*
X186036793Y-108224844D01*
X186008029Y-108307494D01*
X185979745Y-108477637D01*
X185953796Y-108721176D01*
X185932273Y-109019906D01*
X185912411Y-109297859D01*
X185888980Y-109526170D01*
X185864069Y-109688610D01*
X185839770Y-109768949D01*
X185835202Y-109773716D01*
X185736591Y-109809791D01*
X185565531Y-109849820D01*
X185350828Y-109889379D01*
X185121289Y-109924045D01*
X184905717Y-109949394D01*
X184732919Y-109961001D01*
X184642151Y-109956943D01*
X184472027Y-109887990D01*
X184318630Y-109743472D01*
X184175889Y-109515312D01*
X184037735Y-109195435D01*
X184007540Y-109112479D01*
X183746465Y-108405980D01*
X183492716Y-107785212D01*
X183238668Y-107235409D01*
X182976695Y-106741808D01*
X182699169Y-106289645D01*
X182398465Y-105864157D01*
X182196562Y-105606684D01*
X182010158Y-105391372D01*
X181858054Y-105252347D01*
X181723299Y-105178167D01*
X181588943Y-105157393D01*
X181536123Y-105160930D01*
X181426389Y-105187252D01*
X181351012Y-105245517D01*
X181307778Y-105348459D01*
X181294473Y-105508807D01*
X181308884Y-105739293D01*
X181348797Y-106052648D01*
X181363641Y-106152994D01*
X181411601Y-106510205D01*
X181451654Y-106885582D01*
X181482604Y-107259092D01*
X181503255Y-107610703D01*
X181512411Y-107920380D01*
X181508874Y-108168092D01*
X181493314Y-108324400D01*
X181457261Y-108516580D01*
X181331645Y-108398570D01*
X181208617Y-108256408D01*
X181045691Y-108024369D01*
X180844613Y-107705249D01*
X180607132Y-107301844D01*
X180334992Y-106816950D01*
X180271837Y-106701800D01*
X179963474Y-106155436D01*
X179671657Y-105674158D01*
X179399780Y-105262439D01*
X179151238Y-104924752D01*
X178929425Y-104665572D01*
X178737736Y-104489373D01*
X178579566Y-104400628D01*
X178517995Y-104390401D01*
X178409999Y-104402052D01*
X178333591Y-104446480D01*
X178283793Y-104537891D01*
X178255622Y-104690494D01*
X178244099Y-104918496D01*
X178243592Y-105173175D01*
X178253078Y-105467355D01*
X178277938Y-105787618D01*
X178320355Y-106153737D01*
X178382512Y-106585487D01*
X178437242Y-106927094D01*
X178490319Y-107262015D01*
X178534785Y-107569291D01*
X178568636Y-107832745D01*
X178589871Y-108036199D01*
X178596486Y-108163477D01*
X178593911Y-108192644D01*
X178566237Y-108279289D01*
X178527713Y-108279250D01*
X178466469Y-108221351D01*
X178405080Y-108140537D01*
X178308096Y-107991567D01*
X178188664Y-107795428D01*
X178059930Y-107573108D01*
X178055581Y-107565400D01*
X177751406Y-107046534D01*
X177465416Y-106600075D01*
X177200616Y-106229578D01*
X176960011Y-105938597D01*
X176746605Y-105730684D01*
X176563405Y-105609394D01*
X176413414Y-105578280D01*
X176380981Y-105585159D01*
X176293578Y-105653767D01*
X176204549Y-105788677D01*
X176177423Y-105846078D01*
X176114158Y-105973683D01*
X176060864Y-106047035D01*
X176041511Y-106054680D01*
X175978319Y-106023924D01*
X175853282Y-105962945D01*
X175723600Y-105899654D01*
X175519814Y-105813763D01*
X175303475Y-105742938D01*
X175192058Y-105716360D01*
X175077065Y-105686337D01*
X174965725Y-105634409D01*
X174846990Y-105550556D01*
X174709811Y-105424757D01*
X174543141Y-105246992D01*
X174335930Y-105007240D01*
X174108379Y-104733506D01*
X173884326Y-104482166D01*
X173652914Y-104259494D01*
X173429748Y-104077804D01*
X173230431Y-103949409D01*
X173070568Y-103886624D01*
X173029853Y-103882400D01*
X172880551Y-103928565D01*
X172758275Y-104048685D01*
X172685944Y-104215197D01*
X172675669Y-104308351D01*
X172684512Y-104432072D01*
X172707938Y-104620334D01*
X172741402Y-104837894D01*
X172751800Y-104898400D01*
X172789898Y-105148600D01*
X172815250Y-105384624D01*
X172826891Y-105586517D01*
X172823854Y-105734324D01*
X172805173Y-105808088D01*
X172796057Y-105812800D01*
X172736203Y-105797542D01*
X172605249Y-105756978D01*
X172428149Y-105698922D01*
X172370454Y-105679502D01*
X172149739Y-105610666D01*
X171995737Y-105579360D01*
X171882479Y-105581492D01*
X171830896Y-105594514D01*
X171724069Y-105656172D01*
X171673050Y-105759037D01*
X171678263Y-105913642D01*
X171740136Y-106130518D01*
X171859095Y-106420201D01*
X171864818Y-106432944D01*
X171966739Y-106669001D01*
X172021956Y-106834152D01*
X172030187Y-106947866D01*
X171991146Y-107029613D01*
X171904548Y-107098862D01*
X171854653Y-107128492D01*
X171789472Y-107157377D01*
X171713481Y-107166140D01*
X171605409Y-107151924D01*
X171443983Y-107111875D01*
X171207932Y-107043140D01*
X171199271Y-107040544D01*
X170954225Y-106970622D01*
X170719411Y-106909826D01*
X170527431Y-106866296D01*
X170440400Y-106851029D01*
X170273763Y-106826276D01*
X170144569Y-106793804D01*
X170039567Y-106740391D01*
X169945501Y-106652819D01*
X169849119Y-106517867D01*
X169737169Y-106322314D01*
X169596396Y-106052940D01*
X169550392Y-105963234D01*
X169166143Y-105257437D01*
X168780952Y-104641420D01*
X168386592Y-104103624D01*
X167974834Y-103632491D01*
X167696973Y-103359310D01*
X167387429Y-103101059D01*
X167105360Y-102923140D01*
X166857921Y-102829607D01*
X166737541Y-102815600D01*
X166626745Y-102829233D01*
X166563542Y-102879810D01*
X166545233Y-102981854D01*
X166569118Y-103149885D01*
X166630512Y-103391323D01*
X166810526Y-104057257D01*
X166956120Y-104641678D01*
X167066783Y-105142039D01*
X167142004Y-105555793D01*
X167181272Y-105880392D01*
X167184076Y-106113289D01*
X167181537Y-106138372D01*
X167170217Y-106191982D01*
X167146978Y-106206241D01*
X167102643Y-106171722D01*
X167028035Y-106079000D01*
X166913977Y-105918650D01*
X166785860Y-105731972D01*
X166438714Y-105232642D01*
X166135841Y-104818705D01*
X165873345Y-104486096D01*
X165647332Y-104230754D01*
X165453905Y-104048614D01*
X165289170Y-103935613D01*
X165149230Y-103887688D01*
X165030313Y-103900728D01*
X164975690Y-103972702D01*
X164956129Y-104134355D01*
X164971670Y-104387330D01*
X165022351Y-104733273D01*
X165054478Y-104908522D01*
X165139157Y-105372233D01*
X165197095Y-105743398D01*
X165228934Y-106027311D01*
X165235315Y-106229266D01*
X165225727Y-106321062D01*
X165198696Y-106423458D01*
X165155580Y-106498006D01*
X165083085Y-106547032D01*
X164967919Y-106572863D01*
X164796788Y-106577827D01*
X164556400Y-106564250D01*
X164233461Y-106534459D01*
X164090400Y-106519793D01*
X163550927Y-106459230D01*
X163102375Y-106397951D01*
X162734088Y-106333047D01*
X162435410Y-106261613D01*
X162195686Y-106180742D01*
X162004261Y-106087527D01*
X161850478Y-105979060D01*
X161748927Y-105881037D01*
X161659595Y-105775321D01*
X161532326Y-105615057D01*
X161388892Y-105427901D01*
X161325883Y-105343638D01*
X161100615Y-105061455D01*
X160860214Y-104797950D01*
X160614071Y-104559531D01*
X160371576Y-104352606D01*
X160142120Y-104183582D01*
X159935094Y-104058866D01*
X159759886Y-103984868D01*
X159625889Y-103967994D01*
X159542491Y-104014651D01*
X159518400Y-104110271D01*
X159528978Y-104240753D01*
X159558643Y-104452572D01*
X159604285Y-104727919D01*
X159662799Y-105048984D01*
X159731076Y-105397959D01*
X159804555Y-105750285D01*
X159859539Y-106010749D01*
X159893211Y-106190847D01*
X159906879Y-106309264D01*
X159901854Y-106384683D01*
X159879446Y-106435788D01*
X159854763Y-106466389D01*
X159705558Y-106567159D01*
X159484792Y-106636376D01*
X159218100Y-106672076D01*
X158931118Y-106672296D01*
X158649480Y-106635072D01*
X158439444Y-106574826D01*
X158226453Y-106503002D01*
X158071423Y-106480328D01*
X157942712Y-106508068D01*
X157808674Y-106587485D01*
X157790469Y-106600739D01*
X157534642Y-106741242D01*
X157251839Y-106818831D01*
X157124950Y-106828517D01*
X156958660Y-106786419D01*
X156797427Y-106656060D01*
X156636150Y-106432433D01*
X156537554Y-106252027D01*
X156166868Y-105615791D01*
X155721082Y-105020620D01*
X155489953Y-104762302D01*
X155251171Y-104523609D01*
X155061685Y-104364008D01*
X154913996Y-104278349D01*
X154800603Y-104261483D01*
X154771817Y-104269195D01*
X154721196Y-104339733D01*
X154695613Y-104491196D01*
X154695084Y-104706037D01*
X154719626Y-104966710D01*
X154769256Y-105255670D01*
X154770876Y-105263379D01*
X154817113Y-105520019D01*
X154857169Y-105807490D01*
X154878279Y-106016000D01*
X154890177Y-106218745D01*
X154884995Y-106351097D01*
X154857925Y-106443519D01*
X154804162Y-106526473D01*
X154796115Y-106536700D01*
X154652153Y-106647736D01*
X154473596Y-106665804D01*
X154263565Y-106592276D01*
X154025185Y-106428523D01*
X153761578Y-106175917D01*
X153626564Y-106022989D01*
X153394357Y-105778484D01*
X153178299Y-105611168D01*
X152985787Y-105524234D01*
X152824219Y-105520874D01*
X152700990Y-105604278D01*
X152690073Y-105618915D01*
X152641520Y-105721823D01*
X152585553Y-105890309D01*
X152533396Y-106090077D01*
X152527993Y-106114215D01*
X152473180Y-106331014D01*
X152409319Y-106535547D01*
X152349878Y-106684855D01*
X152347768Y-106689100D01*
X152251935Y-106879601D01*
X151885669Y-106879600D01*
X151678726Y-106885036D01*
X151528919Y-106909301D01*
X151392019Y-106964334D01*
X151234766Y-107055288D01*
X150925360Y-107218894D01*
X150650955Y-107299750D01*
X150391605Y-107300566D01*
X150127362Y-107224051D01*
X150095000Y-107210078D01*
X149964561Y-107174933D01*
X149733548Y-107140901D01*
X149401797Y-107107969D01*
X148969144Y-107076127D01*
X148435423Y-107045362D01*
X147800472Y-107015663D01*
X147064124Y-106987017D01*
X146894600Y-106981066D01*
X145989487Y-106946398D01*
X145177313Y-106907433D01*
X144449466Y-106862936D01*
X143797329Y-106811673D01*
X143212289Y-106752410D01*
X142685732Y-106683913D01*
X142209044Y-106604947D01*
X141773609Y-106514278D01*
X141370815Y-106410671D01*
X140992047Y-106292892D01*
X140628690Y-106159708D01*
X140347105Y-106042889D01*
X139978835Y-105892233D01*
X139612380Y-105763985D01*
X139222680Y-105650957D01*
X138784674Y-105545965D01*
X138273301Y-105441821D01*
X138207800Y-105429413D01*
X137940993Y-105377768D01*
X137710030Y-105330349D01*
X137533169Y-105291117D01*
X137428667Y-105264033D01*
X137409084Y-105256149D01*
X137437316Y-105225429D01*
X137542058Y-105165166D01*
X137705913Y-105084602D01*
X137874166Y-105009018D01*
X138136006Y-104886136D01*
X138437439Y-104730006D01*
X138733894Y-104564295D01*
X138901482Y-104463486D01*
X139153551Y-104310035D01*
X139375766Y-104186589D01*
X139589902Y-104084569D01*
X139817734Y-103995397D01*
X140081037Y-103910497D01*
X140401586Y-103821290D01*
X140773200Y-103726184D01*
X141789563Y-103496302D01*
X142895620Y-103292091D01*
X144082396Y-103114987D01*
X145340918Y-102966421D01*
X145827800Y-102918521D01*
X146503160Y-102853111D01*
X147089896Y-102790491D01*
X147600864Y-102728606D01*
X148048923Y-102665401D01*
X148446933Y-102598821D01*
X148807751Y-102526811D01*
X149144237Y-102447317D01*
X149469250Y-102358282D01*
X149623935Y-102311868D01*
X150006265Y-102208308D01*
X150399420Y-102126657D01*
X150768801Y-102073046D01*
X151079807Y-102053602D01*
X151081929Y-102053600D01*
X151274108Y-102053600D01*
X151306492Y-102396500D01*
X151323248Y-102630632D01*
X151335078Y-102903948D01*
X151339238Y-103136440D01*
X151348358Y-103400517D01*
X151378732Y-103577777D01*
X151435735Y-103681754D01*
X151524740Y-103725981D01*
X151574934Y-103730001D01*
X151694156Y-103687266D01*
X151853645Y-103566111D01*
X152044648Y-103377109D01*
X152258415Y-103130834D01*
X152486196Y-102837859D01*
X152719239Y-102508758D01*
X152948794Y-102154104D01*
X153125580Y-101856394D01*
X153290718Y-101584982D01*
X153442202Y-101388136D01*
X153603023Y-101245662D01*
X153796176Y-101137365D01*
X154044653Y-101043052D01*
X154055865Y-101039351D01*
X154338567Y-100959920D01*
X154655902Y-100893129D01*
X154990134Y-100840345D01*
X155323523Y-100802935D01*
X155638332Y-100782265D01*
X155916823Y-100779701D01*
X156141256Y-100796609D01*
X156293895Y-100834356D01*
X156339771Y-100863429D01*
X156388166Y-100920391D01*
X156411595Y-100985118D01*
X156410051Y-101080993D01*
X156383525Y-101231402D01*
X156339558Y-101427228D01*
X156295891Y-101673876D01*
X156268607Y-101950298D01*
X156257724Y-102231970D01*
X156263259Y-102494365D01*
X156285232Y-102712955D01*
X156323660Y-102863213D01*
X156338482Y-102891424D01*
X156397866Y-102961920D01*
X156464685Y-102985314D01*
X156552731Y-102955383D01*
X156675793Y-102865902D01*
X156847661Y-102710651D01*
X156944153Y-102618105D01*
X157311600Y-102225936D01*
X157672376Y-101774280D01*
X157995980Y-101302416D01*
X158102874Y-101125953D01*
X158274558Y-100847609D01*
X158426875Y-100645786D01*
X158578605Y-100502839D01*
X158748525Y-100401120D01*
X158955414Y-100322985D01*
X158958299Y-100322088D01*
X159379188Y-100207672D01*
X159873550Y-100100260D01*
X160413287Y-100004412D01*
X160970300Y-99924692D01*
X161516492Y-99865661D01*
X161960107Y-99834727D01*
X162598415Y-99803895D01*
X162709407Y-99944999D01*
X162803165Y-100143705D01*
X162807592Y-100381380D01*
X162744200Y-100597965D01*
X162684020Y-100814053D01*
X162672670Y-101034039D01*
X162705788Y-101233318D01*
X162779015Y-101387289D01*
X162887992Y-101471348D01*
X162899549Y-101474680D01*
X163034254Y-101458888D01*
X163207231Y-101359526D01*
X163411065Y-101183771D01*
X163638338Y-100938800D01*
X163881635Y-100631792D01*
X164114515Y-100298806D01*
X164277732Y-100058588D01*
X164398766Y-99898051D01*
X164486148Y-99808835D01*
X164548409Y-99782585D01*
X164594079Y-99810940D01*
X164601493Y-99821667D01*
X164640841Y-99932924D01*
X164648422Y-100001027D01*
X164685166Y-100115425D01*
X164749391Y-100198126D01*
X164883541Y-100256423D01*
X165099548Y-100261334D01*
X165399482Y-100212852D01*
X165473879Y-100195754D01*
X165612758Y-100162470D01*
X165589000Y-101774200D01*
X165706092Y-101790800D01*
X165779383Y-101787539D01*
X165868445Y-101753530D01*
X165982471Y-101681553D01*
X166130649Y-101564389D01*
X166322169Y-101394816D01*
X166566223Y-101165615D01*
X166844581Y-100896335D01*
X167056472Y-100694141D01*
X167246614Y-100521281D01*
X167402146Y-100388766D01*
X167510204Y-100307610D01*
X167555781Y-100287412D01*
X167609683Y-100348684D01*
X167637074Y-100444618D01*
X167684403Y-100551299D01*
X167794815Y-100589500D01*
X167970943Y-100558787D01*
X168215421Y-100458728D01*
X168510000Y-100301000D01*
X168711672Y-100187671D01*
X168884392Y-100096457D01*
X169007358Y-100037986D01*
X169056100Y-100021926D01*
X169103281Y-100067926D01*
X169114067Y-100203070D01*
X169089529Y-100422061D01*
X169030736Y-100719602D01*
X168938761Y-101090398D01*
X168814673Y-101529151D01*
X168659544Y-102030566D01*
X168633937Y-102110009D01*
X168534643Y-102426147D01*
X168447473Y-102722023D01*
X168377304Y-102979567D01*
X168329010Y-103180708D01*
X168307469Y-103307378D01*
X168306800Y-103322417D01*
X168316323Y-103457846D01*
X168356950Y-103525876D01*
X168433800Y-103556740D01*
X168565919Y-103572559D01*
X168700464Y-103545177D01*
X168857809Y-103466020D01*
X169058329Y-103326510D01*
X169151874Y-103254486D01*
X169508770Y-102939800D01*
X169894650Y-102532158D01*
X170310975Y-102029996D01*
X170391456Y-101926600D01*
X170678844Y-101565877D01*
X170988338Y-101198216D01*
X171307472Y-100836874D01*
X171623778Y-100495106D01*
X171924790Y-100186169D01*
X172198038Y-99923318D01*
X172431057Y-99719809D01*
X172556442Y-99624658D01*
X172749291Y-99529231D01*
X172913815Y-99526770D01*
X173043654Y-99616997D01*
X173065404Y-99646908D01*
X173092039Y-99692534D01*
X173109161Y-99743819D01*
X173115271Y-99813825D01*
X173108872Y-99915610D01*
X173088467Y-100062235D01*
X173052557Y-100266761D01*
X172999645Y-100542247D01*
X172928234Y-100901754D01*
X172912497Y-100980408D01*
X172822137Y-101441680D01*
X172754430Y-101812519D01*
X172708581Y-102101348D01*
X172683797Y-102316591D01*
X172679282Y-102466673D01*
X172694244Y-102560016D01*
X172727888Y-102605046D01*
X172758664Y-102612400D01*
X172829573Y-102576255D01*
X172953289Y-102476930D01*
X173116155Y-102328091D01*
X173304515Y-102143402D01*
X173504713Y-101936529D01*
X173703091Y-101721137D01*
X173885994Y-101510892D01*
X174002455Y-101367800D01*
X174145222Y-101179828D01*
X174320835Y-100939858D01*
X174505771Y-100680421D01*
X174657926Y-100461291D01*
X174849451Y-100184171D01*
X175000836Y-99980280D01*
X175128430Y-99838401D01*
X175248586Y-99747315D01*
X175377654Y-99695806D01*
X175531985Y-99672656D01*
X175727930Y-99666647D01*
X175816397Y-99666525D01*
X176080801Y-99671604D01*
X176398967Y-99684871D01*
X176723593Y-99704078D01*
X176917400Y-99718831D01*
X177328162Y-99756397D01*
X177648024Y-99794624D01*
X177887572Y-99838959D01*
X178057393Y-99894852D01*
X178168074Y-99967752D01*
X178230201Y-100063107D01*
X178254360Y-100186367D01*
X178251139Y-100342980D01*
X178245902Y-100402600D01*
X178222799Y-100550245D01*
X178176837Y-100773473D01*
X178113088Y-101050178D01*
X178036623Y-101358260D01*
X177960506Y-101646363D01*
X177879560Y-101953484D01*
X177809161Y-102239468D01*
X177753667Y-102485062D01*
X177717430Y-102671016D01*
X177704800Y-102776663D01*
X177712219Y-102902183D01*
X177748901Y-102955950D01*
X177836483Y-102967527D01*
X177844500Y-102967524D01*
X178030303Y-102925253D01*
X178262875Y-102803347D01*
X178533880Y-102607533D01*
X178834987Y-102343537D01*
X179025600Y-102155853D01*
X179302887Y-101885130D01*
X179537115Y-101686425D01*
X179742662Y-101547948D01*
X179813000Y-101510275D01*
X180019283Y-101400295D01*
X180254642Y-101264165D01*
X180445807Y-101145551D01*
X180652065Y-101020385D01*
X180792330Y-100961005D01*
X180878448Y-100967905D01*
X180922267Y-101041575D01*
X180935341Y-101165886D01*
X180942086Y-101342949D01*
X180959120Y-101441421D01*
X180997425Y-101484308D01*
X181067986Y-101494617D01*
X181092361Y-101494800D01*
X181282722Y-101457860D01*
X181512965Y-101344882D01*
X181788637Y-101152627D01*
X182048200Y-100937307D01*
X182305626Y-100718581D01*
X182516706Y-100561925D01*
X182706565Y-100457199D01*
X182900326Y-100394262D01*
X183123115Y-100362973D01*
X183400054Y-100353191D01*
X183496000Y-100352931D01*
X183807761Y-100359871D01*
X184037545Y-100379099D01*
X184176777Y-100409815D01*
X184194734Y-100418219D01*
X184276670Y-100496096D01*
X184376515Y-100635137D01*
X184462165Y-100785513D01*
X184548987Y-100942591D01*
X184632342Y-101040354D01*
X184730078Y-101080242D01*
X184860048Y-101063694D01*
X185040101Y-100992150D01*
X185288088Y-100867051D01*
X185312646Y-100854113D01*
X185525790Y-100744766D01*
X185678341Y-100677874D01*
X185797784Y-100645240D01*
X185911600Y-100638671D01*
X186010600Y-100646001D01*
X186167703Y-100674547D01*
X186396135Y-100731867D01*
X186672268Y-100810598D01*
X186972476Y-100903375D01*
X187273132Y-101002833D01*
X187550608Y-101101608D01*
X187781278Y-101192335D01*
X187827779Y-101212416D01*
X187979763Y-101281237D01*
X188087173Y-101343622D01*
X188155565Y-101417131D01*
X188190498Y-101519322D01*
X188197529Y-101667753D01*
X188182215Y-101879983D01*
X188150116Y-102173569D01*
X188145335Y-102215667D01*
X188115392Y-102519705D01*
X188092762Y-102828729D01*
X188079447Y-103108994D01*
X188077447Y-103326758D01*
X188078133Y-103349000D01*
X188087041Y-103550657D01*
X188100449Y-103672340D01*
X188126430Y-103735611D01*
X188173053Y-103762033D01*
X188236383Y-103771792D01*
X188364742Y-103765858D01*
X188486667Y-103709309D01*
X188615533Y-103590810D01*
X188764710Y-103399023D01*
X188882654Y-103223924D01*
X189000395Y-103048422D01*
X189099846Y-102910713D01*
X189167130Y-102829478D01*
X189185956Y-102815600D01*
X189258510Y-102858432D01*
X189321304Y-102990619D01*
X189376770Y-103217703D01*
X189386815Y-103272800D01*
X189438478Y-103547555D01*
X189485004Y-103735787D01*
X189533010Y-103851889D01*
X189589110Y-103910256D01*
X189659918Y-103925283D01*
X189685797Y-103923402D01*
X189755343Y-103902972D01*
X189820553Y-103848107D01*
X189894286Y-103742053D01*
X189989399Y-103568058D01*
X190049200Y-103449931D01*
X190159833Y-103212316D01*
X190285085Y-102917993D01*
X190408442Y-102606970D01*
X190500038Y-102357731D01*
X190643766Y-101963194D01*
X190771623Y-101651693D01*
X190892380Y-101407698D01*
X191014806Y-101215677D01*
X191147668Y-101060100D01*
X191299738Y-100925435D01*
X191315815Y-100912924D01*
X191724986Y-100553201D01*
X192047812Y-100167061D01*
X192274912Y-99786317D01*
X192489453Y-99310129D01*
X192625809Y-98879643D01*
X192684709Y-98476573D01*
X192666885Y-98082632D01*
X192573067Y-97679534D01*
X192403988Y-97248992D01*
X192378533Y-97194314D01*
X192133039Y-96791016D01*
X191806004Y-96438553D01*
X191420799Y-96157279D01*
X191066958Y-95963885D01*
X190628608Y-95751720D01*
X190119983Y-95525931D01*
X189555319Y-95291670D01*
X188948849Y-95054085D01*
X188314809Y-94818325D01*
X187667434Y-94589540D01*
X187020957Y-94372880D01*
X186389614Y-94173494D01*
X185787638Y-93996531D01*
X185229266Y-93847140D01*
X184728731Y-93730472D01*
X184689800Y-93722331D01*
X184316738Y-93644026D01*
X183917124Y-93558330D01*
X183524090Y-93472468D01*
X183170771Y-93393665D01*
X182937200Y-93340146D01*
X182609608Y-93266467D01*
X182266403Y-93195147D01*
X181894733Y-93123956D01*
X181481745Y-93050660D01*
X181014586Y-92973031D01*
X180480406Y-92888835D01*
X179866351Y-92795843D01*
X179432000Y-92731634D01*
X179077776Y-92678880D01*
X178748029Y-92628298D01*
X178458993Y-92582493D01*
X178226901Y-92544073D01*
X178067985Y-92515645D01*
X178009600Y-92503246D01*
X177831754Y-92466007D01*
X177562291Y-92421389D01*
X177210836Y-92370514D01*
X176787015Y-92314501D01*
X176300454Y-92254471D01*
X175760779Y-92191543D01*
X175177617Y-92126837D01*
X174560593Y-92061473D01*
X173919334Y-91996572D01*
X173263465Y-91933254D01*
X172602613Y-91872638D01*
X172548600Y-91867831D01*
X171522895Y-91773969D01*
X170578525Y-91681459D01*
X169695285Y-91588081D01*
X168852972Y-91491616D01*
X168031383Y-91389844D01*
X167240000Y-91284623D01*
X166722686Y-91213683D01*
X166288617Y-91154519D01*
X165920370Y-91105145D01*
X165600525Y-91063577D01*
X165311662Y-91027831D01*
X165036361Y-90995923D01*
X164757200Y-90965868D01*
X164456759Y-90935681D01*
X164117618Y-90903379D01*
X163722355Y-90866977D01*
X163253552Y-90824491D01*
X162998200Y-90801436D01*
X162197703Y-90727522D01*
X161478861Y-90657274D01*
X160821913Y-90588278D01*
X160207095Y-90518120D01*
X159614645Y-90444385D01*
X159024801Y-90364660D01*
X158417800Y-90276530D01*
X157773880Y-90177583D01*
X157384800Y-90115745D01*
X156919627Y-90042648D01*
X156414536Y-89965997D01*
X155898304Y-89889977D01*
X155399711Y-89818770D01*
X154947537Y-89756562D01*
X154614753Y-89713072D01*
X153769653Y-89596995D01*
X152999245Y-89469713D01*
X152276764Y-89325360D01*
X151575444Y-89158072D01*
X150868517Y-88961984D01*
X150129218Y-88731232D01*
X150120400Y-88728347D01*
X149822464Y-88635745D01*
X149510476Y-88547087D01*
X149220382Y-88472116D01*
X148988133Y-88420575D01*
X148977400Y-88418548D01*
X148507235Y-88327993D01*
X148102497Y-88242190D01*
X147738197Y-88153957D01*
X147389346Y-88056113D01*
X147030957Y-87941479D01*
X146638041Y-87802874D01*
X146185610Y-87633116D01*
X146012685Y-87566600D01*
X145460430Y-87357686D01*
X144949185Y-87174970D01*
X144462032Y-87014050D01*
X143982051Y-86870523D01*
X143492326Y-86739983D01*
X142975939Y-86618029D01*
X142415970Y-86500257D01*
X141795502Y-86382262D01*
X141097617Y-86259642D01*
X140796459Y-86208891D01*
X140305888Y-86129354D01*
X139865823Y-86063896D01*
X139452538Y-86010033D01*
X139042312Y-85965281D01*
X138611420Y-85927157D01*
X138136140Y-85893177D01*
X137592748Y-85860858D01*
X137344200Y-85847481D01*
X136760039Y-85817824D01*
X136265487Y-85795392D01*
X135848808Y-85780179D01*
X135498268Y-85772176D01*
X135202133Y-85771375D01*
X134948669Y-85777769D01*
X134726142Y-85791348D01*
X134522816Y-85812106D01*
X134326958Y-85840034D01*
X134294142Y-85845398D01*
X133977200Y-85894060D01*
X133579617Y-85948839D01*
X133121999Y-86007337D01*
X132624946Y-86067157D01*
X132109063Y-86125902D01*
X131594953Y-86181177D01*
X131103219Y-86230583D01*
X130654463Y-86271724D01*
X130562400Y-86279523D01*
X130197640Y-86314316D01*
X129797743Y-86359780D01*
X129402930Y-86410902D01*
X129053423Y-86462666D01*
X128936800Y-86482169D01*
X128699520Y-86523152D01*
X128381482Y-86577404D01*
X128002169Y-86641638D01*
X127581065Y-86712567D01*
X127137655Y-86786904D01*
X126691420Y-86861364D01*
X126523800Y-86889233D01*
X125956406Y-86984569D01*
X125472233Y-87068974D01*
X125053991Y-87146355D01*
X124684391Y-87220618D01*
X124346143Y-87295667D01*
X124021956Y-87375410D01*
X123694541Y-87463751D01*
X123346608Y-87564597D01*
X122960867Y-87681853D01*
X122815400Y-87726971D01*
X122492387Y-87827184D01*
X122205630Y-87915088D01*
X121940933Y-87994612D01*
X121684101Y-88069686D01*
X121420938Y-88144241D01*
X121137251Y-88222208D01*
X120818844Y-88307515D01*
X120451522Y-88404093D01*
X120021090Y-88515872D01*
X119513352Y-88646783D01*
X119231098Y-88719346D01*
X118782477Y-88835426D01*
X118322338Y-88955957D01*
X117870955Y-89075525D01*
X117448599Y-89188716D01*
X117075544Y-89290116D01*
X116772062Y-89374311D01*
X116668749Y-89403663D01*
X116208175Y-89534410D01*
X115798572Y-89647011D01*
X115413960Y-89747958D01*
X115028360Y-89843738D01*
X114615794Y-89940841D01*
X114150282Y-90045757D01*
X113722200Y-90139697D01*
X113337083Y-90226767D01*
X112901351Y-90330859D01*
X112429402Y-90448074D01*
X111935635Y-90574514D01*
X111434448Y-90706279D01*
X110940240Y-90839470D01*
X110467408Y-90970190D01*
X110030352Y-91094538D01*
X109643469Y-91208617D01*
X109321158Y-91308526D01*
X109077818Y-91390368D01*
X109008870Y-91415989D01*
X108573884Y-91582794D01*
X108208389Y-91718225D01*
X107888121Y-91829510D01*
X107588814Y-91923877D01*
X107286205Y-92008553D01*
X106956028Y-92090766D01*
X106574019Y-92177744D01*
X106127600Y-92274225D01*
X105945242Y-92306467D01*
X105699597Y-92338412D01*
X105384016Y-92370634D01*
X104991849Y-92403705D01*
X104516447Y-92438197D01*
X103951160Y-92474684D01*
X103460600Y-92503911D01*
X103034777Y-92529753D01*
X102696571Y-92554557D01*
X102432087Y-92581585D01*
X102227434Y-92614099D01*
X102068718Y-92655362D01*
X101942046Y-92708636D01*
X101833526Y-92777184D01*
X101729265Y-92864269D01*
X101663959Y-92925822D01*
X101405331Y-93190806D01*
X101135117Y-93494571D01*
X100866510Y-93819780D01*
X100612703Y-94149097D01*
X100386891Y-94465187D01*
X100202265Y-94750711D01*
X100072019Y-94988334D01*
X100041273Y-95058091D01*
X100010378Y-95191601D01*
X99986836Y-95409549D01*
X99970311Y-95697025D01*
X99960463Y-96039116D01*
X99956955Y-96420910D01*
X99959449Y-96827495D01*
X99967606Y-97243960D01*
X99981089Y-97655392D01*
X99999559Y-98046880D01*
X100022678Y-98403511D01*
X100050109Y-98710374D01*
X100081512Y-98952557D01*
X100116550Y-99115147D01*
X100134277Y-99160014D01*
X100246018Y-99263347D01*
X100447359Y-99329114D01*
X100733384Y-99357018D01*
X101099175Y-99346762D01*
X101539815Y-99298049D01*
X101784200Y-99259600D01*
X102124113Y-99203671D01*
X102370290Y-99171306D01*
X102528643Y-99166258D01*
X102605086Y-99192279D01*
X102605531Y-99253123D01*
X102535891Y-99352542D01*
X102402079Y-99494288D01*
X102304900Y-99590064D01*
X101911200Y-99934388D01*
X101505400Y-100216062D01*
X101108724Y-100420854D01*
X101005564Y-100461256D01*
X100703905Y-100590944D01*
X100474641Y-100742593D01*
X100288567Y-100938310D01*
X100190562Y-101078173D01*
X99983412Y-101452009D01*
X99819726Y-101866177D01*
X99694350Y-102337756D01*
X99602129Y-102883824D01*
X99574064Y-103120400D01*
X99542141Y-103371969D01*
X99494693Y-103686547D01*
X99437578Y-104027819D01*
X99376655Y-104359471D01*
X99362591Y-104431219D01*
X99292118Y-104808739D01*
X99249775Y-105102928D01*
X99236347Y-105328309D01*
X99252621Y-105499403D01*
X99299384Y-105630731D01*
X99377423Y-105736816D01*
X99436280Y-105791621D01*
X99520634Y-105857283D01*
X99599648Y-105895471D01*
X99701416Y-105911304D01*
X99854028Y-105909901D01*
X100030392Y-105899886D01*
X100320793Y-105866331D01*
X100670491Y-105797185D01*
X101093341Y-105689533D01*
X101276200Y-105637890D01*
X101559355Y-105559562D01*
X101818861Y-105494121D01*
X102034587Y-105446164D01*
X102186402Y-105420286D01*
X102241400Y-105417496D01*
X102326961Y-105430328D01*
X102372294Y-105465274D01*
X102389966Y-105547944D01*
X102392546Y-105703948D01*
X102392455Y-105725289D01*
X102387476Y-105887134D01*
X102363073Y-105998337D01*
X102302309Y-106095643D01*
X102188244Y-106215795D01*
X102148417Y-106254678D01*
X102015537Y-106396559D01*
X101877861Y-106571179D01*
X101729577Y-106788141D01*
X101564873Y-107057050D01*
X101377936Y-107387509D01*
X101162954Y-107789123D01*
X100914115Y-108271495D01*
X100842673Y-108412276D01*
X100285588Y-109513152D01*
X100386964Y-110368076D01*
X100433586Y-110769374D01*
X100465193Y-111081153D01*
X100479418Y-111314704D01*
X100473893Y-111481320D01*
X100446249Y-111592292D01*
X100394117Y-111658910D01*
X100315129Y-111692467D01*
X100206917Y-111704254D01*
X100106419Y-111705600D01*
X99891770Y-111686944D01*
X99599428Y-111634280D01*
X99245527Y-111552571D01*
X98846205Y-111446776D01*
X98417597Y-111321857D01*
X97975841Y-111182774D01*
X97537071Y-111034488D01*
X97117425Y-110881960D01*
X96733038Y-110730150D01*
X96400046Y-110584020D01*
X96297800Y-110534723D01*
X96085170Y-110432716D01*
X95900237Y-110350560D01*
X95765158Y-110297702D01*
X95706929Y-110282845D01*
X95614394Y-110327326D01*
X95503427Y-110444238D01*
X95388225Y-110609791D01*
X95282984Y-110800197D01*
X95201901Y-110991667D01*
X95159173Y-111160413D01*
X95155915Y-111206146D01*
X95143747Y-111343900D01*
X95101460Y-111451550D01*
X95016557Y-111535734D01*
X94876539Y-111603091D01*
X94668908Y-111660258D01*
X94381165Y-111713875D01*
X94127061Y-111752606D01*
X93595251Y-111847784D01*
X93153188Y-111968097D01*
X92791252Y-112117499D01*
X92499822Y-112299944D01*
X92273695Y-112514211D01*
X92141489Y-112709258D01*
X92086372Y-112911620D01*
X92102678Y-113151057D01*
X92129688Y-113270707D01*
X92182734Y-113513602D01*
X92204810Y-113735683D01*
X92193470Y-113961031D01*
X92146271Y-114213729D01*
X92060767Y-114517860D01*
X91977183Y-114773163D01*
X91745967Y-115454689D01*
X91769611Y-115555651D01*
X110528630Y-115555651D01*
X110556884Y-115335229D01*
X110632792Y-115166685D01*
X110760768Y-115035447D01*
X110945224Y-114926944D01*
X110992699Y-114905174D01*
X111169711Y-114812437D01*
X111337187Y-114702366D01*
X111376219Y-114671548D01*
X111457377Y-114607918D01*
X111533112Y-114570104D01*
X111630028Y-114553620D01*
X111774729Y-114553981D01*
X111993821Y-114566700D01*
X111996859Y-114566900D01*
X112231015Y-114588175D01*
X112451442Y-114618341D01*
X112620377Y-114651928D01*
X112657897Y-114662669D01*
X112774569Y-114707772D01*
X112842651Y-114766515D01*
X112885290Y-114869686D01*
X112917201Y-115007600D01*
X112939710Y-115165407D01*
X112959019Y-115395363D01*
X112973219Y-115668025D01*
X112980403Y-115953950D01*
X112980701Y-115987524D01*
X112981813Y-116252701D01*
X112976357Y-116461599D01*
X112957435Y-116633958D01*
X112918147Y-116789519D01*
X112851595Y-116948024D01*
X112750881Y-117129212D01*
X112609107Y-117352825D01*
X112419374Y-117638603D01*
X112386562Y-117687736D01*
X112228067Y-117918451D01*
X112049095Y-118168041D01*
X111860112Y-118423109D01*
X111671583Y-118670260D01*
X111493973Y-118896098D01*
X111337747Y-119087227D01*
X111213370Y-119230251D01*
X111131308Y-119311773D01*
X111107040Y-119325600D01*
X111064899Y-119279332D01*
X111010218Y-119154782D01*
X110950205Y-118973329D01*
X110892064Y-118756353D01*
X110850200Y-118563600D01*
X110827065Y-118409148D01*
X110801302Y-118181105D01*
X110775695Y-117907333D01*
X110753030Y-117615697D01*
X110748073Y-117542081D01*
X110721513Y-117210205D01*
X110684556Y-116850468D01*
X110642031Y-116505543D01*
X110598764Y-116218105D01*
X110597436Y-116210416D01*
X110543618Y-115842522D01*
X110528630Y-115555651D01*
X91769611Y-115555651D01*
X91922634Y-116209045D01*
X92035664Y-116698773D01*
X92125477Y-117109238D01*
X92194537Y-117459475D01*
X92245308Y-117768522D01*
X92280252Y-118055415D01*
X92301834Y-118339192D01*
X92312517Y-118638888D01*
X92314764Y-118973542D01*
X92312810Y-119224000D01*
X92305069Y-119418384D01*
X92288709Y-119577326D01*
X92267088Y-119669579D01*
X92264372Y-119674571D01*
X92176116Y-119726555D01*
X92019170Y-119738632D01*
X91817672Y-119712195D01*
X91595759Y-119648636D01*
X91556439Y-119633727D01*
X91182855Y-119537351D01*
X90794872Y-119529152D01*
X90419917Y-119608090D01*
X90238026Y-119683810D01*
X89940720Y-119876053D01*
X89656204Y-120138930D01*
X89412994Y-120442703D01*
X89266376Y-120697200D01*
X89205099Y-120839888D01*
X89166251Y-120972893D01*
X89144926Y-121126568D01*
X89136218Y-121331266D01*
X89135000Y-121510000D01*
X89137648Y-121761109D01*
X89149061Y-121940901D01*
X89174438Y-122079600D01*
X89218980Y-122207426D01*
X89276290Y-122331114D01*
X89500742Y-122690294D01*
X89779819Y-122963854D01*
X90114718Y-123152596D01*
X90506637Y-123257318D01*
X90692733Y-123276700D01*
X91153671Y-123256064D01*
X91608479Y-123136326D01*
X92061636Y-122916286D01*
X92081400Y-122904407D01*
X92362961Y-122737221D01*
X92575797Y-122622358D01*
X92735872Y-122556016D01*
X92859150Y-122534391D01*
X92961595Y-122553679D01*
X93059170Y-122610077D01*
X93118617Y-122657276D01*
X93206108Y-122747865D01*
X93297023Y-122878698D01*
X93394744Y-123057753D01*
X93502651Y-123293008D01*
X93624126Y-123592443D01*
X93762550Y-123964036D01*
X93921304Y-124415765D01*
X94103769Y-124955609D01*
X94144358Y-125077727D01*
X94305618Y-125560604D01*
X94433370Y-125933570D01*
X115469171Y-125933570D01*
X115807945Y-124979085D01*
X115970261Y-124524554D01*
X116107041Y-124149180D01*
X116225226Y-123835852D01*
X116331759Y-123567457D01*
X116433582Y-123326884D01*
X116537637Y-123097021D01*
X116650866Y-122860756D01*
X116741304Y-122678400D01*
X116867276Y-122437342D01*
X117034945Y-122132132D01*
X117236322Y-121776093D01*
X117463422Y-121382548D01*
X117708255Y-120964821D01*
X117962835Y-120536235D01*
X118219174Y-120110113D01*
X118469285Y-119699778D01*
X118705180Y-119318554D01*
X118918871Y-118979764D01*
X119102372Y-118696731D01*
X119247696Y-118482778D01*
X119299543Y-118411200D01*
X119887694Y-117706793D01*
X120538981Y-117081609D01*
X121253787Y-116535405D01*
X122032494Y-116067937D01*
X122875485Y-115678963D01*
X123783141Y-115368238D01*
X124288600Y-115235658D01*
X124687098Y-115144225D01*
X125116695Y-115050632D01*
X125562700Y-114957644D01*
X126010424Y-114868029D01*
X126445175Y-114784554D01*
X126852264Y-114709985D01*
X127216999Y-114647089D01*
X127524692Y-114598633D01*
X127760650Y-114567384D01*
X127895400Y-114556368D01*
X127979830Y-114571494D01*
X128138261Y-114615020D01*
X128349238Y-114680554D01*
X128591306Y-114761700D01*
X128632000Y-114775885D01*
X128943859Y-114885080D01*
X129292096Y-115006840D01*
X129629003Y-115124493D01*
X129851200Y-115201976D01*
X130161546Y-115305753D01*
X130448852Y-115390742D01*
X130735703Y-115461703D01*
X131044684Y-115523397D01*
X131398382Y-115580584D01*
X131819382Y-115638026D01*
X132065533Y-115668739D01*
X132592866Y-115735170D01*
X133028553Y-115795442D01*
X133382182Y-115852009D01*
X133663340Y-115907329D01*
X133881616Y-115963857D01*
X134046597Y-116024048D01*
X134167872Y-116090360D01*
X134255027Y-116165247D01*
X134313797Y-116244626D01*
X134386346Y-116396839D01*
X134448648Y-116598277D01*
X134501812Y-116857318D01*
X134546951Y-117182342D01*
X134585174Y-117581727D01*
X134600571Y-117810719D01*
X136565839Y-117810719D01*
X136575990Y-117672841D01*
X136580623Y-117654168D01*
X136649421Y-117570834D01*
X136785419Y-117551243D01*
X136992657Y-117595575D01*
X137226551Y-117683107D01*
X137547634Y-117838407D01*
X137779638Y-117998022D01*
X137934973Y-118171012D01*
X137966553Y-118223327D01*
X137991415Y-118277478D01*
X138011205Y-118346606D01*
X138026483Y-118442057D01*
X138037810Y-118575177D01*
X138045747Y-118757313D01*
X138050854Y-118999812D01*
X138052967Y-119233812D01*
X139799286Y-119233812D01*
X139817972Y-119103393D01*
X139872958Y-119035507D01*
X139939292Y-119020800D01*
X140014031Y-119042179D01*
X140156528Y-119099864D01*
X140343938Y-119184184D01*
X140489017Y-119253582D01*
X140964246Y-119486364D01*
X141563729Y-119481733D01*
X142249095Y-119444896D01*
X143008455Y-119345068D01*
X143836917Y-119183287D01*
X144729590Y-118960587D01*
X145681581Y-118678006D01*
X146259600Y-118486871D01*
X146810001Y-118291413D01*
X147278143Y-118108549D01*
X147681184Y-117929926D01*
X148036281Y-117747188D01*
X148360591Y-117551983D01*
X148671272Y-117335956D01*
X148759225Y-117269784D01*
X149210123Y-116969884D01*
X149753082Y-116686463D01*
X150379460Y-116422541D01*
X151080614Y-116181133D01*
X151847903Y-115965257D01*
X152672682Y-115777931D01*
X153422400Y-115641801D01*
X153752257Y-115587858D01*
X154093836Y-115530906D01*
X154414345Y-115476480D01*
X154680995Y-115430119D01*
X154768600Y-115414464D01*
X155063811Y-115363226D01*
X155278964Y-115332426D01*
X155433307Y-115321048D01*
X155546092Y-115328074D01*
X155636567Y-115352489D01*
X155670647Y-115366816D01*
X155764350Y-115424927D01*
X155844005Y-115516635D01*
X155921018Y-115660881D01*
X156006796Y-115876603D01*
X156048719Y-115994628D01*
X156177866Y-116496908D01*
X156207949Y-116981918D01*
X156138401Y-117457292D01*
X155968657Y-117930665D01*
X155894393Y-118080494D01*
X155681914Y-118406092D01*
X155382050Y-118752033D01*
X155204448Y-118921523D01*
X179752497Y-118921523D01*
X179757068Y-118686019D01*
X179834642Y-118236784D01*
X179968858Y-117799943D01*
X180149295Y-117401325D01*
X180365533Y-117066758D01*
X180451071Y-116965952D01*
X180654126Y-116785998D01*
X180907727Y-116618979D01*
X181174069Y-116486555D01*
X181415351Y-116410384D01*
X181423223Y-116408942D01*
X181656723Y-116411778D01*
X181869568Y-116494484D01*
X182030927Y-116643980D01*
X182051168Y-116675346D01*
X182137113Y-116786489D01*
X182224211Y-116850312D01*
X182230884Y-116852397D01*
X182353672Y-116836689D01*
X182530938Y-116743115D01*
X182756567Y-116575369D01*
X182911800Y-116441389D01*
X183207480Y-116196904D01*
X183479028Y-116028219D01*
X183749784Y-115929492D01*
X184043088Y-115894880D01*
X184382282Y-115918541D01*
X184740600Y-115983646D01*
X184913064Y-116031789D01*
X185133206Y-116108116D01*
X185356941Y-116197193D01*
X185383829Y-116208834D01*
X185572614Y-116287685D01*
X185731503Y-116347180D01*
X185833315Y-116377355D01*
X185848628Y-116379200D01*
X185948933Y-116414412D01*
X186097971Y-116509671D01*
X186276614Y-116649411D01*
X186465731Y-116818066D01*
X186646195Y-117000070D01*
X186735095Y-117100537D01*
X187005001Y-117490245D01*
X187175688Y-117899576D01*
X187246684Y-118326361D01*
X187217520Y-118768433D01*
X187154423Y-119031322D01*
X187042591Y-119348470D01*
X186901433Y-119669335D01*
X186743584Y-119970539D01*
X186581680Y-120228703D01*
X186428359Y-120420448D01*
X186377377Y-120468989D01*
X186094496Y-120653669D01*
X185729403Y-120793027D01*
X185280555Y-120887209D01*
X184746409Y-120936364D01*
X184125423Y-120940639D01*
X183416053Y-120900180D01*
X182675233Y-120822483D01*
X182186228Y-120754343D01*
X181781253Y-120678560D01*
X181442737Y-120587914D01*
X181153113Y-120475190D01*
X180894809Y-120333168D01*
X180650257Y-120154631D01*
X180401886Y-119932361D01*
X180324837Y-119856902D01*
X180074669Y-119589923D01*
X179901939Y-119357508D01*
X179797573Y-119140946D01*
X179752497Y-118921523D01*
X155204448Y-118921523D01*
X155005334Y-119111541D01*
X154562295Y-119477842D01*
X154063465Y-119844159D01*
X153519372Y-120203718D01*
X152940549Y-120549743D01*
X152337525Y-120875459D01*
X151720832Y-121174090D01*
X151100998Y-121438861D01*
X150488556Y-121662997D01*
X150171200Y-121762808D01*
X149992914Y-121822470D01*
X149747746Y-121914224D01*
X149461259Y-122028015D01*
X149159017Y-122153790D01*
X148977400Y-122232294D01*
X148512425Y-122434345D01*
X148116839Y-122600660D01*
X147768464Y-122739525D01*
X147445122Y-122859226D01*
X147124634Y-122968049D01*
X146784822Y-123074281D01*
X146494249Y-123160047D01*
X146142055Y-123266386D01*
X145741421Y-123394260D01*
X145338653Y-123528520D01*
X144980056Y-123654012D01*
X144938407Y-123669144D01*
X144290562Y-123899013D01*
X143729176Y-124083435D01*
X143250323Y-124223359D01*
X142850073Y-124319737D01*
X142524501Y-124373516D01*
X142269677Y-124385647D01*
X142086736Y-124358626D01*
X141885450Y-124257219D01*
X141665710Y-124075233D01*
X141442728Y-123827949D01*
X141231715Y-123530647D01*
X141182670Y-123450391D01*
X141042260Y-123183681D01*
X140884984Y-122833295D01*
X140716422Y-122414647D01*
X140542153Y-121943150D01*
X140367758Y-121434217D01*
X140198814Y-120903262D01*
X140040902Y-120365700D01*
X139962817Y-120080480D01*
X139871531Y-119714335D01*
X139817080Y-119434786D01*
X139799286Y-119233812D01*
X138052967Y-119233812D01*
X138053692Y-119314020D01*
X138054821Y-119711282D01*
X138054907Y-120011400D01*
X138052262Y-120607906D01*
X138043980Y-121119814D01*
X138028954Y-121564022D01*
X138006080Y-121957433D01*
X137974250Y-122316945D01*
X137932358Y-122659459D01*
X137879299Y-123001876D01*
X137847315Y-123183388D01*
X137803357Y-123397175D01*
X137755788Y-123585734D01*
X137713155Y-123716177D01*
X137703135Y-123738061D01*
X137637176Y-123863947D01*
X137549376Y-123729947D01*
X137510458Y-123636348D01*
X137458595Y-123462551D01*
X137398923Y-123228339D01*
X137336577Y-122953493D01*
X137293295Y-122743474D01*
X137231276Y-122435028D01*
X137169269Y-122136734D01*
X137112581Y-121873431D01*
X137066522Y-121669960D01*
X137045966Y-121586042D01*
X136988846Y-121336696D01*
X136929288Y-121025217D01*
X136869004Y-120666058D01*
X136809704Y-120273674D01*
X136753098Y-119862516D01*
X136700897Y-119447039D01*
X136654812Y-119041695D01*
X136616553Y-118660938D01*
X136587831Y-118319221D01*
X136570356Y-118030997D01*
X136565839Y-117810719D01*
X134600571Y-117810719D01*
X134617592Y-118063851D01*
X134645316Y-118637092D01*
X134651512Y-118792200D01*
X134677150Y-119348904D01*
X134709379Y-119829664D01*
X134750907Y-120260063D01*
X134804443Y-120665684D01*
X134872696Y-121072110D01*
X134917799Y-121306800D01*
X134971807Y-121592983D01*
X135009879Y-121841695D01*
X135034696Y-122083417D01*
X135048944Y-122348632D01*
X135055305Y-122667821D01*
X135056422Y-122881600D01*
X135055086Y-123232944D01*
X135048482Y-123502307D01*
X135035107Y-123709237D01*
X135013457Y-123873284D01*
X134982032Y-124013995D01*
X134964819Y-124073231D01*
X134796234Y-124516996D01*
X134565112Y-124946964D01*
X134261251Y-125379261D01*
X133874450Y-125830014D01*
X133809972Y-125898815D01*
X133521508Y-126188438D01*
X133225399Y-126452485D01*
X132912984Y-126694983D01*
X132575601Y-126919961D01*
X132204589Y-127131445D01*
X131791289Y-127333463D01*
X131327039Y-127530043D01*
X130803178Y-127725212D01*
X130211045Y-127922997D01*
X129541979Y-128127427D01*
X128787320Y-128342528D01*
X128225600Y-128495669D01*
X127777595Y-128616576D01*
X127289041Y-128749383D01*
X126789357Y-128886028D01*
X126307959Y-129018450D01*
X125874266Y-129138588D01*
X125609400Y-129212580D01*
X125059044Y-129363159D01*
X124580375Y-129484029D01*
X124149275Y-129579309D01*
X123741626Y-129653114D01*
X123333312Y-129709564D01*
X122900215Y-129752776D01*
X122418218Y-129786868D01*
X122161558Y-129801246D01*
X121338328Y-129829593D01*
X120583966Y-129822107D01*
X119871385Y-129776350D01*
X119173498Y-129689886D01*
X118463219Y-129560277D01*
X117811600Y-129409895D01*
X117262999Y-129266523D01*
X116792050Y-129130657D01*
X116403340Y-129003906D01*
X116101457Y-128887875D01*
X115890987Y-128784174D01*
X115779057Y-128697546D01*
X115744376Y-128605179D01*
X115717417Y-128432556D01*
X115701367Y-128200922D01*
X115700436Y-128173753D01*
X115689262Y-127969134D01*
X115667360Y-127692291D01*
X115637329Y-127371718D01*
X115601772Y-127035913D01*
X115577876Y-126830784D01*
X115469171Y-125933570D01*
X94433370Y-125933570D01*
X94442758Y-125960975D01*
X94561974Y-126293306D01*
X94669463Y-126572062D01*
X94771420Y-126811708D01*
X94874040Y-127026712D01*
X94983521Y-127231537D01*
X95106057Y-127440650D01*
X95247846Y-127668517D01*
X95266907Y-127698529D01*
X95421085Y-127961020D01*
X95583334Y-128270025D01*
X95728333Y-128576104D01*
X95787233Y-128714529D01*
X95894460Y-128974848D01*
X96027122Y-129289208D01*
X96168799Y-129619074D01*
X96303073Y-129925909D01*
X96310560Y-129942800D01*
X96555259Y-130509368D01*
X96754065Y-131005983D01*
X96912458Y-131450348D01*
X97035919Y-131860165D01*
X97129928Y-132253137D01*
X97199967Y-132646965D01*
X97238516Y-132940000D01*
X97290294Y-133318460D01*
X97350689Y-133610353D01*
X97424354Y-133830637D01*
X97515941Y-133994268D01*
X97594562Y-134084412D01*
X97673857Y-134154629D01*
X97751652Y-134199927D01*
X97853372Y-134226871D01*
X98004443Y-134242032D01*
X98230290Y-134251978D01*
X98245221Y-134252498D01*
X98506701Y-134255080D01*
X98742578Y-134239910D01*
X98974150Y-134201884D01*
X99222718Y-134135896D01*
X99509580Y-134036841D01*
X99856036Y-133899612D01*
X100042823Y-133821612D01*
X100312655Y-133709203D01*
X100575356Y-133602410D01*
X100804060Y-133511985D01*
X100971902Y-133448678D01*
X100996800Y-133439870D01*
X101375386Y-133343449D01*
X101824187Y-133286366D01*
X102320353Y-133267190D01*
X102841036Y-133284493D01*
X103363388Y-133336845D01*
X103864561Y-133422815D01*
X104321706Y-133540974D01*
X104667425Y-133669554D01*
X104828775Y-133750626D01*
X105039559Y-133869408D01*
X105265420Y-134006152D01*
X105375570Y-134076591D01*
X105832012Y-134355583D01*
X106355904Y-134643097D01*
X106916082Y-134923190D01*
X107481384Y-135179922D01*
X107756933Y-135294834D01*
X108036212Y-135410303D01*
X108312749Y-135529553D01*
X108557791Y-135639872D01*
X108742582Y-135728551D01*
X108769434Y-135742390D01*
X108894951Y-135806700D01*
X109000860Y-135852647D01*
X109108294Y-135883785D01*
X109238387Y-135903671D01*
X109412271Y-135915859D01*
X109651081Y-135923905D01*
X109880105Y-135929240D01*
X110280710Y-135933555D01*
X110607069Y-135923187D01*
X110607069Y-135923187D01*
G37*
X110607069Y-135923187D02*
X110886102Y-135892832D01*
X111144730Y-135837186D01*
X111409872Y-135750946D01*
X111708449Y-135628808D01*
X111944200Y-135522597D01*
X112320732Y-135350634D01*
X112623186Y-135217302D01*
X112868979Y-135117059D01*
X113075527Y-135044359D01*
X113260245Y-134993660D01*
X113440550Y-134959418D01*
X113633858Y-134936089D01*
X113839114Y-134919431D01*
X114167794Y-134888372D01*
X114400370Y-134848338D01*
X114542016Y-134798411D01*
X114550314Y-134793506D01*
X114637276Y-134724774D01*
X114775062Y-134599038D01*
X114945308Y-134433695D01*
X115129648Y-134246141D01*
X115144600Y-134230547D01*
X115601800Y-133752742D01*
X116440000Y-133649228D01*
X116750271Y-133610263D01*
X117037736Y-133572387D01*
X117312448Y-133533707D01*
X117584462Y-133492328D01*
X117863835Y-133446359D01*
X118160620Y-133393906D01*
X118484873Y-133333076D01*
X118846650Y-133261976D01*
X119256005Y-133178714D01*
X119722993Y-133081394D01*
X120257669Y-132968126D01*
X120870089Y-132837016D01*
X121570308Y-132686170D01*
X121672400Y-132664129D01*
X122133270Y-132564610D01*
X122631911Y-132456937D01*
X123140396Y-132347141D01*
X123630799Y-132241253D01*
X124075192Y-132145301D01*
X124415600Y-132071804D01*
X124786596Y-131990485D01*
X125229738Y-131891369D01*
X125718413Y-131780531D01*
X126226010Y-131664043D01*
X126725918Y-131547980D01*
X127191524Y-131438415D01*
X127209600Y-131434125D01*
X128113397Y-131220894D01*
X128926590Y-131032041D01*
X129656800Y-130865986D01*
X130311649Y-130721150D01*
X130898761Y-130595955D01*
X131425758Y-130488819D01*
X131900264Y-130398166D01*
X132329900Y-130322414D01*
X132722290Y-130259985D01*
X133085055Y-130209300D01*
X133178600Y-130197462D01*
X133408463Y-130166172D01*
X133621854Y-130132175D01*
X133782610Y-130101386D01*
X133818605Y-130092765D01*
X133910735Y-130079629D01*
X134091605Y-130063646D01*
X134348422Y-130045592D01*
X134668392Y-130026244D01*
X135038718Y-130006380D01*
X135446609Y-129986776D01*
X135850605Y-129969371D01*
X136327718Y-129948257D01*
X136779707Y-129925007D01*
X137192800Y-129900536D01*
X137553225Y-129875758D01*
X137847210Y-129851585D01*
X138060984Y-129828934D01*
X138139372Y-129817457D01*
X138436884Y-129754833D01*
X138818650Y-129656974D01*
X139274846Y-129527003D01*
X139795643Y-129368042D01*
X140371215Y-129183212D01*
X140991736Y-128975638D01*
X141647380Y-128748440D01*
X142328320Y-128504741D01*
X142703600Y-128367192D01*
X144500128Y-127728202D01*
X146301508Y-127136522D01*
X148094346Y-126595843D01*
X149865250Y-126109855D01*
X151600826Y-125682248D01*
X153287683Y-125316711D01*
X154784811Y-125038451D01*
X155182161Y-124970177D01*
X155506593Y-124911860D01*
X155783162Y-124857735D01*
X156036921Y-124802033D01*
X156292926Y-124738987D01*
X156576230Y-124662830D01*
X156911887Y-124567795D01*
X157232400Y-124475039D01*
X157665835Y-124351371D01*
X158077817Y-124239333D01*
X158481837Y-124136076D01*
X158891388Y-124038749D01*
X159319962Y-123944503D01*
X159781050Y-123850487D01*
X160288145Y-123753852D01*
X160854738Y-123651747D01*
X161494322Y-123541323D01*
X162220388Y-123419729D01*
X162256912Y-123413684D01*
X163097528Y-123275157D01*
X163850492Y-123152516D01*
X164528238Y-123044177D01*
X165143200Y-122948554D01*
X165707814Y-122864061D01*
X166234512Y-122789114D01*
X166735730Y-122722125D01*
X167223902Y-122661511D01*
X167711463Y-122605685D01*
X168210845Y-122553063D01*
X168734485Y-122502058D01*
X169294816Y-122451085D01*
X169904272Y-122398560D01*
X170575288Y-122342895D01*
X170796000Y-122324896D01*
X171618187Y-122259077D01*
X172348399Y-122203220D01*
X172995761Y-122157233D01*
X173569398Y-122121028D01*
X174078436Y-122094514D01*
X174532002Y-122077602D01*
X174939220Y-122070201D01*
X175309217Y-122072222D01*
X175651117Y-122083575D01*
X175974048Y-122104169D01*
X176287135Y-122133916D01*
X176599503Y-122172725D01*
X176920278Y-122220505D01*
X177171400Y-122262095D01*
X177494020Y-122317083D01*
X177780828Y-122364622D01*
X178041900Y-122405248D01*
X178287310Y-122439499D01*
X178527133Y-122467913D01*
X178771446Y-122491028D01*
X179030323Y-122509382D01*
X179313841Y-122523512D01*
X179632073Y-122533956D01*
X179995097Y-122541252D01*
X180412987Y-122545937D01*
X180895818Y-122548549D01*
X181453666Y-122549626D01*
X182096607Y-122549706D01*
X182556200Y-122549483D01*
X183297113Y-122548644D01*
X183944712Y-122546747D01*
X184507282Y-122543385D01*
X184993106Y-122538153D01*
X185410469Y-122530644D01*
X185767654Y-122520451D01*
X186072946Y-122507168D01*
X186334630Y-122490388D01*
X186560988Y-122469705D01*
X186760306Y-122444713D01*
X186940866Y-122415006D01*
X187110955Y-122380176D01*
X187278855Y-122339818D01*
X187382200Y-122312724D01*
X187617843Y-122234532D01*
X187918352Y-122112196D01*
X188262835Y-121956056D01*
X188630401Y-121776451D01*
X189000157Y-121583719D01*
X189351212Y-121388199D01*
X189662675Y-121200230D01*
X189766509Y-121132795D01*
X190334211Y-120705619D01*
X190895545Y-120188858D01*
X191443034Y-119594519D01*
X191969201Y-118934611D01*
X192466570Y-118221142D01*
X192927664Y-117466121D01*
X193345007Y-116681555D01*
X193711121Y-115879454D01*
X194018530Y-115071825D01*
X194259757Y-114270676D01*
X194386787Y-113712200D01*
X194498675Y-113041173D01*
X194556932Y-112453229D01*
X194561553Y-111949159D01*
X194512533Y-111529753D01*
X194409866Y-111195804D01*
X194404662Y-111184276D01*
X194291741Y-110979474D01*
X194147657Y-110771521D01*
X194067574Y-110675698D01*
X193952696Y-110542471D01*
X193863577Y-110412201D01*
X193793952Y-110266403D01*
X193737553Y-110086591D01*
X193688115Y-109854280D01*
X193639373Y-109550987D01*
X193606087Y-109314309D01*
X193518943Y-108752175D01*
X193420816Y-108257289D01*
X193313592Y-107834518D01*
X193199155Y-107488727D01*
X193079390Y-107224782D01*
X192956183Y-107047550D01*
X192831419Y-106961897D01*
X192706982Y-106972689D01*
X192700317Y-106976107D01*
X192520450Y-107114125D01*
X192328125Y-107335704D01*
X192133663Y-107625389D01*
X191947384Y-107967726D01*
X191779607Y-108347262D01*
X191772414Y-108365591D01*
X191684603Y-108555834D01*
X191578989Y-108738092D01*
X191527946Y-108810000D01*
X191375449Y-109055208D01*
X191285632Y-109312516D01*
X191268116Y-109465281D01*
X191254003Y-109604778D01*
X191219932Y-109769371D01*
X191215321Y-109786480D01*
X191165431Y-109915124D01*
X191084754Y-109986696D01*
X190957402Y-110030869D01*
X190768851Y-110053835D01*
X190624306Y-110000705D01*
X190509640Y-109862326D01*
X190432391Y-109690770D01*
X190308490Y-109396314D01*
X190140061Y-109050788D01*
X189943720Y-108684262D01*
X189736085Y-108326806D01*
X189533771Y-108008492D01*
X189393757Y-107811200D01*
X189115290Y-107470777D01*
X188866375Y-107223425D01*
X188643291Y-107066216D01*
X188442315Y-106996225D01*
X188352573Y-106992752D01*
X188209607Y-107013810D01*
X188122782Y-107062542D01*
X188089070Y-107153385D01*
X188105441Y-107300774D01*
X188168865Y-107519145D01*
X188214364Y-107651246D01*
X188361462Y-108076399D01*
X188473777Y-108425337D01*
X188555890Y-108715509D01*
X188612385Y-108964365D01*
X188647843Y-109189353D01*
X188664143Y-109363891D01*
X188675875Y-109577292D01*
X188674005Y-109713023D01*
X188655476Y-109794467D01*
X188617227Y-109845004D01*
X188599337Y-109859191D01*
X188480777Y-109903066D01*
X188296451Y-109924727D01*
X188080092Y-109922497D01*
X187869132Y-109895447D01*
X187682615Y-109814571D01*
X187475098Y-109648289D01*
X187257422Y-109407676D01*
X187040430Y-109103808D01*
X186949998Y-108956397D01*
X186763703Y-108649657D01*
X186610999Y-108425550D01*
X186483277Y-108274291D01*
X186371924Y-108186092D01*
X186268332Y-108151166D01*
X186240157Y-108149600D01*
X186113140Y-108175240D01*
X186036793Y-108224844D01*
X186008029Y-108307494D01*
X185979745Y-108477637D01*
X185953796Y-108721176D01*
X185932273Y-109019906D01*
X185912411Y-109297859D01*
X185888980Y-109526170D01*
X185864069Y-109688610D01*
X185839770Y-109768949D01*
X185835202Y-109773716D01*
X185736591Y-109809791D01*
X185565531Y-109849820D01*
X185350828Y-109889379D01*
X185121289Y-109924045D01*
X184905717Y-109949394D01*
X184732919Y-109961001D01*
X184642151Y-109956943D01*
X184472027Y-109887990D01*
X184318630Y-109743472D01*
X184175889Y-109515312D01*
X184037735Y-109195435D01*
X184007540Y-109112479D01*
X183746465Y-108405980D01*
X183492716Y-107785212D01*
X183238668Y-107235409D01*
X182976695Y-106741808D01*
X182699169Y-106289645D01*
X182398465Y-105864157D01*
X182196562Y-105606684D01*
X182010158Y-105391372D01*
X181858054Y-105252347D01*
X181723299Y-105178167D01*
X181588943Y-105157393D01*
X181536123Y-105160930D01*
X181426389Y-105187252D01*
X181351012Y-105245517D01*
X181307778Y-105348459D01*
X181294473Y-105508807D01*
X181308884Y-105739293D01*
X181348797Y-106052648D01*
X181363641Y-106152994D01*
X181411601Y-106510205D01*
X181451654Y-106885582D01*
X181482604Y-107259092D01*
X181503255Y-107610703D01*
X181512411Y-107920380D01*
X181508874Y-108168092D01*
X181493314Y-108324400D01*
X181457261Y-108516580D01*
X181331645Y-108398570D01*
X181208617Y-108256408D01*
X181045691Y-108024369D01*
X180844613Y-107705249D01*
X180607132Y-107301844D01*
X180334992Y-106816950D01*
X180271837Y-106701800D01*
X179963474Y-106155436D01*
X179671657Y-105674158D01*
X179399780Y-105262439D01*
X179151238Y-104924752D01*
X178929425Y-104665572D01*
X178737736Y-104489373D01*
X178579566Y-104400628D01*
X178517995Y-104390401D01*
X178409999Y-104402052D01*
X178333591Y-104446480D01*
X178283793Y-104537891D01*
X178255622Y-104690494D01*
X178244099Y-104918496D01*
X178243592Y-105173175D01*
X178253078Y-105467355D01*
X178277938Y-105787618D01*
X178320355Y-106153737D01*
X178382512Y-106585487D01*
X178437242Y-106927094D01*
X178490319Y-107262015D01*
X178534785Y-107569291D01*
X178568636Y-107832745D01*
X178589871Y-108036199D01*
X178596486Y-108163477D01*
X178593911Y-108192644D01*
X178566237Y-108279289D01*
X178527713Y-108279250D01*
X178466469Y-108221351D01*
X178405080Y-108140537D01*
X178308096Y-107991567D01*
X178188664Y-107795428D01*
X178059930Y-107573108D01*
X178055581Y-107565400D01*
X177751406Y-107046534D01*
X177465416Y-106600075D01*
X177200616Y-106229578D01*
X176960011Y-105938597D01*
X176746605Y-105730684D01*
X176563405Y-105609394D01*
X176413414Y-105578280D01*
X176380981Y-105585159D01*
X176293578Y-105653767D01*
X176204549Y-105788677D01*
X176177423Y-105846078D01*
X176114158Y-105973683D01*
X176060864Y-106047035D01*
X176041511Y-106054680D01*
X175978319Y-106023924D01*
X175853282Y-105962945D01*
X175723600Y-105899654D01*
X175519814Y-105813763D01*
X175303475Y-105742938D01*
X175192058Y-105716360D01*
X175077065Y-105686337D01*
X174965725Y-105634409D01*
X174846990Y-105550556D01*
X174709811Y-105424757D01*
X174543141Y-105246992D01*
X174335930Y-105007240D01*
X174108379Y-104733506D01*
X173884326Y-104482166D01*
X173652914Y-104259494D01*
X173429748Y-104077804D01*
X173230431Y-103949409D01*
X173070568Y-103886624D01*
X173029853Y-103882400D01*
X172880551Y-103928565D01*
X172758275Y-104048685D01*
X172685944Y-104215197D01*
X172675669Y-104308351D01*
X172684512Y-104432072D01*
X172707938Y-104620334D01*
X172741402Y-104837894D01*
X172751800Y-104898400D01*
X172789898Y-105148600D01*
X172815250Y-105384624D01*
X172826891Y-105586517D01*
X172823854Y-105734324D01*
X172805173Y-105808088D01*
X172796057Y-105812800D01*
X172736203Y-105797542D01*
X172605249Y-105756978D01*
X172428149Y-105698922D01*
X172370454Y-105679502D01*
X172149739Y-105610666D01*
X171995737Y-105579360D01*
X171882479Y-105581492D01*
X171830896Y-105594514D01*
X171724069Y-105656172D01*
X171673050Y-105759037D01*
X171678263Y-105913642D01*
X171740136Y-106130518D01*
X171859095Y-106420201D01*
X171864818Y-106432944D01*
X171966739Y-106669001D01*
X172021956Y-106834152D01*
X172030187Y-106947866D01*
X171991146Y-107029613D01*
X171904548Y-107098862D01*
X171854653Y-107128492D01*
X171789472Y-107157377D01*
X171713481Y-107166140D01*
X171605409Y-107151924D01*
X171443983Y-107111875D01*
X171207932Y-107043140D01*
X171199271Y-107040544D01*
X170954225Y-106970622D01*
X170719411Y-106909826D01*
X170527431Y-106866296D01*
X170440400Y-106851029D01*
X170273763Y-106826276D01*
X170144569Y-106793804D01*
X170039567Y-106740391D01*
X169945501Y-106652819D01*
X169849119Y-106517867D01*
X169737169Y-106322314D01*
X169596396Y-106052940D01*
X169550392Y-105963234D01*
X169166143Y-105257437D01*
X168780952Y-104641420D01*
X168386592Y-104103624D01*
X167974834Y-103632491D01*
X167696973Y-103359310D01*
X167387429Y-103101059D01*
X167105360Y-102923140D01*
X166857921Y-102829607D01*
X166737541Y-102815600D01*
X166626745Y-102829233D01*
X166563542Y-102879810D01*
X166545233Y-102981854D01*
X166569118Y-103149885D01*
X166630512Y-103391323D01*
X166810526Y-104057257D01*
X166956120Y-104641678D01*
X167066783Y-105142039D01*
X167142004Y-105555793D01*
X167181272Y-105880392D01*
X167184076Y-106113289D01*
X167181537Y-106138372D01*
X167170217Y-106191982D01*
X167146978Y-106206241D01*
X167102643Y-106171722D01*
X167028035Y-106079000D01*
X166913977Y-105918650D01*
X166785860Y-105731972D01*
X166438714Y-105232642D01*
X166135841Y-104818705D01*
X165873345Y-104486096D01*
X165647332Y-104230754D01*
X165453905Y-104048614D01*
X165289170Y-103935613D01*
X165149230Y-103887688D01*
X165030313Y-103900728D01*
X164975690Y-103972702D01*
X164956129Y-104134355D01*
X164971670Y-104387330D01*
X165022351Y-104733273D01*
X165054478Y-104908522D01*
X165139157Y-105372233D01*
X165197095Y-105743398D01*
X165228934Y-106027311D01*
X165235315Y-106229266D01*
X165225727Y-106321062D01*
X165198696Y-106423458D01*
X165155580Y-106498006D01*
X165083085Y-106547032D01*
X164967919Y-106572863D01*
X164796788Y-106577827D01*
X164556400Y-106564250D01*
X164233461Y-106534459D01*
X164090400Y-106519793D01*
X163550927Y-106459230D01*
X163102375Y-106397951D01*
X162734088Y-106333047D01*
X162435410Y-106261613D01*
X162195686Y-106180742D01*
X162004261Y-106087527D01*
X161850478Y-105979060D01*
X161748927Y-105881037D01*
X161659595Y-105775321D01*
X161532326Y-105615057D01*
X161388892Y-105427901D01*
X161325883Y-105343638D01*
X161100615Y-105061455D01*
X160860214Y-104797950D01*
X160614071Y-104559531D01*
X160371576Y-104352606D01*
X160142120Y-104183582D01*
X159935094Y-104058866D01*
X159759886Y-103984868D01*
X159625889Y-103967994D01*
X159542491Y-104014651D01*
X159518400Y-104110271D01*
X159528978Y-104240753D01*
X159558643Y-104452572D01*
X159604285Y-104727919D01*
X159662799Y-105048984D01*
X159731076Y-105397959D01*
X159804555Y-105750285D01*
X159859539Y-106010749D01*
X159893211Y-106190847D01*
X159906879Y-106309264D01*
X159901854Y-106384683D01*
X159879446Y-106435788D01*
X159854763Y-106466389D01*
X159705558Y-106567159D01*
X159484792Y-106636376D01*
X159218100Y-106672076D01*
X158931118Y-106672296D01*
X158649480Y-106635072D01*
X158439444Y-106574826D01*
X158226453Y-106503002D01*
X158071423Y-106480328D01*
X157942712Y-106508068D01*
X157808674Y-106587485D01*
X157790469Y-106600739D01*
X157534642Y-106741242D01*
X157251839Y-106818831D01*
X157124950Y-106828517D01*
X156958660Y-106786419D01*
X156797427Y-106656060D01*
X156636150Y-106432433D01*
X156537554Y-106252027D01*
X156166868Y-105615791D01*
X155721082Y-105020620D01*
X155489953Y-104762302D01*
X155251171Y-104523609D01*
X155061685Y-104364008D01*
X154913996Y-104278349D01*
X154800603Y-104261483D01*
X154771817Y-104269195D01*
X154721196Y-104339733D01*
X154695613Y-104491196D01*
X154695084Y-104706037D01*
X154719626Y-104966710D01*
X154769256Y-105255670D01*
X154770876Y-105263379D01*
X154817113Y-105520019D01*
X154857169Y-105807490D01*
X154878279Y-106016000D01*
X154890177Y-106218745D01*
X154884995Y-106351097D01*
X154857925Y-106443519D01*
X154804162Y-106526473D01*
X154796115Y-106536700D01*
X154652153Y-106647736D01*
X154473596Y-106665804D01*
X154263565Y-106592276D01*
X154025185Y-106428523D01*
X153761578Y-106175917D01*
X153626564Y-106022989D01*
X153394357Y-105778484D01*
X153178299Y-105611168D01*
X152985787Y-105524234D01*
X152824219Y-105520874D01*
X152700990Y-105604278D01*
X152690073Y-105618915D01*
X152641520Y-105721823D01*
X152585553Y-105890309D01*
X152533396Y-106090077D01*
X152527993Y-106114215D01*
X152473180Y-106331014D01*
X152409319Y-106535547D01*
X152349878Y-106684855D01*
X152347768Y-106689100D01*
X152251935Y-106879601D01*
X151885669Y-106879600D01*
X151678726Y-106885036D01*
X151528919Y-106909301D01*
X151392019Y-106964334D01*
X151234766Y-107055288D01*
X150925360Y-107218894D01*
X150650955Y-107299750D01*
X150391605Y-107300566D01*
X150127362Y-107224051D01*
X150095000Y-107210078D01*
X149964561Y-107174933D01*
X149733548Y-107140901D01*
X149401797Y-107107969D01*
X148969144Y-107076127D01*
X148435423Y-107045362D01*
X147800472Y-107015663D01*
X147064124Y-106987017D01*
X146894600Y-106981066D01*
X145989487Y-106946398D01*
X145177313Y-106907433D01*
X144449466Y-106862936D01*
X143797329Y-106811673D01*
X143212289Y-106752410D01*
X142685732Y-106683913D01*
X142209044Y-106604947D01*
X141773609Y-106514278D01*
X141370815Y-106410671D01*
X140992047Y-106292892D01*
X140628690Y-106159708D01*
X140347105Y-106042889D01*
X139978835Y-105892233D01*
X139612380Y-105763985D01*
X139222680Y-105650957D01*
X138784674Y-105545965D01*
X138273301Y-105441821D01*
X138207800Y-105429413D01*
X137940993Y-105377768D01*
X137710030Y-105330349D01*
X137533169Y-105291117D01*
X137428667Y-105264033D01*
X137409084Y-105256149D01*
X137437316Y-105225429D01*
X137542058Y-105165166D01*
X137705913Y-105084602D01*
X137874166Y-105009018D01*
X138136006Y-104886136D01*
X138437439Y-104730006D01*
X138733894Y-104564295D01*
X138901482Y-104463486D01*
X139153551Y-104310035D01*
X139375766Y-104186589D01*
X139589902Y-104084569D01*
X139817734Y-103995397D01*
X140081037Y-103910497D01*
X140401586Y-103821290D01*
X140773200Y-103726184D01*
X141789563Y-103496302D01*
X142895620Y-103292091D01*
X144082396Y-103114987D01*
X145340918Y-102966421D01*
X145827800Y-102918521D01*
X146503160Y-102853111D01*
X147089896Y-102790491D01*
X147600864Y-102728606D01*
X148048923Y-102665401D01*
X148446933Y-102598821D01*
X148807751Y-102526811D01*
X149144237Y-102447317D01*
X149469250Y-102358282D01*
X149623935Y-102311868D01*
X150006265Y-102208308D01*
X150399420Y-102126657D01*
X150768801Y-102073046D01*
X151079807Y-102053602D01*
X151081929Y-102053600D01*
X151274108Y-102053600D01*
X151306492Y-102396500D01*
X151323248Y-102630632D01*
X151335078Y-102903948D01*
X151339238Y-103136440D01*
X151348358Y-103400517D01*
X151378732Y-103577777D01*
X151435735Y-103681754D01*
X151524740Y-103725981D01*
X151574934Y-103730001D01*
X151694156Y-103687266D01*
X151853645Y-103566111D01*
X152044648Y-103377109D01*
X152258415Y-103130834D01*
X152486196Y-102837859D01*
X152719239Y-102508758D01*
X152948794Y-102154104D01*
X153125580Y-101856394D01*
X153290718Y-101584982D01*
X153442202Y-101388136D01*
X153603023Y-101245662D01*
X153796176Y-101137365D01*
X154044653Y-101043052D01*
X154055865Y-101039351D01*
X154338567Y-100959920D01*
X154655902Y-100893129D01*
X154990134Y-100840345D01*
X155323523Y-100802935D01*
X155638332Y-100782265D01*
X155916823Y-100779701D01*
X156141256Y-100796609D01*
X156293895Y-100834356D01*
X156339771Y-100863429D01*
X156388166Y-100920391D01*
X156411595Y-100985118D01*
X156410051Y-101080993D01*
X156383525Y-101231402D01*
X156339558Y-101427228D01*
X156295891Y-101673876D01*
X156268607Y-101950298D01*
X156257724Y-102231970D01*
X156263259Y-102494365D01*
X156285232Y-102712955D01*
X156323660Y-102863213D01*
X156338482Y-102891424D01*
X156397866Y-102961920D01*
X156464685Y-102985314D01*
X156552731Y-102955383D01*
X156675793Y-102865902D01*
X156847661Y-102710651D01*
X156944153Y-102618105D01*
X157311600Y-102225936D01*
X157672376Y-101774280D01*
X157995980Y-101302416D01*
X158102874Y-101125953D01*
X158274558Y-100847609D01*
X158426875Y-100645786D01*
X158578605Y-100502839D01*
X158748525Y-100401120D01*
X158955414Y-100322985D01*
X158958299Y-100322088D01*
X159379188Y-100207672D01*
X159873550Y-100100260D01*
X160413287Y-100004412D01*
X160970300Y-99924692D01*
X161516492Y-99865661D01*
X161960107Y-99834727D01*
X162598415Y-99803895D01*
X162709407Y-99944999D01*
X162803165Y-100143705D01*
X162807592Y-100381380D01*
X162744200Y-100597965D01*
X162684020Y-100814053D01*
X162672670Y-101034039D01*
X162705788Y-101233318D01*
X162779015Y-101387289D01*
X162887992Y-101471348D01*
X162899549Y-101474680D01*
X163034254Y-101458888D01*
X163207231Y-101359526D01*
X163411065Y-101183771D01*
X163638338Y-100938800D01*
X163881635Y-100631792D01*
X164114515Y-100298806D01*
X164277732Y-100058588D01*
X164398766Y-99898051D01*
X164486148Y-99808835D01*
X164548409Y-99782585D01*
X164594079Y-99810940D01*
X164601493Y-99821667D01*
X164640841Y-99932924D01*
X164648422Y-100001027D01*
X164685166Y-100115425D01*
X164749391Y-100198126D01*
X164883541Y-100256423D01*
X165099548Y-100261334D01*
X165399482Y-100212852D01*
X165473879Y-100195754D01*
X165612758Y-100162470D01*
X165589000Y-101774200D01*
X165706092Y-101790800D01*
X165779383Y-101787539D01*
X165868445Y-101753530D01*
X165982471Y-101681553D01*
X166130649Y-101564389D01*
X166322169Y-101394816D01*
X166566223Y-101165615D01*
X166844581Y-100896335D01*
X167056472Y-100694141D01*
X167246614Y-100521281D01*
X167402146Y-100388766D01*
X167510204Y-100307610D01*
X167555781Y-100287412D01*
X167609683Y-100348684D01*
X167637074Y-100444618D01*
X167684403Y-100551299D01*
X167794815Y-100589500D01*
X167970943Y-100558787D01*
X168215421Y-100458728D01*
X168510000Y-100301000D01*
X168711672Y-100187671D01*
X168884392Y-100096457D01*
X169007358Y-100037986D01*
X169056100Y-100021926D01*
X169103281Y-100067926D01*
X169114067Y-100203070D01*
X169089529Y-100422061D01*
X169030736Y-100719602D01*
X168938761Y-101090398D01*
X168814673Y-101529151D01*
X168659544Y-102030566D01*
X168633937Y-102110009D01*
X168534643Y-102426147D01*
X168447473Y-102722023D01*
X168377304Y-102979567D01*
X168329010Y-103180708D01*
X168307469Y-103307378D01*
X168306800Y-103322417D01*
X168316323Y-103457846D01*
X168356950Y-103525876D01*
X168433800Y-103556740D01*
X168565919Y-103572559D01*
X168700464Y-103545177D01*
X168857809Y-103466020D01*
X169058329Y-103326510D01*
X169151874Y-103254486D01*
X169508770Y-102939800D01*
X169894650Y-102532158D01*
X170310975Y-102029996D01*
X170391456Y-101926600D01*
X170678844Y-101565877D01*
X170988338Y-101198216D01*
X171307472Y-100836874D01*
X171623778Y-100495106D01*
X171924790Y-100186169D01*
X172198038Y-99923318D01*
X172431057Y-99719809D01*
X172556442Y-99624658D01*
X172749291Y-99529231D01*
X172913815Y-99526770D01*
X173043654Y-99616997D01*
X173065404Y-99646908D01*
X173092039Y-99692534D01*
X173109161Y-99743819D01*
X173115271Y-99813825D01*
X173108872Y-99915610D01*
X173088467Y-100062235D01*
X173052557Y-100266761D01*
X172999645Y-100542247D01*
X172928234Y-100901754D01*
X172912497Y-100980408D01*
X172822137Y-101441680D01*
X172754430Y-101812519D01*
X172708581Y-102101348D01*
X172683797Y-102316591D01*
X172679282Y-102466673D01*
X172694244Y-102560016D01*
X172727888Y-102605046D01*
X172758664Y-102612400D01*
X172829573Y-102576255D01*
X172953289Y-102476930D01*
X173116155Y-102328091D01*
X173304515Y-102143402D01*
X173504713Y-101936529D01*
X173703091Y-101721137D01*
X173885994Y-101510892D01*
X174002455Y-101367800D01*
X174145222Y-101179828D01*
X174320835Y-100939858D01*
X174505771Y-100680421D01*
X174657926Y-100461291D01*
X174849451Y-100184171D01*
X175000836Y-99980280D01*
X175128430Y-99838401D01*
X175248586Y-99747315D01*
X175377654Y-99695806D01*
X175531985Y-99672656D01*
X175727930Y-99666647D01*
X175816397Y-99666525D01*
X176080801Y-99671604D01*
X176398967Y-99684871D01*
X176723593Y-99704078D01*
X176917400Y-99718831D01*
X177328162Y-99756397D01*
X177648024Y-99794624D01*
X177887572Y-99838959D01*
X178057393Y-99894852D01*
X178168074Y-99967752D01*
X178230201Y-100063107D01*
X178254360Y-100186367D01*
X178251139Y-100342980D01*
X178245902Y-100402600D01*
X178222799Y-100550245D01*
X178176837Y-100773473D01*
X178113088Y-101050178D01*
X178036623Y-101358260D01*
X177960506Y-101646363D01*
X177879560Y-101953484D01*
X177809161Y-102239468D01*
X177753667Y-102485062D01*
X177717430Y-102671016D01*
X177704800Y-102776663D01*
X177712219Y-102902183D01*
X177748901Y-102955950D01*
X177836483Y-102967527D01*
X177844500Y-102967524D01*
X178030303Y-102925253D01*
X178262875Y-102803347D01*
X178533880Y-102607533D01*
X178834987Y-102343537D01*
X179025600Y-102155853D01*
X179302887Y-101885130D01*
X179537115Y-101686425D01*
X179742662Y-101547948D01*
X179813000Y-101510275D01*
X180019283Y-101400295D01*
X180254642Y-101264165D01*
X180445807Y-101145551D01*
X180652065Y-101020385D01*
X180792330Y-100961005D01*
X180878448Y-100967905D01*
X180922267Y-101041575D01*
X180935341Y-101165886D01*
X180942086Y-101342949D01*
X180959120Y-101441421D01*
X180997425Y-101484308D01*
X181067986Y-101494617D01*
X181092361Y-101494800D01*
X181282722Y-101457860D01*
X181512965Y-101344882D01*
X181788637Y-101152627D01*
X182048200Y-100937307D01*
X182305626Y-100718581D01*
X182516706Y-100561925D01*
X182706565Y-100457199D01*
X182900326Y-100394262D01*
X183123115Y-100362973D01*
X183400054Y-100353191D01*
X183496000Y-100352931D01*
X183807761Y-100359871D01*
X184037545Y-100379099D01*
X184176777Y-100409815D01*
X184194734Y-100418219D01*
X184276670Y-100496096D01*
X184376515Y-100635137D01*
X184462165Y-100785513D01*
X184548987Y-100942591D01*
X184632342Y-101040354D01*
X184730078Y-101080242D01*
X184860048Y-101063694D01*
X185040101Y-100992150D01*
X185288088Y-100867051D01*
X185312646Y-100854113D01*
X185525790Y-100744766D01*
X185678341Y-100677874D01*
X185797784Y-100645240D01*
X185911600Y-100638671D01*
X186010600Y-100646001D01*
X186167703Y-100674547D01*
X186396135Y-100731867D01*
X186672268Y-100810598D01*
X186972476Y-100903375D01*
X187273132Y-101002833D01*
X187550608Y-101101608D01*
X187781278Y-101192335D01*
X187827779Y-101212416D01*
X187979763Y-101281237D01*
X188087173Y-101343622D01*
X188155565Y-101417131D01*
X188190498Y-101519322D01*
X188197529Y-101667753D01*
X188182215Y-101879983D01*
X188150116Y-102173569D01*
X188145335Y-102215667D01*
X188115392Y-102519705D01*
X188092762Y-102828729D01*
X188079447Y-103108994D01*
X188077447Y-103326758D01*
X188078133Y-103349000D01*
X188087041Y-103550657D01*
X188100449Y-103672340D01*
X188126430Y-103735611D01*
X188173053Y-103762033D01*
X188236383Y-103771792D01*
X188364742Y-103765858D01*
X188486667Y-103709309D01*
X188615533Y-103590810D01*
X188764710Y-103399023D01*
X188882654Y-103223924D01*
X189000395Y-103048422D01*
X189099846Y-102910713D01*
X189167130Y-102829478D01*
X189185956Y-102815600D01*
X189258510Y-102858432D01*
X189321304Y-102990619D01*
X189376770Y-103217703D01*
X189386815Y-103272800D01*
X189438478Y-103547555D01*
X189485004Y-103735787D01*
X189533010Y-103851889D01*
X189589110Y-103910256D01*
X189659918Y-103925283D01*
X189685797Y-103923402D01*
X189755343Y-103902972D01*
X189820553Y-103848107D01*
X189894286Y-103742053D01*
X189989399Y-103568058D01*
X190049200Y-103449931D01*
X190159833Y-103212316D01*
X190285085Y-102917993D01*
X190408442Y-102606970D01*
X190500038Y-102357731D01*
X190643766Y-101963194D01*
X190771623Y-101651693D01*
X190892380Y-101407698D01*
X191014806Y-101215677D01*
X191147668Y-101060100D01*
X191299738Y-100925435D01*
X191315815Y-100912924D01*
X191724986Y-100553201D01*
X192047812Y-100167061D01*
X192274912Y-99786317D01*
X192489453Y-99310129D01*
X192625809Y-98879643D01*
X192684709Y-98476573D01*
X192666885Y-98082632D01*
X192573067Y-97679534D01*
X192403988Y-97248992D01*
X192378533Y-97194314D01*
X192133039Y-96791016D01*
X191806004Y-96438553D01*
X191420799Y-96157279D01*
X191066958Y-95963885D01*
X190628608Y-95751720D01*
X190119983Y-95525931D01*
X189555319Y-95291670D01*
X188948849Y-95054085D01*
X188314809Y-94818325D01*
X187667434Y-94589540D01*
X187020957Y-94372880D01*
X186389614Y-94173494D01*
X185787638Y-93996531D01*
X185229266Y-93847140D01*
X184728731Y-93730472D01*
X184689800Y-93722331D01*
X184316738Y-93644026D01*
X183917124Y-93558330D01*
X183524090Y-93472468D01*
X183170771Y-93393665D01*
X182937200Y-93340146D01*
X182609608Y-93266467D01*
X182266403Y-93195147D01*
X181894733Y-93123956D01*
X181481745Y-93050660D01*
X181014586Y-92973031D01*
X180480406Y-92888835D01*
X179866351Y-92795843D01*
X179432000Y-92731634D01*
X179077776Y-92678880D01*
X178748029Y-92628298D01*
X178458993Y-92582493D01*
X178226901Y-92544073D01*
X178067985Y-92515645D01*
X178009600Y-92503246D01*
X177831754Y-92466007D01*
X177562291Y-92421389D01*
X177210836Y-92370514D01*
X176787015Y-92314501D01*
X176300454Y-92254471D01*
X175760779Y-92191543D01*
X175177617Y-92126837D01*
X174560593Y-92061473D01*
X173919334Y-91996572D01*
X173263465Y-91933254D01*
X172602613Y-91872638D01*
X172548600Y-91867831D01*
X171522895Y-91773969D01*
X170578525Y-91681459D01*
X169695285Y-91588081D01*
X168852972Y-91491616D01*
X168031383Y-91389844D01*
X167240000Y-91284623D01*
X166722686Y-91213683D01*
X166288617Y-91154519D01*
X165920370Y-91105145D01*
X165600525Y-91063577D01*
X165311662Y-91027831D01*
X165036361Y-90995923D01*
X164757200Y-90965868D01*
X164456759Y-90935681D01*
X164117618Y-90903379D01*
X163722355Y-90866977D01*
X163253552Y-90824491D01*
X162998200Y-90801436D01*
X162197703Y-90727522D01*
X161478861Y-90657274D01*
X160821913Y-90588278D01*
X160207095Y-90518120D01*
X159614645Y-90444385D01*
X159024801Y-90364660D01*
X158417800Y-90276530D01*
X157773880Y-90177583D01*
X157384800Y-90115745D01*
X156919627Y-90042648D01*
X156414536Y-89965997D01*
X155898304Y-89889977D01*
X155399711Y-89818770D01*
X154947537Y-89756562D01*
X154614753Y-89713072D01*
X153769653Y-89596995D01*
X152999245Y-89469713D01*
X152276764Y-89325360D01*
X151575444Y-89158072D01*
X150868517Y-88961984D01*
X150129218Y-88731232D01*
X150120400Y-88728347D01*
X149822464Y-88635745D01*
X149510476Y-88547087D01*
X149220382Y-88472116D01*
X148988133Y-88420575D01*
X148977400Y-88418548D01*
X148507235Y-88327993D01*
X148102497Y-88242190D01*
X147738197Y-88153957D01*
X147389346Y-88056113D01*
X147030957Y-87941479D01*
X146638041Y-87802874D01*
X146185610Y-87633116D01*
X146012685Y-87566600D01*
X145460430Y-87357686D01*
X144949185Y-87174970D01*
X144462032Y-87014050D01*
X143982051Y-86870523D01*
X143492326Y-86739983D01*
X142975939Y-86618029D01*
X142415970Y-86500257D01*
X141795502Y-86382262D01*
X141097617Y-86259642D01*
X140796459Y-86208891D01*
X140305888Y-86129354D01*
X139865823Y-86063896D01*
X139452538Y-86010033D01*
X139042312Y-85965281D01*
X138611420Y-85927157D01*
X138136140Y-85893177D01*
X137592748Y-85860858D01*
X137344200Y-85847481D01*
X136760039Y-85817824D01*
X136265487Y-85795392D01*
X135848808Y-85780179D01*
X135498268Y-85772176D01*
X135202133Y-85771375D01*
X134948669Y-85777769D01*
X134726142Y-85791348D01*
X134522816Y-85812106D01*
X134326958Y-85840034D01*
X134294142Y-85845398D01*
X133977200Y-85894060D01*
X133579617Y-85948839D01*
X133121999Y-86007337D01*
X132624946Y-86067157D01*
X132109063Y-86125902D01*
X131594953Y-86181177D01*
X131103219Y-86230583D01*
X130654463Y-86271724D01*
X130562400Y-86279523D01*
X130197640Y-86314316D01*
X129797743Y-86359780D01*
X129402930Y-86410902D01*
X129053423Y-86462666D01*
X128936800Y-86482169D01*
X128699520Y-86523152D01*
X128381482Y-86577404D01*
X128002169Y-86641638D01*
X127581065Y-86712567D01*
X127137655Y-86786904D01*
X126691420Y-86861364D01*
X126523800Y-86889233D01*
X125956406Y-86984569D01*
X125472233Y-87068974D01*
X125053991Y-87146355D01*
X124684391Y-87220618D01*
X124346143Y-87295667D01*
X124021956Y-87375410D01*
X123694541Y-87463751D01*
X123346608Y-87564597D01*
X122960867Y-87681853D01*
X122815400Y-87726971D01*
X122492387Y-87827184D01*
X122205630Y-87915088D01*
X121940933Y-87994612D01*
X121684101Y-88069686D01*
X121420938Y-88144241D01*
X121137251Y-88222208D01*
X120818844Y-88307515D01*
X120451522Y-88404093D01*
X120021090Y-88515872D01*
X119513352Y-88646783D01*
X119231098Y-88719346D01*
X118782477Y-88835426D01*
X118322338Y-88955957D01*
X117870955Y-89075525D01*
X117448599Y-89188716D01*
X117075544Y-89290116D01*
X116772062Y-89374311D01*
X116668749Y-89403663D01*
X116208175Y-89534410D01*
X115798572Y-89647011D01*
X115413960Y-89747958D01*
X115028360Y-89843738D01*
X114615794Y-89940841D01*
X114150282Y-90045757D01*
X113722200Y-90139697D01*
X113337083Y-90226767D01*
X112901351Y-90330859D01*
X112429402Y-90448074D01*
X111935635Y-90574514D01*
X111434448Y-90706279D01*
X110940240Y-90839470D01*
X110467408Y-90970190D01*
X110030352Y-91094538D01*
X109643469Y-91208617D01*
X109321158Y-91308526D01*
X109077818Y-91390368D01*
X109008870Y-91415989D01*
X108573884Y-91582794D01*
X108208389Y-91718225D01*
X107888121Y-91829510D01*
X107588814Y-91923877D01*
X107286205Y-92008553D01*
X106956028Y-92090766D01*
X106574019Y-92177744D01*
X106127600Y-92274225D01*
X105945242Y-92306467D01*
X105699597Y-92338412D01*
X105384016Y-92370634D01*
X104991849Y-92403705D01*
X104516447Y-92438197D01*
X103951160Y-92474684D01*
X103460600Y-92503911D01*
X103034777Y-92529753D01*
X102696571Y-92554557D01*
X102432087Y-92581585D01*
X102227434Y-92614099D01*
X102068718Y-92655362D01*
X101942046Y-92708636D01*
X101833526Y-92777184D01*
X101729265Y-92864269D01*
X101663959Y-92925822D01*
X101405331Y-93190806D01*
X101135117Y-93494571D01*
X100866510Y-93819780D01*
X100612703Y-94149097D01*
X100386891Y-94465187D01*
X100202265Y-94750711D01*
X100072019Y-94988334D01*
X100041273Y-95058091D01*
X100010378Y-95191601D01*
X99986836Y-95409549D01*
X99970311Y-95697025D01*
X99960463Y-96039116D01*
X99956955Y-96420910D01*
X99959449Y-96827495D01*
X99967606Y-97243960D01*
X99981089Y-97655392D01*
X99999559Y-98046880D01*
X100022678Y-98403511D01*
X100050109Y-98710374D01*
X100081512Y-98952557D01*
X100116550Y-99115147D01*
X100134277Y-99160014D01*
X100246018Y-99263347D01*
X100447359Y-99329114D01*
X100733384Y-99357018D01*
X101099175Y-99346762D01*
X101539815Y-99298049D01*
X101784200Y-99259600D01*
X102124113Y-99203671D01*
X102370290Y-99171306D01*
X102528643Y-99166258D01*
X102605086Y-99192279D01*
X102605531Y-99253123D01*
X102535891Y-99352542D01*
X102402079Y-99494288D01*
X102304900Y-99590064D01*
X101911200Y-99934388D01*
X101505400Y-100216062D01*
X101108724Y-100420854D01*
X101005564Y-100461256D01*
X100703905Y-100590944D01*
X100474641Y-100742593D01*
X100288567Y-100938310D01*
X100190562Y-101078173D01*
X99983412Y-101452009D01*
X99819726Y-101866177D01*
X99694350Y-102337756D01*
X99602129Y-102883824D01*
X99574064Y-103120400D01*
X99542141Y-103371969D01*
X99494693Y-103686547D01*
X99437578Y-104027819D01*
X99376655Y-104359471D01*
X99362591Y-104431219D01*
X99292118Y-104808739D01*
X99249775Y-105102928D01*
X99236347Y-105328309D01*
X99252621Y-105499403D01*
X99299384Y-105630731D01*
X99377423Y-105736816D01*
X99436280Y-105791621D01*
X99520634Y-105857283D01*
X99599648Y-105895471D01*
X99701416Y-105911304D01*
X99854028Y-105909901D01*
X100030392Y-105899886D01*
X100320793Y-105866331D01*
X100670491Y-105797185D01*
X101093341Y-105689533D01*
X101276200Y-105637890D01*
X101559355Y-105559562D01*
X101818861Y-105494121D01*
X102034587Y-105446164D01*
X102186402Y-105420286D01*
X102241400Y-105417496D01*
X102326961Y-105430328D01*
X102372294Y-105465274D01*
X102389966Y-105547944D01*
X102392546Y-105703948D01*
X102392455Y-105725289D01*
X102387476Y-105887134D01*
X102363073Y-105998337D01*
X102302309Y-106095643D01*
X102188244Y-106215795D01*
X102148417Y-106254678D01*
X102015537Y-106396559D01*
X101877861Y-106571179D01*
X101729577Y-106788141D01*
X101564873Y-107057050D01*
X101377936Y-107387509D01*
X101162954Y-107789123D01*
X100914115Y-108271495D01*
X100842673Y-108412276D01*
X100285588Y-109513152D01*
X100386964Y-110368076D01*
X100433586Y-110769374D01*
X100465193Y-111081153D01*
X100479418Y-111314704D01*
X100473893Y-111481320D01*
X100446249Y-111592292D01*
X100394117Y-111658910D01*
X100315129Y-111692467D01*
X100206917Y-111704254D01*
X100106419Y-111705600D01*
X99891770Y-111686944D01*
X99599428Y-111634280D01*
X99245527Y-111552571D01*
X98846205Y-111446776D01*
X98417597Y-111321857D01*
X97975841Y-111182774D01*
X97537071Y-111034488D01*
X97117425Y-110881960D01*
X96733038Y-110730150D01*
X96400046Y-110584020D01*
X96297800Y-110534723D01*
X96085170Y-110432716D01*
X95900237Y-110350560D01*
X95765158Y-110297702D01*
X95706929Y-110282845D01*
X95614394Y-110327326D01*
X95503427Y-110444238D01*
X95388225Y-110609791D01*
X95282984Y-110800197D01*
X95201901Y-110991667D01*
X95159173Y-111160413D01*
X95155915Y-111206146D01*
X95143747Y-111343900D01*
X95101460Y-111451550D01*
X95016557Y-111535734D01*
X94876539Y-111603091D01*
X94668908Y-111660258D01*
X94381165Y-111713875D01*
X94127061Y-111752606D01*
X93595251Y-111847784D01*
X93153188Y-111968097D01*
X92791252Y-112117499D01*
X92499822Y-112299944D01*
X92273695Y-112514211D01*
X92141489Y-112709258D01*
X92086372Y-112911620D01*
X92102678Y-113151057D01*
X92129688Y-113270707D01*
X92182734Y-113513602D01*
X92204810Y-113735683D01*
X92193470Y-113961031D01*
X92146271Y-114213729D01*
X92060767Y-114517860D01*
X91977183Y-114773163D01*
X91745967Y-115454689D01*
X91769611Y-115555651D01*
X110528630Y-115555651D01*
X110556884Y-115335229D01*
X110632792Y-115166685D01*
X110760768Y-115035447D01*
X110945224Y-114926944D01*
X110992699Y-114905174D01*
X111169711Y-114812437D01*
X111337187Y-114702366D01*
X111376219Y-114671548D01*
X111457377Y-114607918D01*
X111533112Y-114570104D01*
X111630028Y-114553620D01*
X111774729Y-114553981D01*
X111993821Y-114566700D01*
X111996859Y-114566900D01*
X112231015Y-114588175D01*
X112451442Y-114618341D01*
X112620377Y-114651928D01*
X112657897Y-114662669D01*
X112774569Y-114707772D01*
X112842651Y-114766515D01*
X112885290Y-114869686D01*
X112917201Y-115007600D01*
X112939710Y-115165407D01*
X112959019Y-115395363D01*
X112973219Y-115668025D01*
X112980403Y-115953950D01*
X112980701Y-115987524D01*
X112981813Y-116252701D01*
X112976357Y-116461599D01*
X112957435Y-116633958D01*
X112918147Y-116789519D01*
X112851595Y-116948024D01*
X112750881Y-117129212D01*
X112609107Y-117352825D01*
X112419374Y-117638603D01*
X112386562Y-117687736D01*
X112228067Y-117918451D01*
X112049095Y-118168041D01*
X111860112Y-118423109D01*
X111671583Y-118670260D01*
X111493973Y-118896098D01*
X111337747Y-119087227D01*
X111213370Y-119230251D01*
X111131308Y-119311773D01*
X111107040Y-119325600D01*
X111064899Y-119279332D01*
X111010218Y-119154782D01*
X110950205Y-118973329D01*
X110892064Y-118756353D01*
X110850200Y-118563600D01*
X110827065Y-118409148D01*
X110801302Y-118181105D01*
X110775695Y-117907333D01*
X110753030Y-117615697D01*
X110748073Y-117542081D01*
X110721513Y-117210205D01*
X110684556Y-116850468D01*
X110642031Y-116505543D01*
X110598764Y-116218105D01*
X110597436Y-116210416D01*
X110543618Y-115842522D01*
X110528630Y-115555651D01*
X91769611Y-115555651D01*
X91922634Y-116209045D01*
X92035664Y-116698773D01*
X92125477Y-117109238D01*
X92194537Y-117459475D01*
X92245308Y-117768522D01*
X92280252Y-118055415D01*
X92301834Y-118339192D01*
X92312517Y-118638888D01*
X92314764Y-118973542D01*
X92312810Y-119224000D01*
X92305069Y-119418384D01*
X92288709Y-119577326D01*
X92267088Y-119669579D01*
X92264372Y-119674571D01*
X92176116Y-119726555D01*
X92019170Y-119738632D01*
X91817672Y-119712195D01*
X91595759Y-119648636D01*
X91556439Y-119633727D01*
X91182855Y-119537351D01*
X90794872Y-119529152D01*
X90419917Y-119608090D01*
X90238026Y-119683810D01*
X89940720Y-119876053D01*
X89656204Y-120138930D01*
X89412994Y-120442703D01*
X89266376Y-120697200D01*
X89205099Y-120839888D01*
X89166251Y-120972893D01*
X89144926Y-121126568D01*
X89136218Y-121331266D01*
X89135000Y-121510000D01*
X89137648Y-121761109D01*
X89149061Y-121940901D01*
X89174438Y-122079600D01*
X89218980Y-122207426D01*
X89276290Y-122331114D01*
X89500742Y-122690294D01*
X89779819Y-122963854D01*
X90114718Y-123152596D01*
X90506637Y-123257318D01*
X90692733Y-123276700D01*
X91153671Y-123256064D01*
X91608479Y-123136326D01*
X92061636Y-122916286D01*
X92081400Y-122904407D01*
X92362961Y-122737221D01*
X92575797Y-122622358D01*
X92735872Y-122556016D01*
X92859150Y-122534391D01*
X92961595Y-122553679D01*
X93059170Y-122610077D01*
X93118617Y-122657276D01*
X93206108Y-122747865D01*
X93297023Y-122878698D01*
X93394744Y-123057753D01*
X93502651Y-123293008D01*
X93624126Y-123592443D01*
X93762550Y-123964036D01*
X93921304Y-124415765D01*
X94103769Y-124955609D01*
X94144358Y-125077727D01*
X94305618Y-125560604D01*
X94433370Y-125933570D01*
X115469171Y-125933570D01*
X115807945Y-124979085D01*
X115970261Y-124524554D01*
X116107041Y-124149180D01*
X116225226Y-123835852D01*
X116331759Y-123567457D01*
X116433582Y-123326884D01*
X116537637Y-123097021D01*
X116650866Y-122860756D01*
X116741304Y-122678400D01*
X116867276Y-122437342D01*
X117034945Y-122132132D01*
X117236322Y-121776093D01*
X117463422Y-121382548D01*
X117708255Y-120964821D01*
X117962835Y-120536235D01*
X118219174Y-120110113D01*
X118469285Y-119699778D01*
X118705180Y-119318554D01*
X118918871Y-118979764D01*
X119102372Y-118696731D01*
X119247696Y-118482778D01*
X119299543Y-118411200D01*
X119887694Y-117706793D01*
X120538981Y-117081609D01*
X121253787Y-116535405D01*
X122032494Y-116067937D01*
X122875485Y-115678963D01*
X123783141Y-115368238D01*
X124288600Y-115235658D01*
X124687098Y-115144225D01*
X125116695Y-115050632D01*
X125562700Y-114957644D01*
X126010424Y-114868029D01*
X126445175Y-114784554D01*
X126852264Y-114709985D01*
X127216999Y-114647089D01*
X127524692Y-114598633D01*
X127760650Y-114567384D01*
X127895400Y-114556368D01*
X127979830Y-114571494D01*
X128138261Y-114615020D01*
X128349238Y-114680554D01*
X128591306Y-114761700D01*
X128632000Y-114775885D01*
X128943859Y-114885080D01*
X129292096Y-115006840D01*
X129629003Y-115124493D01*
X129851200Y-115201976D01*
X130161546Y-115305753D01*
X130448852Y-115390742D01*
X130735703Y-115461703D01*
X131044684Y-115523397D01*
X131398382Y-115580584D01*
X131819382Y-115638026D01*
X132065533Y-115668739D01*
X132592866Y-115735170D01*
X133028553Y-115795442D01*
X133382182Y-115852009D01*
X133663340Y-115907329D01*
X133881616Y-115963857D01*
X134046597Y-116024048D01*
X134167872Y-116090360D01*
X134255027Y-116165247D01*
X134313797Y-116244626D01*
X134386346Y-116396839D01*
X134448648Y-116598277D01*
X134501812Y-116857318D01*
X134546951Y-117182342D01*
X134585174Y-117581727D01*
X134600571Y-117810719D01*
X136565839Y-117810719D01*
X136575990Y-117672841D01*
X136580623Y-117654168D01*
X136649421Y-117570834D01*
X136785419Y-117551243D01*
X136992657Y-117595575D01*
X137226551Y-117683107D01*
X137547634Y-117838407D01*
X137779638Y-117998022D01*
X137934973Y-118171012D01*
X137966553Y-118223327D01*
X137991415Y-118277478D01*
X138011205Y-118346606D01*
X138026483Y-118442057D01*
X138037810Y-118575177D01*
X138045747Y-118757313D01*
X138050854Y-118999812D01*
X138052967Y-119233812D01*
X139799286Y-119233812D01*
X139817972Y-119103393D01*
X139872958Y-119035507D01*
X139939292Y-119020800D01*
X140014031Y-119042179D01*
X140156528Y-119099864D01*
X140343938Y-119184184D01*
X140489017Y-119253582D01*
X140964246Y-119486364D01*
X141563729Y-119481733D01*
X142249095Y-119444896D01*
X143008455Y-119345068D01*
X143836917Y-119183287D01*
X144729590Y-118960587D01*
X145681581Y-118678006D01*
X146259600Y-118486871D01*
X146810001Y-118291413D01*
X147278143Y-118108549D01*
X147681184Y-117929926D01*
X148036281Y-117747188D01*
X148360591Y-117551983D01*
X148671272Y-117335956D01*
X148759225Y-117269784D01*
X149210123Y-116969884D01*
X149753082Y-116686463D01*
X150379460Y-116422541D01*
X151080614Y-116181133D01*
X151847903Y-115965257D01*
X152672682Y-115777931D01*
X153422400Y-115641801D01*
X153752257Y-115587858D01*
X154093836Y-115530906D01*
X154414345Y-115476480D01*
X154680995Y-115430119D01*
X154768600Y-115414464D01*
X155063811Y-115363226D01*
X155278964Y-115332426D01*
X155433307Y-115321048D01*
X155546092Y-115328074D01*
X155636567Y-115352489D01*
X155670647Y-115366816D01*
X155764350Y-115424927D01*
X155844005Y-115516635D01*
X155921018Y-115660881D01*
X156006796Y-115876603D01*
X156048719Y-115994628D01*
X156177866Y-116496908D01*
X156207949Y-116981918D01*
X156138401Y-117457292D01*
X155968657Y-117930665D01*
X155894393Y-118080494D01*
X155681914Y-118406092D01*
X155382050Y-118752033D01*
X155204448Y-118921523D01*
X179752497Y-118921523D01*
X179757068Y-118686019D01*
X179834642Y-118236784D01*
X179968858Y-117799943D01*
X180149295Y-117401325D01*
X180365533Y-117066758D01*
X180451071Y-116965952D01*
X180654126Y-116785998D01*
X180907727Y-116618979D01*
X181174069Y-116486555D01*
X181415351Y-116410384D01*
X181423223Y-116408942D01*
X181656723Y-116411778D01*
X181869568Y-116494484D01*
X182030927Y-116643980D01*
X182051168Y-116675346D01*
X182137113Y-116786489D01*
X182224211Y-116850312D01*
X182230884Y-116852397D01*
X182353672Y-116836689D01*
X182530938Y-116743115D01*
X182756567Y-116575369D01*
X182911800Y-116441389D01*
X183207480Y-116196904D01*
X183479028Y-116028219D01*
X183749784Y-115929492D01*
X184043088Y-115894880D01*
X184382282Y-115918541D01*
X184740600Y-115983646D01*
X184913064Y-116031789D01*
X185133206Y-116108116D01*
X185356941Y-116197193D01*
X185383829Y-116208834D01*
X185572614Y-116287685D01*
X185731503Y-116347180D01*
X185833315Y-116377355D01*
X185848628Y-116379200D01*
X185948933Y-116414412D01*
X186097971Y-116509671D01*
X186276614Y-116649411D01*
X186465731Y-116818066D01*
X186646195Y-117000070D01*
X186735095Y-117100537D01*
X187005001Y-117490245D01*
X187175688Y-117899576D01*
X187246684Y-118326361D01*
X187217520Y-118768433D01*
X187154423Y-119031322D01*
X187042591Y-119348470D01*
X186901433Y-119669335D01*
X186743584Y-119970539D01*
X186581680Y-120228703D01*
X186428359Y-120420448D01*
X186377377Y-120468989D01*
X186094496Y-120653669D01*
X185729403Y-120793027D01*
X185280555Y-120887209D01*
X184746409Y-120936364D01*
X184125423Y-120940639D01*
X183416053Y-120900180D01*
X182675233Y-120822483D01*
X182186228Y-120754343D01*
X181781253Y-120678560D01*
X181442737Y-120587914D01*
X181153113Y-120475190D01*
X180894809Y-120333168D01*
X180650257Y-120154631D01*
X180401886Y-119932361D01*
X180324837Y-119856902D01*
X180074669Y-119589923D01*
X179901939Y-119357508D01*
X179797573Y-119140946D01*
X179752497Y-118921523D01*
X155204448Y-118921523D01*
X155005334Y-119111541D01*
X154562295Y-119477842D01*
X154063465Y-119844159D01*
X153519372Y-120203718D01*
X152940549Y-120549743D01*
X152337525Y-120875459D01*
X151720832Y-121174090D01*
X151100998Y-121438861D01*
X150488556Y-121662997D01*
X150171200Y-121762808D01*
X149992914Y-121822470D01*
X149747746Y-121914224D01*
X149461259Y-122028015D01*
X149159017Y-122153790D01*
X148977400Y-122232294D01*
X148512425Y-122434345D01*
X148116839Y-122600660D01*
X147768464Y-122739525D01*
X147445122Y-122859226D01*
X147124634Y-122968049D01*
X146784822Y-123074281D01*
X146494249Y-123160047D01*
X146142055Y-123266386D01*
X145741421Y-123394260D01*
X145338653Y-123528520D01*
X144980056Y-123654012D01*
X144938407Y-123669144D01*
X144290562Y-123899013D01*
X143729176Y-124083435D01*
X143250323Y-124223359D01*
X142850073Y-124319737D01*
X142524501Y-124373516D01*
X142269677Y-124385647D01*
X142086736Y-124358626D01*
X141885450Y-124257219D01*
X141665710Y-124075233D01*
X141442728Y-123827949D01*
X141231715Y-123530647D01*
X141182670Y-123450391D01*
X141042260Y-123183681D01*
X140884984Y-122833295D01*
X140716422Y-122414647D01*
X140542153Y-121943150D01*
X140367758Y-121434217D01*
X140198814Y-120903262D01*
X140040902Y-120365700D01*
X139962817Y-120080480D01*
X139871531Y-119714335D01*
X139817080Y-119434786D01*
X139799286Y-119233812D01*
X138052967Y-119233812D01*
X138053692Y-119314020D01*
X138054821Y-119711282D01*
X138054907Y-120011400D01*
X138052262Y-120607906D01*
X138043980Y-121119814D01*
X138028954Y-121564022D01*
X138006080Y-121957433D01*
X137974250Y-122316945D01*
X137932358Y-122659459D01*
X137879299Y-123001876D01*
X137847315Y-123183388D01*
X137803357Y-123397175D01*
X137755788Y-123585734D01*
X137713155Y-123716177D01*
X137703135Y-123738061D01*
X137637176Y-123863947D01*
X137549376Y-123729947D01*
X137510458Y-123636348D01*
X137458595Y-123462551D01*
X137398923Y-123228339D01*
X137336577Y-122953493D01*
X137293295Y-122743474D01*
X137231276Y-122435028D01*
X137169269Y-122136734D01*
X137112581Y-121873431D01*
X137066522Y-121669960D01*
X137045966Y-121586042D01*
X136988846Y-121336696D01*
X136929288Y-121025217D01*
X136869004Y-120666058D01*
X136809704Y-120273674D01*
X136753098Y-119862516D01*
X136700897Y-119447039D01*
X136654812Y-119041695D01*
X136616553Y-118660938D01*
X136587831Y-118319221D01*
X136570356Y-118030997D01*
X136565839Y-117810719D01*
X134600571Y-117810719D01*
X134617592Y-118063851D01*
X134645316Y-118637092D01*
X134651512Y-118792200D01*
X134677150Y-119348904D01*
X134709379Y-119829664D01*
X134750907Y-120260063D01*
X134804443Y-120665684D01*
X134872696Y-121072110D01*
X134917799Y-121306800D01*
X134971807Y-121592983D01*
X135009879Y-121841695D01*
X135034696Y-122083417D01*
X135048944Y-122348632D01*
X135055305Y-122667821D01*
X135056422Y-122881600D01*
X135055086Y-123232944D01*
X135048482Y-123502307D01*
X135035107Y-123709237D01*
X135013457Y-123873284D01*
X134982032Y-124013995D01*
X134964819Y-124073231D01*
X134796234Y-124516996D01*
X134565112Y-124946964D01*
X134261251Y-125379261D01*
X133874450Y-125830014D01*
X133809972Y-125898815D01*
X133521508Y-126188438D01*
X133225399Y-126452485D01*
X132912984Y-126694983D01*
X132575601Y-126919961D01*
X132204589Y-127131445D01*
X131791289Y-127333463D01*
X131327039Y-127530043D01*
X130803178Y-127725212D01*
X130211045Y-127922997D01*
X129541979Y-128127427D01*
X128787320Y-128342528D01*
X128225600Y-128495669D01*
X127777595Y-128616576D01*
X127289041Y-128749383D01*
X126789357Y-128886028D01*
X126307959Y-129018450D01*
X125874266Y-129138588D01*
X125609400Y-129212580D01*
X125059044Y-129363159D01*
X124580375Y-129484029D01*
X124149275Y-129579309D01*
X123741626Y-129653114D01*
X123333312Y-129709564D01*
X122900215Y-129752776D01*
X122418218Y-129786868D01*
X122161558Y-129801246D01*
X121338328Y-129829593D01*
X120583966Y-129822107D01*
X119871385Y-129776350D01*
X119173498Y-129689886D01*
X118463219Y-129560277D01*
X117811600Y-129409895D01*
X117262999Y-129266523D01*
X116792050Y-129130657D01*
X116403340Y-129003906D01*
X116101457Y-128887875D01*
X115890987Y-128784174D01*
X115779057Y-128697546D01*
X115744376Y-128605179D01*
X115717417Y-128432556D01*
X115701367Y-128200922D01*
X115700436Y-128173753D01*
X115689262Y-127969134D01*
X115667360Y-127692291D01*
X115637329Y-127371718D01*
X115601772Y-127035913D01*
X115577876Y-126830784D01*
X115469171Y-125933570D01*
X94433370Y-125933570D01*
X94442758Y-125960975D01*
X94561974Y-126293306D01*
X94669463Y-126572062D01*
X94771420Y-126811708D01*
X94874040Y-127026712D01*
X94983521Y-127231537D01*
X95106057Y-127440650D01*
X95247846Y-127668517D01*
X95266907Y-127698529D01*
X95421085Y-127961020D01*
X95583334Y-128270025D01*
X95728333Y-128576104D01*
X95787233Y-128714529D01*
X95894460Y-128974848D01*
X96027122Y-129289208D01*
X96168799Y-129619074D01*
X96303073Y-129925909D01*
X96310560Y-129942800D01*
X96555259Y-130509368D01*
X96754065Y-131005983D01*
X96912458Y-131450348D01*
X97035919Y-131860165D01*
X97129928Y-132253137D01*
X97199967Y-132646965D01*
X97238516Y-132940000D01*
X97290294Y-133318460D01*
X97350689Y-133610353D01*
X97424354Y-133830637D01*
X97515941Y-133994268D01*
X97594562Y-134084412D01*
X97673857Y-134154629D01*
X97751652Y-134199927D01*
X97853372Y-134226871D01*
X98004443Y-134242032D01*
X98230290Y-134251978D01*
X98245221Y-134252498D01*
X98506701Y-134255080D01*
X98742578Y-134239910D01*
X98974150Y-134201884D01*
X99222718Y-134135896D01*
X99509580Y-134036841D01*
X99856036Y-133899612D01*
X100042823Y-133821612D01*
X100312655Y-133709203D01*
X100575356Y-133602410D01*
X100804060Y-133511985D01*
X100971902Y-133448678D01*
X100996800Y-133439870D01*
X101375386Y-133343449D01*
X101824187Y-133286366D01*
X102320353Y-133267190D01*
X102841036Y-133284493D01*
X103363388Y-133336845D01*
X103864561Y-133422815D01*
X104321706Y-133540974D01*
X104667425Y-133669554D01*
X104828775Y-133750626D01*
X105039559Y-133869408D01*
X105265420Y-134006152D01*
X105375570Y-134076591D01*
X105832012Y-134355583D01*
X106355904Y-134643097D01*
X106916082Y-134923190D01*
X107481384Y-135179922D01*
X107756933Y-135294834D01*
X108036212Y-135410303D01*
X108312749Y-135529553D01*
X108557791Y-135639872D01*
X108742582Y-135728551D01*
X108769434Y-135742390D01*
X108894951Y-135806700D01*
X109000860Y-135852647D01*
X109108294Y-135883785D01*
X109238387Y-135903671D01*
X109412271Y-135915859D01*
X109651081Y-135923905D01*
X109880105Y-135929240D01*
X110280710Y-135933555D01*
X110607069Y-135923187D01*
M02*
